<svg id="图层_1" data-name="图层 1"  fill="currentColor" xmlns="http://www.w3.org/2000/svg" viewBox="0 0 200 200"><rect x="3.67" y="42.84" width="76.01" height="51.63" rx="7.82" transform="translate(-36.83 51.71) rotate(-46.56)"/><rect x="120.49" y="42.84" width="76.01" height="51.63" rx="7.82" transform="translate(217.62 230.95) rotate(-133.44)"/><path d="M148.71,25H124.89c-.75,9.89-12.12,17.73-26,17.73S73.58,34.92,72.82,25H52.13a9.09,9.09,0,0,0-9.08,9.08V173.46a9.09,9.09,0,0,0,9.08,9.08h96.58a9.08,9.08,0,0,0,9.08-9.08V34.11A9.08,9.08,0,0,0,148.71,25Z"/></svg>