<svg id="图层_1" data-name="图层 1" xmlns="http://www.w3.org/2000/svg"  fill="currentColor" viewBox="0 0 1000 1000"><path d="M853.333333 640h-42.666666v-128c0-25.6-17.066667-42.666667-42.666667-42.666667h-213.333333V384h42.666666c25.6 0 42.666667-17.066667 42.666667-42.666667V170.666667c0-25.6-17.066667-42.666667-42.666667-42.666667h-170.666666c-25.6 0-42.666667 17.066667-42.666667 42.666667v170.666666c0 25.6 17.066667 42.666667 42.666667 42.666667h42.666666v85.333333H256c-25.6 0-42.666667 17.066667-42.666667 42.666667v128H170.666667c-25.6 0-42.666667 17.066667-42.666667 42.666667v170.666666c0 25.6 17.066667 42.666667 42.666667 42.666667h170.666666c25.6 0 42.666667-17.066667 42.666667-42.666667v-170.666666c0-25.6-17.066667-42.666667-42.666667-42.666667H298.666667v-85.333333h426.666666v85.333333h-42.666666c-25.6 0-42.666667 17.066667-42.666667 42.666667v170.666666c0 25.6 17.066667 42.666667 42.666667 42.666667h170.666666c25.6 0 42.666667-17.066667 42.666667-42.666667v-170.666666c0-25.6-17.066667-42.666667-42.666667-42.666667z" /></svg>