<?xml version="1.0" encoding="UTF-8"?>
<svg width="14px" height="14px" viewBox="0 0 14 14" version="1.1" xmlns="http://www.w3.org/2000/svg" xmlns:xlink="http://www.w3.org/1999/xlink">
    <title>实验器材</title>
    <g id="版本3" stroke="none" stroke-width="1" fill="none" fill-rule="evenodd">
        <g id="画板1" transform="translate(-29.000000, -805.000000)" fill="#000000" fill-rule="nonzero">
            <g id="菜单" transform="translate(0.000000, 52.000000)">
                <g id="编组-15" transform="translate(4.000000, 562.000000)">
                    <g id="编组-14" transform="translate(0.000000, 180.000000)">
                        <g id="编组-3" transform="translate(20.000000, 6.000000)">
                            <g id="实验器材" transform="translate(5.000000, 5.000000)">
                                <path d="M14,3.09000001 L13.64,3.45 L13.64,12.19 C13.409384,13.2476364 12.4724864,14.0013185 11.39,14.0000017 L11.34,14.0000017 C10.2716075,13.926602 9.35044112,13.2219491 9,12.21 L9,3.48 L8.52,3.09000001 L8.86,2.91 L13.68,2.91 L14,3.09000001 Z M9.71999999,3.90999999 L9.71999999,12.19 C10.0417185,12.8411742 10.67708,13.2798762 11.4,13.35 C12.0726629,13.2622734 12.6458992,12.8189707 12.9,12.19 L12.9,3.90999999 L9.71999999,3.90999999 Z M10.13,9.74000001 L12.46,9.74000001 L12.46,11.85 C12.3497062,12.4255748 11.8242275,12.8261446 11.24,12.78 C10.7123562,12.7182876 10.2660314,12.3612278 10.09,11.86 L10.09,9.76 L10.13,9.74000001 Z M3.41999999,0 L7.91,0 L7.91,1 L7.72,1 L7.72,5.13 L8.56,6.55 L8.56,8.22 L6.91999999,5.34 L6.91999999,1 L4.39999999,1 L4.39999999,5.32 L0.899999994,12 C0.800605863,12.2122745 0.800605863,12.4577255 0.899999994,12.67 C1.05906947,12.9170169 1.31871897,13.0815835 1.61,13.12 L9,13.12 L10,14 L1.59,14 C0.240000004,13.64 0,12.89 0,12.43 C0,11.43 1.23,9.31999999 3.66,5.13 L3.66,1 L3.43,1 L3.43,0 L3.41999999,0 Z M8.08,9.76 L8.59999999,10.45 L8.59999999,12.29 L2.99999999,12.31 C2.46,12.1966667 2.23,11.8966667 2.31,11.41 C2.4531549,10.827583 2.6859312,10.270944 2.99999999,9.76 L8.08,9.76 Z" id="形状"></path>
                            </g>
                        </g>
                    </g>
                </g>
            </g>
        </g>
    </g>
</svg>