<?xml version="1.0" encoding="UTF-8"?>
<svg width="48px" height="48px" viewBox="0 0 48 48" version="1.1" xmlns="http://www.w3.org/2000/svg" xmlns:xlink="http://www.w3.org/1999/xlink">
    <title>编组 5备份 3</title>
    <g id="首页" stroke="none" stroke-width="1" fill="none" fill-rule="evenodd">
        <g id="主页备份-8" transform="translate(-1226.000000, -644.000000)">
            <g id="编组-6备份-4" transform="translate(1209.999067, 620.000000)">
                <g id="编组-5备份-3" transform="translate(16.000933, 24.000000)">
                    <rect id="矩形" stroke-opacity="0.0770920974" stroke="#52C41A" fill-opacity="0.02" fill="#000000" x="0.5" y="0.5" width="47" height="47" rx="4"></rect>
                    <g id="应用资料" transform="translate(12.000000, 12.000000)" fill-rule="nonzero">
                        <path d="M2.83104511,10.42645 L10.8736341,10.42645 L10.8736341,2.83104511 C10.8736341,1.34155226 9.6833847,0 8.04258896,0 L2.83104511,0 C1.19361166,0 0,1.34155226 0,2.83104511 L0,7.74670776 C0.00336230203,9.23283834 1.19361166,10.42645 2.83104511,10.42645 Z" id="路径" fill="#FF4D4F"></path>
                        <path d="M24,7.74334548 L24,2.83104511 C24,1.34155226 22.8097506,0 21.1689549,0 L15.957411,0 C14.4679182,0 13.1263659,1.19024938 13.1263659,2.83104511 L13.1263659,10.5743906 L21.1689549,10.5743906 C22.8097506,10.42645 24,9.23283834 24,7.74334548 Z" id="路径" fill="#F1C40F"></path>
                        <path d="M15.9405996,23.2333987 L21.3034463,23.2333987 C22.7929392,23.2333987 23.9831886,22.0431493 23.9831886,20.4023536 L23.9831886,15.4900532 C23.9831886,14.0005604 22.7929392,12.6590081 21.1521434,12.6590081 L13.1095545,12.6590081 L13.1095545,20.4023536 C13.1095545,21.8952087 14.2998039,23.2333987 15.9405996,23.2333987 Z" id="路径" fill="#52C41A"></path>
                        <path d="M2.83104511,23.2333987 L8.04258896,23.2333987 C9.53208182,23.2333987 10.8736341,22.0431493 10.8736341,20.4023536 L10.8736341,12.8069487 L2.83104511,12.8069487 C1.34155226,12.8069487 0,13.9971981 0,15.6379938 L0,20.5536565 C0.0033622781,21.8952087 1.19361166,23.2333987 2.83104511,23.2333987 L2.83104511,23.2333987 Z" id="路径" fill="#126EE3"></path>
                    </g>
                </g>
            </g>
        </g>
    </g>
</svg>