<?xml version="1.0" encoding="UTF-8"?>
<svg width="48px" height="48px" viewBox="0 0 48 48" version="1.1" xmlns="http://www.w3.org/2000/svg" xmlns:xlink="http://www.w3.org/1999/xlink">
    <title>首页icon/数据集</title>
    <g id="首页" stroke="none" stroke-width="1" fill="none" fill-rule="evenodd">
        <g id="主页备份-8" transform="translate(-276.000000, -764.000000)">
            <g id="编组-6备份" transform="translate(260.000000, 740.000000)">
                <g id="编组-5" transform="translate(16.000000, 24.000000)">
                    <rect id="矩形" stroke-opacity="0.1" stroke="#3F4F66" fill-opacity="0.02" fill="#3F4F66" x="0.5" y="0.5" width="47" height="47" rx="4"></rect>
                    <g id="尺子" transform="translate(12.000000, 12.000000)" fill-rule="nonzero">
                        <polygon id="路径" fill="#202425" opacity="0.01" points="0 0 24 0 24 24 0 24"></polygon>
                        <path d="M0.799999992,6.40000001 C0.799999992,5.55130723 1.13714187,4.73737471 1.73725829,4.13725829 C2.33737471,3.53714187 3.15130723,3.19999999 4.00000001,3.19999999 L20,3.19999999 C20.8486928,3.19999999 21.6626253,3.53714187 22.2627417,4.13725829 C22.8628581,4.73737471 23.2,5.55130723 23.2,6.40000001 L23.2,14.4 C23.2,15.2836556 22.4836556,16 21.6,16 L2.4,16 C1.5163444,16 0.799999992,15.2836556 0.799999992,14.4 L0.799999992,6.40000001 Z" id="路径" fill="#3F4F66"></path>
                        <path d="M3.19999999,9.6 C3.19999999,9.1581722 3.55817219,8.8 4,8.8 C4.4418278,8.8 4.8,9.1581722 4.8,9.6 L4.8,12.8 C4.8,13.2418278 4.4418278,13.6 4,13.6 C3.55817219,13.6 3.19999999,13.2418278 3.19999999,12.8 L3.19999999,9.6 L3.19999999,9.6 Z M7.2,12 C7.2,11.5581722 7.5581722,11.2 8,11.2 C8.44182781,11.2 8.80000001,11.5581722 8.80000001,12 L8.80000001,12.8 C8.80000001,13.2418278 8.44182781,13.6 8,13.6 C7.5581722,13.6 7.2,13.2418278 7.2,12.8 L7.2,12 Z M11.2,9.6 C11.2,9.31418752 11.3524791,9.0500859 11.6,8.90717966 C11.8475209,8.76427341 12.1524791,8.76427341 12.4,8.90717966 C12.6475209,9.0500859 12.8,9.31418752 12.8,9.6 L12.8,12.8 C12.8,13.0858125 12.6475209,13.3499141 12.4,13.4928203 C12.1524791,13.6357266 11.8475209,13.6357266 11.6,13.4928203 C11.3524791,13.3499141 11.2,13.0858125 11.2,12.8 L11.2,9.6 L11.2,9.6 Z M19.2,9.6 C19.2,9.31418752 19.3524791,9.05008588 19.6,8.90717963 C19.8475209,8.76427339 20.1524792,8.76427339 20.4,8.90717963 C20.6475209,9.05008588 20.8,9.31418752 20.8,9.6 L20.8,12.7999999 C20.8,13.0858125 20.6475209,13.3499141 20.4,13.4928204 C20.1524792,13.6357266 19.8475209,13.6357266 19.6,13.4928204 C19.3524791,13.3499141 19.2,13.0858125 19.2,12.7999999 L19.2,9.6 Z" id="形状" fill="#FFFFFF"></path>
                        <path d="M2.4,17.2 C3.0627417,17.2 3.6,17.7372583 3.6,18.4 L3.6,18.8 L20.4,18.8 L20.4,18.4 C20.4,17.7372583 20.9372583,17.2 21.6,17.2 C22.2627417,17.2 22.8,17.7372583 22.8,18.4 L22.8,21.6 C22.8,22.2627417 22.2627417,22.8 21.6,22.8 C20.9372583,22.8 20.4,22.2627417 20.4,21.6 L20.4,21.2 L3.6,21.2 L3.6,21.6 C3.6,22.2627417 3.0627417,22.8 2.4,22.8 C1.7372583,22.8 1.2,22.2627417 1.2,21.6 L1.2,18.4 C1.2,17.7372583 1.7372583,17.2 2.4,17.2 L2.4,17.2 Z" id="路径" fill="#FFAA45"></path>
                        <path d="M15.2,12 C15.2,11.7141875 15.3524791,11.4500859 15.6,11.3071796 C15.8475208,11.1642734 16.1524791,11.1642734 16.4,11.3071796 C16.6475209,11.4500859 16.8,11.7141875 16.8,12 L16.8,12.8 C16.8,13.0858125 16.6475209,13.3499141 16.4,13.4928204 C16.1524791,13.6357266 15.8475208,13.6357266 15.6,13.4928204 C15.3524791,13.3499141 15.2,13.0858125 15.2,12.8 L15.2,12 Z" id="路径" fill="#FFFFFF"></path>
                        <path d="M4.00000001,8.4 C4.3182598,8.4 4.62348449,8.52642821 4.84852815,8.75147186 C5.0735718,8.97651552 5.20000001,9.28174021 5.20000001,9.6 L5.20000001,12.8 C5.20000001,13.4627417 4.66274171,14 4.00000001,14 C3.33725831,14 2.80000001,13.4627417 2.80000001,12.8 L2.80000001,9.6 C2.80000001,8.9372583 3.33725831,8.4 4.00000001,8.4 L4.00000001,8.4 Z M12,8.4 C12.6627417,8.4 13.2,8.9372583 13.2,9.6 L13.2,12.8 C13.2,13.4627417 12.6627417,13.9999999 12,13.9999999 C11.3372583,13.9999999 10.8,13.4627417 10.8,12.8 L10.8,9.6 C10.8,8.9372583 11.3372583,8.4 12,8.4 L12,8.4 Z M20,8.4 C20.6627417,8.4 21.2,8.9372583 21.2,9.6 L21.2,12.8 C21.2,13.4627417 20.6627417,13.9999999 20,13.9999999 C19.3372583,13.9999999 18.8,13.4627417 18.8,12.8 L18.8,9.6 C18.8,8.9372583 19.3372583,8.4 20,8.4 L20,8.4 Z M7.99999999,10.8 C8.66274169,10.8 9.19999999,11.3372583 9.19999999,12 L9.19999999,12.8 C9.19999999,13.4627417 8.66274168,14 7.99999999,14 C7.33725831,14 6.79999999,13.4627417 6.79999999,12.8 L6.79999999,12 C6.79999999,11.3372583 7.33725829,10.8 7.99999999,10.8 L7.99999999,10.8 Z M16,10.8 C16.6627417,10.8 17.2,11.3372583 17.2,12 L17.2,12.8 C17.2,13.4627417 16.6627417,14 16,14 C15.3372583,14 14.8,13.4627417 14.8,12.8 L14.8,12 C14.8,11.3372583 15.3372583,10.8 16,10.8 L16,10.8 Z" id="形状" fill="#FFFFFF"></path>
                    </g>
                </g>
            </g>
        </g>
    </g>
</svg>