<?xml version="1.0" encoding="UTF-8"?>
<svg width="48px" height="48px" viewBox="0 0 48 48" version="1.1" xmlns="http://www.w3.org/2000/svg" xmlns:xlink="http://www.w3.org/1999/xlink">
    <title>首页icon/数据集</title>
    <g id="首页" stroke="none" stroke-width="1" fill="none" fill-rule="evenodd">
        <g id="主页备份-8" transform="translate(-276.000000, -524.000000)">
            <g id="编组-6" transform="translate(260.000000, 500.000000)">
                <g id="首页icon/数据集" transform="translate(16.000000, 24.000000)">
                    <rect id="矩形" stroke-opacity="0.15" stroke="#FF8501" fill-opacity="0.06" fill="#FF8501" x="0.5" y="0.5" width="47" height="47" rx="4"></rect>
                    <g id="文件文档app" transform="translate(11.000000, 10.000000)" fill-rule="nonzero">
                        <path d="M0,18.4971385 C4.4394019,22.7510081 9.40777695,25.9350283 14.511292,28 C17.6042598,23.9349205 21.3336742,20.7522927 25.3354968,18.5454093 C21.0004944,16.4601314 16.908342,13.4155861 13.3841795,9.48858913 C8.68100046,11.5414931 4.11367077,14.5579578 0,18.4971385 Z" id="路径" fill="#FF7C7A"></path>
                        <path d="M0,13.6212014 C4.4394019,17.875187 9.40777695,21.0590912 14.511292,23.1240629 C17.6042598,19.0588674 21.3336742,15.8763556 25.3354968,13.6693562 C21.000258,11.5840782 16.908342,8.53953296 13.3841795,4.61241997 C8.68100046,6.66555604 4.11367077,9.68190464 0,13.6212014 Z" id="路径" fill="#FFAB54"></path>
                        <path d="M0.331051596,9.00866538 C4.77057172,13.262651 9.73906501,16.4465552 14.8424618,18.5116429 C17.9354296,14.4464474 21.6649623,11.2638196 25.6666667,9.05682021 C21.331546,6.97165827 17.2393936,3.92699695 13.7153494,0 C9.01228852,2.05313607 4.4448406,5.06948468 0.331051596,9.00866538 Z" id="路径" fill="#FFD685"></path>
                    </g>
                </g>
            </g>
        </g>
    </g>
</svg>