<?xml version="1.0" encoding="UTF-8"?>
<svg width="48px" height="48px" viewBox="0 0 48 48" version="1.1" xmlns="http://www.w3.org/2000/svg" xmlns:xlink="http://www.w3.org/1999/xlink">
    <title>编组 5备份 2</title>
    <g id="首页" stroke="none" stroke-width="1" fill="none" fill-rule="evenodd">
        <g id="主页备份-8" transform="translate(-1226.000000, -524.000000)" fill="#9254DE">
            <g id="编组-6备份-3" transform="translate(1210.000000, 500.000000)">
                <g id="编组-5备份-2" transform="translate(16.000000, 24.000000)">
                    <rect id="矩形" stroke-opacity="0.15" stroke="#9254DE" fill-opacity="0.06" x="0.5" y="0.5" width="47" height="47" rx="4"></rect>
                    <g id="企业图谱1" transform="translate(13.000000, 12.000000)" fill-rule="nonzero">
                        <path d="M19.7247784,5.06542845 C21.0955822,5.06542845 22.2068383,6.17668454 22.2068383,7.54748839 C22.2068383,8.91829225 21.0955822,10.0295483 19.7247784,10.0295483 C19.0429304,10.0295483 18.4252982,9.75460788 17.9766978,9.30954297 L12.3900857,12.5274285 L12.3966231,19.1699937 C13.3713061,19.5048924 14.0717602,20.4296163 14.0717602,21.5179401 C14.0717602,22.8887439 12.9605041,24 11.5897003,24 C10.2188964,24 9.10764035,22.8887439 9.10764035,21.5179401 C9.10764035,20.4136205 9.82883595,19.4777451 10.8259307,19.1556106 L10.8200857,12.6224285 L5.17593099,9.37386402 C4.73381392,9.78094656 4.1435118,10.0295483 3.49514563,10.0295483 C2.12434178,10.0295483 1.01308569,8.91829225 1.01308569,7.54748839 C1.01308569,6.17668454 2.12434178,5.06542845 3.49514563,5.06542845 C4.86594948,5.06542845 5.97720557,6.17668454 5.97720557,7.54748839 C5.97720557,7.70080887 5.963304,7.85088247 5.93669256,7.99651748 L11.5180857,11.2074285 L17.2676092,7.9003513 C17.2512048,7.78509137 17.2427184,7.66728093 17.2427184,7.54748839 C17.2427184,6.17668454 18.3539745,5.06542845 19.7247784,5.06542845 Z" id="形状结合" fill-opacity="0.35"></path>
                        <path d="M11.3365089,1.77635684e-15 C13.1269466,1.77635684e-15 14.5783831,1.45143652 14.5783831,3.24187421 C14.5755802,4.14301431 14.2063907,4.95781759 13.6119478,5.54515103 L18.5632713,14.099421 C18.8514787,14.0154668 19.156276,13.9704517 19.471587,13.9704517 C21.2620247,13.9704517 22.7134612,15.4218882 22.7134612,17.2123259 C22.7078994,19.0004547 21.2597158,20.4486382 19.471587,20.4542001 C17.9535916,20.4542001 16.6792784,19.4108729 16.3266142,18.0021854 L6.38687126,17.993684 C6.03408144,19.4045201 4.76026691,20.4494995 3.24195427,20.4542001 C1.92981801,20.4542001 0.747077155,19.6632357 0.245896018,18.4505861 C-0.255285119,17.2379366 0.0239377695,15.8427574 0.953209067,14.91639 C1.7921868,14.0800341 3.01163714,13.7747321 4.13193457,14.0949131 L9.07722239,5.56682284 C8.47115812,4.97777006 8.09463472,4.15379301 8.09463472,3.24187421 C8.09463472,1.45143652 9.54607125,1.77635684e-15 11.3365089,1.77635684e-15 Z M3.24195427,15.4900802 C2.29210665,15.4900802 1.52159316,16.259123 1.51973832,17.2089688 C1.51789016,18.1588146 2.28539973,18.9308389 3.23524007,18.9345718 C4.18508041,18.9382778 4.9586126,18.1722879 4.96422978,17.2224567 C4.96689717,16.763936 4.78663822,16.3232689 4.4633617,15.9980908 C4.14008518,15.6729126 3.70048293,15.4900802 3.24195427,15.4900802 Z M19.471587,15.4900802 C18.520417,15.4900802 17.7493414,16.2611559 17.7493414,17.2123259 C17.7493414,18.1634959 18.520417,18.9345715 19.471587,18.9345715 C20.422757,18.9345715 21.1938327,18.1634959 21.1938327,17.2123259 C21.1938327,16.2611559 20.422757,15.4900802 19.471587,15.4900802 Z M12.256827,6.34868709 C11.965127,6.43563189 11.6562528,6.48275387 11.3365089,6.48374842 C11.0241378,6.48374842 10.7220854,6.43956886 10.4362593,6.35711733 L5.49697498,14.8830759 C5.92922521,15.3017243 6.23900921,15.8351605 6.38659756,16.4235691 L16.3244648,16.4311023 C16.4718935,15.8352224 16.7841337,15.3043318 17.2100334,14.8895828 L12.256827,6.34868709 Z M11.3365089,1.51962854 C10.3853389,1.51962854 9.61426326,2.29070419 9.61426326,3.24187421 C9.61426326,4.19304423 10.3853389,4.96411988 11.3365089,4.96411988 C12.287679,4.96411988 13.0587546,4.19304423 13.0587546,3.24187421 C13.0587546,2.78510626 12.8773042,2.34704633 12.5543205,2.02406261 C12.2313368,1.7010789 11.7932769,1.51962854 11.3365089,1.51962854 Z" id="形状结合"></path>
                    </g>
                </g>
            </g>
        </g>
    </g>
</svg>