<?xml version="1.0" encoding="UTF-8"?>
<svg width="48px" height="48px" viewBox="0 0 48 48" version="1.1" xmlns="http://www.w3.org/2000/svg" xmlns:xlink="http://www.w3.org/1999/xlink">
    <title>首页icon/数据集</title>
    <g id="首页" stroke="none" stroke-width="1" fill="none" fill-rule="evenodd">
        <g id="主页备份-8" transform="translate(-751.000000, -524.000000)">
            <g id="编组-6备份-2" transform="translate(735.000000, 500.000000)">
                <g id="编组-5备份" transform="translate(16.000000, 24.000000)">
                    <rect id="矩形" stroke-opacity="0.1" stroke="#019688" fill-opacity="0.06" fill="#019688" x="0.5" y="0.5" width="47" height="47" rx="4"></rect>
                    <g id="模型" transform="translate(13.500000, 12.000000)" fill-rule="nonzero">
                        <polygon id="路径" fill="#019688" opacity="0.25" points="18.0495868 4.31518625 21 6 21 10.1260745 15.9842975 12.9971347 15.9669421 8.97421203 12.8603306 7.18624642"></polygon>
                        <polygon id="路径" fill="#13C2C2" points="15.8280992 3.04297994 10.6909091 5.94842407 5.38016529 2.9226361 10.5 0"></polygon>
                        <path d="M7.23719008,22.1432665 L7.21983471,16.6246418 L10.5520661,18.5157593 L13.8495868,16.6246418 L13.814876,22.1088825 L10.5,24 L7.23719008,22.1432665 Z M8.59090909,7.15186246 L5.11983471,9.11174785 L5.11983471,12.9627507 L0,10.0057307 L0,6 L3.28016529,4.1260745 L8.57355372,7.15186246 L8.59090909,7.15186246 L8.59090909,7.15186246 Z" id="形状" fill="#019688"></path>
                        <polygon id="路径" fill="#019688" points="21 12.5329513 21 18 16.0190083 20.8538682 16.0016529 15.3868195"></polygon>
                        <polygon id="路径" fill="#13C2C2" points="5.10247934 20.9226361 0 18 0 12.5157593 5.11983471 15.4212034 5.10247934 20.9226361"></polygon>
                        <polygon id="路径" fill="#019688" points="10.7256198 8.37249284 13.8842975 10.1776504 13.8495868 14.217765 10.5520661 16.1088825 7.21983471 14.1833811 7.21983471 10.3151862"></polygon>
                    </g>
                </g>
            </g>
        </g>
    </g>
</svg>