<svg width="480" height="280" viewBox="0 0 480 280" fill="none" xmlns="http://www.w3.org/2000/svg">
<path d="M224 183.35C318.287 183.35 397.34 224.271 418.512 279.35H29.4878C50.6598 224.271 129.712 183.35 224 183.35Z" fill="url(#paint0_linear_184_4181)"/>
<path d="M312.772 187.108L306.301 211.258L294.282 208.038L300.753 183.888L312.772 187.108Z" fill="#F8FAFE" stroke="#779EEA" stroke-width="2"/>
<rect x="279.872" y="158.575" width="65.8196" height="20.6065" transform="rotate(15 279.872 158.575)" fill="#F8FAFE" stroke="#779EEA" stroke-width="2"/>
<path d="M285.679 174.428L287.577 167.347L288.484 167.591L289.877 172.747L290.25 174.41L290.298 174.423C290.361 174.06 290.431 173.682 290.509 173.289C290.586 172.896 290.675 172.515 290.773 172.148L291.759 168.468L292.609 168.696L290.712 175.776L289.794 175.53L288.414 170.367L288.039 168.714L288 168.703C287.924 169.063 287.85 169.433 287.775 169.813C287.703 170.187 287.616 170.561 287.516 170.934L286.52 174.653L285.679 174.428ZM294.577 176.946C294.152 176.833 293.781 176.619 293.465 176.307C293.15 175.988 292.934 175.595 292.818 175.129C292.709 174.658 292.732 174.133 292.888 173.554C293.045 172.968 293.287 172.501 293.615 172.154C293.951 171.802 294.335 171.567 294.767 171.448C295.199 171.329 295.627 171.327 296.052 171.441C296.374 171.527 296.664 171.67 296.921 171.87C297.184 172.072 297.397 172.322 297.558 172.621C297.72 172.919 297.819 173.257 297.857 173.632C297.894 174.008 297.854 174.415 297.737 174.853C297.581 175.432 297.336 175.898 297 176.25C296.666 176.595 296.286 176.828 295.86 176.949C295.436 177.063 295.009 177.062 294.577 176.946ZM294.774 176.212C295.077 176.293 295.363 176.281 295.633 176.173C295.91 176.068 296.153 175.881 296.363 175.613C296.573 175.345 296.731 175.011 296.838 174.612C296.947 174.207 296.978 173.835 296.93 173.498C296.882 173.161 296.765 172.877 296.578 172.648C296.397 172.42 296.156 172.266 295.853 172.184C295.551 172.103 295.261 172.115 294.984 172.221C294.714 172.328 294.474 172.515 294.264 172.784C294.061 173.053 293.904 173.391 293.796 173.797C293.689 174.196 293.656 174.564 293.697 174.899C293.745 175.236 293.859 175.519 294.039 175.746C294.226 175.976 294.471 176.131 294.774 176.212ZM299.831 178.354C299.464 178.256 299.19 178.107 299.009 177.906C298.83 177.7 298.728 177.451 298.702 177.161C298.682 176.873 298.719 176.555 298.812 176.207L299.591 173.3L298.809 173.09L298.988 172.424L299.831 172.598L300.324 171.146L301.058 171.343L300.662 172.821L302.092 173.204L301.9 173.919L300.47 173.536L299.684 176.472C299.599 176.787 299.591 177.051 299.658 177.262C299.734 177.469 299.923 177.613 300.226 177.694C300.322 177.72 300.429 177.735 300.545 177.738C300.663 177.735 300.769 177.726 300.864 177.71L300.859 178.423C300.697 178.434 300.527 178.437 300.349 178.431C300.172 178.425 299.999 178.399 299.831 178.354ZM304.111 179.367L306.008 172.286L310.085 173.379L309.883 174.132L306.695 173.278L306.053 175.673L308.758 176.398L308.556 177.151L305.851 176.427L305 179.605L304.111 179.367ZM311.189 181.397C310.763 181.284 310.393 181.07 310.076 180.758C309.761 180.439 309.546 180.046 309.429 179.58C309.32 179.109 309.344 178.584 309.499 178.005C309.656 177.419 309.898 176.952 310.226 176.605C310.562 176.253 310.946 176.018 311.378 175.899C311.81 175.78 312.239 175.778 312.664 175.892C312.986 175.978 313.275 176.121 313.532 176.321C313.796 176.523 314.008 176.773 314.17 177.072C314.331 177.37 314.431 177.708 314.468 178.083C314.505 178.459 314.465 178.866 314.348 179.304C314.193 179.883 313.947 180.349 313.611 180.701C313.277 181.046 312.897 181.279 312.472 181.4C312.048 181.514 311.62 181.513 311.189 181.397ZM311.385 180.663C311.688 180.744 311.974 180.731 312.245 180.624C312.521 180.519 312.765 180.332 312.974 180.064C313.184 179.796 313.343 179.462 313.45 179.063C313.558 178.657 313.589 178.286 313.541 177.949C313.494 177.612 313.376 177.328 313.189 177.099C313.009 176.871 312.767 176.717 312.464 176.635C312.162 176.554 311.872 176.566 311.595 176.672C311.325 176.779 311.085 176.966 310.875 177.235C310.672 177.504 310.516 177.842 310.407 178.248C310.3 178.647 310.267 179.014 310.308 179.35C310.356 179.687 310.47 179.97 310.651 180.197C310.838 180.427 311.083 180.582 311.385 180.663ZM316.544 182.832C315.99 182.684 315.628 182.401 315.457 181.982C315.293 181.565 315.3 181.022 315.48 180.352L316.37 177.03L317.259 177.268L316.397 180.484C316.267 180.967 316.25 181.342 316.344 181.609C316.44 181.869 316.662 182.046 317.009 182.139C317.28 182.212 317.54 182.206 317.791 182.121C318.041 182.036 318.333 181.873 318.667 181.631L319.664 177.912L320.543 178.148L319.137 183.393L318.403 183.196L318.556 182.357L318.527 182.349C318.206 182.567 317.884 182.726 317.561 182.825C317.243 182.927 316.905 182.929 316.544 182.832ZM320.909 183.868L322.314 178.623L323.039 178.817L322.921 179.603L322.941 179.608C323.259 179.424 323.58 179.283 323.904 179.183C324.234 179.085 324.579 179.084 324.939 179.181C325.493 179.329 325.851 179.615 326.014 180.038C326.179 180.455 326.171 180.998 325.992 181.668L325.101 184.991L324.222 184.755L325.082 181.548C325.214 181.053 325.23 180.674 325.127 180.412C325.031 180.151 324.81 179.974 324.462 179.881C324.191 179.809 323.932 179.812 323.683 179.89C323.434 179.968 323.146 180.105 322.818 180.3L321.798 184.106L320.909 183.868ZM328.558 186.052C328.12 185.934 327.765 185.725 327.494 185.425C327.229 185.126 327.061 184.75 326.989 184.296C326.926 183.837 326.972 183.315 327.129 182.729C327.281 182.162 327.519 181.701 327.841 181.346C328.164 180.991 328.527 180.746 328.928 180.612C329.337 180.48 329.74 180.467 330.139 180.574C330.449 180.657 330.698 180.783 330.888 180.951C331.085 181.114 331.274 181.324 331.454 181.579L331.647 180.668L332.188 178.649L333.076 178.887L331.016 186.576L330.292 186.382L330.38 185.743L330.351 185.735C330.09 185.886 329.804 185.999 329.494 186.075C329.185 186.144 328.873 186.136 328.558 186.052ZM328.95 185.36C329.195 185.425 329.442 185.429 329.692 185.372C329.944 185.308 330.208 185.186 330.485 185.005L331.222 182.252C331.057 181.993 330.882 181.795 330.699 181.656C330.515 181.517 330.314 181.418 330.095 181.359C329.818 181.285 329.54 181.304 329.262 181.416C328.992 181.523 328.745 181.709 328.522 181.973C328.308 182.233 328.147 182.563 328.04 182.962C327.928 183.381 327.889 183.757 327.924 184.091C327.959 184.424 328.061 184.7 328.23 184.918C328.408 185.131 328.648 185.279 328.95 185.36Z" fill="#779EEA"/>
<path d="M102.53 170.35V137.59C102.53 136.054 102.578 134.23 102.674 132.118C102.77 129.958 102.866 128.086 102.962 126.502H102.602C101.978 127.942 101.306 129.382 100.586 130.822C99.8656 132.262 99.1216 133.726 98.3536 135.214L90.0736 148.462H118.73V156.526H79.7776V149.326L99.6496 116.998H112.394V170.35H102.53Z" fill="#779EEA"/>
<path d="M245.377 170.35V135.79C245.377 134.35 245.425 132.646 245.521 130.678C245.617 128.662 245.689 126.934 245.737 125.494H245.449C244.777 126.838 244.081 128.206 243.361 129.598C242.689 130.99 241.969 132.358 241.201 133.702L230.833 149.614H259.849V156.094H222.409V150.55L243.505 117.286H253.153V170.35H245.377Z" fill="#779EEA"/>
<path opacity="0.5" fill-rule="evenodd" clip-rule="evenodd" d="M146.747 119.295L140.78 126.057L139.115 135.445L194.372 120.817L186.246 113.144L175.237 109.35L159.388 110.921L146.747 119.295Z" fill="#779EEA" fill-opacity="0.05"/>
<circle cx="170" cy="141.35" r="32" stroke="#779EEA" stroke-width="2.5"/>
<path d="M191.143 131.065L188.608 136.445C188.402 136.909 188.286 137.436 188.286 137.996C188.286 139.849 189.565 141.35 191.143 141.35C192.721 141.35 194 139.849 194 137.996C194 137.436 193.883 136.909 193.676 136.445L191.143 131.065Z" fill="#779EEA"/>
<path d="M153.334 145.982C153.724 146.373 153.724 147.006 153.334 147.397L151.212 149.518L153.334 151.639C153.724 152.03 153.724 152.663 153.334 153.054L153.131 153.256C152.741 153.646 152.107 153.646 151.717 153.256L149.596 151.135L147.474 153.256C147.084 153.646 146.451 153.646 146.06 153.256L145.858 153.054C145.467 152.663 145.468 152.03 145.858 151.639L147.979 149.518L145.858 147.397C145.467 147.006 145.468 146.373 145.858 145.982L146.06 145.78C146.451 145.39 147.084 145.39 147.474 145.78L149.596 147.901L151.717 145.78C152.108 145.39 152.741 145.39 153.131 145.78L153.334 145.982Z" fill="#779EEA"/>
<path d="M179.143 159.636C179.143 155.849 175.305 152.779 170.571 152.779C165.838 152.779 162 155.849 162 159.636" stroke="#779EEA" stroke-width="2.5"/>
<path d="M186 113.922L142.571 125.35" stroke="#779EEA" stroke-width="2.5"/>
<path d="M194 120.779L139.143 135.179" stroke="#779EEA" stroke-width="2.5"/>
<ellipse cx="160.572" cy="141.35" rx="3.14286" ry="3.42857" fill="#779EEA"/>
<ellipse cx="179.428" cy="141.35" rx="3.14286" ry="3.42857" fill="#779EEA"/>
<path opacity="0.05" d="M335.5 4.35034C355.283 4.35034 373.312 11.9089 386.893 24.3132H415.259C419.196 24.3132 422.389 27.5055 422.389 31.4431C422.389 35.3806 419.196 38.573 415.259 38.573H399.116C407.253 50.8084 412 65.5211 412 81.3503C412 95.5723 408.169 108.893 401.489 120.326H430.37C434.308 120.326 437.5 123.517 437.5 127.455C437.5 131.392 434.308 134.585 430.37 134.585H390.771C387.442 138.086 383.788 141.271 379.857 144.092H451.148C455.086 144.092 458.277 147.283 458.277 151.22C458.277 155.158 455.086 158.35 451.148 158.35H337.907C337.724 158.35 337.542 158.341 337.362 158.327C336.743 158.342 336.123 158.35 335.5 158.35C293.25 158.35 259 123.876 259 81.3503C259 38.8244 293.25 4.35034 335.5 4.35034ZM472.917 144.092C476.829 144.092 480 147.309 480 151.22C480 155.132 476.829 158.35 472.917 158.35C469.005 158.35 465.833 155.132 465.833 151.22C465.833 147.309 469.005 144.092 472.917 144.092ZM435.139 24.3132C439.051 24.3132 442.223 27.5311 442.223 31.4431C442.223 35.355 439.051 38.573 435.139 38.573C431.227 38.5729 428.056 35.355 428.056 31.4431C428.056 27.5312 431.227 24.3134 435.139 24.3132Z" fill="#779EEA"/>
<ellipse cx="323.675" cy="69.6942" rx="49.4394" ry="16.786" transform="rotate(30 323.675 69.6942)" fill="#FCFDFF" stroke="#779EEA" stroke-width="2.5"/>
<ellipse cx="328.018" cy="62.1726" rx="49.4394" ry="16.786" transform="rotate(30 328.018 62.1726)" fill="white" stroke="#779EEA" stroke-width="2.5"/>
<ellipse cx="337.909" cy="44.9266" rx="30.8642" ry="20.4789" transform="rotate(30 337.909 44.9266)" fill="white" stroke="#779EEA" stroke-width="2.5"/>
<ellipse cx="296.671" cy="44.7491" rx="2.46914" ry="2.48148" transform="rotate(30 296.671 44.7491)" fill="#779EEA"/>
<ellipse cx="358.682" cy="80.5516" rx="2.46914" ry="2.48148" transform="rotate(30 358.682 80.5516)" fill="#779EEA"/>
<ellipse cx="307.468" cy="58.1463" rx="2.46914" ry="2.48148" transform="rotate(30 307.468 58.1463)" fill="#779EEA"/>
<ellipse cx="341.681" cy="77.8993" rx="2.46914" ry="2.48148" transform="rotate(30 341.681 77.8993)" fill="#779EEA"/>
<ellipse cx="323.334" cy="70.1719" rx="2.46914" ry="2.48148" transform="rotate(30 323.334 70.1719)" fill="#779EEA"/>
<path d="M332.752 32.6292C332.752 32.6292 323.744 32.1799 317.708 37.9399" stroke="#779EEA" stroke-width="3"/>
<path d="M309.967 94.059L297.44 115.756" stroke="#779EEA" stroke-width="2.5"/>
<path d="M285.346 79.8445L250.171 88.1284" stroke="#779EEA" stroke-width="2.5"/>
<path d="M334.154 108.023L344.568 142.628" stroke="#779EEA" stroke-width="2.5"/>
<path opacity="0.3" d="M64.8408 70.3503C69.6128 70.3503 73.6719 73.427 75.1846 77.7234C76.1181 77.3226 77.1367 77.1004 78.2041 77.1003C81.3909 77.1003 84.1475 79.0663 85.4746 81.9255C89.6478 82.0258 93 85.4391 93 89.6365C92.9998 93.8966 89.5463 97.3501 85.2861 97.3503H58.7139C54.4537 97.3501 51.0002 93.8966 51 89.6365C51 87.127 52.1982 84.8968 54.0537 83.488C53.9309 82.824 53.8633 82.1392 53.8633 81.4392C53.8635 75.315 58.7784 70.3504 64.8408 70.3503Z" fill="#779EEA"/>
<path opacity="0.3" d="M447.396 91.3503C452.361 91.3504 456.517 94.7019 457.604 99.2019C458.905 98.3374 460.479 97.8318 462.175 97.8318C465.081 97.8319 467.629 99.3184 469.06 101.551C472.933 101.792 476 105.009 476 108.943C476 113.034 472.684 116.35 468.593 116.35H442.407C438.316 116.35 435 113.034 435 108.943C435 106.907 435.822 105.062 437.151 103.723C436.992 103.019 436.907 102.287 436.907 101.536C436.907 95.9108 441.603 91.3503 447.396 91.3503Z" fill="#779EEA"/>
<path opacity="0.3" d="M57.2051 174.35C62.0469 174.35 66.1004 177.639 67.1621 182.054C68.1379 181.603 69.2198 181.35 70.3594 181.35C73.2447 181.35 75.7618 182.961 77.1094 185.352C80.9249 185.411 84 188.521 84 192.35C84 196.216 80.866 199.35 77 199.35H53C49.134 199.35 46 196.216 46 192.35C46 190.644 46.6103 189.08 47.625 187.865C47.2049 186.771 46.9746 185.587 46.9746 184.35C46.9746 178.828 51.5548 174.35 57.2051 174.35Z" fill="#779EEA"/>
<g opacity="0.3">
<mask id="path-32-inside-1_184_4181" fill="white">
<path d="M130.121 17.3562C137.685 17.546 144.146 22.1229 147.006 28.6111C148.525 27.9989 150.173 27.6628 151.896 27.6628L152.25 27.6677C157.967 27.8212 162.815 31.6698 164.741 37.0398L164.822 37.0417C171.577 37.2127 177 42.742 177 49.5378V49.8503L176.996 50.1726C176.828 56.8201 171.47 62.1782 164.822 62.3464L164.5 62.3503H117.5L117.178 62.3464C110.53 62.1782 105.172 56.8201 105.004 50.1726L105 49.8503V49.5378C105 45.0586 107.356 41.1297 110.896 38.9226C110.756 38.0021 110.685 37.0596 110.685 36.1003C110.685 25.745 119.168 17.3504 129.632 17.3503L130.121 17.3562ZM165.487 40.0886C165.582 40.7761 165.632 41.479 165.632 42.1941L165.627 42.5691C165.439 50.4209 159.363 56.7249 151.896 56.7253L151.54 56.7205C147.262 56.6057 143.47 54.4217 141.025 51.0798C137.854 53.4457 133.909 54.8503 129.632 54.8503L129.143 54.8445C120.993 54.64 114.121 49.3428 111.657 42.0486C109.432 43.7873 108 46.4948 108 49.5378V49.8503C108 55.097 112.253 59.3503 117.5 59.3503H164.5C169.747 59.3503 174 55.097 174 49.8503V49.5378C174 44.6245 170.27 40.5825 165.487 40.0886ZM148.159 40.0378C147.409 43.5103 145.688 46.6257 143.29 49.0935C145.275 51.9326 148.44 53.7253 151.896 53.7253C157.668 53.7249 162.632 48.7235 162.632 42.1941C162.632 41.4538 162.565 40.7337 162.443 40.0378H148.159ZM117.5 40.0378C116.392 40.0378 115.329 40.2291 114.34 40.5779C116.29 47.0804 122.379 51.8503 129.632 51.8503C133.366 51.8503 136.791 50.5847 139.502 48.4705C138.641 46.5706 138.158 44.442 138.158 42.1941C138.158 41.4614 138.21 40.7414 138.309 40.0378H117.5ZM141.347 40.0378C141.225 40.7338 141.158 41.4538 141.158 42.1941C141.158 43.6285 141.398 44.9889 141.833 46.239C143.347 44.4621 144.472 42.352 145.075 40.0378H141.347ZM129.632 20.3503C120.795 20.3504 113.685 27.4314 113.685 36.1003C113.685 36.6098 113.71 37.1137 113.758 37.6111C114.842 37.2712 115.989 37.0718 117.178 37.0417L117.5 37.0378H139.049C140.083 34.1573 141.957 31.7147 144.355 30.0457C141.957 24.3636 136.284 20.3505 129.632 20.3503ZM151.896 30.6628C150.531 30.6628 149.212 30.9446 147.992 31.4578C148.374 32.9425 148.579 34.4978 148.579 36.1003L148.573 36.5847C148.569 36.7362 148.563 36.8873 148.556 37.0378H161.504C159.717 33.2089 156.013 30.6632 151.896 30.6628ZM145.29 33.1111C144.042 34.1556 143.007 35.4914 142.285 37.0378H145.55C145.568 36.7276 145.579 36.415 145.579 36.1003C145.579 35.0788 145.479 34.0795 145.29 33.1111Z"/>
</mask>
<path d="M130.121 17.3562L130.196 14.3571L130.177 14.3567L130.157 14.3564L130.121 17.3562ZM147.006 28.6111L144.261 29.8211L145.433 32.4796L148.127 31.3936L147.006 28.6111ZM151.896 27.6628L151.937 24.6631L151.916 24.6628H151.896V27.6628ZM152.25 27.6677L152.331 24.6688L152.311 24.6683L152.291 24.668L152.25 27.6677ZM164.741 37.0398L161.917 38.0528L162.612 39.9894L164.669 40.0389L164.741 37.0398ZM164.822 37.0417L164.898 34.0427L164.895 34.0426L164.822 37.0417ZM177 49.5378H180H177ZM177 49.8503L180 49.8867L180 49.8685V49.8503H177ZM176.996 50.1726L179.995 50.2485L179.996 50.2287L179.996 50.209L176.996 50.1726ZM164.822 62.3464L164.859 65.3462L164.878 65.346L164.898 65.3455L164.822 62.3464ZM164.5 62.3503V65.3503H164.518L164.536 65.3501L164.5 62.3503ZM117.5 62.3503L117.464 65.3501L117.482 65.3503H117.5V62.3503ZM117.178 62.3464L117.102 65.3455L117.122 65.346L117.141 65.3462L117.178 62.3464ZM105.004 50.1726L102.004 50.209L102.004 50.2287L102.005 50.2485L105.004 50.1726ZM105 49.8503H102V49.8685L102 49.8867L105 49.8503ZM105 49.5378H102H105ZM110.896 38.9226L112.484 41.4684L114.16 40.4232L113.862 38.4702L110.896 38.9226ZM129.632 17.3503L129.668 14.3506L129.65 14.3503H129.632L129.632 17.3503ZM165.487 40.0886L165.795 37.1045L161.996 36.7122L162.515 40.4964L165.487 40.0886ZM165.632 42.1941L168.632 42.2332L168.632 42.2136V42.1941H165.632ZM165.627 42.5691L168.626 42.6409L168.626 42.6245L168.627 42.6082L165.627 42.5691ZM151.896 56.7253L151.854 59.7251L151.875 59.7253H151.896L151.896 56.7253ZM151.54 56.7205L151.46 59.7194L151.479 59.7199L151.499 59.7202L151.54 56.7205ZM141.025 51.0798L143.447 49.3084L141.659 46.8646L139.232 48.6753L141.025 51.0798ZM129.632 54.8503L129.596 57.8501L129.614 57.8503H129.632L129.632 54.8503ZM129.143 54.8445L129.067 57.8435L129.087 57.844L129.107 57.8443L129.143 54.8445ZM111.657 42.0486L114.499 41.0885L113.145 37.0791L109.81 39.6845L111.657 42.0486ZM108 49.5378H105H108ZM108 49.8503H105H108ZM174 49.8503H177H174ZM174 49.5378H177H174ZM148.159 40.0378V37.0378H145.738L145.227 39.4045L148.159 40.0378ZM143.29 49.0935L141.138 47.0029L139.411 48.7807L140.831 50.8124L143.29 49.0935ZM151.896 53.7253V56.7253H151.896L151.896 53.7253ZM162.443 40.0378L165.399 39.5217L164.965 37.0378H162.443V40.0378ZM114.34 40.5779L113.342 37.7487L110.645 38.7001L111.466 41.4398L114.34 40.5779ZM129.632 51.8503L129.632 54.8503H129.632L129.632 51.8503ZM139.502 48.4705L141.347 50.8362L143.21 49.3834L142.234 47.2316L139.502 48.4705ZM138.309 40.0378L141.279 40.4556L141.76 37.0378H138.309V40.0378ZM141.347 40.0378V37.0378H138.825L138.391 39.5217L141.347 40.0378ZM141.833 46.239L139 47.2251L140.72 52.1694L144.116 48.185L141.833 46.239ZM145.075 40.0378L147.978 40.7951L148.958 37.0378H145.075V40.0378ZM129.632 20.3503L129.632 17.3503L129.632 17.3503L129.632 20.3503ZM113.758 37.6111L110.772 37.8994L111.127 41.5797L114.655 40.4737L113.758 37.6111ZM117.178 37.0417L117.141 34.042L117.122 34.0422L117.102 34.0427L117.178 37.0417ZM117.5 37.0378V34.0378H117.482L117.464 34.0381L117.5 37.0378ZM139.049 37.0378V40.0378H141.159L141.872 38.0513L139.049 37.0378ZM144.355 30.0457L146.069 32.5081L148.065 31.1192L147.119 28.8789L144.355 30.0457ZM151.896 30.6628L151.896 27.6628H151.896V30.6628ZM147.992 31.4578L146.829 28.6926L144.441 29.6973L145.087 32.2056L147.992 31.4578ZM148.579 36.1003L151.579 36.1366L151.579 36.1185V36.1003H148.579ZM148.573 36.5847L151.572 36.6616L151.573 36.6413L151.573 36.621L148.573 36.5847ZM148.556 37.0378L145.559 36.8887L145.403 40.0378H148.556V37.0378ZM161.504 37.0378V40.0378H166.214L164.223 35.7694L161.504 37.0378ZM145.29 33.1111L148.235 32.5375L147.263 27.549L143.365 30.8102L145.29 33.1111ZM142.285 37.0378L139.567 35.7694L137.575 40.0378H142.285V37.0378ZM145.55 37.0378V40.0378H148.376L148.544 37.2162L145.55 37.0378ZM130.121 17.3562L130.046 20.3553C136.422 20.5153 141.859 24.3717 144.261 29.8211L147.006 28.6111L149.751 27.4011C146.433 19.874 138.948 14.5768 130.196 14.3571L130.121 17.3562ZM147.006 28.6111L148.127 31.3936C149.299 30.9213 150.567 30.6628 151.896 30.6628V27.6628V24.6628C149.779 24.6628 147.751 25.0764 145.884 25.8286L147.006 28.6111ZM151.896 27.6628L151.854 30.6626L152.209 30.6674L152.25 27.6677L152.291 24.668L151.937 24.6631L151.896 27.6628ZM152.25 27.6677L152.169 30.6666C156.532 30.7838 160.367 33.7317 161.917 38.0528L164.741 37.0398L167.565 36.0268C165.262 29.608 159.402 24.8587 152.331 24.6688L152.25 27.6677ZM164.741 37.0398L164.669 40.0389L164.75 40.0409L164.822 37.0417L164.895 34.0426L164.813 34.0407L164.741 37.0398ZM164.822 37.0417L164.746 40.0408C169.878 40.1707 174 44.3734 174 49.5378H177H180C180 41.1106 173.275 34.2547 164.898 34.0427L164.822 37.0417ZM177 49.5378H174V49.8503H177H180V49.5378H177ZM177 49.8503L174 49.814L173.996 50.1362L176.996 50.1726L179.996 50.209L180 49.8867L177 49.8503ZM176.996 50.1726L173.997 50.0967C173.869 55.1469 169.797 59.2196 164.746 59.3474L164.822 62.3464L164.898 65.3455C173.143 65.1368 179.786 58.4934 179.995 50.2485L176.996 50.1726ZM164.822 62.3464L164.786 59.3467L164.464 59.3506L164.5 62.3503L164.536 65.3501L164.859 65.3462L164.822 62.3464ZM164.5 62.3503V59.3503H117.5V62.3503V65.3503H164.5V62.3503ZM117.5 62.3503L117.536 59.3506L117.214 59.3467L117.178 62.3464L117.141 65.3462L117.464 65.3501L117.5 62.3503ZM117.178 62.3464L117.254 59.3474C112.203 59.2196 108.131 55.1469 108.003 50.0967L105.004 50.1726L102.005 50.2485C102.214 58.4934 108.857 65.1368 117.102 65.3455L117.178 62.3464ZM105.004 50.1726L108.004 50.1362L108 49.814L105 49.8503L102 49.8867L102.004 50.209L105.004 50.1726ZM105 49.8503H108V49.5378H105H102V49.8503H105ZM105 49.5378H108C108 46.1371 109.785 43.1508 112.484 41.4684L110.896 38.9226L109.309 36.3768C104.927 39.1087 102 43.9802 102 49.5378H105ZM110.896 38.9226L113.862 38.4702C113.745 37.7016 113.685 36.9103 113.685 36.1003H110.685H107.685C107.685 37.2088 107.767 38.3026 107.931 39.375L110.896 38.9226ZM110.685 36.1003H113.685C113.685 27.4314 120.795 20.3504 129.632 20.3503L129.632 17.3503L129.632 14.3503C117.54 14.3504 107.685 24.0586 107.685 36.1003H110.685ZM129.632 17.3503L129.596 20.3501L130.085 20.356L130.121 17.3562L130.157 14.3564L129.668 14.3506L129.632 17.3503ZM165.487 40.0886L162.515 40.4964C162.592 41.0529 162.632 41.6196 162.632 42.1941H165.632H168.632C168.632 41.3384 168.572 40.4992 168.459 39.6808L165.487 40.0886ZM165.632 42.1941L162.632 42.155L162.627 42.53L165.627 42.5691L168.627 42.6082L168.632 42.2332L165.632 42.1941ZM165.627 42.5691L162.628 42.4973C162.475 48.8804 157.579 53.725 151.895 53.7253L151.896 56.7253L151.896 59.7253C161.147 59.7248 168.403 51.9614 168.626 42.6409L165.627 42.5691ZM151.896 56.7253L151.937 53.7256L151.581 53.7207L151.54 56.7205L151.499 59.7202L151.854 59.7251L151.896 56.7253ZM151.54 56.7205L151.621 53.7215C148.347 53.6337 145.39 51.965 143.447 49.3084L141.025 51.0798L138.604 52.8513C141.551 56.8785 146.177 59.5776 151.46 59.7194L151.54 56.7205ZM141.025 51.0798L139.232 48.6753C136.562 50.667 133.242 51.8503 129.632 51.8503L129.632 54.8503L129.632 57.8503C134.576 57.8503 139.147 56.2244 142.819 53.4844L141.025 51.0798ZM129.632 54.8503L129.668 51.8506L129.179 51.8447L129.143 54.8445L129.107 57.8443L129.596 57.8501L129.632 54.8503ZM129.143 54.8445L129.218 51.8454C122.345 51.673 116.566 47.2075 114.499 41.0885L111.657 42.0486L108.815 43.0086C111.676 51.4781 119.64 57.607 129.067 57.8435L129.143 54.8445ZM111.657 42.0486L109.81 39.6845C106.889 41.9666 105 45.5312 105 49.5378H108H111C111 47.4585 111.974 45.608 113.504 44.4126L111.657 42.0486ZM108 49.5378H105V49.8503H108H111V49.5378H108ZM108 49.8503H105C105 56.7539 110.596 62.3503 117.5 62.3503V59.3503V56.3503C113.91 56.3503 111 53.4402 111 49.8503H108ZM117.5 59.3503V62.3503H164.5V59.3503V56.3503H117.5V59.3503ZM164.5 59.3503V62.3503C171.404 62.3503 177 56.7539 177 49.8503H174H171C171 53.4402 168.09 56.3503 164.5 56.3503V59.3503ZM174 49.8503H177V49.5378H174H171V49.8503H174ZM174 49.5378H177C177 43.071 172.092 37.7546 165.795 37.1045L165.487 40.0886L165.179 43.0728C168.448 43.4103 171 46.178 171 49.5378H174ZM148.159 40.0378L145.227 39.4045C144.599 42.3099 143.158 44.9249 141.138 47.0029L143.29 49.0935L145.442 51.1841C148.218 48.3265 150.219 44.7107 151.092 40.6712L148.159 40.0378ZM143.29 49.0935L140.831 50.8124C143.327 54.3817 147.375 56.7253 151.896 56.7253V53.7253V50.7253C149.505 50.7253 147.223 49.4835 145.749 47.3746L143.29 49.0935ZM151.896 53.7253L151.896 56.7253C159.469 56.7248 165.632 50.2325 165.632 42.1941H162.632H159.632C159.632 47.2145 155.867 50.725 151.895 50.7253L151.896 53.7253ZM162.632 42.1941H165.632C165.632 41.2724 165.548 40.3796 165.399 39.5217L162.443 40.0378L159.488 40.5539C159.581 41.0879 159.632 41.6353 159.632 42.1941H162.632ZM162.443 40.0378V37.0378H148.159V40.0378V43.0378H162.443V40.0378ZM117.5 40.0378V37.0378C116.044 37.0378 114.644 37.2895 113.342 37.7487L114.34 40.5779L115.338 43.4071C116.013 43.1688 116.74 43.0378 117.5 43.0378V40.0378ZM114.34 40.5779L111.466 41.4398C113.792 49.1921 121.034 54.8503 129.632 54.8503L129.632 51.8503L129.632 48.8503C123.724 48.8503 118.789 44.9686 117.213 39.716L114.34 40.5779ZM129.632 51.8503L129.632 54.8503C134.055 54.8502 138.125 53.3484 141.347 50.8362L139.502 48.4705L137.657 46.1047C135.456 47.821 132.677 48.8503 129.632 48.8503L129.632 51.8503ZM139.502 48.4705L142.234 47.2316C141.547 45.7168 141.158 44.0102 141.158 42.1941H138.158H135.158C135.158 44.8737 135.734 47.4243 136.77 49.7093L139.502 48.4705ZM138.158 42.1941H141.158C141.158 41.602 141.2 41.0216 141.279 40.4556L138.309 40.0378L135.338 39.62C135.22 40.4612 135.158 41.3208 135.158 42.1941H138.158ZM138.309 40.0378V37.0378H117.5V40.0378V43.0378H138.309V40.0378ZM141.347 40.0378L138.391 39.5217C138.242 40.3796 138.158 41.2724 138.158 42.1941H141.158H144.158C144.158 41.6352 144.209 41.0879 144.302 40.554L141.347 40.0378ZM141.158 42.1941H138.158C138.158 43.9648 138.455 45.6585 139 47.2251L141.833 46.239L144.666 45.253C144.341 44.3193 144.158 43.2922 144.158 42.1941H141.158ZM141.833 46.239L144.116 48.185C145.916 46.0738 147.257 43.5599 147.978 40.7951L145.075 40.0378L142.172 39.2806C141.686 41.1441 140.779 42.8505 139.55 44.2931L141.833 46.239ZM145.075 40.0378V37.0378H141.347V40.0378V43.0378H145.075V40.0378ZM129.632 20.3503L129.632 17.3503C119.166 17.3504 110.685 25.7467 110.685 36.1003H113.685H116.685C116.685 29.1161 122.424 23.3504 129.632 23.3503L129.632 20.3503ZM113.685 36.1003H110.685C110.685 36.7089 110.715 37.309 110.772 37.8994L113.758 37.6111L116.744 37.3228C116.705 36.9184 116.685 36.5107 116.685 36.1003H113.685ZM113.758 37.6111L114.655 40.4737C115.482 40.2146 116.352 40.0636 117.254 40.0408L117.178 37.0417L117.102 34.0427C115.625 34.0801 114.202 34.3279 112.86 34.7484L113.758 37.6111ZM117.178 37.0417L117.214 40.0415L117.536 40.0376L117.5 37.0378L117.464 34.0381L117.141 34.042L117.178 37.0417ZM117.5 37.0378V40.0378H139.049V37.0378V34.0378H117.5V37.0378ZM139.049 37.0378L141.872 38.0513C142.7 35.7448 144.193 33.8137 146.069 32.5081L144.355 30.0457L142.642 27.5832C139.721 29.6158 137.465 32.5698 136.225 36.0244L139.049 37.0378ZM144.355 30.0457L147.119 28.8789C144.263 22.1128 137.519 17.3505 129.632 17.3503L129.632 20.3503L129.632 23.3503C135.049 23.3505 139.651 26.6144 141.592 31.2124L144.355 30.0457ZM151.896 30.6628V27.6628C150.114 27.6628 148.401 28.0311 146.829 28.6926L147.992 31.4578L149.156 34.2229C150.023 33.8581 150.947 33.6628 151.896 33.6628V30.6628ZM147.992 31.4578L145.087 32.2056C145.407 33.4503 145.579 34.7544 145.579 36.1003H148.579H151.579C151.579 34.2413 151.342 32.4348 150.897 30.7099L147.992 31.4578ZM148.579 36.1003L145.579 36.0641L145.573 36.5484L148.573 36.5847L151.573 36.621L151.579 36.1366L148.579 36.1003ZM148.573 36.5847L145.574 36.5079C145.571 36.6291 145.566 36.7551 145.559 36.8887L148.556 37.0378L151.552 37.1869C151.56 37.0194 151.568 36.8434 151.572 36.6616L148.573 36.5847ZM148.556 37.0378V40.0378H161.504V37.0378V34.0378H148.556V37.0378ZM161.504 37.0378L164.223 35.7694C161.991 30.9857 157.287 27.6633 151.896 27.6628L151.896 30.6628L151.895 33.6628C154.739 33.6631 157.444 35.432 158.785 38.3062L161.504 37.0378ZM145.29 33.1111L143.365 30.8102C141.778 32.1382 140.473 33.8271 139.567 35.7694L142.285 37.0378L145.004 38.3063C145.541 37.1556 146.306 36.173 147.215 35.412L145.29 33.1111ZM142.285 37.0378V40.0378H145.55V37.0378V34.0378H142.285V37.0378ZM145.55 37.0378L148.544 37.2162C148.566 36.8562 148.579 36.4835 148.579 36.1003H145.579H142.579C142.579 36.3466 142.571 36.5989 142.555 36.8594L145.55 37.0378ZM145.579 36.1003H148.579C148.579 34.8817 148.459 33.6904 148.235 32.5375L145.29 33.1111L142.345 33.6847C142.498 34.4687 142.579 35.2759 142.579 36.1003H145.579Z" fill="#779EEA" mask="url(#path-32-inside-1_184_4181)"/>
</g>
<g opacity="0.3">
<mask id="path-34-inside-2_184_4181" fill="white">
<path d="M16.2607 114.355C22.6324 114.518 27.9434 118.981 29.4463 124.972C30.956 123.785 32.7565 123.094 34.6914 123.094L34.9395 123.097C38.4016 123.203 41.4077 125.519 43.0352 128.922H43.2861L43.7852 128.934C48.9179 129.194 52.9997 133.438 53 138.635L52.9873 139.135C52.7357 144.103 48.7526 148.086 43.7852 148.338L43.2861 148.35H9.71387L9.21484 148.338C4.24737 148.086 0.264339 144.103 0.0126953 139.135L0 138.635C0.000138585 136.17 0.919552 133.919 2.43359 132.206C2.13451 131.118 1.96219 129.977 1.93262 128.8L1.92773 128.436C1.92773 120.657 8.1835 114.35 15.9004 114.35L16.2607 114.355ZM44.0488 131.966C44.2297 132.858 44.3271 133.791 44.3271 134.751L44.3145 135.35C44.128 139.798 41.8801 143.588 38.7041 145.35H43.2861C46.9941 145.35 50 142.344 50 138.635C49.9997 135.186 47.3975 132.344 44.0488 131.966ZM29.4414 131.922C29.1342 133.138 28.6695 134.291 28.0713 135.358C28.3236 140.342 31.6569 143.408 34.6914 143.408C37.8472 143.408 41.327 140.091 41.3271 134.751C41.3271 133.731 41.199 132.785 40.9717 131.922H29.4414ZM3.79199 135.469C3.28663 136.413 3.00009 137.491 3 138.635C3 142.344 6.00586 145.35 9.71387 145.35H30.6816C28.3094 144.035 26.4532 141.591 25.5879 138.585C23.0761 141.022 19.6623 142.522 15.9004 142.522L15.54 142.517C10.5155 142.389 6.15033 139.587 3.79199 135.469ZM9.71387 131.922C8.31363 131.922 7.01343 132.35 5.9375 133.084C7.68073 136.892 11.4963 139.522 15.9004 139.522C19.7176 139.522 23.0915 137.545 25.0586 134.539C25.0719 133.638 25.1686 132.762 25.3418 131.922H9.71387ZM15.9004 117.35C9.86309 117.35 4.92773 122.291 4.92773 128.436C4.92775 129.007 4.97067 129.567 5.05273 130.114C6.29958 129.431 7.71156 129.01 9.21484 128.934L9.71387 128.922H26.3477C26.5061 128.59 26.6766 128.269 26.8604 127.96C26.613 122.038 21.7806 117.351 15.9004 117.35ZM34.6914 126.094C32.9746 126.094 31.1626 127.075 29.8662 128.83C29.8654 128.86 29.8643 128.891 29.8633 128.922H39.582C38.2819 127.11 36.4377 126.094 34.6914 126.094Z"/>
</mask>
<path d="M16.2607 114.355L16.3374 111.356L16.3194 111.356L16.3014 111.355L16.2607 114.355ZM29.4463 124.972L26.5364 125.702L27.6627 130.192L31.3011 127.33L29.4463 124.972ZM34.6914 123.094L34.7386 120.094L34.715 120.094H34.6914V123.094ZM34.9395 123.097L35.0313 120.099L35.009 120.098L34.9867 120.098L34.9395 123.097ZM43.0352 128.922L40.3288 130.216L41.1446 131.922H43.0352V128.922ZM43.2861 128.922L43.3624 125.923L43.3243 125.922H43.2861V128.922ZM43.7852 128.934L43.9369 125.938L43.8992 125.936L43.8615 125.935L43.7852 128.934ZM53 138.635L55.999 138.712L56 138.673L56 138.635L53 138.635ZM52.9873 139.135L55.9835 139.287L55.9854 139.249L55.9863 139.212L52.9873 139.135ZM43.7852 148.338L43.8615 151.337L43.8992 151.336L43.9369 151.334L43.7852 148.338ZM43.2861 148.35V151.35H43.3243L43.3624 151.349L43.2861 148.35ZM9.71387 148.35L9.63757 151.349L9.67571 151.35H9.71387V148.35ZM9.21484 148.338L9.0631 151.334L9.10081 151.336L9.13855 151.337L9.21484 148.338ZM0.0126953 139.135L-2.98634 139.212L-2.98538 139.249L-2.98346 139.287L0.0126953 139.135ZM0 138.635L-3 138.635L-3 138.673L-2.99903 138.712L0 138.635ZM2.43359 132.206L4.68141 134.193L5.75657 132.976L5.32632 131.411L2.43359 132.206ZM1.93262 128.8L-1.06711 128.84L-1.06688 128.857L-1.06644 128.875L1.93262 128.8ZM1.92773 128.436H-1.07227V128.456L-1.07199 128.477L1.92773 128.436ZM15.9004 114.35L15.941 111.351L15.9207 111.35H15.9004L15.9004 114.35ZM44.0488 131.966L44.3861 128.985L40.2899 128.521L41.1086 132.561L44.0488 131.966ZM44.3271 134.751L47.3265 134.814L47.3271 134.782V134.751H44.3271ZM44.3145 135.35L47.3118 135.476L47.3131 135.445L47.3138 135.414L44.3145 135.35ZM38.7041 145.35L37.2482 142.727L27.1171 148.35H38.7041V145.35ZM43.2861 145.35V148.35H43.2863L43.2861 145.35ZM50 138.635H53V138.635L50 138.635ZM29.4414 131.922V128.922H27.1047L26.5327 131.187L29.4414 131.922ZM28.0713 135.358L25.4546 133.891L25.0314 134.646L25.0751 135.51L28.0713 135.358ZM34.6914 143.408V146.408H34.6917L34.6914 143.408ZM41.3271 134.751L44.3271 134.751V134.751H41.3271ZM40.9717 131.922L43.8728 131.158L43.284 128.922H40.9717V131.922ZM3.79199 135.469L6.39518 133.978L3.70443 129.281L1.14765 134.053L3.79199 135.469ZM3 138.635L0 138.635V138.635H3ZM9.71387 145.35L9.71368 148.35H9.71387V145.35ZM30.6816 145.35V148.35H42.2785L32.1364 142.727L30.6816 145.35ZM25.5879 138.585L28.4709 137.755L27.0877 132.949L23.4986 136.432L25.5879 138.585ZM15.9004 142.522L15.8597 145.522L15.8801 145.522H15.9005L15.9004 142.522ZM15.54 142.517L15.4635 145.516L15.4814 145.517L15.4994 145.517L15.54 142.517ZM9.71387 131.922V128.922H9.71368L9.71387 131.922ZM5.9375 133.084L4.24796 130.605L2.15596 132.031L3.20973 134.332L5.9375 133.084ZM15.9004 139.522L15.9004 142.522H15.9005L15.9004 139.522ZM25.0586 134.539L27.5689 136.181L28.0455 135.453L28.0583 134.583L25.0586 134.539ZM25.3418 131.922L28.28 132.527L29.0231 128.922H25.3418V131.922ZM15.9004 117.35L15.9005 114.35L15.9004 114.35L15.9004 117.35ZM4.92773 128.436H1.92773V128.436L4.92773 128.436ZM5.05273 130.114L2.08595 130.559L2.72402 134.812L6.49475 132.745L5.05273 130.114ZM9.21484 128.934L9.13855 125.935L9.10081 125.936L9.06311 125.938L9.21484 128.934ZM9.71387 128.922V125.922H9.67571L9.63757 125.923L9.71387 128.922ZM26.3477 128.922V131.922H28.2381L29.0539 130.216L26.3477 128.922ZM26.8604 127.96L29.4401 129.491L29.8949 128.725L29.8577 127.835L26.8604 127.96ZM34.6914 126.094L34.6917 123.094H34.6914V126.094ZM29.8662 128.83L27.4533 127.047L26.893 127.806L26.8673 128.748L29.8662 128.83ZM29.8633 128.922L26.865 128.821L26.7608 131.922H29.8633V128.922ZM39.582 128.922V131.922H45.4272L42.0194 127.173L39.582 128.922ZM16.2607 114.355L16.1841 117.354C21.1656 117.482 25.3506 120.975 26.5364 125.702L29.4463 124.972L32.3561 124.243C30.5361 116.987 24.0993 111.555 16.3374 111.356L16.2607 114.355ZM29.4463 124.972L31.3011 127.33C32.3383 126.514 33.4976 126.094 34.6914 126.094V123.094V120.094C32.0154 120.094 29.5736 121.055 27.5915 122.614L29.4463 124.972ZM34.6914 123.094L34.6442 126.093L34.8922 126.097L34.9395 123.097L34.9867 120.098L34.7386 120.094L34.6914 123.094ZM34.9395 123.097L34.8476 126.096C36.9423 126.16 39.0694 127.583 40.3288 130.216L43.0352 128.922L45.7415 127.627C43.7461 123.455 39.8609 120.247 35.0313 120.099L34.9395 123.097ZM43.0352 128.922V131.922H43.2861V128.922V125.922H43.0352V128.922ZM43.2861 128.922L43.2098 131.921L43.7089 131.933L43.7852 128.934L43.8615 125.935L43.3624 125.923L43.2861 128.922ZM43.7852 128.934L43.6334 131.93C47.1785 132.11 49.9998 135.044 50 138.636L53 138.635L56 138.635C55.9996 131.832 50.6573 126.279 43.9369 125.938L43.7852 128.934ZM53 138.635L50.001 138.559L49.9883 139.059L52.9873 139.135L55.9863 139.212L55.999 138.712L53 138.635ZM52.9873 139.135L49.9911 138.984C49.8174 142.414 47.0633 145.168 43.6334 145.341L43.7852 148.338L43.9369 151.334C50.4419 151.004 55.6539 145.792 55.9835 139.287L52.9873 139.135ZM43.7852 148.338L43.7089 145.339L43.2098 145.351L43.2861 148.35L43.3624 151.349L43.8615 151.337L43.7852 148.338ZM43.2861 148.35V145.35H9.71387V148.35V151.35H43.2861V148.35ZM9.71387 148.35L9.79016 145.351L9.29114 145.339L9.21484 148.338L9.13855 151.337L9.63757 151.349L9.71387 148.35ZM9.21484 148.338L9.36658 145.341C5.93667 145.168 3.18261 142.414 3.00885 138.984L0.0126953 139.135L-2.98346 139.287C-2.65393 145.792 2.55807 151.004 9.0631 151.334L9.21484 148.338ZM0.0126953 139.135L3.01173 139.059L2.99903 138.559L0 138.635L-2.99903 138.712L-2.98634 139.212L0.0126953 139.135ZM0 138.635L3 138.636C3.0001 136.93 3.63295 135.379 4.68141 134.193L2.43359 132.206L0.18578 130.219C-1.79384 132.459 -2.99982 135.409 -3 138.635L0 138.635ZM2.43359 132.206L5.32632 131.411C5.0914 130.556 4.9551 129.657 4.93167 128.724L1.93262 128.8L-1.06644 128.875C-1.03071 130.297 -0.822378 131.679 -0.459136 133.001L2.43359 132.206ZM1.93262 128.8L4.93235 128.759L4.92746 128.396L1.92773 128.436L-1.07199 128.477L-1.06711 128.84L1.93262 128.8ZM1.92773 128.436H4.92773C4.92773 122.291 9.86316 117.35 15.9004 117.35L15.9004 114.35L15.9004 111.35C6.50384 111.35 -1.07227 119.023 -1.07227 128.436H1.92773ZM15.9004 114.35L15.8597 117.35L16.2201 117.355L16.2607 114.355L16.3014 111.355L15.941 111.351L15.9004 114.35ZM44.0488 131.966L41.1086 132.561C41.2503 133.261 41.3271 133.994 41.3271 134.751H44.3271H47.3271C47.3271 133.588 47.209 132.455 46.9891 131.37L44.0488 131.966ZM44.3271 134.751L41.3278 134.687L41.3151 135.287L44.3145 135.35L47.3138 135.414L47.3265 134.814L44.3271 134.751ZM44.3145 135.35L41.3171 135.225C41.1675 138.794 39.3745 141.547 37.2482 142.727L38.7041 145.35L40.16 147.973C44.3858 145.628 47.0886 140.803 47.3118 135.476L44.3145 135.35ZM38.7041 145.35V148.35H43.2861V145.35V142.35H38.7041V145.35ZM43.2861 145.35L43.2863 148.35C48.6514 148.35 53 144 53 138.635H50H47C47 140.687 45.3369 142.35 43.2859 142.35L43.2861 145.35ZM50 138.635L53 138.635C52.9996 133.641 49.2336 129.533 44.3861 128.985L44.0488 131.966L43.7115 134.947C45.5614 135.156 46.9998 136.73 47 138.636L50 138.635ZM29.4414 131.922L26.5327 131.187C26.2913 132.143 25.9259 133.05 25.4546 133.891L28.0713 135.358L30.6879 136.825C31.4132 135.532 31.9772 134.133 32.3501 132.656L29.4414 131.922ZM28.0713 135.358L25.0751 135.51C25.3849 141.628 29.6344 146.408 34.6914 146.408V143.408V140.408C33.6794 140.408 31.2623 139.056 31.0675 135.206L28.0713 135.358ZM34.6914 143.408L34.6917 146.408C39.9583 146.407 44.3269 141.254 44.3271 134.751L41.3271 134.751L38.3271 134.751C38.327 138.928 35.7362 140.408 34.6911 140.408L34.6914 143.408ZM41.3271 134.751H44.3271C44.3271 133.478 44.1671 132.275 43.8728 131.158L40.9717 131.922L38.0706 132.686C38.2309 133.294 38.3271 133.983 38.3271 134.751H41.3271ZM40.9717 131.922V128.922H29.4414V131.922V134.922H40.9717V131.922ZM3.79199 135.469L1.14765 134.053C0.41449 135.421 0.000134252 136.984 9.91715e-09 138.635L3 138.635L6 138.636C6.00005 137.997 6.15877 137.404 6.43633 136.886L3.79199 135.469ZM3 138.635H0C0 144 4.34858 148.35 9.71368 148.35L9.71387 145.35L9.71405 142.35C7.66314 142.35 6 140.687 6 138.635H3ZM9.71387 145.35V148.35H30.6816V145.35V142.35H9.71387V145.35ZM30.6816 145.35L32.1364 142.727C30.5539 141.849 29.1484 140.109 28.4709 137.755L25.5879 138.585L22.7049 139.414C23.758 143.074 26.0649 146.221 29.2269 147.974L30.6816 145.35ZM25.5879 138.585L23.4986 136.432C21.521 138.351 18.8473 139.522 15.9003 139.522L15.9004 142.522L15.9005 145.522C20.4773 145.522 24.6311 143.694 27.6772 140.738L25.5879 138.585ZM15.9004 142.522L15.941 139.522L15.5807 139.518L15.54 142.517L15.4994 145.517L15.8597 145.522L15.9004 142.522ZM15.54 142.517L15.6166 139.518C11.6882 139.418 8.25702 137.229 6.39518 133.978L3.79199 135.469L1.1888 136.961C4.04363 141.945 9.34289 145.36 15.4635 145.516L15.54 142.517ZM9.71387 131.922L9.71368 128.922C7.69194 128.922 5.8061 129.543 4.24796 130.605L5.9375 133.084L7.62704 135.563C8.22076 135.158 8.93531 134.922 9.71405 134.922L9.71387 131.922ZM5.9375 133.084L3.20973 134.332C5.41874 139.158 10.2692 142.522 15.9004 142.522L15.9004 139.522L15.9004 136.522C12.7234 136.522 9.94272 134.626 8.66527 131.835L5.9375 133.084ZM15.9004 139.522L15.9005 142.522C20.7807 142.522 25.076 139.991 27.5689 136.181L25.0586 134.539L22.5483 132.896C21.107 135.099 18.6545 136.522 15.9003 136.522L15.9004 139.522ZM25.0586 134.539L28.0583 134.583C28.0688 133.868 28.1455 133.18 28.28 132.527L25.3418 131.922L22.4036 131.316C22.1918 132.343 22.0749 133.407 22.0589 134.495L25.0586 134.539ZM25.3418 131.922V128.922H9.71387V131.922V134.922H25.3418V131.922ZM15.9004 117.35L15.9004 114.35C8.18528 114.35 1.92773 120.655 1.92773 128.436H4.92773H7.92773C7.92773 123.927 11.5409 120.35 15.9004 120.35L15.9004 117.35ZM4.92773 128.436L1.92773 128.436C1.92775 129.158 1.98203 129.867 2.08595 130.559L5.05273 130.114L8.01952 129.669C7.95932 129.268 7.92774 128.856 7.92773 128.436L4.92773 128.436ZM5.05273 130.114L6.49475 132.745C7.35721 132.272 8.32961 131.983 9.36658 131.93L9.21484 128.934L9.06311 125.938C7.09351 126.038 5.24195 126.589 3.61071 127.483L5.05273 130.114ZM9.21484 128.934L9.29114 131.933L9.79016 131.921L9.71387 128.922L9.63757 125.923L9.13855 125.935L9.21484 128.934ZM9.71387 128.922V131.922H26.3477V128.922V125.922H9.71387V128.922ZM26.3477 128.922L29.0539 130.216C29.1767 129.96 29.3054 129.718 29.4401 129.491L26.8604 127.96L24.2806 126.428C24.0478 126.821 23.8355 127.221 23.6414 127.627L26.3477 128.922ZM26.8604 127.96L29.8577 127.835C29.5444 120.333 23.4159 114.351 15.9005 114.35L15.9004 117.35L15.9003 120.35C20.1453 120.351 23.6816 123.742 23.863 128.085L26.8604 127.96ZM34.6914 126.094V123.094C31.8368 123.094 29.195 124.69 27.4533 127.047L29.8662 128.83L32.2791 130.613C33.1303 129.46 34.1124 129.094 34.6914 129.094V126.094ZM29.8662 128.83L26.8673 128.748C26.8668 128.767 26.8662 128.785 26.865 128.821L29.8633 128.922L32.8616 129.022C32.8624 128.998 32.8639 128.954 32.8651 128.911L29.8662 128.83ZM29.8633 128.922V131.922H39.582V128.922V125.922H29.8633V128.922ZM39.582 128.922L42.0194 127.173C40.2773 124.745 37.5954 123.094 34.6917 123.094L34.6914 126.094L34.6911 129.094C35.2799 129.094 36.2865 129.475 37.1446 130.671L39.582 128.922Z" fill="#779EEA" mask="url(#path-34-inside-2_184_4181)"/>
</g>
<g opacity="0.3">
<mask id="path-36-inside-3_184_4181" fill="white">
<path d="M373.053 172.35C379.435 172.35 384.834 176.545 386.628 182.32C388.074 181.386 389.745 180.85 391.526 180.85C395.208 180.85 398.42 183.131 400.14 186.518C405.59 186.549 410 190.975 410 196.433C410 201.91 405.56 206.35 400.083 206.35H365.917C360.44 206.35 356 201.91 356 196.433C356 193.596 357.193 191.039 359.104 189.231C358.933 188.353 358.842 187.446 358.842 186.517C358.842 178.693 365.204 172.35 373.053 172.35Z"/>
</mask>
<path d="M373.053 172.35C379.435 172.35 384.834 176.545 386.628 182.32C388.074 181.386 389.745 180.85 391.526 180.85C395.208 180.85 398.42 183.131 400.14 186.518C405.59 186.549 410 190.975 410 196.433C410 201.91 405.56 206.35 400.083 206.35H365.917C360.44 206.35 356 201.91 356 196.433C356 193.596 357.193 191.039 359.104 189.231C358.933 188.353 358.842 187.446 358.842 186.517C358.842 178.693 365.204 172.35 373.053 172.35Z" fill="white"/>
<path d="M373.053 172.35L373.053 169.35H373.053V172.35ZM386.628 182.32L383.763 183.21L384.936 186.985L388.256 184.84L386.628 182.32ZM391.526 180.85L391.526 177.85H391.526V180.85ZM400.14 186.518L397.465 187.877L398.293 189.508L400.123 189.518L400.14 186.518ZM410 196.433H413V196.433L410 196.433ZM356 196.433L353 196.433V196.433H356ZM359.104 189.231L361.165 191.41L362.363 190.277L362.048 188.658L359.104 189.231ZM358.842 186.517H355.842V186.517L358.842 186.517ZM373.053 172.35L373.053 175.35C378.089 175.35 382.349 178.659 383.763 183.21L386.628 182.32L389.493 181.43C387.318 174.431 380.781 169.35 373.053 169.35L373.053 172.35ZM386.628 182.32L388.256 184.84C389.251 184.197 390.361 183.85 391.526 183.85V180.85V177.85C389.129 177.85 386.898 178.574 385 179.8L386.628 182.32ZM391.526 180.85L391.526 183.85C393.891 183.85 396.165 185.318 397.465 187.877L400.14 186.518L402.815 185.16C400.674 180.944 396.525 177.85 391.526 177.85L391.526 180.85ZM400.14 186.518L400.123 189.518C403.925 189.539 407 192.627 407 196.433L410 196.433L413 196.433C413 189.324 407.256 183.558 400.156 183.518L400.14 186.518ZM410 196.433H407C407 200.253 403.903 203.35 400.083 203.35V206.35V209.35C407.217 209.35 413 203.567 413 196.433H410ZM400.083 206.35V203.35H365.917V206.35V209.35H400.083V206.35ZM365.917 206.35V203.35C362.097 203.35 359 200.253 359 196.433H356H353C353 203.567 358.783 209.35 365.917 209.35V206.35ZM356 196.433L359 196.433C359 194.456 359.828 192.676 361.165 191.41L359.104 189.231L357.042 187.052C354.559 189.401 353 192.736 353 196.433L356 196.433ZM359.104 189.231L362.048 188.658C361.913 187.965 361.842 187.25 361.842 186.517L358.842 186.517L355.842 186.517C355.842 187.642 355.952 188.741 356.159 189.804L359.104 189.231ZM358.842 186.517H361.842C361.842 180.359 366.853 175.35 373.053 175.35V172.35V169.35C363.556 169.35 355.842 177.028 355.842 186.517H358.842Z" fill="#779EEA" mask="url(#path-36-inside-3_184_4181)"/>
</g>
<path opacity="0.3" d="M213 47.3503L207.678 58.8582C207.245 59.8507 207 60.9792 207 62.1769C207 66.1393 209.686 69.3503 213 69.3503C216.314 69.3503 219 66.1393 219 62.1769C219 60.9792 218.755 59.8507 218.32 58.8582L213 47.3503Z" fill="#779EEA"/>
<path opacity="0.3" d="M194.5 74.3503L191.395 80.6273C191.143 81.1687 191 81.7842 191 82.4375C191 84.5989 192.567 86.3503 194.5 86.3503C196.433 86.3503 198 84.5989 198 82.4375C198 81.7842 197.857 81.1687 197.603 80.6273L194.5 74.3503Z" fill="#779EEA"/>
<path opacity="0.3" d="M219.5 94.3503L216.395 100.627C216.143 101.169 216 101.784 216 102.438C216 104.599 217.567 106.35 219.5 106.35C221.433 106.35 223 104.599 223 102.438C223 101.784 222.857 101.169 222.603 100.627L219.5 94.3503Z" fill="#779EEA"/>
<defs>
<linearGradient id="paint0_linear_184_4181" x1="36.9805" y1="187.048" x2="36.9805" y2="279.35" gradientUnits="userSpaceOnUse">
<stop stop-color="#779EEA" stop-opacity="0.4"/>
<stop offset="1" stop-color="white" stop-opacity="0.01"/>
</linearGradient>
</defs>
</svg>
