<svg width="200" height="200" viewBox="0 0 200 200" fill="currentColor" xmlns="http://www.w3.org/2000/svg">
<!-- <rect width="200" height="200" fill="white"/> -->
<path d="M187.572 29.1919C156.462 27.9798 127.567 17.7778 102.436 1.51515C101.022 0.594207 99.1989 0.594205 97.7858 1.51515C72.6546 17.7778 43.7593 27.9798 12.6498 29.1919H12C9.79086 29.1919 8 30.9828 8 33.1919V95.8586C8 145.051 45.42 188.586 99.0036 199.798L99.8331 199.936C100.09 199.978 100.352 199.97 100.605 199.912L101.107 199.798C154.691 188.485 192 144.949 192 95.8586V33.1919C192 30.9828 190.209 29.1919 188 29.1919H187.572ZM100 16C124.135 31.0505 150.5 39 178.857 41L178.857 101.515C172.324 171.774 105.299 186.448 99.8327 187.513C99.6041 187.557 99.4119 187.561 99.1837 187.514C94.0761 186.46 27.6361 171.422 21.1429 101.01L21.1429 40.5625C21.5857 40.5625 22.0572 40.5625 22.5 40.5625C51.108 38.2188 76.3081 30.8485 100 16Z" fill="currentColor"/>
<path d="M95.0752 44.4373C105.181 45.2029 112.059 47.376 116.505 49.5886C118.726 50.6942 120.345 51.8128 121.455 52.7742C122.01 53.2543 122.445 53.7019 122.767 54.0964C123.018 54.4051 123.236 54.7261 123.372 55.0339C125.422 57.6614 126.452 60.2889 127.448 63.3064L127.5 63.4626V63.6267C127.5 63.9512 127.574 64.1911 127.698 64.5691C127.815 64.9227 127.974 65.3972 127.995 66.0154C129 70.1818 128.5 74.4184 128.5 76.7576C128.5 77.4009 128.34 78.0376 128.227 78.5544C128.121 79.0356 128.027 79.5112 128.005 80.0515C128.188 80.3942 128.373 80.6787 128.582 80.9949C128.814 81.3458 129.071 81.738 129.331 82.2449C129.716 82.7099 129.862 83.2828 129.928 83.7488C130.002 84.2755 130 84.8573 130 85.3435C130 86.4904 129.471 92.2688 125.819 97.5388L125.769 97.6121L125.707 97.6736C125.254 98.1313 124.79 98.7156 124.281 99.3582C123.798 99.9678 123.271 100.633 122.733 101.18C119.714 104.736 116.977 107.523 116.5 113.165V114.611C116.676 114.7 116.938 114.814 117.316 114.941C117.837 115.116 118.504 115.297 119.324 115.481L120.196 115.666L120.235 115.674L120.274 115.685C121.996 116.182 123.595 116.555 124.821 116.802C125.435 116.926 125.951 117.018 126.34 117.079C126.534 117.109 126.692 117.131 126.813 117.145C126.873 117.152 126.92 117.156 126.955 117.159C126.993 117.162 127.005 117.162 127 117.162H127.083L127.164 117.176C133.209 118.193 137.869 119.735 141.54 122.371C145.131 124.453 147.762 127.084 149.363 130.286C150.927 132.671 151.723 135.071 151.991 137.104C152.126 138.126 152.129 139.069 152.022 139.88C151.935 140.543 151.765 141.164 151.5 141.673V143.425C151.5 147.013 148.552 149.99 145 149.99H54C50.4478 149.99 47.5002 147.013 47.5 143.425V140.899C47.5 139.835 47.4995 135.039 50.668 130.238C52.7412 127.097 55.3355 124.476 58.4453 122.382C62.1136 119.744 66.7701 118.198 72.3213 117.178L72.4102 117.162H72.5C72.5032 117.162 72.5201 117.162 72.5557 117.159C72.5963 117.156 72.6507 117.15 72.7188 117.143C72.8549 117.129 73.035 117.107 73.2539 117.077C73.6913 117.016 74.2711 116.924 74.9463 116.8C76.2979 116.551 78.0149 116.179 79.7256 115.685L79.7646 115.674L79.8037 115.666C81.0342 115.417 81.9893 115.175 82.6836 114.941C83.0615 114.814 83.3241 114.7 83.5 114.611V113.165C83.0213 107.508 80.2704 104.722 77.2412 101.152L77.2012 101.105L77.168 101.055C76.2282 99.6315 75.2919 98.6826 74.293 97.6736L74.2314 97.6121L74.1807 97.5388C70.605 92.379 70.0234 87.2131 70.002 85.4451C69.7418 84.0487 69.8781 82.8745 70.2539 81.8875C70.5585 81.0875 71.0058 80.4492 71.458 79.9373C71.0024 75.4058 71.0138 69.5724 71.5 65.5837C71.5188 62.2789 73.0142 59.3178 74.5576 57.1091C75.8838 55.2115 77.3089 53.7836 78 53.1013V50.9001L78.0195 50.8015C78.5907 47.9177 80.8441 45.6121 83.6826 44.9871C84.3083 44.6994 85.0108 44.5672 85.5771 44.5037C86.1987 44.4339 86.7462 44.4343 87 44.4343H95.0371L95.0752 44.4373ZM48.5186 139.999C48.4996 140.405 48.5 140.712 48.5 140.899C48.5 140.712 48.4996 140.405 48.5186 139.999ZM87.5 56.0505C87.5 56.3636 87.4173 56.6374 87.2793 56.8699C87.1847 57.0291 87.0686 57.153 87 57.2234V57.2996L86.8945 57.5125C86.3194 58.6743 85.2232 59.8009 84.0762 60.4207C84.0626 60.4331 84.0471 60.4469 84.0303 60.4626C83.9452 60.5425 83.8205 60.6643 83.6689 60.821C83.3649 61.1355 82.9584 61.5879 82.5547 62.1414C81.7279 63.2748 81.0001 64.7026 81 66.1511V66.2078L80.9941 66.2634C80.5018 70.7396 80.503 76.215 80.9922 80.1677L81 80.2302V80.2927C81 80.2785 80.9987 80.2899 81.0078 80.3474C81.0169 80.4043 81.0303 80.4725 81.0508 80.5759C81.0899 80.7734 81.1451 81.0487 81.1816 81.3806C81.2563 82.0597 81.2504 82.9387 80.9697 84.073L80.9033 84.3455L80.707 84.5427L79.707 85.5525L79.5107 85.7498C79.5574 86.7876 79.8493 89.4496 81.6875 92.1482C82.2453 92.4825 82.6581 92.9224 83.0088 93.3357C83.437 93.8403 83.7419 94.2604 84.207 94.7302C87.7946 98.354 91.9571 103.603 92.9932 112.498L93 112.557V118.085L92.707 118.381C92.6104 118.478 92.5466 118.544 92.5 118.594V118.916L92.3945 119.129C91.7768 120.377 90.6 121.514 88.875 122.519C87.1441 123.528 84.7984 124.44 81.7422 125.212C79.7152 125.724 77.8159 126.108 76.3584 126.364C75.63 126.492 75.0084 126.589 74.5332 126.654C74.1786 126.703 73.8642 126.738 73.6475 126.751C69.6908 127.752 66.3832 128.728 63.5693 130.619C61.5304 132.164 59.7641 133.533 58.8945 135.29C58.202 136.689 57.8504 138.1 57.6738 139.171C57.5918 139.668 57.5483 140.086 57.5254 140.387L142.788 139.892C142.826 139.575 142.841 139.142 142.813 138.616C142.756 137.523 142.529 136.128 142.074 134.727C141.194 132.999 139.446 131.641 137.43 130.113C134.617 128.223 131.304 127.246 126.859 126.246C126.642 126.233 126.325 126.198 125.967 126.149C125.492 126.084 124.87 125.987 124.142 125.859C122.684 125.603 120.785 125.219 118.758 124.707C115.737 123.944 113.389 123.163 111.651 122.219C109.97 121.304 108.79 120.196 108.153 118.741C108.087 118.673 108.022 118.609 107.968 118.548C107.874 118.442 107.758 118.301 107.668 118.119C107.525 117.831 107.503 117.535 107.5 117.331V112.052L107.507 111.993C108.543 103.098 112.705 97.8491 116.293 94.2253C116.828 93.6851 117.412 93.2349 117.787 92.9099C118.196 92.5558 118.447 92.2832 118.605 91.9626L118.641 91.8914L118.687 91.8269C119.834 90.2041 120.416 88.4498 120.71 87.0857C120.856 86.4068 120.929 85.8328 120.965 85.4333C120.971 85.3611 120.973 85.2943 120.978 85.2341L120.393 84.6433C119.603 84.1665 119.285 83.3454 119.145 82.6375C118.996 81.8881 119 81.0212 119 80.2927V80.1687L119.03 80.0486C119.501 78.1451 119.5 77.2289 119.5 75.7478C119.5 73.2227 119.499 70.2564 119.01 66.7996L119 66.7283V66.657C119 66.3857 118.996 66.256 118.968 66.1433C118.948 66.0647 118.912 65.9753 118.793 65.8552L118.597 65.658L118.53 65.3865C118.087 63.597 117.213 62.2362 116.231 60.7478C116.193 60.7127 116.138 60.663 116.064 60.6003C115.89 60.4513 115.614 60.2283 115.229 59.9539C114.458 59.4051 113.246 58.6473 111.522 57.8533C108.082 56.2681 102.587 54.5304 94.4688 54.03H87.5V56.0505ZM48.5889 139.05C48.5791 139.147 48.5722 139.241 48.5645 139.333C48.5722 139.241 48.5791 139.147 48.5889 139.05ZM57.1631 136.969C56.9338 137.724 56.7824 138.427 56.6846 139.024C56.7824 138.427 56.9338 137.724 57.1631 136.969ZM48.6523 138.504C48.6412 138.589 48.6326 138.672 48.623 138.754C48.6326 138.672 48.6412 138.589 48.6523 138.504ZM48.7393 137.917C48.7226 138.019 48.7087 138.119 48.6943 138.218C48.7087 138.119 48.7226 138.019 48.7393 137.917ZM48.8594 137.255C48.8369 137.367 48.8176 137.478 48.7979 137.587C48.8176 137.478 48.8369 137.367 48.8594 137.255ZM49.0117 136.564C48.9864 136.67 48.9643 136.775 48.9414 136.878C48.9643 136.775 48.9864 136.67 49.0117 136.564ZM49.2012 135.837C49.1862 135.89 49.1716 135.942 49.1572 135.995C49.1716 135.942 49.1862 135.89 49.2012 135.837ZM49.3184 135.44C49.2942 135.519 49.2698 135.597 49.2471 135.675C49.2698 135.597 49.2942 135.519 49.3184 135.44ZM49.6104 134.566C49.5707 134.676 49.532 134.784 49.4951 134.892C49.532 134.784 49.5707 134.676 49.6104 134.566ZM49.7461 134.205C49.7047 134.312 49.6637 134.418 49.625 134.524C49.6637 134.418 49.7047 134.312 49.7461 134.205ZM49.9121 133.79C49.8696 133.892 49.8281 133.994 49.7881 134.095C49.8281 133.994 49.8696 133.892 49.9121 133.79ZM50.1084 133.335C50.0513 133.462 49.9955 133.589 49.9424 133.716C49.9955 133.589 50.0513 133.462 50.1084 133.335ZM50.208 133.116C50.1786 133.179 50.1495 133.242 50.1211 133.305C50.1495 133.242 50.1786 133.179 50.208 133.116ZM50.7061 132.124C50.6428 132.241 50.5812 132.357 50.5215 132.473C50.5812 132.357 50.6428 132.241 50.7061 132.124ZM148.5 130.798C148.409 130.615 148.315 130.434 148.217 130.255C148.315 130.434 148.409 130.615 148.5 130.798ZM52.249 129.719C52.0107 130.045 51.7794 130.379 51.5537 130.719C51.7794 130.379 52.0107 130.045 52.249 129.719ZM148.112 130.072C148.045 129.953 147.979 129.834 147.908 129.717C147.979 129.834 148.045 129.953 148.112 130.072ZM52.6426 129.192C52.5598 129.3 52.4788 129.41 52.3975 129.519C52.4788 129.41 52.5598 129.3 52.6426 129.192ZM147.74 129.446C147.689 129.365 147.639 129.283 147.587 129.203C147.639 129.283 147.689 129.365 147.74 129.446ZM53.0459 128.679C52.9656 128.779 52.8867 128.88 52.8076 128.981C52.8867 128.88 52.9656 128.779 53.0459 128.679ZM147.392 128.916C147.341 128.841 147.29 128.767 147.237 128.693C147.29 128.767 147.341 128.841 147.392 128.916ZM53.4639 128.174C53.3877 128.264 53.3133 128.355 53.2383 128.446C53.3133 128.355 53.3877 128.264 53.4639 128.174ZM147.057 128.446C146.991 128.357 146.925 128.268 146.857 128.18C146.925 128.268 146.991 128.357 147.057 128.446ZM53.916 127.654C53.8203 127.761 53.7259 127.87 53.6318 127.979C53.7259 127.87 53.8203 127.761 53.916 127.654ZM146.689 127.969C146.613 127.873 146.536 127.778 146.457 127.683C146.536 127.778 146.613 127.873 146.689 127.969ZM54.3379 127.191C54.239 127.297 54.1412 127.404 54.0439 127.511C54.1412 127.404 54.239 127.297 54.3379 127.191ZM146.287 127.485C146.206 127.391 146.124 127.298 146.04 127.205C146.124 127.298 146.206 127.391 146.287 127.485ZM145.853 127.002C145.771 126.914 145.688 126.827 145.604 126.741C145.688 126.827 145.771 126.914 145.853 127.002ZM54.7598 126.751C54.6808 126.832 54.6014 126.912 54.5234 126.994C54.6014 126.912 54.6808 126.832 54.7598 126.751ZM145.405 126.54C145.317 126.452 145.228 126.364 145.137 126.277C145.228 126.364 145.317 126.452 145.405 126.54ZM55.2666 126.246C55.1684 126.341 55.0703 126.436 54.9736 126.533C55.0703 126.436 55.1684 126.341 55.2666 126.246ZM55.7197 125.817C55.6174 125.912 55.5148 126.006 55.4141 126.102C55.5148 126.006 55.6174 125.912 55.7197 125.817ZM144.935 126.087C144.844 126.003 144.751 125.92 144.658 125.837C144.751 125.92 144.844 126.003 144.935 126.087ZM56.2168 125.369C56.1144 125.459 56.012 125.549 55.9111 125.64C56.012 125.549 56.1144 125.459 56.2168 125.369ZM144.435 125.639C144.329 125.548 144.221 125.459 144.112 125.369C144.221 125.459 144.329 125.548 144.435 125.639ZM56.6934 124.96C56.591 125.046 56.4886 125.131 56.3877 125.219C56.4886 125.131 56.591 125.046 56.6934 124.96ZM143.921 125.212C143.826 125.135 143.728 125.06 143.631 124.984C143.728 125.06 143.826 125.135 143.921 125.212ZM143.379 124.789C143.27 124.707 143.16 124.627 143.049 124.547C143.16 124.627 143.27 124.707 143.379 124.789ZM57.1475 124.587C57.0653 124.653 56.9827 124.718 56.9014 124.785C56.9827 124.718 57.0653 124.653 57.1475 124.587ZM142.831 124.39C142.661 124.271 142.488 124.153 142.313 124.036C142.488 124.153 142.661 124.271 142.831 124.39ZM57.7441 124.122C57.6304 124.208 57.5165 124.294 57.4043 124.382C57.5165 124.294 57.6304 124.208 57.7441 124.122ZM142.254 123.996C142.055 123.864 141.851 123.735 141.645 123.607C141.851 123.735 142.055 123.864 142.254 123.996ZM108.598 111.347C108.576 111.504 108.557 111.662 108.537 111.821C108.557 111.662 108.576 111.504 108.598 111.347ZM108.713 110.596C108.698 110.688 108.685 110.78 108.671 110.872C108.685 110.78 108.698 110.688 108.713 110.596ZM108.85 109.834C108.833 109.919 108.818 110.005 108.803 110.091C108.818 110.005 108.833 109.919 108.85 109.834ZM108.988 109.15C108.97 109.234 108.954 109.318 108.937 109.403C108.954 109.318 108.97 109.234 108.988 109.15ZM109.141 108.481C109.118 108.574 109.097 108.668 109.075 108.762C109.097 108.668 109.118 108.574 109.141 108.481ZM109.321 107.772C109.292 107.883 109.263 107.994 109.234 108.106C109.263 107.994 109.292 107.883 109.321 107.772ZM109.495 107.153C109.475 107.222 109.455 107.291 109.436 107.36C109.455 107.291 109.475 107.222 109.495 107.153ZM109.713 106.442C109.677 106.554 109.641 106.667 109.606 106.78C109.641 106.667 109.677 106.554 109.713 106.442ZM109.926 105.813C109.885 105.93 109.844 106.047 109.805 106.166C109.844 106.047 109.885 105.93 109.926 105.813ZM110.171 105.141C110.121 105.272 110.071 105.404 110.022 105.537C110.071 105.404 110.121 105.272 110.171 105.141ZM110.41 104.535C110.351 104.68 110.291 104.826 110.233 104.974C110.291 104.826 110.351 104.68 110.41 104.535ZM110.638 103.994C110.588 104.109 110.538 104.225 110.489 104.342C110.538 104.225 110.588 104.109 110.638 103.994ZM110.974 103.253C110.89 103.429 110.808 103.607 110.728 103.788C110.808 103.607 110.89 103.429 110.974 103.253ZM112.459 100.544C112.136 101.058 111.823 101.596 111.523 102.159C111.823 101.596 112.136 101.058 112.459 100.544ZM122 100.495C122.117 100.377 122.233 100.251 122.35 100.121C122.233 100.251 122.117 100.377 122 100.495ZM113.013 99.697C112.938 99.8063 112.865 99.9166 112.791 100.028C112.865 99.9166 112.938 99.8063 113.013 99.697ZM122.5 99.949C122.568 99.8704 122.638 99.7911 122.706 99.7097C122.638 99.7911 122.568 99.8704 122.5 99.949ZM113.327 99.2449C113.248 99.3558 113.171 99.4685 113.093 99.5818C113.171 99.4685 113.248 99.3558 113.327 99.2449ZM123.561 98.6511C123.315 98.9612 123.068 99.2715 122.822 99.5691C123.068 99.2715 123.315 98.9612 123.561 98.6511ZM113.642 98.8113C113.573 98.9048 113.504 98.9993 113.436 99.0945C113.504 98.9993 113.573 98.9048 113.642 98.8113ZM113.951 98.3982C113.884 98.4862 113.817 98.5752 113.75 98.6648C113.817 98.5752 113.884 98.4862 113.951 98.3982ZM85.832 98.0037V98.0027V98.0037ZM114.273 97.9851C114.212 98.0622 114.152 98.1402 114.091 98.2185C114.152 98.1402 114.212 98.0622 114.273 97.9851ZM114.531 97.6648C114.476 97.732 114.422 97.7998 114.367 97.8679C114.422 97.7998 114.476 97.732 114.531 97.6648ZM115.819 96.1785C116.216 95.7451 116.611 95.3324 117 94.9392L116.339 95.6199C116.166 95.8018 115.993 95.9885 115.819 96.1785ZM81 92.9197V92.9187V92.9197ZM80.2295 64.5408C80.1718 64.748 80.1241 64.9589 80.0869 65.1726L80.1504 64.8552C80.1743 64.7499 80.2007 64.6454 80.2295 64.5417V64.5408ZM81.1123 62.5125C80.9054 62.8651 80.7122 63.2408 80.5469 63.6345L80.6748 63.3455C80.8089 63.0562 80.9566 62.7777 81.1123 62.5125ZM82.9521 60.115C82.5749 60.5052 82.0566 61.0957 81.5566 61.822C82.0566 61.0957 82.5749 60.5052 82.9521 60.115ZM113.727 57.8347C114.078 58.028 114.399 58.2148 114.69 58.3933C114.254 58.1257 113.751 57.8386 113.178 57.5408L113.727 57.8347ZM107.589 55.281C109.603 55.9096 111.255 56.5904 112.581 57.24L111.938 56.9343C110.732 56.3788 109.289 55.8116 107.589 55.281ZM122.863 56.0193C123.073 56.302 123.271 56.5857 123.459 56.8699C123.271 56.5857 123.073 56.302 122.863 56.0193ZM86.2666 56.5369C86.2855 56.5177 86.3041 56.4982 86.3223 56.4783C86.3041 56.4982 86.2855 56.5177 86.2666 56.5369ZM86.3613 56.4314C86.3763 56.413 86.39 56.3939 86.4033 56.3738C86.39 56.3939 86.3763 56.413 86.3613 56.4314ZM100.203 53.614C102.504 53.9603 104.533 54.4083 106.313 54.9041C104.365 54.3614 102.118 53.8762 99.543 53.5183L100.203 53.614ZM96.752 53.1941H96.751H96.752ZM111.221 102.748C111.137 102.914 111.054 103.082 110.974 103.253C111.054 103.082 111.137 102.914 111.221 102.748ZM112.714 100.146C112.628 100.277 112.543 100.41 112.459 100.544C112.543 100.41 112.628 100.277 112.714 100.146ZM115.588 96.4333C115.397 96.6455 115.206 96.8621 115.016 97.0847C115.206 96.8621 115.397 96.6455 115.588 96.4333ZM115.588 96.4333C115.616 96.4021 115.643 96.3697 115.671 96.3386C115.643 96.3697 115.616 96.4021 115.588 96.4333Z" fill="currentColor"/>
</svg>
