<svg width="200" height="200" viewBox="0 0 200 200" fill="none" xmlns="http://www.w3.org/2000/svg">
<path d="M104.522 11.2205L138.489 30.9397C139.861 31.7431 140.999 32.8906 141.79 34.2685C142.581 35.6464 142.998 37.2069 143 38.7954V78.2337C142.999 79.8222 142.582 81.3828 141.791 82.7609C141.001 84.1391 139.863 85.2869 138.492 86.0908L104.522 105.779C103.152 106.579 101.594 107 100.007 107C98.4203 107 96.8621 106.579 95.4919 105.779L61.5219 86.0603C60.1474 85.2595 59.0068 84.113 58.2134 82.7351C57.4201 81.3571 57.0018 79.7956 57 78.206V38.7677C57.0009 37.1794 57.419 35.6191 58.2125 34.2428C59.006 32.8664 60.1472 31.7222 61.5219 30.9244L95.4919 11.2205C96.8621 10.4212 98.4203 10 100.007 10C101.594 10 103.152 10.4212 104.522 11.2205ZM100.007 24.0114L70.0208 42.5264V76.5539L99.8197 94.0681C99.8784 94.0866 99.9413 94.0866 100 94.0681L100.18 94.082L129.979 76.0535V42.026L100.007 24.0114Z" fill="black"/>
<path d="M153.522 94.2205L187.489 113.94C188.861 114.743 189.999 115.891 190.79 117.268C191.581 118.646 191.998 120.207 192 121.795V161.234C191.999 162.822 191.582 164.383 190.791 165.761C190.001 167.139 188.863 168.287 187.492 169.091L153.522 188.779C152.152 189.579 150.594 190 149.007 190C147.42 190 145.862 189.579 144.492 188.779L110.522 169.06C109.147 168.259 108.007 167.113 107.213 165.735C106.42 164.357 106.002 162.796 106 161.206V121.768C106.001 120.179 106.419 118.619 107.213 117.243C108.006 115.866 109.147 114.722 110.522 113.924L144.492 94.2205C145.862 93.4212 147.42 93 149.007 93C150.594 93 152.152 93.4212 153.522 94.2205ZM149.007 107.011L119.021 125.526V159.554L148.82 177.068C148.878 177.087 148.941 177.087 149 177.068L149.18 177.082L178.979 159.054V125.026L149.007 107.011Z" fill="black"/>
<path d="M55.5219 94.2205L89.4892 113.94C90.8609 114.743 91.9986 115.891 92.7899 117.268C93.5811 118.646 93.9982 120.207 94 121.795V161.234C93.9987 162.822 93.5821 164.383 92.7914 165.761C92.0007 167.139 90.8633 168.287 89.4919 169.091L55.5219 188.779C54.1518 189.579 52.5936 190 51.0069 190C49.4203 190 47.8621 189.579 46.4919 188.779L12.5219 169.06C11.1474 168.259 10.0068 167.113 9.21345 165.735C8.42012 164.357 8.00176 162.796 8 161.206V121.768C8.00092 120.179 8.41902 118.619 9.21253 117.243C10.006 115.866 11.1472 114.722 12.5219 113.924L46.4919 94.2205C47.8621 93.4212 49.4203 93 51.0069 93C52.5936 93 54.1518 93.4212 55.5219 94.2205ZM51.0069 107.011L21.0208 125.526V159.554L50.8197 177.068C50.8784 177.087 50.9413 177.087 51 177.068L51.1803 177.082L80.9792 159.054V125.026L51.0069 107.011Z" fill="black"/>
</svg>
