<svg width="200" height="200" viewBox="0 0 200 200" fill="none" xmlns="http://www.w3.org/2000/svg">
<path d="M78.6845 16.6503C89.7635 4.95471 108.136 4.37074 120.068 15.4745L120.14 15.5419L120.182 15.6298C120.296 15.8761 120.407 16.0344 120.537 16.1611C120.637 16.2591 120.761 16.35 120.93 16.4501L121.114 16.5536L121.186 16.5917L121.242 16.6523L187.985 87.6122L188.272 87.9081C194.2 94.1705 193.783 104.033 187.718 110.154L187.717 110.156C184.735 113.146 180.613 114.608 176.474 114.608H171.261V172.162C171.261 183.395 162.18 192.46 150.978 192.5H115.472C111.475 192.5 108.377 189.391 108.377 185.388V128.987H89.0175V185.388C89.0173 189.392 85.9192 192.5 81.9228 192.5H46.955C35.7488 192.5 26.7103 183.393 26.6708 172.164V114.608H23.4901C19.2564 114.608 15.1787 112.942 12.1698 109.925C10.684 108.443 9.50551 106.68 8.70401 104.739C7.90219 102.797 7.49302 100.715 7.49991 98.6132C7.50032 94.4615 8.95994 90.6061 11.9296 87.6611L78.6825 16.6523L78.6845 16.6503ZM110.814 24.5273C104.982 18.4211 95.5612 18.1272 89.4384 23.9687L89.2929 24.1074H89.1015C89.1 24.1079 89.0979 24.1083 89.0956 24.1093C89.0832 24.1149 89.0665 24.1254 89.0507 24.1406C89.0349 24.1557 89.0252 24.1707 89.0204 24.1806C89.0159 24.1899 89.0175 24.1906 89.0175 24.1835V24.3818L20.5185 97.2275L20.5165 97.2304C19.8585 97.9202 19.857 98.9972 20.5126 99.6884C20.9306 100.105 21.3142 100.114 21.8798 100.114H32.4999C36.4964 100.114 39.5954 103.223 39.5956 107.227V173.546C39.5956 177 42.5164 179.927 45.9579 179.928H76.2089V129.602C76.2089 125.974 77.6396 122.463 80.1884 119.907C82.7723 117.316 86.2347 115.877 89.8593 115.915H107.957C111.577 115.915 115.079 117.351 117.628 119.907C120.212 122.499 121.646 125.97 121.607 129.604L121.342 179.965L152.816 179.928C156.258 179.927 159.18 177 159.18 173.546V107.496C159.18 103.492 162.278 100.384 166.274 100.384H178.583C179.243 100.384 179.861 99.9494 180.101 99.3007C180.219 98.9263 180.267 98.5807 180.213 98.2548C180.16 97.9349 180.003 97.5947 179.647 97.2382L179.638 97.2285L110.814 24.5273Z" fill="black"/>
</svg>
