<svg width="200" height="200" viewBox="0 0 200 200" fill="none" xmlns="http://www.w3.org/2000/svg">
<path d="M164.133 8.59961H37.7996C27.7289 8.59961 19.5996 16.7289 19.5996 26.7996V172.4C19.5996 182.47 27.7289 190.6 37.7996 190.6H90.5996C93.9969 190.6 96.6663 187.93 96.6663 184.533C96.6663 181.136 93.9969 178.466 90.5996 178.466H37.7996C34.4023 178.466 31.7329 175.797 31.7329 172.4V26.7996C31.7329 23.4023 34.4023 20.7329 37.7996 20.7329H164.133C167.53 20.7329 170.2 23.4023 170.2 26.7996V91.0996C170.2 94.4969 172.869 97.1663 176.266 97.1663C179.664 97.1663 182.333 94.4969 182.333 91.0996V26.7996C182.333 16.7289 174.204 8.59961 164.133 8.59961ZM43.1383 95.1103C43.1383 98.5076 45.8076 101.177 49.2049 101.177H96.0996C99.4969 101.177 102.166 98.5076 102.166 95.1103C102.166 91.713 99.4969 89.0436 96.0996 89.0436H49.2049C45.9289 89.0436 43.1383 91.8343 43.1383 95.1103ZM43.1383 55.9196C43.1383 59.3169 45.8076 61.9863 49.2049 61.9863H135.033C138.43 61.9863 141.1 59.3169 141.1 55.9196C141.1 52.5223 138.43 49.853 135.033 49.853H49.2049C45.9289 49.853 43.1383 52.5223 43.1383 55.9196Z" fill="black"/>
<path d="M19 26.7998V172.399C19 182.801 27.3978 191.199 37.7998 191.199L37.7996 190.6L37.3291 190.594C27.4769 190.345 19.5996 182.313 19.5996 172.4V26.7996C19.5996 16.8863 27.4769 8.854 37.3291 8.60547L37.7996 8.59961H164.133C174.204 8.59961 182.333 16.7289 182.333 26.7996V91.0996C182.333 94.3907 179.828 96.9982 176.583 97.1582L176.266 97.1663C172.869 97.1663 170.2 94.4969 170.2 91.0996V26.7996C170.2 23.4023 167.53 20.7329 164.133 20.7329L164.133 21.333C167.199 21.333 169.6 23.7338 169.6 26.7998V91.0996C169.6 94.8283 172.538 97.7666 176.267 97.7666C179.995 97.7665 182.933 94.8282 182.933 91.0996V26.7998C182.933 16.3978 174.535 8 164.133 8H37.7998C27.3978 8 19 16.3978 19 26.7998ZM164.133 21.333L164.133 20.7329H37.7996L37.7998 21.333H164.133ZM31.7329 26.7996V172.4C31.7329 175.691 34.2381 178.299 37.4834 178.459L37.7996 178.466H90.5996L90.916 178.474C94.1612 178.633 96.6663 181.242 96.6663 184.533C96.6663 187.93 93.9969 190.6 90.5996 190.6V191.199C94.3282 191.199 97.2665 188.262 97.2666 184.533C97.2666 180.805 94.3283 177.866 90.5996 177.866H37.7998C34.7338 177.866 32.333 175.465 32.333 172.399V26.7998C32.333 23.7338 34.7338 21.333 37.7998 21.333L37.7996 20.7329L37.4834 20.7402C34.3427 20.8948 31.8948 23.3427 31.7402 26.4834L31.7329 26.7996ZM42.5381 55.9199C42.5383 59.6485 45.4765 62.5859 49.2051 62.5859L49.2049 61.9863L48.8887 61.9785C45.6435 61.8188 43.1384 59.2106 43.1383 55.9196L43.1465 55.6035C43.3078 52.4628 45.8586 50.0149 48.8994 49.8604L49.2049 49.853H135.033L135.35 49.8604C138.49 50.0152 140.937 52.463 141.092 55.6035L141.1 55.9196C141.099 59.2105 138.595 61.8185 135.35 61.9785L135.033 61.9863L135.033 62.5859C138.762 62.5858 141.699 59.6484 141.699 55.9199C141.699 52.1913 138.762 49.2531 135.033 49.2529H49.2051C45.6055 49.2529 42.5381 52.1834 42.5381 55.9199ZM135.033 62.5859L135.033 61.9863H49.2049L49.2051 62.5859H135.033ZM42.5381 95.1104C42.5381 98.839 45.4764 101.777 49.2051 101.777L49.2049 101.177L48.8887 101.169C45.6434 101.009 43.1383 98.4014 43.1383 95.1103L43.1465 94.8047C43.3079 91.7639 45.8587 89.2131 48.8994 89.0518L49.2049 89.0436H96.0996L96.4155 89.0518C99.5563 89.2062 102.004 91.6533 102.159 94.7939L102.166 95.1103C102.166 98.4016 99.6609 101.009 96.4155 101.169L96.0996 101.177L96.1001 101.777C99.8285 101.777 102.766 98.8389 102.766 95.1104C102.766 91.3818 99.8286 88.4436 96.1001 88.4434H49.2051C45.5977 88.4434 42.5381 91.503 42.5381 95.1104ZM96.1001 101.777L96.0996 101.177H49.2049L49.2051 101.777H96.1001ZM90.5996 191.199V190.6H37.7996L37.7998 191.199H90.5996Z" fill="black"/>
<path d="M171.371 116.787C151.301 102.898 123.676 107.926 109.787 127.996C95.898 148.065 100.926 175.69 120.996 189.579C141.065 203.468 168.69 198.441 182.579 178.371C196.468 158.301 191.441 130.676 171.371 116.787ZM128.192 179.18C123.05 175.622 119.079 170.619 116.781 164.804C114.483 158.988 113.96 152.622 115.28 146.51C116.6 140.398 119.702 134.815 124.195 130.466C128.689 126.117 134.37 123.198 140.522 122.079C146.674 120.959 153.02 121.689 158.757 124.176C164.494 126.663 169.365 130.795 172.754 136.05C176.142 141.305 177.896 147.447 177.794 153.699C177.692 159.951 175.739 166.033 172.18 171.174C162.249 185.525 142.438 189.039 128.192 179.18ZM133.837 171.245L145.745 162.261L158.016 170.753L153.07 156.565L164.978 147.581L150.029 147.848L145.012 133.764L140.8 148.073L125.779 148.444L138.05 156.936L133.837 171.245Z" fill="black"/>
</svg>
