<svg width="200" height="200" viewBox="0 0 200 200" fill="none" xmlns="http://www.w3.org/2000/svg">
<path d="M68.0391 120.771L23.7842 120.473V179.13H68.0391V190.999L23.7842 191C16.7238 191 11.0002 185.377 11 178.44V120.473C11 113.536 16.7236 107.913 23.7842 107.913H68.0391V120.771ZM176.216 9C183.276 9.00016 189 14.757 189 21.8584V75.2715C189 82.373 183.276 88.1297 176.216 88.1299H24.7676C17.7071 88.1297 11.9834 82.3729 11.9834 75.2715V21.8584C11.9835 14.757 17.7071 9.00021 24.7676 9H176.216ZM24.8398 75.2715H176.145V21.8584H24.8398V75.2715ZM79.1025 39.6631C80.8629 39.6632 82.5511 40.3663 83.7959 41.6182C85.0408 42.8703 85.7402 44.5691 85.7402 46.3398C85.7401 48.1105 85.0407 49.8085 83.7959 51.0605C82.5511 52.3125 80.8629 53.0155 79.1025 53.0156H48.124C46.3636 53.0156 44.6755 52.3125 43.4307 51.0605C42.1859 49.8085 41.4864 48.1105 41.4863 46.3398C41.4863 44.5691 42.1858 42.8703 43.4307 41.6182C44.6755 40.3663 46.3637 39.6632 48.124 39.6631H79.1025Z" fill="black"/>
<path d="M94.8769 109.719H177.897C180.343 109.719 182.689 110.649 184.419 112.305C186.149 113.961 187.121 116.207 187.121 118.549V180.362C187.121 181.522 186.882 182.67 186.419 183.742C185.955 184.813 185.276 185.787 184.419 186.607C183.563 187.427 182.546 188.077 181.427 188.521C180.307 188.965 179.108 189.193 177.897 189.193H94.8769C92.4304 189.193 90.0841 188.263 88.3542 186.607C86.6243 184.951 85.6525 182.704 85.6525 180.362V118.549C85.6525 116.207 86.6243 113.961 88.3542 112.305C90.0841 110.649 92.4304 109.719 94.8769 109.719ZM179.741 136.652L137.77 152.723C136.896 153.055 135.923 153.055 135.049 152.723L93.0319 136.652V180.362C93.032 180.831 93.2264 181.28 93.5723 181.611C93.9183 181.942 94.3876 182.129 94.8769 182.129H177.897C178.386 182.129 178.855 181.942 179.201 181.611C179.547 181.28 179.741 180.831 179.741 180.362V136.652ZM179.741 129.058V118.549C179.741 118.081 179.547 117.632 179.201 117.3C178.855 116.969 178.386 116.783 177.897 116.783H94.8769C94.3876 116.783 93.9183 116.969 93.5723 117.3C93.2264 117.632 93.032 118.081 93.0319 118.549V129.058L136.387 145.659L179.741 129.058Z" fill="black"/>
<path d="M83.7734 180.363V118.549C83.7735 115.726 84.9457 113.019 87.0287 111.025C89.1116 109.031 91.9349 107.913 94.8771 107.913L94.8769 109.719L94.4192 109.729C92.1394 109.838 89.976 110.753 88.3542 112.305L88.0389 112.622C86.5067 114.242 85.6526 116.354 85.6525 118.549V180.362L85.6635 180.8C85.7766 182.983 86.7325 185.054 88.3542 186.607C89.976 188.159 92.1394 189.074 94.4192 189.182L94.8769 189.193H177.897C178.956 189.193 180.007 189.018 181.003 188.677L181.427 188.521C182.546 188.077 183.563 187.427 184.419 186.607C185.169 185.889 185.782 185.054 186.235 184.138L186.419 183.742C186.824 182.804 187.058 181.808 187.11 180.797L187.121 180.362V118.549C187.121 116.354 186.267 114.242 184.735 112.622L184.419 112.305C182.689 110.649 180.343 109.719 177.897 109.719L177.896 107.913C180.839 107.913 183.662 109.031 185.745 111.025C187.828 113.019 189 115.726 189 118.549V180.363C189 181.761 188.713 183.145 188.154 184.436C187.595 185.727 186.776 186.899 185.745 187.887C184.713 188.874 183.49 189.657 182.144 190.19C180.797 190.724 179.353 190.999 177.896 190.999H94.8771C91.9349 190.999 89.1116 189.88 87.0287 187.887C84.9457 185.893 83.7735 183.186 83.7734 180.363ZM179.741 180.362L179.732 180.537C179.69 180.942 179.504 181.322 179.201 181.611L179.066 181.729C178.738 181.987 178.325 182.129 177.897 182.129H94.8769L94.6945 182.12C94.3325 182.085 93.9886 181.95 93.7072 181.729L93.5723 181.611C93.2697 181.322 93.0832 180.942 93.0411 180.537L93.0319 180.362V136.652L135.049 152.723C135.868 153.034 136.775 153.054 137.605 152.782L137.77 152.723L179.741 136.652V180.362ZM94.911 180.322H177.862V139.315L138.466 154.401L138.461 154.403C137.144 154.903 135.677 154.903 134.359 154.403L134.354 154.401L94.911 139.314V180.322ZM94.8769 116.783H177.897C178.386 116.783 178.855 116.969 179.201 117.3C179.547 117.632 179.741 118.081 179.741 118.549V129.058L136.387 145.659L93.0319 129.058V118.549C93.032 118.081 93.2264 117.632 93.5723 117.3C93.875 117.011 94.2723 116.832 94.6945 116.792L94.8769 116.783ZM94.911 127.832L136.387 143.714L177.862 127.832V118.589H94.911V127.832ZM177.896 107.913L177.897 109.719H94.8769L94.8771 107.913H177.896Z" fill="black"/>
</svg>
