<svg width="200" height="200" viewBox="0 0 200 200" fill="none" xmlns="http://www.w3.org/2000/svg">
<path d="M100.928 103.963L170.145 65.6873V94.5H184V57.7743C184 52.4943 181.238 48.5309 177.08 45.884L100.928 4.97478C96.7841 2.34174 92.6116 2.34174 88.4681 4.97478L10.9203 47.2144C6.77683 48.5309 4 53.8108 4 57.7743V142.24C4 146.189 6.77683 150.166 10.9203 152.799L87.0725 195.025C91.2886 197.658 96.726 197.658 100.928 195.025L113.5 189.561V173.721L100.913 179.185V103.963H100.928ZM87.0579 180.53L17.8551 142.24V65.6873L87.0725 103.977V180.516L87.0579 180.53ZM94.0073 92.087L24.7608 53.797L94.0073 15.5485L163.239 53.8108L93.9927 92.0732V92.087H94.0073Z" fill="black"/>
<path d="M164.566 190H164.303C162.463 189.679 161.149 188.075 160.623 186.149L151.949 130.313L147.217 150.53C146.691 152.455 145.114 153.739 143.537 153.739H138.806L134.074 168.179C133.549 170.104 131.971 171.388 130.394 171.388C128.817 171.388 127.24 170.104 126.714 168.179L120.931 147L119.091 151.493C118.566 153.097 116.989 154.381 115.411 154.381H110.943C108.84 154.381 107 152.134 107 149.567C107 147 108.84 144.112 110.943 144.112H113.046L118.04 131.276C118.829 129.351 120.143 128.388 121.983 128.388C123.56 128.388 124.874 129.672 125.4 131.597L130.657 151.493L132.234 146.679C132.76 144.754 134.337 143.47 135.914 143.47H140.383L149.057 107.53C149.583 105.284 151.16 104 153 104C154.84 104 156.417 105.604 156.68 107.851L165.88 166.575L177.709 125.821C178.234 123.896 179.811 122.612 181.389 122.612C182.966 122.612 184.543 123.896 185.069 125.821L190.326 144.112H195.057C197.16 144.112 199 146.037 199 148.925C199 151.493 197.423 153.739 195.057 153.739H187.434C185.594 153.739 184.28 152.455 183.754 150.53L181.126 141.866L168.246 186.791C167.72 188.716 166.143 190 164.566 190Z" fill="black"/>
</svg>
