<svg width="200" height="200" viewBox="0 0 200 200" fill="none" xmlns="http://www.w3.org/2000/svg">
<path d="M183.333 10H16.6667C13.3333 10 10 13.3333 10 16.6667V83.3333C10 86.6667 12.5 90 16.6667 90H183.333C186.667 90 190 87.5 190 83.3333V16.6667C190 13.3333 186.667 10 183.333 10ZM176.667 76.6667H23.3333V23.3333H177.5V76.6667H176.667ZM183.333 110H16.6667C13.3333 110 10 112.5 10 116.667V183.333C10 186.667 12.5 190 16.6667 190H183.333C186.667 190 190 187.5 190 183.333V116.667C190 113.333 186.667 110 183.333 110ZM176.667 176.667H23.3333V122.5H177.5V176.667H176.667Z" fill="black"/>
<path d="M45.8334 58.3333H54.1668C56.6668 58.3333 58.3334 56.6666 58.3334 54.1666V45.8333C58.3334 43.3333 56.6668 41.6666 54.1668 41.6666H45.8334C43.3334 41.6666 41.6667 43.3333 41.6667 45.8333V54.1666C41.6667 56.6666 43.3334 58.3333 45.8334 58.3333ZM45.8334 158.333H54.1668C56.6668 158.333 58.3334 156.667 58.3334 154.167V145.833C58.3334 143.333 56.6668 141.667 54.1668 141.667H45.8334C43.3334 141.667 41.6667 143.333 41.6667 145.833V154.167C41.6667 156.667 43.3334 158.333 45.8334 158.333ZM79.1668 58.3333H87.5001C90.0001 58.3333 91.6667 56.6666 91.6667 54.1666V45.8333C91.6667 43.3333 90.0001 41.6666 87.5001 41.6666H79.1668C76.6668 41.6666 75.0001 43.3333 75.0001 45.8333V54.1666C75.0001 56.6666 76.6668 58.3333 79.1668 58.3333ZM79.1668 158.333H87.5001C90.0001 158.333 91.6667 156.667 91.6667 154.167V145.833C91.6667 143.333 90.0001 141.667 87.5001 141.667H79.1668C76.6668 141.667 75.0001 143.333 75.0001 145.833V154.167C75.0001 156.667 76.6668 158.333 79.1668 158.333Z" fill="black"/>
</svg>
