<svg width="200" height="200" viewBox="0 0 200 200" fill="none" xmlns="http://www.w3.org/2000/svg">
<path d="M142.746 111.037C155.527 110.112 167.484 104.388 176.211 95.0171C184.938 85.6457 189.788 73.3219 189.786 60.5243C189.786 55.9404 189.165 51.2552 187.812 46.6713C187.551 45.7357 187.046 44.8862 186.349 44.2094C185.651 43.5327 184.786 43.053 183.842 42.8194C182.89 42.5894 181.894 42.6029 180.948 42.8588C180.002 43.1147 179.135 43.6048 178.429 44.2836L168.73 53.9695C162.573 60.1076 151.926 60.1076 145.78 53.9695C144.266 52.4673 143.064 50.681 142.245 48.7133C141.425 46.7456 141.003 44.6354 141.003 42.5041C141.003 40.3728 141.425 38.2626 142.245 36.2949C143.064 34.3271 144.266 32.5408 145.78 31.0387L155.479 21.3528C156.184 20.6643 156.692 19.7999 156.95 18.8493C157.207 17.8987 157.206 16.8965 156.945 15.9467C156.709 15.0032 156.227 14.1392 155.547 13.4427C154.867 12.7462 154.015 12.2422 153.077 11.9823C148.572 10.6614 143.9 9.99387 139.205 10C125.775 10.018 112.902 15.3607 103.415 24.8539C93.9282 34.3471 88.6041 47.2137 88.6131 60.6257C88.6131 63.3287 88.8273 66.043 89.3461 68.7461L82.6697 74.8955L50.5507 42.7068C52.0476 39.5683 52.54 36.0455 51.9609 32.6176C51.3818 29.1897 49.7592 26.0232 47.314 23.549L35.4159 11.6669C34.8954 11.1469 34.2774 10.7344 33.5973 10.453C32.9171 10.1715 32.1881 10.0267 31.4518 10.0267C30.7156 10.0267 29.9865 10.1715 29.3063 10.453C28.6262 10.7344 28.0082 11.1469 27.4877 11.6669L11.6424 27.6036C11.1217 28.1234 10.7087 28.7406 10.4269 29.4198C10.1451 30.0991 10 30.8271 10 31.5624C10 32.2977 10.1451 33.0257 10.4269 33.705C10.7087 34.3843 11.1217 35.0014 11.6424 35.5212L23.5292 47.4033C26.7659 50.6245 30.9387 52.2913 35.4272 52.2913C38.0211 52.2913 40.4233 51.6719 42.7239 50.6245L74.5272 82.3964L19.988 132.403C16.8444 135.53 14.3501 139.247 12.6481 143.339C10.9462 147.432 10.0701 151.82 10.0701 156.251C10.0701 160.683 10.9462 165.071 12.6481 169.163C14.3501 173.256 16.8444 176.972 19.988 180.1C23.1149 183.247 26.8365 185.743 30.9369 187.442C35.0373 189.142 39.4348 190.011 43.8742 190C52.84 190 61.3886 186.452 67.862 179.897L106.24 137.921L151.611 183.332C155.896 187.612 161.535 189.899 167.569 189.899C173.625 189.899 179.252 187.601 183.425 183.332C187.711 179.053 190 173.433 190 167.396C190 161.348 187.699 155.728 183.425 151.459L142.746 111.037ZM39.2842 39.2717C38.2086 40.2748 36.7918 40.8328 35.3201 40.8328C33.8484 40.8328 32.4316 40.2748 31.3559 39.2717L23.5292 31.354L31.4574 23.4364L39.2842 31.354C39.8049 31.8739 40.218 32.491 40.4998 33.1703C40.7816 33.8496 40.9266 34.5776 40.9266 35.3129C40.9266 36.0481 40.7816 36.7762 40.4998 37.4555C40.218 38.1347 39.8049 38.7519 39.2842 39.2717ZM59.5165 172.081C51.0582 180.618 36.2618 180.618 27.7132 172.081C25.6108 169.994 23.9455 167.511 22.8147 164.774C21.6839 162.038 21.1102 159.104 21.127 156.144C21.127 150.108 23.4277 144.476 27.499 140.41L99.1352 74.7941C99.248 74.7941 99.248 74.6815 99.248 74.5801L99.6652 74.1634C99.7667 74.0621 99.8683 73.8593 99.9697 73.7467C100.083 73.6453 100.184 73.4426 100.286 73.33C100.398 73.1273 100.5 73.0259 100.5 72.8119C100.601 72.6092 100.601 72.4966 100.703 72.2938C100.703 72.0798 100.816 71.9785 100.816 71.7757C100.816 71.5617 100.917 71.359 100.917 71.2464V70.2102C100.917 69.9962 100.917 69.7935 100.804 69.5795V69.3768C100.112 66.4769 99.7633 63.5056 99.7668 60.5243C99.7668 38.6523 117.811 21.0487 139.713 21.1501L137.84 23.0197C134.008 26.8613 131.4 31.7491 130.344 37.0679C129.288 42.3867 129.83 47.8987 131.904 52.91C133.978 57.9213 137.49 62.208 141.998 65.2303C146.506 68.2527 151.809 69.8756 157.238 69.8949C164.535 69.8949 171.426 67.0792 176.636 61.8759L178.519 60.0063V60.5243C178.516 70.9486 174.375 80.9465 167.004 88.3271C159.633 95.7076 149.632 99.8688 139.194 99.8986C136.262 99.8986 133.352 99.5832 130.329 98.8512H130.115C129.912 98.8512 129.698 98.7498 129.495 98.7498H128.345C128.142 98.7498 128.029 98.7498 127.927 98.8624C127.708 98.883 127.496 98.9523 127.307 99.0652C127.194 99.0652 126.991 99.1665 126.89 99.1665C126.7 99.2472 126.521 99.3532 126.36 99.4819C126.258 99.5832 126.055 99.5832 125.942 99.6846C125.739 99.7972 125.638 99.8986 125.525 100C125.424 100.113 125.221 100.214 125.108 100.417C125.108 100.417 125.006 100.529 124.905 100.529L59.5052 172.081H59.5165ZM175.294 175.313C171.008 179.582 163.61 179.582 159.437 175.313L115.736 131.558L131.593 115.621L175.294 159.377C177.38 161.46 178.632 164.377 178.632 167.294C178.635 168.785 178.341 170.262 177.768 171.638C177.195 173.015 176.354 174.264 175.294 175.313Z" fill="black"/>
</svg>
