<svg width="200" height="200" viewBox="0 0 200 200" fill="none" xmlns="http://www.w3.org/2000/svg">
<path d="M21.446 58.4694H165.339C172.342 58.4694 177.793 53.275 177.793 46.6V22.8694C177.793 16.1944 172.342 11 165.339 11H21.454C14.4426 11 9 16.1944 9 22.8694V46.6C9 53.275 14.4426 58.4694 21.446 58.4694ZM21.446 22.8694H165.339V46.6H21.454V22.8694H21.446ZM155.23 117.8C176.232 116.319 193.344 131.894 194.897 151.175C196.458 171.2 180.122 187.519 159.904 189H89.1264C72.0142 189 58.0074 175.65 58.0074 159.331C58.0074 145.244 68.1162 133.375 82.8993 130.406V129.669C82.8993 110.381 100.012 94.0694 120.237 94.0694C135.797 94.0694 149.795 103.706 155.238 117.8H155.23ZM159.12 177.131C173.118 176.394 183.235 165.269 183.235 151.175C182.451 138.569 170.781 128.181 156.791 128.925C155.23 128.925 153.677 129.669 152.116 129.669H149.787C146.674 129.669 145.121 127.444 144.345 125.219C142.008 111.869 128.785 103.706 115.555 105.931C101.564 108.156 93.0081 120.769 95.3372 133.375C95.3372 134.856 95.3372 136.344 94.5609 137.825C93.7845 140.05 91.4473 141.531 89.1183 141.531C79.0095 141.531 70.4453 149.694 70.4453 159.331C70.4453 168.231 76.6723 175.65 86.0048 177.131H159.12ZM31.5547 147.469H21.454V171.2H44.0169C47.1223 171.2 50.2358 174.169 50.2358 177.131C50.2358 180.1 47.1223 183.069 44.0088 183.069H21.446C14.4507 183.069 9 177.875 9 171.2V147.469C9 140.794 14.4426 135.6 21.446 135.6H44.0088C47.1142 135.6 50.2277 138.569 50.2277 141.531C50.2277 144.5 47.1142 147.469 44.0007 147.469H31.5628H31.5547ZM21.446 120.769C14.4426 120.769 9 115.575 9 108.9V85.1694C9 78.4944 14.4426 73.3 21.446 73.3H165.339C172.342 73.3 177.793 78.4944 177.793 85.1694V91.8444C177.793 94.8056 174.679 97.775 171.566 97.775C168.452 97.775 165.339 94.8056 165.339 91.8444V85.1694H21.454V108.9H65.0108C68.1243 108.9 71.2378 111.869 71.2378 114.831C71.232 115.634 71.0647 116.427 70.746 117.164C70.4273 117.901 69.9637 118.567 69.3827 119.121C68.8018 119.675 68.1153 120.106 67.3642 120.39C66.6132 120.673 65.8128 120.802 65.0108 120.769H21.446ZM40.1108 91.1H52.5649C55.6703 91.1 58.7838 94.0694 58.7838 97.0306C58.7838 100 55.6703 102.969 52.5568 102.969H40.1108C37.0054 102.969 33.8838 100 33.8838 97.0306C33.8838 94.0694 37.0054 91.1 40.1108 91.1Z" fill="black"/>
</svg>
