<svg width="200" height="200" viewBox="0 0 200 200" fill="none" xmlns="http://www.w3.org/2000/svg">
<path d="M67.5391 120.772L23.2842 120.473V179.13H67.5391V191L23.2842 191C16.2238 191 10.5002 185.377 10.5 178.441V120.473C10.5 113.537 16.2236 107.914 23.2842 107.914H67.5391V120.772ZM175.716 9.00049C182.776 9.00065 188.5 14.7575 188.5 21.8589V75.272C188.5 82.3735 182.776 88.1302 175.716 88.1304H24.2676C17.2071 88.1302 11.4834 82.3734 11.4834 75.272V21.8589C11.4835 14.7575 17.2071 9.0007 24.2676 9.00049H175.716ZM24.3398 75.272H175.645V21.8589H24.3398V75.272ZM78.6025 39.6636C80.3629 39.6637 82.0511 40.3668 83.2959 41.6187C84.5408 42.8708 85.2402 44.5696 85.2402 46.3403C85.2401 48.111 84.5407 49.809 83.2959 51.061C82.0511 52.313 80.3629 53.016 78.6025 53.0161H47.624C45.8636 53.016 44.1755 52.313 42.9307 51.061C41.6859 49.809 40.9864 48.111 40.9863 46.3403C40.9863 44.5696 41.6858 42.8708 42.9307 41.6187C44.1755 40.3668 45.8637 39.6636 47.624 39.6636H78.6025Z" fill="black"/>
<path d="M135 105.54C150.179 105.54 164.311 109.386 174.684 116.649C185.087 123.934 191.7 134.661 191.7 148.26C191.7 161.91 184.546 172.116 173.65 178.854C162.794 185.567 148.194 188.871 133.05 188.871C129.465 188.87 121.9 188.094 118.149 187.474L104.64 193.149L104.405 193.309L104.377 193.328L104.349 193.345C103.177 194.04 101.847 194.423 100.486 194.459L100.471 194.46H100.067L100.057 194.459C97.9671 194.42 95.9767 193.561 94.5127 192.067C93.0489 190.574 92.2277 188.564 92.2246 186.472V186.332L94.6279 176.126C88.9701 171.752 84.6712 167.521 81.7725 162.663C78.754 157.605 77.2998 151.951 77.2998 144.906C77.3 131.266 84.208 121.363 94.8857 114.929C105.511 108.526 119.875 105.54 135 105.54ZM100.888 193.234L101.209 193.197C101.231 193.194 101.252 193.19 101.273 193.187C101.145 193.206 101.017 193.223 100.888 193.234ZM118.005 186.234C118.446 186.311 118.954 186.39 119.511 186.471C119.235 186.431 118.97 186.392 118.721 186.353L118.005 186.234ZM135 114.96C121.937 114.96 109.789 117.188 100.953 122.067C92.1775 126.913 86.7002 134.337 86.7002 144.908C86.7002 150.543 87.8439 154.75 90.1865 158.474C92.5513 162.233 96.1919 165.588 101.355 169.427L104.174 171.519V174.027L104.144 174.161L104.143 174.163C104.142 174.164 104.142 174.167 104.142 174.169C104.14 174.174 104.138 174.183 104.136 174.193C104.131 174.215 104.123 174.248 104.113 174.29C104.094 174.374 104.066 174.498 104.029 174.655C103.957 174.971 103.853 175.423 103.728 175.968C103.477 177.057 103.142 178.52 102.803 180.008C102.461 181.505 102.12 183.007 101.855 184.186L114.394 178.666L115.509 177.822L115.93 177.503L116.45 177.598L118.955 178.058C122.215 178.653 129.766 179.45 133.046 179.45C146.085 179.45 158.47 176.919 167.551 171.73C176.588 166.567 182.295 158.823 182.295 148.261C182.295 137.636 177.011 129.361 168.462 123.694C159.877 118.005 148.002 114.96 135 114.96ZM137.682 150.906C138.833 150.906 139.937 151.364 140.751 152.178C141.565 152.992 142.022 154.097 142.022 155.248C142.022 156.399 141.565 157.503 140.751 158.317C139.937 159.131 138.833 159.589 137.682 159.589H116.142C114.99 159.589 113.885 159.132 113.071 158.317C112.257 157.503 111.8 156.399 111.8 155.248C111.8 154.097 112.257 152.992 113.071 152.178C113.885 151.364 114.99 150.906 116.142 150.906H137.682ZM182.145 156.854C182.122 156.92 182.099 156.986 182.076 157.053C182.092 157.006 182.109 156.959 182.125 156.912L182.145 156.854ZM190.494 147.625C190.497 147.836 190.5 148.047 190.5 148.26L190.495 147.655C190.495 147.645 190.494 147.635 190.494 147.625ZM148.45 132.06C149.602 132.06 150.706 132.517 151.521 133.331C152.335 134.145 152.792 135.25 152.792 136.401C152.792 137.552 152.334 138.657 151.521 139.471C150.706 140.285 149.602 140.742 148.45 140.742H116.142C114.99 140.742 113.885 140.285 113.071 139.471C112.257 138.657 111.8 137.552 111.8 136.401C111.8 135.25 112.257 134.145 113.071 133.331C113.885 132.517 114.99 132.06 116.142 132.06H148.45ZM98.709 121.99C98.1676 122.326 97.6398 122.672 97.126 123.029L97.9072 122.502C98.1712 122.329 98.4382 122.158 98.709 121.99ZM101.626 179.772L101.633 179.741C101.359 180.94 101.084 182.157 100.847 183.21C101.082 182.166 101.355 180.961 101.626 179.772Z" fill="black"/>
<path d="M76.7051 144.258C76.9214 130.708 83.9172 120.838 94.5762 114.415C105.326 107.937 119.809 104.94 135 104.94C150.272 104.94 164.531 108.809 175.027 116.158C185.404 123.424 192.089 134.1 192.295 147.614L192.3 148.26C192.3 162.157 185.002 172.54 173.966 179.364C163.331 185.94 149.186 189.26 134.476 189.461L133.05 189.471C129.476 189.469 122.049 188.711 118.224 188.092L104.927 193.679L104.745 193.802L104.718 193.822L104.699 193.835L104.681 193.846L104.652 193.862L104.651 193.861C103.398 194.604 101.976 195.016 100.52 195.058L100.508 195.059L100.489 195.06H100.04L100.013 195.058L100.005 195.057C97.7727 195.004 95.6485 194.084 94.084 192.487C92.5104 190.882 91.6284 188.722 91.625 186.473V186.263L91.6406 186.194L93.9551 176.361C88.4194 172.05 84.1571 167.831 81.2568 162.971C78.1743 157.805 76.7002 152.041 76.7002 144.906L76.7051 144.258ZM101.209 193.197L100.888 193.234C101.017 193.223 101.145 193.206 101.273 193.187C101.252 193.19 101.231 193.194 101.209 193.197ZM104.174 171.519L101.355 169.427C96.1919 165.588 92.5513 162.233 90.1865 158.474C87.8439 154.75 86.7002 150.543 86.7002 144.908C86.7002 134.337 92.1775 126.913 100.953 122.067C109.789 117.188 121.937 114.96 135 114.96C148.002 114.96 159.877 118.005 168.462 123.694C177.011 129.361 182.295 137.636 182.295 148.261C182.295 158.823 176.588 166.567 167.551 171.73C158.47 176.919 146.085 179.45 133.046 179.45V178.851C146.02 178.851 158.292 176.33 167.253 171.21C176.149 166.127 181.695 158.56 181.695 148.261C181.695 137.867 176.539 129.768 168.131 124.194C159.67 118.586 147.918 115.56 135 115.56C121.991 115.56 109.956 117.782 101.243 122.593C92.756 127.279 87.467 134.369 87.3037 144.427L87.2998 144.908C87.2999 150.453 88.4229 154.544 90.6943 158.154C92.999 161.818 96.5678 165.12 101.714 168.945L104.773 171.217V174.095L104.759 174.16L104.729 174.294L104.713 174.364L104.711 174.366C104.711 174.367 104.711 174.369 104.711 174.37C104.707 174.386 104.703 174.405 104.698 174.425C104.679 174.509 104.651 174.632 104.614 174.79C104.542 175.106 104.437 175.557 104.312 176.102C104.062 177.191 103.727 178.654 103.388 180.142C103.151 181.181 102.915 182.223 102.704 183.156L114.086 178.146L115.567 177.025L115.777 176.865L116.037 176.913L116.559 177.008L119.063 177.468C122.296 178.058 129.81 178.85 133.046 178.851V179.45C129.766 179.45 122.215 178.653 118.955 178.058L116.45 177.598L115.93 177.503L115.509 177.822L114.394 178.666L101.855 184.186C102.12 183.007 102.461 181.505 102.803 180.008C103.142 178.52 103.477 177.057 103.728 175.968C103.853 175.423 103.957 174.971 104.029 174.655C104.066 174.498 104.094 174.374 104.113 174.29C104.123 174.248 104.131 174.215 104.136 174.193C104.138 174.183 104.14 174.174 104.142 174.169C104.142 174.167 104.142 174.164 104.143 174.163L104.144 174.161L104.174 174.027V171.519ZM104.736 174.248C104.736 174.251 104.735 174.257 104.733 174.266C104.732 174.273 104.73 174.282 104.728 174.293C104.73 174.283 104.732 174.275 104.733 174.269C104.735 174.262 104.735 174.256 104.735 174.253C104.736 174.25 104.736 174.249 104.736 174.248ZM111.2 155.248C111.2 153.938 111.721 152.681 112.647 151.754C113.574 150.827 114.831 150.307 116.142 150.307V150.906C114.99 150.906 113.885 151.364 113.071 152.178C112.257 152.992 111.8 154.097 111.8 155.248C111.8 156.399 112.257 157.503 113.071 158.317C113.885 159.132 114.99 159.589 116.142 159.589H137.682C138.833 159.589 139.937 159.131 140.751 158.317C141.565 157.503 142.022 156.399 142.022 155.248C142.022 154.097 141.565 152.992 140.751 152.178C139.937 151.364 138.833 150.906 137.682 150.906V150.307C138.992 150.307 140.248 150.828 141.175 151.754C142.044 152.623 142.556 153.782 142.616 155.003L142.622 155.248C142.622 156.558 142.101 157.815 141.175 158.741C140.248 159.668 138.992 160.188 137.682 160.188H116.142C114.831 160.188 113.574 159.668 112.647 158.741C111.779 157.873 111.267 156.714 111.206 155.493L111.2 155.248ZM182.125 156.912C182.109 156.959 182.092 157.006 182.076 157.053C182.099 156.986 182.122 156.92 182.145 156.854L182.125 156.912ZM137.682 150.307V150.906H116.142V150.307H137.682ZM190.495 147.655L190.5 148.26C190.5 148.047 190.497 147.836 190.494 147.625C190.494 147.635 190.495 147.645 190.495 147.655ZM111.2 136.401C111.2 135.091 111.721 133.834 112.647 132.907C113.574 131.981 114.831 131.46 116.142 131.46V132.06C114.99 132.06 113.885 132.517 113.071 133.331C112.257 134.145 111.8 135.25 111.8 136.401C111.8 137.552 112.257 138.657 113.071 139.471C113.885 140.285 114.99 140.742 116.142 140.742H148.45C149.602 140.742 150.706 140.285 151.521 139.471C152.334 138.657 152.792 137.552 152.792 136.401C152.792 135.25 152.335 134.145 151.521 133.331C150.706 132.517 149.602 132.06 148.45 132.06V131.46C149.761 131.46 151.018 131.981 151.944 132.907C152.813 133.776 153.325 134.935 153.386 136.156L153.392 136.401C153.391 137.712 152.871 138.968 151.944 139.895C151.018 140.821 149.761 141.342 148.45 141.342H116.142C114.831 141.342 113.574 140.821 112.647 139.895C111.779 139.026 111.267 137.868 111.206 136.646L111.2 136.401ZM148.45 131.46V132.06H116.142V131.46H148.45ZM77.2998 144.906C77.2998 151.951 78.754 157.605 81.7725 162.663C84.6712 167.521 88.9701 171.752 94.6279 176.126L92.2246 186.332V186.472C92.2277 188.564 93.0489 190.574 94.5127 192.067C95.9767 193.561 97.9671 194.42 100.057 194.459L100.067 194.46H100.471L100.486 194.459C101.847 194.423 103.177 194.04 104.349 193.345L104.377 193.328L104.405 193.309L104.64 193.149L118.149 187.474C121.9 188.094 129.465 188.87 133.05 188.871C148.194 188.871 162.794 185.567 173.65 178.854C184.546 172.116 191.7 161.91 191.7 148.26C191.7 134.661 185.087 123.934 174.684 116.649C164.311 109.386 150.179 105.54 135 105.54C119.875 105.54 105.511 108.526 94.8857 114.929C84.208 121.363 77.3 131.266 77.2998 144.906Z" fill="black"/>
</svg>
