<svg width="200" height="200" viewBox="0 0 200 200" fill="none" xmlns="http://www.w3.org/2000/svg">
<path d="M103.24 192.783H34.0188C29.0405 192.783 24.7928 191.024 21.2757 187.507C17.7586 183.99 16 179.742 16 174.764V25.0316C16 20.0448 17.7586 15.7928 21.2757 12.2757C24.7928 8.75856 29.0405 7 34.0188 7H154.786C159.764 7 164.012 8.75856 167.529 12.2757C171.046 15.7928 172.805 20.0405 172.805 25.0188V99.8977H159.832V25.0188C159.832 21.6546 158.15 19.9725 154.786 19.9725H34.0188C30.6547 19.9725 28.9725 21.6546 28.9725 25.0188V174.764C28.9725 178.128 30.6547 179.81 34.0188 179.81H103.24V192.795V192.783ZM57.0967 61.9485H130.918C132.753 61.9485 134.513 61.2195 135.811 59.9218C137.108 58.6242 137.837 56.8642 137.837 55.029C137.837 53.1938 137.108 51.4338 135.811 50.1361C134.513 48.8385 132.753 48.1094 130.918 48.1094H57.0967C55.2616 48.1094 53.5015 48.8385 52.2039 50.1361C50.9062 51.4338 50.1772 53.1938 50.1772 55.029C50.1772 56.8642 50.9062 58.6242 52.2039 59.9218C53.5015 61.2195 55.2616 61.9485 57.0967 61.9485ZM57.8358 96.5462H57.0967C55.2616 96.5462 53.5015 95.8172 52.2039 94.5195C50.9062 93.2219 50.1772 91.4619 50.1772 89.6267C50.1772 87.7915 50.9062 86.0315 52.2039 84.7338C53.5015 83.4362 55.2616 82.7071 57.0967 82.7071H130.918C132.753 82.7071 134.513 83.4362 135.811 84.7338C137.108 86.0315 137.837 87.7915 137.837 89.6267C137.837 91.4619 137.108 93.2219 135.811 94.5195C134.513 95.8172 132.753 96.5462 130.918 96.5462H57.8358ZM57.0967 117.318C56.188 117.318 55.2883 117.497 54.4487 117.844C53.6092 118.192 52.8464 118.702 52.2039 119.344C51.5613 119.987 51.0516 120.75 50.7039 121.589C50.3562 122.429 50.1772 123.328 50.1772 124.237C50.1772 125.146 50.3562 126.046 50.7039 126.885C51.0516 127.725 51.5613 128.487 52.2039 129.13C52.8464 129.773 53.6092 130.282 54.4487 130.63C55.2883 130.978 56.188 131.157 57.0967 131.157H89.3879C91.2231 131.157 92.9831 130.428 94.2808 129.13C95.5785 127.832 96.3075 126.072 96.3075 124.237C96.3075 122.402 95.5785 120.642 94.2808 119.344C92.9831 118.047 91.2231 117.318 89.3879 117.318H57.0967Z" fill="black"/>
<path d="M160.915 128.837C165.044 128.837 168.854 131.042 170.906 134.61L182.451 154.591C183.466 156.346 184 158.337 184 160.364C184 162.391 183.466 164.382 182.451 166.137L170.919 186.118C169.906 187.875 168.448 189.333 166.692 190.347C164.935 191.36 162.943 191.893 160.915 191.891H137.85C135.825 191.891 133.835 191.357 132.081 190.344C130.327 189.33 128.871 187.873 127.859 186.118L116.314 166.137C115.3 164.382 114.765 162.391 114.765 160.364C114.765 158.337 115.3 156.346 116.314 154.591L127.847 134.61C128.859 132.853 130.317 131.395 132.074 130.381C133.83 129.368 135.822 128.835 137.85 128.837H160.915ZM160.864 140.459H137.914L126.407 160.364L137.876 180.243H160.877L172.359 160.364L160.864 140.459ZM149.395 150.565C150.711 150.517 152.023 150.735 153.253 151.206C154.482 151.677 155.604 152.39 156.552 153.305C157.5 154.219 158.253 155.314 158.768 156.526C159.283 157.738 159.548 159.041 159.548 160.358C159.548 161.674 159.283 162.977 158.768 164.189C158.253 165.401 157.5 166.497 156.552 167.411C155.604 168.325 154.482 169.039 153.253 169.509C152.023 169.98 150.711 170.198 149.395 170.151C146.859 170.059 144.457 168.987 142.696 167.161C140.934 165.334 139.949 162.895 139.949 160.358C139.949 157.82 140.934 155.381 142.696 153.554C144.457 151.728 146.859 150.656 149.395 150.565Z" fill="black"/>
</svg>
