<svg width="200" height="200" viewBox="0 0 200 200" fill="currentColor" xmlns="http://www.w3.org/2000/svg">
<!-- <rect width="200" height="200" fill="white"/> -->
<path d="M140.939 11C144.855 11.0001 148.06 14.2043 148.06 18.1201V28.8047H178.32C184.283 28.8049 189 33.6106 189 39.4844V178.32C189 184.194 184.194 189 178.32 189H21.6797C15.8059 189 11.0001 184.194 11 178.32V39.4844C11 33.6107 15.8058 28.8049 21.6797 28.8047H51.9395V18.1201C51.9395 14.2043 55.1437 11.0001 59.0596 11C62.9755 11.0001 66.1797 14.2043 66.1797 18.1201V28.8047H133.819V18.1201C133.819 14.2043 137.024 11.0001 140.939 11ZM25.2402 174.761H174.76V43.0439H148.06V50.1592C148.059 54.0749 144.944 57.2783 140.939 57.2783C137.024 57.2782 133.82 54.0748 133.819 50.1592V43.0439H66.1797V50.1592C66.1795 54.0749 63.0644 57.2783 59.0596 57.2783C55.1438 57.2782 51.9396 54.0748 51.9395 50.1592V43.0439H25.2402V174.761ZM146.546 125.006C150.373 125.006 153.399 128.121 153.399 131.858V132.304C153.399 136.042 150.373 139.157 146.546 139.157H60.6611C56.8342 139.157 53.8076 136.042 53.8076 132.304V131.858C53.8078 128.032 56.9234 125.006 60.6611 125.006H146.546ZM146.279 92.8828C150.195 92.8829 153.399 96.087 153.399 100.003C153.399 103.919 150.284 107.123 146.279 107.123H99.999C96.0832 107.123 92.8789 103.919 92.8789 100.003C92.879 96.0871 96.0832 92.883 99.999 92.8828H146.279Z" fill="currentColor"/>
</svg>
