<svg width="200" height="200" viewBox="0 0 200 200" fill="none" xmlns="http://www.w3.org/2000/svg">
<path d="M179.471 193H47.0791C43.4346 193 40.5696 190.121 40.5696 186.44V146.588C39.0105 147.645 37.1785 148.428 35.366 148.957H35.1126C32.7739 149.74 30.1623 150.015 27.8235 150.015C13.4598 149.995 2 138.206 2 124.047C2 109.634 13.7327 98.0796 27.804 98.0796C30.4156 98.0796 33.0077 98.6083 35.6193 99.3917C35.8727 99.3917 36.1455 99.6462 36.3989 99.6462C37.7047 100.175 39.0105 100.704 40.0434 101.213L40.5696 101.467V53.2533C40.5696 49.5913 43.4346 46.6929 47.0791 46.6929H89.5467L88.7671 45.1263C87.4613 43.0308 86.4283 40.9354 85.9021 38.5658V38.2917C85.1226 35.9221 84.8692 33.3175 84.8692 30.9479C84.8692 16.5346 96.6018 5 110.673 5C124.998 5 136.477 16.8088 136.477 30.9675C136.477 33.5917 135.951 36.2158 135.171 38.84C135.171 39.0946 134.918 39.3688 134.918 39.6233C134.392 40.9354 133.885 42.2475 133.359 43.2854L132.053 46.4383H179.491C183.135 46.4383 186 49.3171 186 52.9988V111.729C186 113.825 184.967 115.92 183.135 117.232C181.303 118.544 178.964 118.544 176.879 117.761L165.672 112.787C165.419 112.787 165.419 112.532 165.146 112.532C164.62 112.277 163.84 111.749 163.061 111.475H162.788C161.482 110.946 160.176 110.946 158.871 110.946C151.835 110.946 146.105 116.723 146.105 123.792C146.105 130.882 151.835 136.639 158.871 136.639C160.176 136.639 161.482 136.385 162.515 136.11C163.821 135.856 164.854 135.053 165.906 134.544C166.16 134.289 166.433 134.289 166.686 134.015L176.587 129.295C178.672 128.238 181.011 128.512 182.843 129.55C184.675 130.588 185.961 132.957 185.961 135.053V186.44C185.981 190.121 183.116 193 179.471 193ZM53.5886 179.899H172.942V145.804H172.689C170.603 147.116 168.518 148.174 166.179 148.957H165.906C163.568 149.74 160.956 150.015 158.617 150.015C144.293 150.015 132.813 138.206 132.813 124.047C132.813 109.634 144.546 98.0796 158.617 98.0796C161.229 98.0796 163.821 98.6083 166.433 99.3917C166.686 99.3917 166.959 99.6462 167.212 99.6462C168.518 100.175 169.824 100.704 170.857 101.213L172.689 101.996V60.0683H121.88C119.794 60.0683 117.709 59.0108 116.403 57.1896C115.097 55.3488 115.097 52.9987 115.877 50.9033L121.353 38.3113C121.353 38.0567 121.607 38.0567 121.607 37.7825C121.86 37.2537 122.386 36.4704 122.64 35.6871V35.4325C123.166 34.1204 123.166 32.8083 123.166 31.4963C123.166 24.4071 117.436 18.6496 110.4 18.6496C103.365 18.6496 97.6348 24.4267 97.6348 31.4963C97.6348 32.8083 97.8882 34.1204 98.161 35.1583C98.4144 36.4704 99.1939 37.5279 99.7202 38.5658C99.9735 38.8204 99.9735 39.0946 100.246 39.3492L105.45 50.6292C106.483 52.7246 106.23 55.0942 105.197 56.9154C104.164 58.7563 101.806 60.0683 99.7202 60.0683H53.5886V111.455C53.5886 113.55 52.5557 115.646 50.7237 116.958C48.8916 118.27 46.5529 118.27 44.4675 117.487L34.5669 113.022C34.3135 113.022 34.3135 112.767 34.0407 112.767C33.5145 112.513 32.7349 111.984 31.9553 111.71H31.7019C30.3961 111.181 29.0904 111.181 27.7846 111.181C20.7489 111.181 15.019 116.958 15.019 124.028C15.019 131.117 20.7489 136.874 27.7846 136.874C29.0904 136.874 30.3961 136.62 31.4291 136.345C32.7349 136.091 33.7678 135.288 34.8203 134.779C35.0736 134.524 35.3465 134.524 35.5998 134.25L44.1947 130.059C46.2801 129.002 48.6188 129.276 50.4508 130.314C52.2828 131.626 53.5691 133.721 53.5691 135.817V179.899H53.5886Z" fill="black"/>
</svg>
