<svg width="200" height="200" viewBox="0 0 200 200" fill="none" xmlns="http://www.w3.org/2000/svg">
<g clip-path="url(#clip0_2441_8444)">
<path d="M38.125 94.375H167.5V100C167.5 101.492 166.907 102.923 165.852 103.977C164.798 105.032 163.367 105.625 161.875 105.625H32.5V100C32.5 98.5082 33.0926 97.0774 34.1475 96.0225C35.2024 94.9676 36.6332 94.375 38.125 94.375ZM32.5 150.625H77.5V161.875H38.125C36.6332 161.875 35.2024 161.282 34.1475 160.227C33.0926 159.173 32.5 157.742 32.5 156.25V150.625ZM122.5 32.5C124.475 32.5001 126.415 33.0199 128.125 34.0073C129.835 34.9947 131.255 36.4148 132.243 38.125H161.875C163.367 38.125 164.798 38.7176 165.852 39.7725C166.907 40.8274 167.5 42.2582 167.5 43.75V49.375L132.243 49.3862C131.254 51.0946 129.832 52.5127 128.122 53.4981C126.412 54.4835 124.472 55.0014 122.498 55C120.524 54.9986 118.585 54.4778 116.876 53.4899C115.167 52.502 113.748 51.0819 112.762 49.3721C111.775 47.6623 111.256 45.723 111.256 43.749C111.256 41.775 111.776 39.8359 112.763 38.1262C113.749 36.4166 115.169 34.9967 116.878 34.0091C118.587 33.0216 120.526 32.5011 122.5 32.5Z" fill="black"/>
<path d="M156.25 100V43.75H167.5V100H156.25ZM32.5 150.625V100H43.75V156.25H38.125C36.6332 156.25 35.2024 155.657 34.1475 154.602C33.0926 153.548 32.5 152.117 32.5 150.625ZM178.75 122.5C181.734 122.5 184.595 123.685 186.705 125.795C188.815 127.905 190 130.766 190 133.75V178.75C190 181.734 188.815 184.595 186.705 186.705C184.595 188.815 181.734 190 178.75 190H88.75C85.7663 190 82.9048 188.815 80.7951 186.705C78.6853 184.595 77.5 181.734 77.5 178.75V167.5C74.5163 167.5 71.6548 166.315 69.5451 164.205C67.4353 162.095 66.25 159.234 66.25 156.25C66.25 153.266 67.4353 150.405 69.5451 148.295C71.6548 146.185 74.5163 145 77.5 145V133.75C77.5 130.766 78.6853 127.905 80.7951 125.795C82.9048 123.685 85.7663 122.5 88.75 122.5H178.75ZM178.75 133.75H88.75V178.75H178.75V133.75Z" fill="black"/>
<path d="M111.25 10C114.234 10 117.095 11.1853 119.205 13.295C121.315 15.4048 122.5 18.2663 122.5 21.25V66.25C122.5 69.2337 121.315 72.0952 119.205 74.2049C117.095 76.3147 114.234 77.5 111.25 77.5H21.25C18.2663 77.5 15.4048 76.3147 13.295 74.2049C11.1853 72.0952 10 69.2337 10 66.25V21.25C10 18.2663 11.1853 15.4048 13.295 13.295C15.4048 11.1853 18.2663 10 21.25 10H111.25ZM111.25 21.25H21.25V66.25H111.25V21.25Z" fill="black"/>
</g>
<defs>
<clipPath id="clip0_2441_8444">
<rect width="180" height="180" fill="white" transform="translate(10 10)"/>
</clipPath>
</defs>
</svg>
