<svg width="200" height="200" viewBox="0 0 200 200" fill="none" xmlns="http://www.w3.org/2000/svg">
<!-- <rect width="200" height="200" fill="white"/> -->
<path d="M183.306 46.5075L107.095 4.70033C105.051 3.58167 102.733 2.99516 100.375 3.00003C98.017 3.0049 95.7018 3.60096 93.6636 4.72804L16.9999 47.1727C14.9877 48.2894 13.3163 49.8849 12.1503 51.802C10.9842 53.7191 10.3638 55.8918 10.35 58.106L10 142.427C9.99533 144.667 10.6115 146.868 11.7866 148.809C12.9617 150.75 14.6541 152.363 16.6937 153.485L92.9199 195.292C94.9592 196.413 97.2741 197.002 99.6301 197C101.986 196.998 104.3 196.404 106.336 195.279L183 152.834C185.013 151.715 186.685 150.117 187.851 148.198C189.017 146.278 189.637 144.103 189.65 141.887L190 57.5795C190.007 55.3377 189.392 53.1337 188.217 51.1898C187.042 49.2459 185.348 47.6309 183.306 46.5075ZM100.328 15.8277L170.517 54.323L100.824 92.5551C100.532 92.7075 100.27 92.9015 100.007 93.0678C99.7156 92.9015 99.4677 92.7075 99.176 92.5551L30.1977 54.7249L100.357 15.8138L100.328 15.8277ZM23.5186 142.483L23.7811 66.0185L92.3949 103.669C92.7303 103.849 92.9782 104.126 93.1386 104.445C93.124 104.749 93.0803 105.027 93.0803 105.331L93.2261 140.252L93.0657 180.562L23.504 142.469L23.5186 142.483ZM106.934 180.147L106.759 140.238L106.905 105.331C106.905 105.04 106.861 104.749 106.847 104.445C107.006 104.124 107.259 103.855 107.576 103.669L176.452 65.8938L176.204 141.72L106.934 180.147Z" fill="black"/>
</svg>
