<svg width="200" height="200" viewBox="0 0 200 200" fill="none" xmlns="http://www.w3.org/2000/svg">
<!-- <rect width="200" height="200" fill="white"/> -->
<path d="M101.928 103.963L171.145 65.6873V94.5H185V57.7743C185 52.4943 182.238 48.5309 178.08 45.884L101.928 4.97478C97.7841 2.34174 93.6116 2.34174 89.4681 4.97478L11.9203 47.2144C7.77683 48.5309 5 53.8108 5 57.7743V142.24C5 146.189 7.77683 150.166 11.9203 152.799L88.0725 195.025C92.2886 197.658 97.726 197.658 101.928 195.025L114.5 189.561V173.721L101.913 179.185V103.963H101.928ZM88.0579 180.53L18.8551 142.24V65.6873L88.0725 103.977V180.516L88.0579 180.53ZM95.0073 92.087L25.7608 53.797L95.0073 15.5485L164.239 53.8108L94.9927 92.0732V92.087H95.0073Z" fill="black"/>
<path d="M159.786 104.604H159.79C162.633 104.63 165.474 104.824 168.3 105.184L168.313 105.185L169.64 105.366L169.673 105.372L171.077 105.599L171.093 105.602L171.109 105.604L172.488 105.861L172.512 105.865L173.202 106.006L173.214 106.009L173.227 106.012L174.583 106.313L174.593 106.315L174.602 106.317C180.436 107.695 185.495 109.878 189.166 112.767C192.733 115.573 195.067 119.117 195.366 123.257L195.389 123.659L195.39 123.672V123.685L195.399 124.132L195.4 124.146V171.838C195.4 176.275 193.085 180.077 189.382 183.062C185.693 186.037 180.549 188.278 174.602 189.683L174.593 189.685L174.583 189.687L173.227 189.988L173.214 189.991L173.202 189.994L172.512 190.135L172.499 190.137L172.486 190.14L171.107 190.394L171.092 190.396L171.077 190.399L169.673 190.626L169.665 190.627L169.657 190.629C166.28 191.135 162.701 191.4 159 191.4C155.299 191.4 151.72 191.135 148.343 190.629L148.335 190.627L148.327 190.626L146.923 190.399L146.908 190.396L146.893 190.394L145.514 190.14L145.506 190.138L145.497 190.136C139.12 188.876 133.547 186.701 129.494 183.734C125.434 180.763 122.79 176.904 122.61 172.333V172.31L122.601 171.869L122.6 171.854V124.146L122.601 124.132L122.61 123.685V123.672L122.611 123.659C122.784 119.346 125.152 115.663 128.834 112.767C132.505 109.878 137.564 107.695 143.398 106.317L143.407 106.315L143.417 106.313L144.773 106.012L144.786 106.009L144.798 106.006L145.488 105.865L145.501 105.863L145.514 105.86L146.893 105.606L146.908 105.604L146.923 105.601L148.327 105.374L148.336 105.372L148.346 105.371C151.357 104.926 154.388 104.674 157.424 104.616H157.436L158.985 104.6H159.008L159.786 104.604ZM159 190C159.409 190 159.815 189.996 160.221 189.989C159.815 189.996 159.409 190 159 190ZM160.803 189.976C161.062 189.969 161.32 189.963 161.577 189.954C161.32 189.963 161.062 189.969 160.803 189.976ZM161.964 189.938C162.25 189.927 162.536 189.915 162.82 189.9C162.536 189.915 162.25 189.927 161.964 189.938ZM163.313 189.873C163.571 189.858 163.829 189.842 164.085 189.824C163.829 189.842 163.571 189.858 163.313 189.873ZM164.545 189.791C164.81 189.771 165.074 189.749 165.337 189.727C165.074 189.749 164.81 189.771 164.545 189.791ZM165.79 189.687C166.082 189.659 166.373 189.629 166.662 189.599C166.373 189.629 166.082 189.659 165.79 189.687ZM172.231 188.763L170.854 189.017L172.232 188.763L172.922 188.622L172.231 188.763ZM177.434 187.47C176.415 187.78 175.363 188.065 174.279 188.32L175.343 188.058C176.055 187.874 176.752 187.677 177.434 187.47ZM136.756 186.115C137.205 186.299 137.662 186.481 138.13 186.653C138.464 186.776 138.803 186.896 139.146 187.013C139.833 187.246 140.537 187.467 141.258 187.675C139.673 187.218 138.169 186.695 136.756 186.115ZM177.805 187.354C178.025 187.285 178.243 187.216 178.46 187.145C178.243 187.216 178.025 187.285 177.805 187.354ZM178.586 187.102C178.87 187.007 179.151 186.911 179.429 186.812C179.151 186.911 178.87 187.007 178.586 187.102ZM179.746 186.696C179.96 186.618 180.172 186.541 180.382 186.461C180.172 186.541 179.96 186.618 179.746 186.696ZM180.747 186.316C180.937 186.241 181.127 186.168 181.313 186.091C181.127 186.168 180.937 186.241 180.747 186.316ZM181.691 185.93C181.867 185.855 182.042 185.782 182.214 185.706C182.042 185.782 181.867 185.855 181.691 185.93ZM182.628 185.517C182.784 185.445 182.939 185.375 183.092 185.302C182.939 185.375 182.784 185.445 182.628 185.517ZM183.481 185.111C183.637 185.035 183.791 184.96 183.943 184.882C183.791 184.96 183.637 185.035 183.481 185.111ZM184.372 184.657C184.503 184.588 184.634 184.519 184.763 184.448C184.634 184.519 184.503 184.588 184.372 184.657ZM185.169 184.219C185.298 184.145 185.426 184.073 185.553 183.998C185.426 184.073 185.298 184.145 185.169 184.219ZM185.988 183.734C186.094 183.669 186.2 183.605 186.305 183.539C186.2 183.605 186.094 183.669 185.988 183.734ZM157.476 183.172C157.584 183.174 157.693 183.175 157.802 183.177C157.439 183.17 157.076 183.162 156.713 183.149L157.476 183.172ZM186.947 183.119C186.99 183.09 187.033 183.061 187.075 183.032C187.033 183.061 186.99 183.09 186.947 183.119ZM187.249 182.911C187.292 182.881 187.335 182.851 187.378 182.82C187.335 182.851 187.292 182.881 187.249 182.911ZM166.443 182.765L167.15 182.679C167.208 182.671 167.265 182.663 167.322 182.655C167.031 182.693 166.738 182.731 166.443 182.765ZM187.597 182.663C187.652 182.623 187.708 182.583 187.763 182.542C187.708 182.583 187.652 182.623 187.597 182.663ZM150.15 182.586C150.205 182.594 150.26 182.6 150.314 182.607C150.027 182.568 149.741 182.529 149.457 182.486L150.15 182.586ZM187.902 182.438C187.966 182.389 188.031 182.342 188.094 182.293C188.031 182.342 187.966 182.389 187.902 182.438ZM188.257 182.166C188.311 182.123 188.366 182.081 188.42 182.038C188.366 182.081 188.311 182.123 188.257 182.166ZM188.585 181.905C188.66 181.844 188.735 181.783 188.809 181.721C188.735 181.783 188.66 181.844 188.585 181.905ZM175.582 180.957C175.289 181.043 174.992 181.126 174.69 181.208C174.39 181.29 174.085 181.369 173.776 181.446C173.159 181.601 172.527 181.748 171.882 181.884L172.84 181.673C173.787 181.454 174.703 181.215 175.582 180.958L176.735 180.605L175.582 180.957ZM186.767 159.927C182.919 162.303 178.01 164.076 172.503 165.163L172.494 165.165L172.486 165.167L171.107 165.421L171.092 165.424L171.077 165.426L169.673 165.653L169.657 165.655C166.28 166.161 162.701 166.427 159 166.427C155.299 166.427 151.72 166.161 148.343 165.655L148.327 165.653L146.923 165.426L146.908 165.424L146.893 165.421L145.514 165.167L145.506 165.165L145.497 165.163C139.991 164.075 135.082 162.303 131.233 159.928V171.838C131.233 172.476 131.551 173.291 132.431 174.246C133.302 175.193 134.634 176.172 136.404 177.104L137.274 177.539C138.572 178.161 140.046 178.745 141.674 179.267L142.828 179.618C143.962 179.947 145.16 180.25 146.407 180.514H146.406L147.698 180.771L149.013 180.999H149.012C149.889 181.141 150.787 181.267 151.703 181.372L153.107 181.519L154.565 181.636L156.032 181.721H156.031C158.009 181.812 159.99 181.812 161.968 181.721L163.434 181.636L164.892 181.519L166.298 181.372C167.213 181.267 168.11 181.141 168.987 180.999L170.301 180.771L171.593 180.514C172.844 180.25 174.041 179.949 175.174 179.618L176.307 179.272C177.944 178.746 179.424 178.163 180.726 177.539L181.595 177.104C183.296 176.208 184.594 175.269 185.468 174.354C186.346 173.436 186.708 172.636 186.759 171.999L186.767 171.807V159.927ZM188.883 181.658C188.954 181.598 189.023 181.537 189.093 181.477C189.023 181.537 188.954 181.598 188.883 181.658ZM140.636 180.398C140.843 180.468 141.053 180.538 141.265 180.605L142.418 180.958C142.711 181.043 143.008 181.126 143.31 181.207C143.008 181.125 142.711 181.042 142.418 180.957L141.265 180.605C141.053 180.538 140.843 180.468 140.636 180.398ZM189.178 181.402C189.255 181.335 189.331 181.267 189.406 181.199C189.331 181.267 189.255 181.335 189.178 181.402ZM189.487 181.124C189.55 181.067 189.612 181.01 189.673 180.952C189.612 181.01 189.55 181.067 189.487 181.124ZM189.786 180.844C189.85 180.782 189.913 180.721 189.976 180.659C189.913 180.721 189.85 180.782 189.786 180.844ZM190.052 180.584C190.117 180.519 190.18 180.452 190.244 180.387C190.18 180.452 190.117 180.519 190.052 180.584ZM190.358 180.269C190.395 180.23 190.431 180.19 190.468 180.151C190.431 180.19 190.395 180.23 190.358 180.269ZM190.639 179.967C190.673 179.929 190.706 179.891 190.74 179.853C190.706 179.891 190.673 179.929 190.639 179.967ZM190.889 179.683C190.914 179.654 190.938 179.625 190.963 179.596C190.938 179.625 190.914 179.654 190.889 179.683ZM191.153 179.369C191.18 179.337 191.206 179.305 191.231 179.272C191.206 179.305 191.18 179.337 191.153 179.369ZM137.175 179.039V179.038V179.039ZM191.362 179.106C191.396 179.063 191.43 179.02 191.463 178.977C191.43 179.02 191.396 179.063 191.362 179.106ZM191.581 178.819C191.627 178.758 191.672 178.696 191.717 178.634C191.672 178.696 191.627 178.758 191.581 178.819ZM191.789 178.531C191.85 178.445 191.91 178.36 191.968 178.273C191.91 178.36 191.85 178.445 191.789 178.531ZM185.165 176.497C184.835 176.754 184.479 177.007 184.1 177.256C184.479 177.007 184.835 176.754 185.165 176.497ZM192.007 178.215C192.043 178.161 192.077 178.106 192.112 178.052C192.077 178.106 192.043 178.161 192.007 178.215ZM192.215 177.893C192.245 177.844 192.273 177.795 192.303 177.747C192.273 177.795 192.245 177.844 192.215 177.893ZM192.394 177.596C192.431 177.531 192.468 177.466 192.505 177.401C192.468 177.466 192.431 177.531 192.394 177.596ZM192.572 177.282C192.606 177.22 192.639 177.157 192.672 177.095C192.639 177.157 192.606 177.22 192.572 177.282ZM192.742 176.963C192.772 176.905 192.801 176.846 192.83 176.787C192.801 176.846 192.772 176.905 192.742 176.963ZM192.907 176.628C192.93 176.58 192.952 176.531 192.975 176.482C192.952 176.531 192.93 176.58 192.907 176.628ZM193.313 175.666C193.343 175.587 193.371 175.507 193.398 175.427C193.371 175.507 193.343 175.587 193.313 175.666ZM193.538 174.994C193.568 174.895 193.596 174.795 193.623 174.694C193.596 174.795 193.568 174.895 193.538 174.994ZM193.717 174.318C193.763 174.119 193.804 173.917 193.839 173.715C193.804 173.917 193.763 174.119 193.717 174.318ZM129.886 172.435C129.89 172.459 129.895 172.483 129.899 172.507C129.895 172.483 129.89 172.459 129.886 172.435ZM159 165.027C159.43 165.027 159.858 165.022 160.284 165.015C159.858 165.022 159.43 165.027 159 165.027ZM160.625 165.007C160.941 165 161.256 164.992 161.57 164.981C161.256 164.992 160.941 165 160.625 165.007ZM155.093 164.923C155.387 164.938 155.682 164.952 155.978 164.964C155.682 164.952 155.387 164.938 155.093 164.923ZM162.021 164.964C162.283 164.953 162.545 164.941 162.806 164.928C162.545 164.941 162.283 164.953 162.021 164.964ZM153.863 164.848C154.141 164.867 154.42 164.884 154.699 164.9C154.42 164.884 154.141 164.867 153.863 164.848ZM163.343 164.897C163.56 164.885 163.777 164.871 163.993 164.856C163.777 164.871 163.56 164.885 163.343 164.897ZM152.613 164.749C152.865 164.771 153.117 164.792 153.37 164.812C153.117 164.792 152.865 164.771 152.613 164.749ZM164.62 164.812C164.845 164.794 165.069 164.776 165.292 164.757C165.069 164.776 164.845 164.794 164.62 164.812ZM165.79 164.713C166.082 164.686 166.373 164.656 166.662 164.625C166.373 164.656 166.082 164.686 165.79 164.713ZM151.311 164.622C151.589 164.652 151.869 164.68 152.15 164.707C151.869 164.68 151.589 164.652 151.311 164.622ZM149.825 164.448C150.205 164.497 150.588 164.543 150.973 164.586C150.588 164.543 150.205 164.497 149.825 164.448ZM148.551 164.271C148.962 164.333 149.377 164.39 149.794 164.444C149.377 164.39 148.962 164.333 148.551 164.271ZM173.442 163.537C173.043 163.625 172.639 163.71 172.231 163.79H172.232C172.64 163.71 173.044 163.625 173.443 163.537H173.442ZM141.073 162.648H141.072H141.073ZM181.194 161.166L181.195 161.167L181.194 161.166ZM133.479 159.607C133.925 159.847 134.384 160.079 134.855 160.305C134.384 160.079 133.925 159.847 133.479 159.607ZM157.474 158.198C157.638 158.202 157.802 158.204 157.966 158.207C157.547 158.201 157.129 158.191 156.711 158.177L157.474 158.198ZM169.226 157.405C168.771 157.479 168.312 157.549 167.848 157.613C168.312 157.549 168.771 157.48 169.226 157.406L170.569 157.172L169.226 157.405ZM148.771 157.406C148.997 157.443 149.226 157.478 149.455 157.513L148.771 157.405L147.427 157.172L148.771 157.406ZM131.231 146.865C131.232 147.504 131.549 148.318 132.429 149.273C133.3 150.22 134.632 151.199 136.402 152.131L137.256 152.559C138.562 153.186 140.048 153.774 141.689 154.299H141.688L142.806 154.64C143.946 154.971 145.151 155.276 146.405 155.541H146.404L147.696 155.798L148.994 156.023C149.881 156.168 150.79 156.294 151.717 156.4H151.716L153.124 156.547L154.563 156.663L156.014 156.747C158.002 156.839 159.994 156.839 161.982 156.747L163.432 156.663L164.871 156.547L166.281 156.4C167.206 156.294 168.114 156.168 169.001 156.023L170.299 155.798L171.591 155.541L172.523 155.335C173.445 155.122 174.335 154.89 175.188 154.641L176.305 154.3C177.948 153.772 179.434 153.186 180.739 152.559L181.593 152.131C183.294 151.235 184.592 150.296 185.466 149.382C186.344 148.463 186.706 147.663 186.757 147.026L186.765 146.837V137.226C183.148 139.459 178.597 141.156 173.495 142.256L173.482 142.259L172.51 142.458L172.482 142.464L171.105 142.718L171.09 142.721L171.075 142.724L169.671 142.95L169.663 142.952L169.655 142.953C166.278 143.459 162.699 143.725 158.998 143.725C155.826 143.725 152.744 143.53 149.799 143.154L149.791 143.153L149.784 143.152L148.356 142.955L148.341 142.953L148.325 142.95L146.921 142.724L146.906 142.721L146.891 142.718L145.512 142.464L145.504 142.462L145.495 142.461C139.989 141.373 135.08 139.6 131.231 137.225V146.865ZM186.475 150.353C186.349 150.484 186.217 150.614 186.079 150.744C186.217 150.614 186.349 150.484 186.475 150.353ZM130.188 148.444C130.217 148.512 130.25 148.579 130.283 148.646C130.25 148.579 130.217 148.512 130.188 148.444ZM129.857 147.284C129.867 147.365 129.88 147.445 129.896 147.525C129.88 147.443 129.866 147.36 129.856 147.277L129.857 147.284ZM158.998 142.324C159.407 142.324 159.813 142.32 160.219 142.313C159.813 142.32 159.407 142.324 158.998 142.324ZM160.801 142.3C161.06 142.294 161.318 142.287 161.575 142.278C161.318 142.287 161.06 142.294 160.801 142.3ZM161.962 142.263C162.248 142.251 162.534 142.239 162.818 142.225C162.534 142.239 162.248 142.251 161.962 142.263ZM163.312 142.197C163.57 142.182 163.827 142.166 164.083 142.148C163.827 142.166 163.57 142.182 163.312 142.197ZM164.543 142.115C164.808 142.095 165.072 142.074 165.335 142.051C165.072 142.074 164.808 142.095 164.543 142.115ZM165.788 142.011C166.08 141.983 166.371 141.954 166.66 141.923C166.371 141.954 166.08 141.983 165.788 142.011ZM172.228 141.087L172.013 141.126L172.229 141.087L173.2 140.888L172.228 141.087ZM177.352 139.815C176.728 140.004 176.092 140.187 175.443 140.355C176.092 140.187 176.728 140.004 177.352 139.815ZM131.765 135.909C131.491 135.737 131.223 135.562 130.962 135.384C131.223 135.562 131.491 135.737 131.765 135.909ZM187.614 134.973C187.549 135.02 187.485 135.068 187.419 135.114C187.485 135.068 187.549 135.02 187.614 134.973ZM171.882 134.208L172.603 134.051C172.696 134.03 172.788 134.007 172.881 133.985C172.552 134.062 172.219 134.137 171.882 134.208ZM158.257 114.214L158.258 114.215L157.135 114.236L157.136 114.237L156.031 114.278L154.565 114.363L153.108 114.481L153.107 114.48L151.702 114.628L151.701 114.627C151.092 114.697 150.492 114.776 149.9 114.863L149.013 115L149.014 115.001L147.701 115.228L146.406 115.485C145.47 115.683 144.563 115.904 143.687 116.139L142.812 116.384L141.692 116.727L141.693 116.728C140.326 117.168 139.063 117.649 137.925 118.159L137.255 118.47L136.404 118.896C134.634 119.827 133.302 120.807 132.431 121.754C131.551 122.709 131.233 123.524 131.233 124.162C131.233 124.773 131.523 125.545 132.321 126.449C133.116 127.35 134.336 128.289 135.967 129.192L136.428 129.44L137.26 129.856L138.098 130.243C138.959 130.624 139.889 130.988 140.884 131.328H140.883L141.698 131.598L142.809 131.938H142.81C143.656 132.185 144.542 132.416 145.46 132.63H145.461L146.398 132.836L147.699 133.095L148.999 133.321H149C149.586 133.418 150.187 133.505 150.803 133.588H150.802L151.703 133.696L153.126 133.845L154.565 133.96L156.016 134.045L157.262 134.09C158.508 134.123 159.754 134.121 161 134.082L161.995 134.044L163.434 133.96L164.873 133.845L166.298 133.696C166.907 133.626 167.507 133.547 168.099 133.46L168.986 133.323L170.295 133.096L171.593 132.838C172.531 132.64 173.439 132.419 174.316 132.184L175.188 131.94L176.324 131.592C177.685 131.153 178.942 130.673 180.075 130.165L180.719 129.866L181.585 129.434L182.229 129.082C183.687 128.256 184.805 127.4 185.569 126.57C186.449 125.615 186.767 124.801 186.767 124.162C186.767 123.551 186.477 122.78 185.679 121.875C184.887 120.977 183.673 120.041 182.049 119.14V119.141L181.597 118.896L180.734 118.465C179.551 117.903 178.344 117.413 177.119 116.997V116.996L176.301 116.726L175.19 116.386C174.307 116.128 173.418 115.897 172.525 115.691V115.69L171.601 115.487L170.301 115.229L168.987 115.001V115C168.393 114.903 167.797 114.816 167.201 114.737H167.2L166.296 114.627L164.892 114.48L163.434 114.363L161.968 114.279V114.278C161.322 114.248 160.666 114.229 160.003 114.218V114.217L158.997 114.211L158.257 114.214ZM182.236 130.673L181.348 131.118L182.236 130.674C182.396 130.59 182.552 130.502 182.706 130.417C182.552 130.502 182.396 130.589 182.236 130.673ZM135.764 130.674L136.553 131.068L135.764 130.673L135.287 130.417L135.764 130.674ZM188.142 124.574C188.128 124.686 188.108 124.797 188.084 124.909C188.108 124.8 188.127 124.69 188.141 124.581L188.142 124.574ZM124.214 122C124.209 122.024 124.206 122.048 124.201 122.071C124.206 122.048 124.209 122.024 124.214 122ZM124.285 121.669C124.272 121.726 124.26 121.784 124.248 121.842C124.26 121.784 124.272 121.726 124.285 121.669ZM124.369 121.335C124.364 121.356 124.359 121.377 124.354 121.397C124.359 121.377 124.364 121.356 124.369 121.335ZM124.57 120.663C124.554 120.71 124.541 120.758 124.525 120.806C124.541 120.758 124.554 120.71 124.57 120.663ZM124.686 120.336C124.664 120.393 124.645 120.451 124.625 120.509C124.645 120.451 124.664 120.393 124.686 120.336ZM124.806 120.025C124.786 120.074 124.768 120.124 124.749 120.173C124.768 120.124 124.786 120.074 124.806 120.025ZM124.943 119.699C124.917 119.76 124.891 119.821 124.865 119.882C124.891 119.821 124.917 119.76 124.943 119.699ZM125.072 119.414C125.05 119.461 125.03 119.508 125.009 119.555C125.03 119.508 125.05 119.461 125.072 119.414ZM125.237 119.078C125.211 119.129 125.186 119.18 125.161 119.231C125.186 119.18 125.211 119.129 125.237 119.078ZM125.391 118.788C125.365 118.835 125.339 118.882 125.314 118.929C125.339 118.882 125.365 118.835 125.391 118.788ZM125.571 118.465C125.544 118.512 125.517 118.558 125.49 118.605C125.517 118.558 125.544 118.512 125.571 118.465ZM125.755 118.159C125.732 118.196 125.71 118.232 125.688 118.269C125.71 118.232 125.732 118.196 125.755 118.159ZM125.956 117.843C125.919 117.9 125.881 117.957 125.845 118.015C125.881 117.957 125.919 117.9 125.956 117.843ZM126.164 117.534C126.121 117.597 126.077 117.659 126.035 117.722C126.077 117.659 126.121 117.597 126.164 117.534ZM126.364 117.253C126.317 117.318 126.27 117.383 126.224 117.448C126.27 117.383 126.317 117.318 126.364 117.253ZM126.559 116.996C126.524 117.041 126.49 117.085 126.456 117.13C126.49 117.085 126.524 117.041 126.559 116.996ZM126.812 116.676C126.771 116.726 126.729 116.776 126.689 116.826C126.729 116.776 126.771 116.726 126.812 116.676ZM127.084 116.349C127.029 116.413 126.974 116.478 126.92 116.543C126.974 116.478 127.029 116.413 127.084 116.349ZM127.271 116.133C127.228 116.181 127.185 116.23 127.143 116.278C127.185 116.23 127.228 116.181 127.271 116.133ZM127.579 115.798C127.522 115.858 127.466 115.918 127.41 115.979C127.466 115.918 127.522 115.858 127.579 115.798ZM127.808 115.559C127.753 115.614 127.699 115.67 127.646 115.727C127.699 115.67 127.753 115.614 127.808 115.559ZM128.094 115.271C128.038 115.326 127.983 115.381 127.928 115.437C127.983 115.381 128.038 115.326 128.094 115.271ZM128.767 114.646C128.569 114.821 128.375 114.999 128.188 115.179C128.375 114.999 128.569 114.821 128.767 114.646ZM144.689 114.438C144.407 114.506 144.127 114.577 143.851 114.648C144.127 114.577 144.407 114.506 144.689 114.438ZM187.29 113.117V113.116V113.117ZM158.229 112.815H158.23H158.229ZM131.559 112.55C131.442 112.625 131.326 112.7 131.212 112.776C131.326 112.7 131.442 112.625 131.559 112.55ZM132.339 112.066C132.205 112.146 132.072 112.226 131.941 112.307C132.072 112.226 132.205 112.146 132.339 112.066ZM133.134 111.61C132.972 111.7 132.812 111.789 132.654 111.88C132.812 111.789 132.972 111.7 133.134 111.61ZM133.917 111.19C133.76 111.272 133.604 111.353 133.45 111.436C133.604 111.353 133.76 111.272 133.917 111.19ZM134.763 110.769C134.591 110.851 134.42 110.934 134.251 111.019C134.42 110.934 134.591 110.851 134.763 110.769ZM135.612 110.373C135.434 110.453 135.258 110.532 135.083 110.614C135.258 110.532 135.434 110.453 135.612 110.373ZM136.488 109.993C136.31 110.068 136.132 110.142 135.956 110.219C136.132 110.142 136.31 110.068 136.488 109.993ZM137.488 109.591C137.268 109.676 137.05 109.761 136.834 109.849C137.05 109.761 137.268 109.676 137.488 109.591ZM180.311 109.512L180.31 109.511L180.311 109.512ZM138.322 109.278C138.123 109.351 137.925 109.422 137.729 109.496C137.925 109.422 138.123 109.351 138.322 109.278ZM139.188 108.976C139.028 109.03 138.868 109.083 138.709 109.139C138.868 109.083 139.028 109.03 139.188 108.976ZM140.41 108.579C140.158 108.657 139.906 108.734 139.658 108.815C139.906 108.734 140.158 108.657 140.41 108.579ZM141.282 108.319C141.061 108.383 140.841 108.446 140.623 108.512C140.841 108.446 141.061 108.383 141.282 108.319ZM172.231 107.237L172.922 107.378L172.232 107.237L170.854 106.98L172.231 107.237ZM149.659 106.601L149.658 106.602L149.659 106.601ZM193.046 176.325C193.086 176.235 193.125 176.144 193.162 176.053C193.125 176.144 193.086 176.235 193.046 176.325ZM193.181 176.007C193.217 175.916 193.253 175.826 193.287 175.734C193.253 175.826 193.217 175.916 193.181 176.007ZM193.635 174.651C193.659 174.561 193.681 174.471 193.702 174.38C193.681 174.471 193.659 174.561 193.635 174.651ZM130.134 148.32C130.151 148.362 130.169 148.403 130.188 148.444C130.169 148.403 130.151 148.362 130.134 148.32Z" fill="black"/>
</svg>
