<svg width="200" height="200" viewBox="0 0 200 200" fill="none" xmlns="http://www.w3.org/2000/svg">
<path d="M64.1334 16.0326H74.211C74.4481 16.0326 74.7392 15.9465 74.9547 16.0541C75.3859 15.968 75.7523 16.0326 76.1834 16.0326C78.8349 16.0326 81.1091 17.4638 82.3701 19.5837L82.8659 20.5522C83.0465 21.0258 83.1801 21.516 83.2647 22.0157L83.6743 22.8443C83.9438 23.0595 84.1809 23.4146 84.3857 23.9311L84.9677 25.5453C87.77 31.2808 93.5364 35.2301 100.262 35.2301C107.936 35.2301 114.338 30.1079 116.375 23.1133L116.796 22.4676L117.119 21.8327L117.248 21.639V21.8973C117.531 20.4469 118.251 19.1176 119.313 18.0883C120.375 17.059 121.727 16.3791 123.187 16.1402L124.341 16.0541H136.369C142.728 16.0541 148.333 19.1748 151.825 23.9096L152.73 25.2332L194.873 67.2224C196.088 68.4296 196.833 70.0288 196.975 71.734C197.117 73.4393 196.647 75.1395 195.649 76.5306L194.895 77.4237L164.242 107.952C163.271 108.914 162.041 109.574 160.701 109.851C159.362 110.128 157.971 110.01 156.697 109.513L155.63 109.018V177.027C155.63 179.749 152.267 183.29 149.292 183.914L148.408 184H52.0726C49.7876 184 45.6811 180.557 44.9589 177.823L44.8511 177.027V108.663C43.6488 109.506 42.2157 109.959 40.7463 109.961C39.277 109.963 37.8426 109.514 36.6381 108.673L35.7651 107.931L5.11184 77.4022C3.90207 76.1958 3.16182 74.5989 3.02358 72.8974C2.88534 71.1959 3.35815 69.5008 4.35736 68.1155L5.1334 67.2008L48.8175 23.6729C52.3528 19.0672 57.8605 16.0326 64.1118 16.0326H64.1334ZM128.059 28.9672L127.951 29.1287L127.466 30.3877C125.928 33.879 123.733 37.0427 120.999 39.7066L116.58 43.0318L110.081 46.1094L104.174 47.885L102.245 48.0894L100.262 48.154C95.6435 48.1515 91.0891 47.0746 86.96 45.0087C82.831 42.9428 79.2409 39.9448 76.4745 36.2524L76.0757 35.6928L73.2625 31.41L70.7297 28.9457H64.1334C62.4947 28.9519 60.9252 29.6058 59.7682 30.7643L57.9575 32.8089L18.3044 72.3123L41.456 95.3622L57.785 84.343L57.7742 171.098H142.696V86.8503L158.27 95.6527L181.681 72.323L142.513 33.3039L141.715 32.0126C141.253 31.2473 140.634 30.5887 139.898 30.0804C139.162 29.5721 138.327 29.2257 137.447 29.0641L136.369 28.9672H128.059Z" fill="black"/>
</svg>
