<svg width="200" height="200" viewBox="0 0 200 200" fill="none" xmlns="http://www.w3.org/2000/svg">
<path d="M99.2189 106.253L181.25 106.253C184.702 106.253 187.5 103.425 187.5 99.9735C187.5 96.5219 184.702 93.6941 181.25 93.6941L99.2069 93.6941C96.4235 82.9696 86.6417 74.9813 75.0007 74.9813C63.3422 74.9813 53.5484 82.9541 50.7819 93.7491C50.5225 93.7145 50.2611 93.6962 49.9994 93.6941L18.7504 93.6941C15.2988 93.6941 12.5006 96.5219 12.5006 99.9735C12.5006 103.425 15.2988 106.253 18.7504 106.253L49.9994 106.253C50.257 106.248 50.5141 106.227 50.7692 106.191C53.5208 117.009 63.3281 125.019 74.9993 125.019C86.6579 125.021 96.451 117.048 99.2189 106.253ZM66.1623 108.835C64.1173 106.79 62.8446 104.1 62.5611 101.221C62.2776 98.3434 63.0008 95.4561 64.6074 93.0514C66.2141 90.6468 68.6049 88.8736 71.3723 88.0341C74.1398 87.1945 77.1128 87.3405 79.7846 88.4472C82.4565 89.5539 84.662 91.5528 86.0254 94.1033C87.3887 96.6538 87.8255 99.5981 87.2613 102.435C86.6972 105.271 85.167 107.824 82.9315 109.659C80.696 111.493 77.8935 112.496 75.0015 112.496C73.3591 112.501 71.7321 112.18 70.2147 111.551C68.6974 110.923 67.3197 110 66.1616 108.835L66.1623 108.835ZM161.718 43.6836C161.977 43.7189 162.239 43.738 162.5 43.7408L181.25 43.7408C182.906 43.7408 184.494 43.0829 185.665 41.9119C186.836 40.7409 187.494 39.1527 187.494 37.4966C187.494 35.8406 186.836 34.2524 185.665 33.0814C184.494 31.9103 182.906 31.2525 181.25 31.2525L162.5 31.2525C162.235 31.2476 161.97 31.2594 161.707 31.2878C158.941 20.4928 149.148 12.5038 137.488 12.5038C125.828 12.5038 116.039 20.4942 113.27 31.2892C113.015 31.2616 112.758 31.2495 112.501 31.2532L18.7504 31.2532C17.9304 31.2532 17.1185 31.4147 16.3609 31.7285C15.6033 32.0423 14.915 32.5022 14.3351 33.0821C13.7553 33.6619 13.2954 34.3502 12.9816 35.1078C12.6678 35.8654 12.5063 36.6773 12.5063 37.4973C12.5063 38.3173 12.6678 39.1293 12.9816 39.8869C13.2954 40.6445 13.7553 41.3328 14.3351 41.9126C14.915 42.4924 15.6033 42.9524 16.3609 43.2662C17.1185 43.58 17.9304 43.7415 18.7504 43.7415L112.5 43.7415C112.754 43.7387 113.007 43.7205 113.259 43.6872C116.01 54.5047 125.818 62.5057 137.488 62.5057C149.159 62.5057 158.968 54.5026 161.718 43.6836ZM128.649 46.3351C126.604 44.2902 125.331 41.5995 125.048 38.7214C124.764 35.8433 125.487 32.9559 127.094 30.5513C128.701 28.1467 131.092 26.3735 133.859 25.5339C136.627 24.6944 139.599 24.8404 142.271 25.9471C144.943 27.0537 147.149 29.0526 148.512 31.6031C149.875 34.1536 150.312 37.0979 149.748 39.9344C149.184 42.7708 147.654 45.3239 145.418 47.1586C143.183 48.9934 140.38 49.9962 137.488 49.9962C135.846 50.0008 134.219 49.6796 132.702 49.0511C131.185 48.4227 129.807 47.4995 128.649 46.3351ZM137.488 187.496C149.163 187.496 158.968 179.479 161.718 168.658C161.978 168.685 162.239 168.697 162.5 168.692L181.25 168.692C182.906 168.692 184.494 168.034 185.665 166.863C186.836 165.692 187.494 164.104 187.494 162.448C187.494 160.791 186.836 159.203 185.665 158.032C184.494 156.861 182.906 156.203 181.25 156.203L162.5 156.203C162.235 156.206 161.97 156.226 161.707 156.262C158.941 145.467 149.148 137.489 137.488 137.489C125.828 137.489 116.036 145.462 113.269 156.257C113.01 156.222 112.749 156.204 112.488 156.202L18.7504 156.202C17.0944 156.202 15.5061 156.86 14.3351 158.031C13.1641 159.202 12.5062 160.79 12.5062 162.446C12.5062 164.102 13.1641 165.69 14.3351 166.861C15.5061 168.032 17.0944 168.69 18.7504 168.69L112.488 168.69C112.745 168.695 113.002 168.684 113.258 168.658C116.009 179.48 125.814 187.496 137.488 187.496ZM128.65 171.335C126.605 169.29 125.333 166.599 125.05 163.721C124.766 160.843 125.49 157.956 127.097 155.552C128.703 153.147 131.094 151.374 133.862 150.535C136.629 149.696 139.602 149.842 142.273 150.949C144.945 152.056 147.15 154.055 148.513 156.605C149.876 159.156 150.313 162.1 149.748 164.936C149.184 167.773 147.654 170.325 145.418 172.16C143.182 173.994 140.38 174.997 137.488 174.997C135.846 175.001 134.219 174.679 132.702 174.051C131.185 173.422 129.808 172.499 128.65 171.335Z" fill="black"/>
</svg>
