<svg width="200" height="200" viewBox="0 0 200 200" fill="none" xmlns="http://www.w3.org/2000/svg">
<path fill-rule="evenodd" clip-rule="evenodd" d="M40.022 24C42.6453 24.0001 45.0431 25.4832 46.2148 27.8302L69.2882 73.9768C70.413 76.1918 70.2645 78.8397 68.8992 80.9151C67.5339 82.9905 65.1612 84.1752 62.6818 84.0192C60.2025 83.8633 57.9969 82.3907 56.9024 80.1605L54.2074 74.7614H25.8458L23.1415 80.1605C22.0497 82.3953 19.8429 83.8726 17.3607 84.0302C14.8784 84.1878 12.5025 83.0016 11.1368 80.9228C9.77113 78.8441 9.62571 76.1924 10.7559 73.9768L33.829 27.8302C35.0008 25.4831 37.3987 24 40.022 24ZM100.012 24C96.1894 24 93.0903 27.0991 93.0903 30.922C93.0903 34.7449 96.1894 37.844 100.012 37.844H183.076C186.899 37.844 189.998 34.7449 189.998 30.922C189.998 27.0991 186.899 24 183.076 24H100.012ZM100.012 70.1469C96.1894 70.1469 93.0903 73.246 93.0903 77.0689C93.0903 80.8918 96.1894 83.9909 100.012 83.9909H183.076C186.899 83.9909 189.998 80.8918 189.998 77.0689C189.998 73.246 186.899 70.1469 183.076 70.1469H100.012ZM10.0284 123.215C10.0284 119.392 13.1275 116.293 16.9504 116.293H183.078C186.901 116.293 190 119.392 190 123.215C190 127.038 186.901 130.137 183.078 130.137H16.9504C13.1275 130.137 10.0284 127.038 10.0284 123.215ZM16.9504 162.44C13.1275 162.44 10.0284 165.539 10.0284 169.362C10.0284 173.185 13.1275 176.284 16.9504 176.284H183.078C186.901 176.284 190 173.185 190 169.362C190 165.539 186.901 162.44 183.078 162.44H16.9504ZM47.2838 60.9171H32.7662L40.0205 46.3993L47.2838 60.9171Z" fill="black"/>
</svg>
