<svg width="200" height="200" viewBox="0 0 200 200" fill="currentColor" xmlns="http://www.w3.org/2000/svg">
<!-- <rect width="200" height="200" fill="white"/> -->
<path d="M39.9987 33.2778C54.5064 10.0475 84.9638 2.97337 107.894 17.6782C130.819 32.3799 137.796 63.1285 123.289 86.472L123.29 86.4731C119.594 92.4656 114.589 97.6403 108.755 101.515C139.481 113.659 161.286 145.685 161.286 183.258C161.286 186.987 158.316 190 154.631 190H8.65567C4.97002 190 2.00014 186.987 2 183.258C2.00004 145.685 23.8045 113.549 54.5334 101.51C32.2953 86.5944 25.6721 56.2182 39.9987 33.2778ZM130.411 15.9306C154.262 15.9306 173.561 35.4907 173.561 59.6542C173.561 73.9532 166.655 87.3906 155.129 95.5442C180.327 107.343 198 136.707 198 170.709C198 174.438 195.03 177.451 191.344 177.451H173.042C169.357 177.451 166.387 174.438 166.387 170.709C166.387 166.98 169.357 163.966 173.042 163.966H184.427C181.707 129.658 158.287 103.266 130.411 103.266C126.726 103.266 123.756 100.254 123.756 96.5243C123.756 93.1095 126.744 90.1156 130.411 90.1154C146.892 90.1154 160.36 76.5797 160.36 59.7656C160.36 42.9502 147 29.4157 130.411 29.4157C126.726 29.4156 123.756 26.403 123.756 22.6737C123.756 18.9442 126.726 15.9308 130.411 15.9306ZM81.6432 109.708C47.1667 109.708 18.5378 138.925 15.4643 176.515H147.823C144.751 138.925 116.228 109.708 81.6432 109.708ZM88.9157 127.004L94.8219 162.481L83.4023 172.733L71.208 162.481L77.8384 127.004L68.8889 115.174L75.8919 116.702H89.8858L96.8889 115.174L88.9157 127.004ZM81.6402 23.4187C61.7688 23.3095 45.668 39.7275 45.668 59.877C45.6682 80.0237 61.7671 96.3341 81.6432 96.3342C101.519 96.3342 117.618 80.0238 117.618 59.877C117.618 39.73 101.52 23.4187 81.6432 23.4187H81.6402Z" fill="currentColor"/>
</svg>
