<svg width="200" height="200" viewBox="0 0 200 200" fill="none" xmlns="http://www.w3.org/2000/svg">
<path d="M145.402 119.688V107.433C145.402 107.007 145.232 106.598 144.931 106.297C144.63 105.995 144.221 105.826 143.795 105.826H56.2054C55.7791 105.826 55.3703 105.995 55.0689 106.297C54.7675 106.598 54.5982 107.007 54.5982 107.433V119.688H73.8839C77.4343 119.688 80.3125 122.566 80.3125 126.116V183.571C80.3125 187.122 77.4343 190 73.8839 190H16.4286C12.8782 190 10 187.122 10 183.571V126.116C10 122.566 12.8782 119.688 16.4286 119.688H41.7411V99.3973C41.7411 95.8469 44.6193 92.9688 48.1696 92.9688H93.5714V80.3125H71.2723C67.7219 80.3125 64.8438 77.4343 64.8438 73.8839V16.4286C64.8438 12.8782 67.7219 10 71.2723 10H128.728C132.278 10 135.156 12.8782 135.156 16.4286V73.8839C135.156 77.4343 132.278 80.3125 128.728 80.3125H106.429V92.9688H151.83C155.381 92.9688 158.259 95.8469 158.259 99.3973V119.688H183.571C187.122 119.688 190 122.566 190 126.116V183.571C190 187.122 187.122 190 183.571 190H126.116C122.566 190 119.688 187.122 119.688 183.571V126.116C119.688 122.566 122.566 119.688 126.116 119.688H145.402ZM79.308 22.8571C78.8818 22.8571 78.473 23.0265 78.1716 23.3279C77.8702 23.6293 77.7009 24.038 77.7009 24.4643V65.8482C77.7009 66.2745 77.8702 66.6832 78.1716 66.9846C78.473 67.286 78.8818 67.4554 79.308 67.4554H120.692C121.118 67.4554 121.527 67.286 121.828 66.9846C122.13 66.6832 122.299 66.2745 122.299 65.8482V24.4643C122.299 24.038 122.13 23.6293 121.828 23.3279C121.527 23.0265 121.118 22.8571 120.692 22.8571H79.308ZM24.4643 132.545C24.038 132.545 23.6293 132.714 23.3279 133.015C23.0265 133.317 22.8571 133.726 22.8571 134.152V175.536C22.8571 175.962 23.0265 176.371 23.3279 176.672C23.6293 176.974 24.038 177.143 24.4643 177.143H65.8482C66.2745 177.143 66.6832 176.974 66.9846 176.672C67.286 176.371 67.4554 175.962 67.4554 175.536V134.152C67.4554 133.726 67.286 133.317 66.9846 133.015C66.6832 132.714 66.2745 132.545 65.8482 132.545H24.4643ZM134.152 132.545C133.726 132.545 133.317 132.714 133.015 133.015C132.714 133.317 132.545 133.726 132.545 134.152V175.536C132.545 175.962 132.714 176.371 133.015 176.672C133.317 176.974 133.726 177.143 134.152 177.143H175.536C175.962 177.143 176.371 176.974 176.672 176.672C176.974 176.371 177.143 175.962 177.143 175.536V134.152C177.143 133.726 176.974 133.317 176.672 133.015C176.371 132.714 175.962 132.545 175.536 132.545H134.152Z" fill="black"/>
</svg>
