<svg width="200" height="200" viewBox="0 0 200 200" fill="none" xmlns="http://www.w3.org/2000/svg">
<path d="M188.145 153.121C187.503 156.54 185.293 158.757 182.535 158.757H182.076C176.669 158.771 172.29 163.15 172.276 168.557C172.35 169.841 172.648 171.105 173.141 172.288C174.459 175.356 173.452 178.918 170.728 180.844L170.458 181.026L159.084 187.285C158.111 187.751 157.047 187.996 155.968 188.001C153.832 188.001 151.724 187.102 150.385 185.609C148.919 184.02 145.039 180.736 142.309 180.736C139.639 180.736 135.693 184.02 134.314 185.521C133.244 186.622 131.868 187.377 130.365 187.689C128.861 188.001 127.299 187.856 125.879 187.271L114.633 181.02C111.673 178.965 110.639 175.275 111.984 172.274C112.22 171.72 112.842 169.963 112.842 168.571C112.842 163.171 108.429 158.771 103.029 158.771H102.644C99.8185 158.771 97.622 156.547 96.9665 153.121C96.8651 152.6 96 147.849 96 144.037C96 140.212 96.8651 135.447 96.9665 134.94C97.622 131.521 99.8185 129.29 102.576 129.29H103.036C108.442 129.29 112.835 124.918 112.849 119.511C112.78 118.221 112.485 116.954 111.977 115.767C111.342 114.277 111.236 112.615 111.677 111.056C112.119 109.498 113.081 108.138 114.403 107.204L114.674 107.041L126.332 100.634L126.555 100.547C127.966 99.9866 129.511 99.8533 130.997 100.163C132.483 100.473 133.846 101.213 134.915 102.29C136.335 103.777 140.153 106.879 142.796 106.879C145.398 106.879 149.196 103.845 150.615 102.365C152.825 100.182 156.123 99.526 158.996 100.695L170.445 107.028C173.418 109.082 174.459 112.786 173.107 115.787C172.622 116.968 172.337 118.222 172.263 119.497C172.276 124.897 176.656 129.27 182.062 129.277H182.454C185.273 129.277 187.476 131.5 188.132 134.934C188.226 135.447 189.098 140.198 189.098 144.031C189.098 148.052 188.132 153.08 188.145 153.121ZM179.609 138.022C175.111 137.432 170.981 135.227 167.988 131.817C164.995 128.408 163.344 124.027 163.341 119.491C163.375 117.558 163.713 115.652 164.342 113.827L156.238 109.326C155.182 110.298 154.065 111.201 152.893 112.029C149.351 114.516 145.972 115.773 142.796 115.773C139.572 115.773 136.152 114.516 132.597 111.962C131.412 111.12 130.292 110.192 129.245 109.184L120.77 113.84C121.243 115.246 121.777 117.321 121.777 119.497C121.773 124.037 120.12 128.421 117.124 131.832C114.129 135.244 109.997 137.451 105.496 138.043C105.173 140.024 104.986 142.024 104.935 144.031C104.989 146.031 105.171 148.025 105.496 150.005C109.999 150.591 114.135 152.797 117.131 156.209C120.127 159.622 121.779 164.009 121.777 168.55C121.777 170.713 121.223 172.801 120.763 174.214L128.603 178.593C129.664 177.58 130.779 176.633 131.955 175.762C135.551 173.139 139.045 171.788 142.302 171.788C145.607 171.788 149.128 173.166 152.758 175.849C153.94 176.735 155.069 177.701 156.13 178.735L164.335 174.214C163.712 172.391 163.377 170.483 163.341 168.557C163.338 164.017 164.987 159.631 167.98 156.219C170.974 152.806 175.108 150.6 179.609 150.012C179.839 148.464 180.17 145.963 180.17 144.017C180.17 142.064 179.839 139.577 179.609 138.022ZM142.356 161.258C137.769 161.251 133.372 159.426 130.128 156.183C126.884 152.94 125.057 148.543 125.048 143.956C125.174 139.449 127.053 135.17 130.285 132.026C133.517 128.883 137.848 127.125 142.356 127.125C146.865 127.125 151.196 128.883 154.428 132.026C157.66 135.17 159.539 139.449 159.665 143.956C159.656 148.543 157.829 152.94 154.585 156.183C151.341 159.426 146.943 161.251 142.356 161.258ZM142.356 135.914C137.855 135.914 134.152 139.469 133.962 143.963C134.024 146.147 134.936 148.221 136.502 149.744C138.069 151.267 140.168 152.119 142.353 152.119C144.538 152.119 146.637 151.267 148.204 149.744C149.77 148.221 150.682 146.147 150.744 143.963C150.653 141.799 149.73 139.753 148.167 138.253C146.604 136.753 144.522 135.915 142.356 135.914Z" fill="black"/>
<path d="M189.098 144.03C189.098 141.156 188.607 137.766 188.322 136.033L188.132 134.934C187.476 131.5 185.272 129.276 182.454 129.276V129.077C185.307 129.077 187.519 131.259 188.261 134.572L188.328 134.896C188.423 135.409 189.298 140.178 189.298 144.03C189.298 146.054 189.055 148.328 188.814 150.096C188.694 150.98 188.574 151.74 188.485 152.281C188.441 152.552 188.404 152.768 188.379 152.917L188.349 153.099L188.352 153.106L188.342 153.157C187.688 156.637 185.42 158.957 182.535 158.957H182.076C176.78 158.97 172.49 163.261 172.477 168.558C172.551 169.814 172.842 171.051 173.325 172.209L173.445 172.506C174.614 175.591 173.557 179.088 170.844 181.007L170.841 181.01L170.57 181.192L170.555 181.202L159.18 187.46L159.17 187.466C158.17 187.945 157.077 188.195 155.969 188.201C153.781 188.201 151.615 187.281 150.236 185.742C149.512 184.959 148.188 183.752 146.708 182.742C145.218 181.725 143.609 180.936 142.309 180.936C141.679 180.936 140.961 181.13 140.207 181.456C139.455 181.781 138.679 182.232 137.939 182.731C136.459 183.732 135.139 184.918 134.461 185.656L134.457 185.66C133.359 186.79 131.948 187.565 130.405 187.885C128.863 188.205 127.26 188.055 125.803 187.456L125.792 187.452L125.782 187.446L114.527 181.189L114.52 181.184C111.486 179.078 110.415 175.289 111.8 172.195C112.034 171.647 112.643 169.921 112.643 168.57C112.642 163.281 108.319 158.971 103.029 158.971H102.644C99.6918 158.971 97.4366 156.645 96.7695 153.158C96.6662 152.627 95.7998 147.865 95.7998 144.037C95.7998 140.192 96.6684 135.412 96.7705 134.901C97.4376 131.424 99.6909 129.09 102.576 129.09V129.29L102.319 129.297C99.6829 129.431 97.6019 131.627 96.9668 134.94C96.8654 135.447 96 140.212 96 144.037C96 147.849 96.8654 152.601 96.9668 153.121C97.6225 156.547 99.8186 158.77 102.644 158.77H103.029C108.429 158.771 112.842 163.171 112.842 168.57C112.842 169.963 112.22 171.72 111.983 172.274C110.639 175.275 111.673 178.965 114.633 181.02L125.879 187.271C127.21 187.819 128.667 187.981 130.082 187.742L130.365 187.689C131.868 187.377 133.243 186.621 134.313 185.52C135.692 184.02 139.639 180.736 142.309 180.735C145.039 180.735 148.919 184.02 150.386 185.608C151.724 187.102 153.832 188.001 155.968 188.001C156.912 187.996 157.845 187.808 158.715 187.449L159.084 187.285L170.458 181.026L170.729 180.844C173.452 178.918 174.459 175.356 173.142 172.288C172.648 171.105 172.351 169.841 172.276 168.557C172.29 163.319 176.4 159.046 181.572 158.771L182.076 158.757H182.535C185.206 158.757 187.364 156.677 188.08 153.437L188.146 153.121C188.132 153.081 189.098 148.052 189.098 144.03ZM163.142 119.487C163.175 117.59 163.499 115.718 164.1 113.922L156.266 109.569C155.368 110.388 154.429 111.16 153.448 111.877L153.008 112.192C149.445 114.695 146.026 115.974 142.796 115.974C139.519 115.974 136.059 114.696 132.481 112.125L132.037 111.803C131.047 111.071 130.104 110.278 129.213 109.429L121.01 113.936C121.473 115.348 121.977 117.372 121.977 119.497C121.973 124.085 120.301 128.516 117.274 131.964C114.281 135.374 110.162 137.592 105.671 138.219C105.364 140.144 105.184 142.087 105.135 144.035C105.188 145.975 105.362 147.907 105.67 149.827C110.164 150.448 114.286 152.666 117.281 156.077C120.309 159.526 121.978 163.96 121.977 168.55C121.977 170.664 121.453 172.702 121.002 174.118L128.572 178.347C129.607 177.366 130.693 176.448 131.836 175.601L131.837 175.6C135.454 172.962 138.989 171.588 142.303 171.588C145.454 171.588 148.782 172.82 152.193 175.198L152.877 175.688L152.878 175.689C154.028 176.55 155.126 177.488 156.162 178.488L164.094 174.118C163.499 172.324 163.177 170.451 163.142 168.561V168.558C163.138 163.969 164.804 159.536 167.83 156.087C170.822 152.676 174.941 150.458 179.432 149.835C179.66 148.28 179.97 145.887 179.97 144.017C179.97 142.14 179.66 139.759 179.432 138.198C174.944 137.572 170.829 135.357 167.838 131.949C164.813 128.503 163.144 124.075 163.142 119.49V119.487ZM142.356 126.925C146.917 126.925 151.298 128.703 154.567 131.883C157.837 135.062 159.738 139.392 159.865 143.95V143.957C159.856 148.597 158.008 153.044 154.727 156.324C151.547 159.502 147.274 161.334 142.791 161.452L142.356 161.458C137.716 161.451 133.268 159.605 129.986 156.324C126.705 153.044 124.857 148.597 124.848 143.957V143.95C124.975 139.392 126.876 135.062 130.146 131.883C133.415 128.703 137.796 126.925 142.356 126.925ZM142.356 127.125C137.848 127.125 133.517 128.883 130.285 132.026L129.986 132.324C126.937 135.437 125.17 139.59 125.048 143.956C125.057 148.543 126.884 152.94 130.128 156.183C133.271 159.324 137.495 161.135 141.927 161.252L142.356 161.258C146.944 161.251 151.341 159.426 154.585 156.183C157.728 153.041 159.54 148.817 159.658 144.386L159.665 143.956C159.539 139.449 157.66 135.169 154.428 132.026C151.296 128.981 147.134 127.236 142.778 127.13L142.356 127.125ZM142.762 135.924C144.781 136.023 146.702 136.847 148.167 138.253C149.73 139.753 150.653 141.799 150.743 143.963C150.681 146.147 149.771 148.221 148.204 149.744L147.903 150.021C146.374 151.37 144.401 152.119 142.353 152.119V151.919C144.485 151.919 146.535 151.087 148.064 149.601C149.592 148.116 150.481 146.094 150.543 143.965C150.453 141.855 149.552 139.86 148.028 138.397C146.503 136.933 144.471 136.115 142.356 136.113C137.965 136.113 134.35 139.581 134.162 143.965C134.225 146.094 135.114 148.116 136.642 149.601C138.171 151.087 140.22 151.919 142.353 151.919V152.119L141.944 152.108C140.043 152.016 138.229 151.28 136.802 150.021L136.502 149.744C134.935 148.221 134.024 146.147 133.962 143.963C134.151 139.469 137.855 135.914 142.356 135.914L142.762 135.924ZM103.035 129.09V129.29H102.576V129.09H103.035ZM126.754 100.258C128.126 99.7706 129.609 99.6696 131.038 99.9678C132.467 100.266 133.785 100.951 134.848 101.946L135.058 102.149L135.06 102.152C135.759 102.885 137.057 104.023 138.507 104.976C139.965 105.934 141.538 106.68 142.796 106.68V106.879L142.545 106.87C139.917 106.687 136.29 103.73 134.915 102.29C133.912 101.28 132.652 100.567 131.274 100.227L130.997 100.163C129.511 99.8531 127.966 99.9869 126.555 100.547L126.332 100.635L114.674 107.041L114.403 107.203C113.081 108.138 112.118 109.498 111.677 111.057L111.601 111.35C111.251 112.822 111.381 114.37 111.977 115.767C112.484 116.954 112.78 118.221 112.849 119.511C112.835 124.918 108.442 129.29 103.035 129.29V129.09C108.166 129.09 112.365 125.07 112.635 120.004L112.648 119.511C112.58 118.248 112.29 117.008 111.793 115.846C111.14 114.314 111.03 112.604 111.484 111.002C111.938 109.4 112.928 108.001 114.288 107.04L114.294 107.036L114.301 107.032L114.57 106.87L114.577 106.866L126.235 100.459L126.247 100.453L126.259 100.448L126.481 100.36L126.754 100.258ZM182.454 129.077V129.276H182.062V129.077H182.454ZM150.475 102.223C152.671 100.053 155.914 99.3543 158.794 100.403L159.071 100.51L159.082 100.515L159.093 100.52L170.541 106.853L170.55 106.857L170.559 106.863C173.607 108.969 174.684 112.775 173.29 115.869C172.816 117.025 172.537 118.25 172.463 119.497L172.477 119.989C172.745 125.05 176.931 129.071 182.062 129.077V129.276L181.559 129.264C176.553 129.005 172.542 124.999 172.276 120L172.263 119.497C172.337 118.222 172.622 116.968 173.107 115.787C174.417 112.88 173.481 109.314 170.718 107.226L170.444 107.028L158.996 100.695C156.124 99.5261 152.825 100.181 150.615 102.364L150.322 102.659C148.726 104.212 145.235 106.879 142.796 106.879V106.68C144.034 106.68 145.592 105.95 147.04 105.009C148.479 104.074 149.772 102.955 150.471 102.227L150.475 102.223ZM163.342 119.49C163.344 124.027 164.995 128.408 167.988 131.817C170.981 135.227 175.111 137.432 179.609 138.022C179.839 139.577 180.17 142.064 180.17 144.017C180.17 145.963 179.839 148.464 179.609 150.012C175.108 150.599 170.974 152.806 167.98 156.219L167.703 156.541C164.885 159.905 163.338 164.159 163.342 168.557C163.377 170.482 163.712 172.391 164.335 174.214L156.13 178.735L155.729 178.351C154.786 177.461 153.793 176.624 152.758 175.85C149.242 173.25 145.827 171.875 142.612 171.792L142.303 171.787C139.045 171.787 135.551 173.139 131.955 175.762L131.517 176.092C130.501 176.871 129.531 177.707 128.603 178.594L120.763 174.214C121.222 172.801 121.776 170.712 121.776 168.55C121.778 164.009 120.127 159.622 117.131 156.209C114.135 152.797 109.999 150.591 105.496 150.005C105.172 148.025 104.989 146.031 104.935 144.03C104.986 142.024 105.174 140.024 105.496 138.043C109.997 137.451 114.129 135.243 117.124 131.832C120.119 128.42 121.772 124.037 121.776 119.497C121.776 117.321 121.243 115.247 120.77 113.841L129.245 109.184C130.292 110.191 131.412 111.121 132.597 111.962C135.929 114.357 139.144 115.611 142.188 115.759L142.796 115.773C145.774 115.773 148.93 114.669 152.23 112.481L152.893 112.029C154.065 111.201 155.182 110.298 156.238 109.326L164.342 113.827C163.713 115.652 163.376 117.557 163.342 119.49Z" fill="black"/>
<path d="M116.004 91.2039L113.186 93.3937C107.448 98.4963 96.4989 100.199 89.2606 100.76L88.3347 100.74C86.2993 100.745 84.2651 100.842 82.2385 101.031H82.1507L82.1642 101.044C49.4194 104.133 23.7102 131.572 23.7102 164.898V174.691H95.4649C97.3486 178.764 99.6958 182.606 102.46 186.14H17.9249C16.4001 186.147 14.9346 185.55 13.85 184.478C12.7655 183.406 12.1504 181.947 12.1396 180.423V164.898C12.1396 133.823 30.9823 106.269 60.1586 94.6981L63.4635 93.3937L60.6587 91.2039C49.6965 82.6545 43.4246 69.9012 43.4246 56.1815C43.4246 31.6212 63.5649 11.6432 88.3212 11.6432C113.084 11.6432 133.224 31.6212 133.238 56.1815C133.238 69.9012 126.939 82.6545 116.004 91.2039ZM88.3279 23.0988C69.9516 23.0988 55.0019 37.9472 55.0019 56.1815C55.0019 74.4294 69.9516 89.2778 88.3279 89.2778C106.711 89.2778 121.661 74.4362 121.661 56.1815C121.661 37.9337 106.711 23.0988 88.3279 23.0988Z" fill="black"/>
<path d="M133.238 56.1813C133.225 32.0049 113.709 12.2687 89.4785 11.6578L88.3213 11.6432C63.5651 11.6432 43.4249 31.6211 43.4248 56.1813L43.4297 56.8239C43.6222 70.2987 49.8682 82.7878 60.6592 91.2037L63.4639 93.3942L60.1582 94.6979C30.9821 106.268 12.1398 133.823 12.1396 164.898V180.422C12.1504 181.947 12.7653 183.405 13.8496 184.477C14.9341 185.549 16.4 186.147 17.9248 186.14H102.46C99.6959 182.606 97.3486 178.764 95.4648 174.691H23.71V164.898C23.7101 131.572 49.4194 104.133 82.1641 101.045L82.1504 101.031H82.2383C84.2649 100.842 86.2996 100.745 88.335 100.74L89.2607 100.76C96.499 100.199 107.448 98.4966 113.186 93.3942L116.004 91.2037C126.768 82.7878 133.04 70.2987 133.233 56.8239L133.238 56.1813ZM121.261 56.1813C121.261 38.1573 106.493 23.4988 88.3281 23.4987C70.1701 23.4987 55.4025 38.1706 55.4023 56.1813C55.4023 74.2057 70.1701 88.8776 88.3281 88.8776V89.278L87.4688 89.2672C69.7735 88.8202 55.4628 74.6065 55.0127 57.0348L55.002 56.1813C55.0021 37.947 69.9519 23.0992 88.3281 23.0992L89.1875 23.11C107.175 23.5638 121.661 38.2188 121.661 56.1813L121.649 57.0348C121.192 74.8963 106.424 89.2779 88.3281 89.278V88.8776C106.493 88.8775 121.261 74.2122 121.261 56.1813ZM133.638 56.1813C133.638 70.0265 127.28 82.8954 116.25 91.5192L116.249 91.5201L113.443 93.6989C110.505 96.3085 106.265 98.0288 101.887 99.1676C97.4965 100.309 92.9242 100.877 89.292 101.159L89.2715 101.161H89.252L88.3281 101.14C86.5651 101.144 84.8029 101.218 83.0459 101.361L83.0479 101.363L82.2021 101.443C49.6583 104.513 24.1105 131.783 24.1104 164.898V174.292H95.7207L95.8281 174.523C97.6989 178.568 100.03 182.384 102.775 185.894L103.28 186.541H17.9248V186.54C16.2949 186.547 14.7287 185.908 13.5693 184.762C12.4094 183.616 11.7507 182.056 11.7393 180.425V164.898C11.7394 133.657 30.6841 105.956 60.0107 94.3258H60.0117L62.666 93.278L60.4121 91.5192V91.5182C49.3547 82.894 43.0244 70.0256 43.0244 56.1813C43.0246 31.3972 63.3472 11.2428 88.3213 11.2428C113.302 11.2429 133.624 31.3973 133.638 56.1813Z" fill="black"/>
</svg>
