<svg width="200" height="200" viewBox="0 0 200 200" fill="none" xmlns="http://www.w3.org/2000/svg">
<path d="M99.9991 5.39457C101.516 5.39462 103.006 5.79171 104.321 6.54602L178.784 49.5279C180.102 50.2907 181.196 51.3878 181.954 52.708C182.713 54.0281 183.11 55.5249 183.105 57.0473V142.986C183.107 144.505 182.708 145.998 181.949 147.314C181.19 148.631 180.098 149.724 178.782 150.484L104.321 193.466C103.015 194.209 101.539 194.602 100.036 194.605H99.9592C98.4687 194.605 97.0033 194.219 95.7063 193.485L21.2112 150.484C19.8943 149.72 18.8017 148.623 18.0439 147.303C17.2862 145.983 16.8902 144.486 16.895 142.964V57.0279C16.8927 55.51 17.2898 54.0179 18.0468 52.7021C18.8038 51.3865 19.8938 50.2929 21.2073 49.5318L95.6771 6.54602C96.9925 5.79174 98.4826 5.39457 99.9991 5.39457ZM26.1771 142.986L95.358 182.584V141.49L65.9534 124.535C64.6673 123.792 63.6 122.721 62.861 121.433C62.122 120.145 61.7377 118.684 61.7452 117.199V84.3028L25.8736 62.4807L26.1771 142.986ZM138.256 84.753V117.183C138.255 118.663 137.865 120.116 137.126 121.398C136.388 122.68 135.325 123.745 134.046 124.488L104.64 141.532V182.561L174.14 142.446L173.845 63.1031L138.256 84.753ZM74.4359 118.705L100.041 133.479L125.502 118.709L100.015 99.8804L74.4359 118.705ZM71.0273 83.2709V111.333L96.0001 92.9007V68.8302L71.0273 83.2709ZM103.998 92.8803L128.961 111.304V83.2369L103.998 68.8234V92.8803ZM30.8639 54.652L65.5331 75.7408C65.6696 75.651 65.8095 75.5651 65.9514 75.4831L95.7861 58.2289C97.0669 57.4927 98.5187 57.1057 99.9962 57.1057C101.474 57.1057 102.925 57.4926 104.206 58.2289L134.046 75.4491C134.319 75.6074 134.582 75.7816 134.835 75.9684L169.778 54.7123L99.6771 14.5857L30.8639 54.652Z" fill="black"/>
<path d="M99.999 4C101.649 4.00005 103.272 4.40568 104.727 5.17771L105.015 5.33622L105.018 5.33817L179.481 48.32L179.482 48.321C181.013 49.2067 182.283 50.4809 183.163 52.0136C184.043 53.545 184.505 55.2811 184.5 57.0473V142.984L184.495 143.314C184.443 144.965 183.984 146.578 183.158 148.011C182.276 149.539 181.008 150.809 179.48 151.692L105.018 194.673L105.011 194.677C103.496 195.539 101.783 195.996 100.04 196H99.9592C98.2281 196 96.526 195.551 95.0195 194.699L95.0088 194.693L20.5137 151.692L20.5117 151.69C18.983 150.803 17.7144 149.529 16.8347 147.997C15.9549 146.464 15.4945 144.726 15.5001 142.959V57.0279C15.4977 55.2662 15.9589 53.5341 16.8376 52.0068C17.7165 50.4793 18.9826 49.2097 20.5078 48.3259L20.5098 48.3239L94.9796 5.33817L94.9835 5.33622C96.5098 4.46107 98.2391 4.00001 99.999 4ZM99.9991 5.39457C98.4826 5.39457 96.9925 5.79174 95.6771 6.54602L21.2073 49.5318C19.8938 50.2929 18.8038 51.3865 18.0468 52.7021C17.2898 54.0179 16.8927 55.51 16.895 57.0279V142.964C16.8902 144.486 17.2862 145.983 18.0439 147.303C18.8017 148.623 19.8943 149.72 21.2112 150.484L95.7063 193.485C97.0033 194.219 98.4687 194.605 99.9592 194.605H100.036C101.539 194.602 103.015 194.209 104.321 193.466L178.782 150.484C180.098 149.724 181.19 148.631 181.949 147.314C182.708 145.998 183.107 144.505 183.105 142.986V57.0473C183.11 55.5249 182.713 54.0281 181.954 52.708C181.196 51.3878 180.102 50.2907 178.784 49.5279L104.321 6.54602C103.006 5.79171 101.516 5.39462 99.9991 5.39457ZM61.7452 84.3028V117.199C61.7377 118.684 62.122 120.145 62.861 121.433C63.6 122.721 64.6673 123.792 65.9534 124.535L95.358 141.49V182.584L26.1771 142.986L25.8736 62.4807L61.7452 84.3028ZM174.14 142.446L104.64 182.561V141.532L134.046 124.488C135.325 123.745 136.388 122.68 137.126 121.398C137.865 120.116 138.255 118.663 138.256 117.183V84.753L173.845 63.1031L174.14 142.446ZM27.5681 142.176L93.9631 180.179V142.294L65.2568 125.743L65.2549 125.742C63.7564 124.876 62.5122 123.628 61.6508 122.126C60.7894 120.625 60.3415 118.922 60.3502 117.192V85.0856L27.2773 64.9664L27.5681 142.176ZM139.651 85.5359V117.184C139.65 118.908 139.195 120.601 138.335 122.094C137.474 123.587 136.237 124.829 134.746 125.694L106.035 142.334V180.145L172.741 141.642L172.459 65.5781L139.651 85.5359ZM125.502 118.709L100.041 133.479L74.4359 118.705L100.015 99.8804L125.502 118.709ZM76.9806 118.563L100.039 131.867L122.965 118.568L100.013 101.612L76.9806 118.563ZM96.0001 92.9007L71.0273 111.333V83.2709L96.0001 68.8302V92.9007ZM128.961 83.2369V111.304L103.998 92.8803V68.8234L128.961 83.2369ZM72.4222 84.0742V108.571L94.6051 92.1976V71.2469L72.4222 84.0742ZM105.393 92.1762L127.566 108.542V84.0402L105.393 71.2381V92.1762ZM169.778 54.7123L134.835 75.9684C134.582 75.7816 134.319 75.6074 134.046 75.4491L104.206 58.2289C102.925 57.4926 101.474 57.1057 99.9962 57.1057C98.5187 57.1057 97.0669 57.4927 95.7861 58.2289L65.9514 75.4831C65.8095 75.5651 65.6696 75.651 65.5331 75.7408L30.8639 54.652L99.6771 14.5857L169.778 54.7123ZM33.5895 54.6783L65.537 74.1109L95.0876 57.022L95.0905 57.0201C96.583 56.1622 98.275 55.7111 99.9961 55.7111C101.61 55.7111 103.198 56.1078 104.62 56.8645L104.902 57.0201L104.904 57.021L134.743 74.2412L134.744 74.2422C134.786 74.2661 134.827 74.2907 134.868 74.3151L167.035 54.7483L99.6829 16.1952L33.5895 54.6783Z" fill="black"/>
</svg>
