<svg width="200" height="200" viewBox="0 0 200 200" fill="none" xmlns="http://www.w3.org/2000/svg">
<path d="M167.2 24.0952H146.8C145.695 24.0952 144.8 24.9906 144.8 26.0952V34.9714C144.8 36.076 145.695 36.9714 146.8 36.9714H160.64C164.96 36.9714 167.2 39.0638 167.2 43.5704V172.203C167.2 176.71 164.96 179.124 160.64 179.124H39.2C34.88 179.124 32.8 176.71 32.8 172.203V43.5704C32.8 39.0638 34.88 36.9714 39.2 36.9714H53.04C54.1446 36.9714 55.04 36.076 55.04 34.9714V26.0952C55.04 24.9906 54.1446 24.0952 53.04 24.0952H32.8C25.92 24.0952 20 29.8895 20 36.9714V179.124C20 186.206 25.92 192 32.8 192H167.2C174.08 192 180 186.206 180 179.124V36.9714C180 29.8895 174.08 24.0952 167.2 24.0952Z" fill="black"/>
<path d="M45.5039 112.297C45.5039 115.516 48.0639 118.091 51.1039 118.091H72.3839C74.9439 118.091 77.5039 117.125 79.2639 115.194L89.6639 104.571L109.184 138.049C109.984 139.337 111.264 139.98 112.544 139.98C113.984 139.98 115.264 139.176 115.904 138.049L128.064 117.93H151.744C154.784 117.93 157.344 115.355 157.344 112.136C157.344 108.917 154.784 106.341 151.744 106.341H127.424C124.064 106.341 120.864 108.112 119.104 111.17L112.704 121.632L94.6239 90.4071C93.9839 89.2804 92.8639 88.6366 91.7439 88.4756C90.4639 88.3147 89.3439 88.7975 88.3839 89.6023L71.7439 106.502H51.1039C48.0639 106.502 45.5039 109.078 45.5039 112.297Z" fill="black"/>
<path d="M130.4 27.0952C130.4 25.4384 129.057 24.0952 127.4 24.0952H111.64C109.983 24.0952 108.64 22.7521 108.64 21.0952V11C108.64 9.34315 107.297 8 105.64 8H95.6401C93.9832 8 92.6401 9.34315 92.6401 11V21.0952C92.6401 22.7521 91.297 24.0952 89.6401 24.0952H72.6001C70.9432 24.0952 69.6001 25.4384 69.6001 27.0952V33.9714C69.6001 35.6282 70.9432 36.9714 72.6001 36.9714H127.4C129.057 36.9714 130.4 35.6282 130.4 33.9714V27.0952Z" fill="black"/>
</svg>
