<svg width="200" height="200" viewBox="0 0 200 200" fill="none" xmlns="http://www.w3.org/2000/svg">
<path d="M137.919 11.9355C139.924 11.9355 141.909 12.2859 143.761 12.9668C145.613 13.6477 147.296 14.6456 148.713 15.9037C150.13 17.1618 151.255 18.6554 152.022 20.2991C152.789 21.9429 153.184 23.7047 153.184 25.4839V39.0323H160.816C164.667 39.0312 168.376 40.3221 171.2 42.6463C174.024 44.9704 175.754 48.156 176.042 51.5645L176.081 52.5806V174.516C176.081 176.295 175.686 178.057 174.919 179.701C174.152 181.345 173.027 182.838 171.61 184.096C170.192 185.354 168.51 186.352 166.658 187.033C164.806 187.714 162.821 188.065 160.816 188.065H38.7C36.6954 188.065 34.7105 187.714 32.8585 187.033C31.0065 186.352 29.3238 185.354 27.9064 184.096C26.4889 182.838 25.3645 181.345 24.5974 179.701C23.8303 178.057 23.4355 176.295 23.4355 174.516V25.4839C23.4355 21.8906 25.0437 18.4445 27.9064 15.9037C30.769 13.3629 34.6516 11.9355 38.7 11.9355H137.919ZM160.816 45.8064H31.0677V174.516L31.1212 175.309C31.3399 176.957 32.2324 178.476 33.6293 179.578C35.0263 180.681 36.8306 181.29 38.7 181.29H160.816L161.709 181.243C163.566 181.049 165.277 180.257 166.52 179.017C167.762 177.777 168.448 176.175 168.448 174.516V52.5806L168.395 51.7881C168.176 50.1402 167.284 48.621 165.887 47.5184C164.49 46.4158 162.686 45.8067 160.816 45.8064ZM88.3097 93.2258C89.3218 93.2258 90.2924 93.5826 91.0081 94.2179C91.7238 94.8531 92.1258 95.7146 92.1258 96.6129C92.1258 97.5112 91.7238 98.3727 91.0081 99.0079C90.2924 99.6431 89.3218 100 88.3097 100H50.1484C49.1363 100 48.1656 99.6431 47.45 99.0079C46.7343 98.3727 46.3323 97.5112 46.3323 96.6129C46.3323 95.7146 46.7343 94.8531 47.45 94.2179C48.1656 93.5826 49.1363 93.2258 50.1484 93.2258H88.3097ZM118.839 66.129C119.851 66.129 120.821 66.4859 121.537 67.1211C122.253 67.7563 122.655 68.6178 122.655 69.5161C122.655 70.4144 122.253 71.276 121.537 71.9112C120.821 72.5464 119.851 72.9032 118.839 72.9032H50.1484C49.1363 72.9032 48.1656 72.5464 47.45 71.9112C46.7343 71.276 46.3323 70.4144 46.3323 69.5161C46.3323 68.6178 46.7343 67.7563 47.45 67.1211C48.1656 66.4859 49.1363 66.129 50.1484 66.129H118.839ZM137.919 18.7097H38.7C36.8306 18.7099 35.0263 19.3191 33.6293 20.4216C32.2324 21.5242 31.3399 23.0435 31.1212 24.6913L31.0677 25.4839V39.0323H145.552V25.4839C145.551 23.8246 144.865 22.2232 143.623 20.9833C142.381 19.7434 140.669 18.9512 138.812 18.7571L137.919 18.7097Z" fill="black"/>
<path d="M20.5 174.517V25.4834C20.5001 20.9912 22.5142 16.7648 25.9582 13.708C29.3907 10.6616 33.9785 9.00009 38.6996 9L38.7 11.9355C34.6516 11.9355 30.769 13.3629 27.9064 15.9037L27.6419 16.1447C24.9451 18.6601 23.4356 22.0031 23.4355 25.4839V174.516L23.4403 174.849C23.4864 176.515 23.8783 178.16 24.5974 179.701C25.3645 181.345 26.4889 182.838 27.9064 184.096C29.3238 185.354 31.0065 186.352 32.8585 187.033C34.7105 187.714 36.6954 188.065 38.7 188.065H160.816L161.192 188.061C162.944 188.022 164.674 187.716 166.309 187.157L166.658 187.033C168.51 186.352 170.192 185.354 171.61 184.096C173.027 182.838 174.152 181.345 174.919 179.701C175.638 178.16 176.03 176.515 176.076 174.849L176.081 174.516V52.5806L176.042 51.5645C175.763 48.2626 174.13 45.1701 171.461 42.867L171.2 42.6463C168.465 40.3947 164.898 39.1131 161.177 39.0362L160.816 39.0323H153.184V25.4839C153.184 23.8161 152.836 22.1634 152.161 20.6091L152.022 20.2991C151.303 18.7582 150.269 17.3495 148.975 16.1428L148.713 15.9037C147.296 14.6456 145.613 13.6477 143.761 12.9668C142.025 12.3285 140.171 11.9803 138.295 11.9393L137.919 11.9355L137.919 9C140.264 9 142.592 9.40963 144.774 10.2117C146.955 11.0137 148.959 12.1966 150.662 13.708C152.365 15.22 153.738 17.0342 154.682 19.0573C155.627 21.0818 156.119 23.2669 156.119 25.4834V36.0968H160.817C165.309 36.0959 169.687 37.5989 173.066 40.3797C176.347 43.0807 178.471 46.819 178.928 50.9186L178.967 51.317L178.973 51.3858L178.976 51.4546L179.014 52.4704L179.016 52.5258V174.517C179.016 176.733 178.524 178.918 177.579 180.943C176.635 182.966 175.261 184.78 173.558 186.292C171.855 187.803 169.852 188.986 167.671 189.788C165.489 190.59 163.161 191 160.817 191H38.6996C36.3552 191 34.0268 190.59 31.8454 189.788C29.6639 188.986 27.6609 187.803 25.9582 186.292C24.2547 184.78 22.8814 182.966 21.9372 180.943C20.9924 178.918 20.5001 176.733 20.5 174.517ZM160.816 45.8064C162.686 45.8067 164.49 46.4158 165.887 47.5184C167.284 48.621 168.176 50.1402 168.395 51.7881L168.448 52.5806V174.516L168.44 174.826C168.36 176.374 167.684 177.854 166.52 179.017C165.277 180.257 163.566 181.049 161.709 181.243L160.816 181.29H38.7L38.3499 181.283C36.7225 181.216 35.1617 180.689 33.896 179.779L33.6293 179.578C32.2324 178.476 31.3399 176.957 31.1212 175.309L31.0677 174.516V45.8064H160.816ZM34.003 174.417L34.0413 174.992C34.168 175.804 34.6272 176.627 35.4478 177.274C36.2995 177.946 37.4552 178.355 38.7006 178.355H160.732L161.466 178.315C162.674 178.175 163.723 177.66 164.446 176.939C165.172 176.214 165.513 175.348 165.513 174.517V52.6787L165.474 52.1035C165.347 51.2923 164.889 50.4699 164.068 49.8225C163.217 49.1504 162.061 48.7419 160.816 48.7418H34.003V174.417ZM43.3972 96.6125C43.3973 94.8152 44.2043 93.1732 45.5013 92.022C46.7869 90.881 48.4632 90.2906 50.1482 90.2905L50.1484 93.2258L49.959 93.2299C49.0158 93.2714 48.1209 93.6224 47.45 94.2179L47.3197 94.3393C46.6858 94.9605 46.3324 95.7707 46.3323 96.6129L46.3374 96.7807C46.3842 97.6179 46.779 98.4124 47.45 99.0079C48.1209 99.6034 49.0158 99.9546 49.959 99.9962L50.1484 100H88.3097L88.4987 99.9962C89.3792 99.9575 90.2179 99.649 90.8713 99.1237L91.0081 99.0079C91.6791 98.4124 92.0745 97.6179 92.1212 96.7807L92.1258 96.6129C92.1257 95.7709 91.7727 94.9605 91.1389 94.3393L91.0081 94.2179C90.3371 93.6223 89.442 93.2713 88.4987 93.2299L88.3097 93.2258L88.3095 90.2905C89.9944 90.2905 91.6708 90.8811 92.9564 92.022C94.2534 93.1732 95.0614 94.8152 95.0615 96.6125C95.0615 98.41 94.2534 100.052 92.9564 101.203C91.6707 102.344 89.9946 102.935 88.3095 102.935H50.1482C48.4632 102.935 46.7869 102.344 45.5013 101.203C44.2044 100.052 43.3972 98.41 43.3972 96.6125ZM88.3095 90.2905L88.3097 93.2258H50.1484L50.1482 90.2905H88.3095ZM43.3972 69.5157C43.3973 67.7184 44.2044 66.0763 45.5013 64.9252C46.7869 63.7842 48.4632 63.1937 50.1482 63.1937L50.1484 66.129L49.959 66.133C49.0158 66.1746 48.1209 66.5256 47.45 67.1211C46.7343 67.7563 46.3323 68.6178 46.3323 69.5161L46.3374 69.6839C46.3842 70.5211 46.7791 71.3156 47.45 71.9112C48.1656 72.5464 49.1363 72.9032 50.1484 72.9032H118.839L119.028 72.8993C119.908 72.8606 120.746 72.5519 121.4 72.0269L121.537 71.9112C122.208 71.3156 122.604 70.5211 122.65 69.6839L122.655 69.5161C122.655 68.6739 122.301 67.8637 121.667 67.2424L121.537 67.1211C120.866 66.5256 119.971 66.1745 119.028 66.133L118.839 66.129V63.1937C120.524 63.1937 122.2 63.7842 123.486 64.9252C124.783 66.0763 125.591 67.7184 125.591 69.5157C125.591 71.3131 124.783 72.955 123.486 74.1062C122.2 75.2473 120.524 75.8386 118.839 75.8386H50.1482C48.4632 75.8386 46.7869 75.2473 45.5013 74.1062C44.2044 72.955 43.3972 71.3131 43.3972 69.5157ZM118.839 63.1937V66.129H50.1484L50.1482 63.1937H118.839ZM137.919 18.7097L138.812 18.7571C140.669 18.9512 142.381 19.7434 143.623 20.9833C144.865 22.2232 145.551 23.8246 145.552 25.4839V39.0323H31.0677V25.4839L31.1212 24.6913C31.3262 23.1464 32.1234 21.7144 33.3733 20.633L33.6293 20.4216C35.0263 19.3191 36.8306 18.7099 38.7 18.7097H137.919ZM38.4684 21.6497C37.312 21.6971 36.2463 22.0955 35.4478 22.7257C34.6275 23.3731 34.1682 24.1955 34.0413 25.0066L34.003 25.5819V36.0968H142.616V25.4844L142.612 25.3277C142.572 24.5449 142.229 23.7404 141.549 23.0611C140.826 22.3397 139.776 21.8237 138.568 21.6841L137.835 21.6449H38.7006L38.4684 21.6497ZM137.919 9L137.919 11.9355H38.7L38.6996 9H137.919Z" fill="black"/>
<path d="M135.384 120.548C136.402 120.547 137.406 120.777 138.323 121.221C139.239 121.664 140.044 122.31 140.677 123.109L146.524 130.506C147.481 131.717 147.997 133.22 147.986 134.765C147.975 136.31 147.438 137.805 146.463 139.001L128.126 161.539C127.493 162.318 126.695 162.946 125.79 163.377C124.885 163.808 123.895 164.032 122.894 164.032C121.892 164.032 120.902 163.808 119.997 163.377C119.092 162.946 118.294 162.318 117.661 161.539L99.3237 139.001C98.3495 137.805 97.8123 136.31 97.8012 134.765C97.7902 133.22 98.3059 131.717 99.2629 130.506L105.11 123.109C105.743 122.31 106.548 121.664 107.464 121.221C108.381 120.777 109.385 120.547 110.403 120.548H135.384ZM135.384 127.323H110.403L104.556 134.713L122.894 157.265L141.231 134.72L135.384 127.323Z" fill="black"/>
<path d="M135.384 118.591C136.697 118.59 137.993 118.887 139.175 119.459C140.21 119.96 141.134 120.66 141.895 121.517L142.212 121.894L142.213 121.896L148.06 129.293C149.293 130.853 149.957 132.789 149.943 134.779C149.93 136.644 149.321 138.454 148.21 139.943L147.981 140.237L129.644 162.773C128.828 163.777 127.799 164.587 126.631 165.143C125.464 165.7 124.186 165.989 122.893 165.989C121.6 165.989 120.324 165.7 119.156 165.143C117.988 164.587 116.958 163.778 116.142 162.774L97.8059 140.237C96.5502 138.694 95.8583 136.768 95.8441 134.779C95.8299 132.789 96.494 130.853 97.7275 129.293L103.575 121.896L103.576 121.894C104.391 120.863 105.43 120.031 106.612 119.459C107.794 118.887 109.09 118.591 110.403 118.592L135.384 118.591ZM110.403 120.548C109.385 120.547 108.381 120.777 107.464 121.221L107.125 121.396C106.349 121.828 105.664 122.41 105.11 123.109L99.2629 130.506L99.0882 130.737C98.2432 131.905 97.791 133.316 97.8012 134.765C97.8123 136.31 98.3495 137.805 99.3237 139.001L117.661 161.539C118.294 162.318 119.092 162.946 119.997 163.377C120.902 163.808 121.892 164.032 122.894 164.032C123.77 164.032 124.637 163.861 125.446 163.53L125.79 163.377C126.695 162.946 127.493 162.318 128.126 161.539L146.463 139.001C147.377 137.879 147.906 136.495 147.978 135.054L147.986 134.765C147.997 133.22 147.481 131.717 146.524 130.506L140.677 123.109C140.044 122.31 139.239 121.664 138.323 121.221C137.521 120.833 136.651 120.608 135.765 120.559L135.384 120.548H110.403ZM135.384 127.323L141.231 134.72L122.894 157.265L104.556 134.713L110.403 127.323H135.384ZM107.063 134.696L122.893 154.163L138.722 134.702L134.436 129.279H111.35L107.063 134.696Z" fill="black"/>
</svg>
