<?xml version="1.0" standalone="no"?><!DOCTYPE svg PUBLIC "-//W3C//DTD SVG 1.1//EN" "http://www.w3.org/Graphics/SVG/1.1/DTD/svg11.dtd"><svg t="1745486776107" class="icon" viewBox="0 0 1024 1024" version="1.1" xmlns="http://www.w3.org/2000/svg" p-id="2326" xmlns:xlink="http://www.w3.org/1999/xlink" width="200" height="200"><path d="M512 0c281.6 0 512 230.4 512 512s-230.4 512-512 512-512-230.4-512-512 230.4-512 512-512z m0 64C265.581714 64 64 265.581714 64 512S265.581714 960 512 960 960 758.418286 960 512 758.418286 64 512 64zM512 384c19.236571 0 32.036571 12.8 32.036571 32.036571v384c0 19.163429-12.8 31.963429-32.036571 31.963429s-32.036571-12.8-32.036571-32.036571v-384c0-19.163429 12.8-31.963429 32.036571-31.963429z m0-160.036571a47.981714 47.981714 0 1 1 0 96.036571 47.981714 47.981714 0 0 1 0-96.036571z" p-id="2327"></path></svg>