<?xml version="1.0" standalone="no"?><!DOCTYPE svg PUBLIC "-//W3C//DTD SVG 1.1//EN" "http://www.w3.org/Graphics/SVG/1.1/DTD/svg11.dtd"><svg t="1745486121496" class="icon" viewBox="0 0 1024 1024" version="1.1" xmlns="http://www.w3.org/2000/svg" p-id="2040" xmlns:xlink="http://www.w3.org/1999/xlink" width="200" height="200"><path d="M547.254857 719.652571l26.843429-73.142857s-133.12-49.078857-239.762286-123.026285l13.970286-13.165715c103.936-106.349714 154.550857-277.942857 168.594285-333.238857H599.771429V99.254857H348.306286L282.185143 0l-64.585143 43.154286 37.302857 56.466285H15.579429v77.824h419.913142c-17.846857 62.683429-63.414857 196.973714-143.213714 278.674286-6.217143 6.290286-12.434286 12.068571-18.651428 18.285714C196.022857 394.24 170.422857 287.305143 170.422857 286.134857l-75.922286 17.115429c1.170286 5.851429 29.257143 125.732571 118.710858 221.110857C112.493714 598.601143 1.536 647.606857 0 648.411429l31.158857 71.241142c6.582857-2.706286 131.145143-57.636571 242.102857-143.213714C390.656 662.820571 540.525714 718.116571 547.181714 720.384v-0.731429z m405.942857 291.108572l70.802286-32.694857-233.545143-505.929143a37.668571 37.668571 0 0 0-36.571428-22.601143 38.253714 38.253714 0 0 0-35.035429 24.868571l-194.56 506.002286 72.777143 28.013714 65.389714-169.691428h211.675429l79.433143 172.032h-0.365715zM691.931429 760.905143l66.194285-172.397714 79.725715 172.397714H692.004571z" p-id="2041"></path></svg>