<?xml version="1.0" encoding="UTF-8"?>
<svg width="24px" height="24px" viewBox="0 0 24 24" version="1.1" xmlns="http://www.w3.org/2000/svg" xmlns:xlink="http://www.w3.org/1999/xlink">
    <!-- <title>编组 3</title> -->
    <defs>
        <linearGradient x1="71.2953416%" y1="21.7073963%" x2="19.0010231%" y2="86.3758805%" id="linearGradient-1">
            <stop stop-color="#1C4DFA" offset="0%"></stop>
            <stop stop-color="#3FA9F5" offset="100%"></stop>
        </linearGradient>
    </defs>
    <g id="版本3" stroke="none" stroke-width="1" fill="none" fill-rule="evenodd">
        <g id="编组-3">
            <rect id="Rectangle-7" x="0" y="0" width="24" height="24"></rect>
            <g id="后台" transform="translate(3.000000, 4.000000)" fill="url(#linearGradient-1)" fill-rule="nonzero">
                <path d="M16.4117411,0 C17.2876339,0 18,0.712366071 18,1.58825893 L18,11.1178125 L17.995,11.212 L17.9933289,11.2621565 C17.9246368,12.0229309 17.3170293,12.6306982 16.5561149,12.6995678 L16.4117411,12.7060714 L11.709,12.706 L12.503,14.294 L13.7645759,14.2943304 C14.056875,14.2943304 14.2939287,14.5313839 14.2939287,14.823683 C14.2941295,15.1159821 14.0570759,15.3530357 13.7647768,15.3530357 L4.23522321,15.3530357 C3.94292411,15.3530357 3.70587054,15.1159821 3.70587054,14.823683 C3.70587054,14.5313839 3.94292411,14.2943304 4.23522321,14.2943304 L5.495,14.294 L6.289,12.706 L1.58825893,12.7060714 C0.712366071,12.7060714 0,11.9937054 0,11.1178125 L0,1.58825893 C0,0.712366071 0.712366071,0 1.58825893,0 L16.4117411,0 Z M10.525,12.706 L7.474,12.706 L6.68008929,14.2941295 L11.3199107,14.2941295 L10.525,12.706 Z M16.9410938,10.0589062 L1.05890625,10.0589062 L1.05890625,11.1178125 C1.05890625,11.4097098 1.29636161,11.6471652 1.58825893,11.6471652 L16.4117411,11.6471652 C16.7036384,11.6471652 16.9410938,11.4095089 16.9410938,11.1178125 L16.9410938,10.0589062 Z M6.73516112,5 C6.55944317,5 6.39092216,5.06980369 6.2666708,5.19405504 C6.14241945,5.3183064 6.07261576,5.4868274 6.07261576,5.66254536 C6.07261576,6.02845906 6.36924742,6.32509072 6.73516112,6.32509072 C7.10107482,6.32509072 7.39770648,6.02845906 7.39770648,5.66254536 C7.39770648,5.29663166 7.10107482,5 6.73516112,5 Z M9.00674058,5 C8.64082688,5 8.34419522,5.29663166 8.34419522,5.66254536 C8.34419522,6.02845906 8.64082688,6.32509072 9.00674058,6.32509072 C9.37265428,6.32509072 9.66928594,6.02845906 9.66928594,5.66254536 C9.66928594,5.29663166 9.37265428,5 9.00674058,5 Z M11.2783362,5 C10.9124225,5 10.6157909,5.29663166 10.6157909,5.66254536 C10.6157909,6.02845906 10.9124225,6.32509072 11.2783362,6.32509072 C11.6442499,6.32509072 11.9408816,6.02845906 11.9408816,5.66254536 C11.9408816,5.29663166 11.6442499,5 11.2783362,5 Z" id="形状结合"></path>
            </g>
        </g>
    </g>
</svg>