<?xml version="1.0" encoding="UTF-8"?>
<svg width="24px" height="24px" viewBox="0 0 24 24" version="1.1" xmlns="http://www.w3.org/2000/svg" xmlns:xlink="http://www.w3.org/1999/xlink">
    <!-- <title>编组 3</title> -->
    <defs>
        <linearGradient x1="71.2953416%" y1="17.3853886%" x2="19.0010231%" y2="91.9326979%" id="linearGradient-1">
            <stop stop-color="#1C4DFA" offset="0%"></stop>
            <stop stop-color="#3FA9F5" offset="100%"></stop>
        </linearGradient>
    </defs>
    <g id="版本3" stroke="none" stroke-width="1" fill="none" fill-rule="evenodd">
        <g id="编组-3">
            <rect id="Rectangle-7" x="0" y="0" width="24" height="24"></rect>
            <g id="数据集成-(1)" transform="translate(3.000000, 4.000000)" fill="url(#linearGradient-1)" fill-rule="nonzero">
                <path d="M12.7326615,8.20431673 L12.8147959,8.28553855 C13.2088932,8.63057124 13.8069133,8.59563257 14.1581501,8.20705454 L14.2402846,8.12674532 C14.5017052,7.9012418 14.8681558,7.84293481 15.1866557,7.97616554 C15.5587536,8.13137117 15.9088442,8.33479806 16.2279377,8.58122249 C16.5337756,8.8174179 16.6577008,9.2206317 16.5373107,9.58782553 L16.5081074,9.70007592 C16.4057352,10.2142095 16.7355097,10.715174 17.2482298,10.824405 L17.358655,10.8554335 C17.6841224,10.9699764 17.9174059,11.2579633 17.9618867,11.600119 C18.0139052,11.9998399 18.01208,12.4041238 17.9600615,12.8038447 C17.9087244,13.1872007 17.6213056,13.4965599 17.2427542,13.5759083 L17.1314164,13.6060243 C16.6347241,13.773397 16.3655789,14.3096514 16.5281847,14.8079247 L16.5564754,14.9192625 C16.6207345,15.2579151 16.4887035,15.6038786 16.2151612,15.8136152 C15.8952077,16.0592604 15.5441538,16.2614846 15.1711414,16.4150217 C14.8130793,16.5627585 14.4007635,16.4683685 14.1426359,16.1795697 L14.0605014,16.0983478 C13.6670986,15.7512964 13.0674593,15.7863297 12.7171472,16.1768318 L12.6350128,16.2571411 C12.3732133,16.4826037 12.0065366,16.5408904 11.6877291,16.4077209 C11.3153863,16.252578 10.9658587,16.0490672 10.646447,15.8026639 C10.3406092,15.5664685 10.216684,15.1632547 10.337074,14.7960609 L10.3662774,14.6838105 C10.4686496,14.1696769 10.1388751,13.6687124 9.62615493,13.5594814 L9.51572976,13.5284529 C9.19027478,13.4144168 8.95689595,13.1266653 8.91249802,12.78468 C8.86047955,12.3849591 8.86139215,11.9806752 8.91523583,11.5809543 C8.96143921,11.2359339 9.19886884,10.9508509 9.52185668,10.8394395 L9.74388095,10.7778621 C10.2405733,10.6104893 10.5097184,10.074235 10.3471127,9.57596167 L10.3188219,9.46462389 C10.2545629,9.12597131 10.3865939,8.78000781 10.6601361,8.57027123 C10.9800897,8.32462604 11.3311436,8.12240179 11.704156,7.9688647 C12.0622181,7.82112794 12.4745339,7.9155179 12.7326615,8.20431673 Z M13.6991099,0 C14.9575919,0 15.9806218,1.02394253 15.9806218,2.28151188 L15.9806218,3.60113835 C15.9790979,4.32509849 15.6327036,5.00500749 15.0479398,5.43182349 C15.3646053,5.65847404 15.617349,5.96308675 15.781674,6.31613749 C15.883478,6.54360909 15.9472944,6.78623444 15.9705832,7.03435744 C15.993768,7.28535824 15.8090866,7.50762961 15.5580858,7.53081442 C15.307085,7.55399923 15.0848137,7.36931788 15.0616288,7.11831707 C15.0479398,6.97138771 15.0096104,6.82719616 14.9493785,6.69030544 C14.7285281,6.20023669 14.2375467,5.88265024 13.7000226,5.88265024 L2.28151188,5.88265024 C1.52678775,5.88265024 0.912604753,6.49683324 0.912604753,7.25155737 L0.912604753,8.57209644 C0.912604753,9.32682057 1.52678775,9.94100357 2.28151188,9.94100357 L8.17055035,9.94100357 C8.4225592,9.94100357 8.62685273,10.1452971 8.62685273,10.3973059 C8.62685273,10.6493148 8.4225592,10.8536083 8.17055035,10.8536083 L2.28151188,10.8536083 C1.52678775,10.8536083 0.912604753,11.4677913 0.912604753,12.2225155 L0.912604753,13.5421419 C0.912604753,14.2968661 1.52678775,14.9110491 2.28151188,14.9110491 L9.02292319,14.9110491 C9.26675449,14.9219617 9.45882421,15.1228198 9.45882421,15.3668951 C9.45882421,15.6109705 9.26675449,15.8118286 9.02292319,15.8227412 L2.28151188,15.8227412 C1.02394253,15.8227412 0,14.7997113 0,13.5412293 L0,12.2216029 C0.00198397604,11.5005506 0.346061834,10.823232 0.927206429,10.3963933 C0.346061834,9.9695547 0.00198397604,9.29223608 0,8.57118384 L0,7.25155737 C0.0016243426,6.53063244 0.345379203,5.85328297 0.926293824,5.42634786 C0.367779715,5.01020009 0,4.35038686 0,3.60113835 L0,2.28151188 C0.00150858874,1.02209307 1.02209307,0.00150858874 2.28151188,0 L13.6991099,0 Z M3.75080553,11.7662131 C4.37959021,11.7662131 4.89156148,12.2781843 4.89156148,12.906969 C4.89156148,13.5357537 4.37959021,14.047725 3.75080553,14.047725 C3.12202086,14.047725 2.61004959,13.5357537 2.61004959,12.906969 C2.61004959,12.2781843 3.12202086,11.7662131 3.75080553,11.7662131 Z M12.5300633,10.6053798 C12.1097822,10.8460612 11.803445,11.2450885 11.6795156,11.713282 C11.4856451,12.4267357 11.7420096,13.1866219 12.3284626,13.6368162 C12.9149156,14.0870104 13.7152402,14.1382979 14.3543602,13.7666427 C15.2261044,13.2616355 15.5245419,12.1462715 15.0214742,11.2734065 C14.7799532,10.8541441 14.3816218,10.5481337 13.9142775,10.4228237 C13.4469331,10.2975138 12.9489403,10.3631912 12.5300633,10.6053798 Z M7.65219085,12.4260263 C7.9041997,12.4235062 8.11053616,12.6257568 8.11305625,12.8777657 C8.11557634,13.1297745 7.91332574,13.336111 7.6613169,13.3386311 L6.39553411,13.3632714 C6.13439922,13.3657915 5.92806275,13.1635409 5.92554266,12.911532 C5.92302257,12.6595232 6.12527317,12.4531867 6.37728201,12.4506666 L7.64306481,12.4260263 Z M13.4408428,11.2734034 C13.853368,11.2741315 14.2142205,11.5512396 14.3213897,11.9496017 C14.428559,12.3479638 14.2554494,12.7687209 13.8989704,12.976327 C13.4627453,13.2236429 12.9042312,13.0767135 12.6523523,12.641401 C12.4881316,12.3596123 12.4872983,12.0114798 12.6501682,11.7289081 C12.8130381,11.4463364 13.1146946,11.2725544 13.4408428,11.2734034 Z M3.75080553,12.6788178 C3.62480112,12.6788178 3.52265435,12.7809646 3.52265435,12.906969 C3.52265435,13.1579353 3.97895672,13.1579353 3.97895672,12.906969 C3.97895672,12.7809646 3.87680995,12.6788178 3.75080553,12.6788178 Z M3.75080553,6.79525499 C4.37959021,6.79525499 4.89156148,7.30722626 4.89156148,7.93601093 C4.89156148,8.56479561 4.37959021,9.07676687 3.75080553,9.07676687 C3.12202086,9.07676687 2.61004959,8.56479561 2.61004959,7.93601093 C2.61004959,7.30722626 3.12202086,6.79525499 3.75080553,6.79525499 Z M9.78677337,7.47970855 C10.0387822,7.47970855 10.2430757,7.68400209 10.2430757,7.93601093 C10.2430757,8.18801977 10.0387822,8.39231331 9.78677337,8.39231331 L6.38640806,8.39231331 C6.13439922,8.39231331 5.93010568,8.18801977 5.93010568,7.93601093 C5.93010568,7.68400209 6.13439922,7.47970855 6.38640806,7.47970855 L9.78677337,7.47970855 Z M3.75080553,7.70785975 C3.62480112,7.70785975 3.52265435,7.81000651 3.52265435,7.93601093 C3.52265435,8.18697724 3.97895672,8.18697724 3.97895672,7.93601093 C3.97895672,7.81000651 3.87680995,7.70785975 3.75080553,7.70785975 Z M3.75080553,1.88635402 C3.12202086,1.88635402 2.61004959,2.39832529 2.61004959,3.02710997 C2.61004959,3.65589464 3.12202086,4.16786591 3.75080553,4.16786591 C4.37959021,4.16786591 4.89156148,3.65589464 4.89156148,3.02710997 C4.89156148,2.39832529 4.37959021,1.88635402 3.75080553,1.88635402 Z M13.0082681,2.47224628 L6.38640806,2.47224628 C6.26538915,2.47224628 6.14932685,2.52032085 6.06375356,2.60589415 C5.97818026,2.69146744 5.93010568,2.80752974 5.93010568,2.92854865 C5.93010568,3.04956757 5.97818026,3.16562986 6.06375356,3.25120316 C6.14932685,3.33677645 6.26538915,3.38485103 6.38640806,3.38485103 L13.0082681,3.38485103 C13.260277,3.38485103 13.4645705,3.1805575 13.4645705,2.92854865 C13.4645705,2.67653981 13.260277,2.47224628 13.0082681,2.47224628 Z M3.75080553,2.79895878 C3.87680996,2.79895878 3.97895672,2.90110554 3.97895672,3.02710997 C3.97895672,3.27807627 3.52265435,3.27807627 3.52265435,3.02710997 C3.52265435,2.90110554 3.62480111,2.79895878 3.75080553,2.79895878 Z" id="形状结合"></path>
            </g>
        </g>
    </g>
</svg>