<?xml version="1.0" encoding="UTF-8"?>
<svg width="18px" height="17px" viewBox="0 0 18 17" version="1.1" xmlns="http://www.w3.org/2000/svg" xmlns:xlink="http://www.w3.org/1999/xlink">
    <!-- <title>形状</title> -->
    <g id="版本3" stroke="none" stroke-width="1" fill="none" fill-rule="evenodd">
        <g id="画板3" transform="translate(-41.000000, -476.000000)" fill="#000000" fill-rule="nonzero">
            <g id="编组-5" transform="translate(16.000000, 266.202561)">
                <g id="编组" transform="translate(8.000000, 201.000000)">
                    <g id="编组-3" transform="translate(14.000000, 5.000000)">
                        <g id="数据集成-(1)" transform="translate(3.000000, 4.000000)">
                            <path d="M17.9618867,11.600119 C17.9174059,11.2579633 17.6841224,10.9699764 17.358655,10.8554335 L17.2482298,10.824405 C16.7355097,10.715174 16.4057352,10.2142095 16.5081074,9.70007592 L16.5373107,9.58782553 C16.6577008,9.2206317 16.5337756,8.8174179 16.2279377,8.58122249 C15.9088442,8.33479806 15.5587536,8.13137117 15.1866557,7.97616554 C14.8681558,7.84293481 14.5017052,7.9012418 14.2402846,8.12674532 L14.1581501,8.20705454 C13.8069133,8.59563257 13.2088932,8.63057124 12.8147959,8.28553855 L12.7326615,8.20431673 C12.4745339,7.9155179 12.0622181,7.82112794 11.704156,7.9688647 C11.3311436,8.12240179 10.9800897,8.32462604 10.6601361,8.57027123 C10.3865939,8.78000781 10.2545629,9.12597131 10.3188219,9.46462389 L10.3471127,9.57596167 C10.5097184,10.074235 10.2405733,10.6104893 9.74388095,10.7778621 L9.63254317,10.8088907 C9.2539918,10.8882391 8.96657292,11.1975983 8.91523583,11.5809543 C8.86139215,11.9806752 8.86047955,12.3849591 8.91249802,12.78468 C8.95689595,13.1266653 9.19027478,13.4144168 9.51572976,13.5284529 L9.62615493,13.5594814 C10.1388751,13.6687124 10.4686496,14.1696769 10.3662774,14.6838105 L10.337074,14.7960609 C10.216684,15.1632547 10.3406092,15.5664685 10.646447,15.8026639 C10.9658587,16.0490672 11.3153863,16.252578 11.6877291,16.4077209 C12.0065366,16.5408904 12.3732133,16.4826037 12.6350128,16.2571411 L12.7171472,16.1768318 C13.0674593,15.7863297 13.6670986,15.7512964 14.0605014,16.0983478 L14.1426359,16.1795697 C14.4007635,16.4683685 14.8130793,16.5627585 15.1711414,16.4150217 C15.5441538,16.2614846 15.8952077,16.0592604 16.2151612,15.8136152 C16.4887035,15.6038786 16.6207345,15.2579151 16.5564754,14.9192625 L16.5281847,14.8079247 C16.3655789,14.3096514 16.6347241,13.773397 17.1314164,13.6060243 L17.2427542,13.5759083 C17.6213056,13.4965599 17.9087244,13.1872007 17.9600615,12.8038447 C18.01208,12.4041238 18.0139052,11.9998399 17.9618867,11.600119 L17.9618867,11.600119 Z M17.0547576,12.6824683 C16.5357202,12.7918202 16.087452,13.1162583 15.8213848,13.5751329 C15.5553176,14.0340075 15.4964389,14.5842236 15.659385,15.089007 C15.4027638,15.2856201 15.1213982,15.4476278 14.8225264,15.5708623 C14.4685912,15.1747645 13.9629621,14.9477968 13.4317728,14.9465781 C12.9005835,14.9453593 12.3939183,15.1700046 12.0381693,15.5644741 C11.7398569,15.4402888 11.4593633,15.2770255 11.2040486,15.0789683 C11.3704939,14.5747781 11.3144178,14.0235702 11.0498476,13.5632286 C10.7852775,13.102887 10.3372366,12.7769513 9.81780193,12.666954 C9.77642872,12.3463982 9.7770423,12.0218152 9.81962714,11.7014181 C10.3392726,11.5931167 10.7883092,11.2688651 11.0545669,10.809662 C11.3208245,10.350459 11.3791596,9.79966863 11.2149998,9.29487941 C11.4716209,9.09826632 11.7529866,8.93625863 12.0518584,8.8130241 C12.4056191,9.20953265 12.9114338,9.43671513 13.4428137,9.43776012 C13.9741936,9.43880512 14.480898,9.21361382 14.8362155,8.81849973 C15.1346372,8.94261397 15.4148069,9.10597022 15.6703362,9.30400546 C15.5048039,9.80819524 15.5612907,10.3589725 15.8257184,10.8190663 C16.0901461,11.27916 16.5376081,11.6052338 17.0565828,11.7160198 C17.0985626,12.0372567 17.09765,12.362144 17.0547576,12.6824683 L17.0547576,12.6824683 Z M5.93010568,2.92854865 C5.93010568,2.80752974 5.97818026,2.69146744 6.06375356,2.60589415 C6.14932685,2.52032085 6.26538915,2.47224628 6.38640806,2.47224628 L13.0082681,2.47224628 C13.260277,2.47224628 13.4645705,2.67653981 13.4645705,2.92854865 C13.4645705,3.1805575 13.260277,3.38485103 13.0082681,3.38485103 L6.38640806,3.38485103 C6.26538915,3.38485103 6.14932685,3.33677645 6.06375356,3.25120316 C5.97818026,3.16562986 5.93010568,3.04956757 5.93010568,2.92854865 Z M9.02292319,14.9110491 L2.28151188,14.9110491 C1.52678775,14.9110491 0.912604753,14.2968661 0.912604753,13.5421419 L0.912604753,12.2225155 C0.912604753,11.4677913 1.52678775,10.8536083 2.28151188,10.8536083 L8.17055035,10.8536083 C8.4225592,10.8536083 8.62685273,10.6493148 8.62685273,10.3973059 C8.62685273,10.1452971 8.4225592,9.94100357 8.17055035,9.94100357 L2.28151188,9.94100357 C1.52678775,9.94100357 0.912604753,9.32682057 0.912604753,8.57209644 L0.912604753,7.25155737 C0.912604753,6.49683324 1.52678775,5.88265024 2.28151188,5.88265024 L13.7000226,5.88265024 C14.2375467,5.88265024 14.7285281,6.20023669 14.9493785,6.69030544 C15.0096104,6.82719616 15.0479398,6.97138771 15.0616288,7.11831707 C15.0848137,7.36931788 15.307085,7.55399923 15.5580858,7.53081442 C15.8090866,7.50762961 15.993768,7.28535824 15.9705832,7.03435744 C15.9472944,6.78623444 15.883478,6.54360909 15.781674,6.31613749 C15.617349,5.96308675 15.3646053,5.65847404 15.0479398,5.43182349 C15.6327036,5.00500749 15.9790979,4.32509849 15.9806218,3.60113835 L15.9806218,2.28151188 C15.9806218,1.02394253 14.9575919,0 13.6991099,0 L2.28151188,0 C1.02209307,0.00150858874 0.00150858874,1.02209307 0,2.28151188 L0,3.60113835 C0,4.35038686 0.367779715,5.01020009 0.926293824,5.42634786 C0.345379203,5.85328297 0.0016243426,6.53063244 0,7.25155737 L0,8.57118384 C0.00198397604,9.29223608 0.346061834,9.9695547 0.927206429,10.3963933 C0.346061834,10.823232 0.00198397604,11.5005506 0,12.2216029 L0,13.5412293 C0,14.7997113 1.02394253,15.8227412 2.28151188,15.8227412 L9.02292319,15.8227412 C9.26675449,15.8118286 9.45882421,15.6109705 9.45882421,15.3668951 C9.45882421,15.1228198 9.26675449,14.9219617 9.02292319,14.9110491 Z M0.912604753,3.60113835 L0.912604753,2.28151188 C0.912604753,1.52678775 1.52678775,0.912604753 2.28151188,0.912604753 L13.7000226,0.912604753 C14.4547467,0.912604753 15.0689297,1.52678775 15.0689297,2.28151188 L15.0689297,3.60113835 C15.0689297,4.35586249 14.4547467,4.97004548 13.7000226,4.97004548 L2.28151188,4.97004548 C1.52678775,4.97004548 0.912604753,4.35677509 0.912604753,3.60113835 Z M3.75080553,4.16786591 C4.37959021,4.16786591 4.89156148,3.65589464 4.89156148,3.02710997 C4.89156148,2.39832529 4.37959021,1.88635402 3.75080553,1.88635402 C3.12202086,1.88635402 2.61004959,2.39832529 2.61004959,3.02710997 C2.61004959,3.65589464 3.12202086,4.16786591 3.75080553,4.16786591 L3.75080553,4.16786591 Z M3.75080553,2.79895878 C3.87680996,2.79895878 3.97895672,2.90110554 3.97895672,3.02710997 C3.97895672,3.27807627 3.52265435,3.27807627 3.52265435,3.02710997 C3.52265435,2.90110554 3.62480111,2.79895878 3.75080553,2.79895878 L3.75080553,2.79895878 Z M12.5300633,10.6053798 C12.1097822,10.8460612 11.803445,11.2450885 11.6795156,11.713282 C11.4856451,12.4267357 11.7420096,13.1866219 12.3284626,13.6368162 C12.9149156,14.0870104 13.7152402,14.1382979 14.3543602,13.7666427 C15.2261044,13.2616355 15.5245419,12.1462715 15.0214742,11.2734065 C14.7799532,10.8541441 14.3816218,10.5481337 13.9142775,10.4228237 C13.4469331,10.2975138 12.9489403,10.3631912 12.5300633,10.6053798 L12.5300633,10.6053798 Z M13.8989704,12.976327 C13.4627453,13.2236429 12.9042312,13.0767135 12.6523523,12.641401 C12.4881316,12.3596123 12.4872983,12.0114798 12.6501682,11.7289081 C12.8130381,11.4463364 13.1146946,11.2725544 13.4408428,11.2734034 C13.853368,11.2741315 14.2142205,11.5512396 14.3213897,11.9496017 C14.428559,12.3479638 14.2554494,12.7687209 13.8989704,12.976327 L13.8989704,12.976327 Z M7.65219085,12.4260263 C7.9041997,12.4235062 8.11053616,12.6257568 8.11305625,12.8777657 C8.11557634,13.1297745 7.91332574,13.336111 7.6613169,13.3386311 L6.39553411,13.3632714 L6.38640806,13.3632714 C6.13439922,13.3657915 5.92806275,13.1635409 5.92554266,12.911532 C5.92302257,12.6595232 6.12527317,12.4531867 6.37728201,12.4506666 L7.64306481,12.4260263 L7.65219085,12.4260263 Z M9.78677337,7.47970855 C10.0387822,7.47970855 10.2430757,7.68400209 10.2430757,7.93601093 C10.2430757,8.18801977 10.0387822,8.39231331 9.78677337,8.39231331 L6.38640806,8.39231331 C6.13439922,8.39231331 5.93010568,8.18801977 5.93010568,7.93601093 C5.93010568,7.68400209 6.13439922,7.47970855 6.38640806,7.47970855 L9.78677337,7.47970855 L9.78677337,7.47970855 Z M2.61004959,12.906969 C2.61004959,13.5357537 3.12202086,14.047725 3.75080553,14.047725 C4.37959021,14.047725 4.89156148,13.5357537 4.89156148,12.906969 C4.89156148,12.2781843 4.37959021,11.7662131 3.75080553,11.7662131 C3.12202086,11.7662131 2.61004959,12.2781843 2.61004959,12.906969 Z M3.97895672,12.906969 C3.97895672,13.1579353 3.52265435,13.1579353 3.52265435,12.906969 C3.52265435,12.7809646 3.62480112,12.6788178 3.75080553,12.6788178 C3.87680995,12.6788178 3.97895672,12.7809646 3.97895672,12.906969 Z M2.61004959,7.93601093 C2.61004959,8.56479561 3.12202086,9.07676687 3.75080553,9.07676687 C4.37959021,9.07676687 4.89156148,8.56479561 4.89156148,7.93601093 C4.89156148,7.30722626 4.37959021,6.79525499 3.75080553,6.79525499 C3.12202086,6.79525499 2.61004959,7.30722626 2.61004959,7.93601093 Z M3.97895672,7.93601093 C3.97895672,8.18697724 3.52265435,8.18697724 3.52265435,7.93601093 C3.52265435,7.81000651 3.62480112,7.70785975 3.75080553,7.70785975 C3.87680995,7.70785975 3.97895672,7.81000651 3.97895672,7.93601093 Z" id="形状"></path>
                        </g>
                    </g>
                </g>
            </g>
        </g>
    </g>
</svg>