<?xml version="1.0" encoding="UTF-8"?>
<svg width="20px" height="12px" viewBox="0 0 20 12" version="1.1" xmlns="http://www.w3.org/2000/svg" xmlns:xlink="http://www.w3.org/1999/xlink">
    <title>编组备份</title>
    <defs>
        <linearGradient x1="41.579677%" y1="92.2019308%" x2="57.6008341%" y2="31.3330652%" id="linearGradient-1">
            <stop stop-color="#FFAA00" offset="0%"></stop>
            <stop stop-color="#FFA700" offset="40.56%"></stop>
            <stop stop-color="#FF9C00" offset="74.83%"></stop>
            <stop stop-color="#FF9500" offset="89.94%"></stop>
        </linearGradient>
    </defs>
    <g id="页面-1" stroke="none" stroke-width="1" fill="none" fill-rule="evenodd">
        <g id="流程三" transform="translate(-562.000000, -237.000000)" fill-rule="nonzero">
            <g id="编组-3备份-20" transform="translate(460.000000, 153.000000)">
                <g id="编组-21" transform="translate(24.000000, 74.000000)">
                    <g id="编组备份" transform="translate(78.000000, 10.000000)">
                        <path d="M4.48906899,0.346707025 C4.42765708,0.346707025 4.41888395,0.346707025 4.35747204,0.346707025 L0.0323190197,10.8101472 C-0.0817316685,11.0857349 0.120050318,11.3968822 0.418336734,11.3968822 L2.50634164,11.3968822 C2.53266103,11.3968822 2.55898042,11.3791024 2.57652668,11.3524326 L5.76994595,3.56485941 C5.77871908,3.54707957 5.77871908,3.52929972 5.76994595,3.51151987 L5.7260803,3.37817102 L4.48906899,0.346707025 Z" id="路径" fill="url(#linearGradient-1)"></path>
                        <path d="M14.7448578,11.3791024 L18.3242948,11.3791024 C18.5874887,11.3791024 18.7366319,11.076845 18.5787155,10.8634868 L17.2715192,9.09439197 C17.1574685,8.94326327 16.9820059,8.85436403 16.7977702,8.85436403 L13.2271063,8.85436403 C12.9639124,8.85436403 12.8147692,9.15662144 12.9726856,9.36997961 L14.2623357,11.1390744 C14.3763863,11.2902031 14.5606221,11.3791024 14.7448578,11.3791024 Z" id="路径" fill="#3E75FF"></path>
                        <path d="M16.5784419,0 C16.5696688,0 16.5521226,0 16.5433494,0 L16.5433494,0 L4.287287,0.0177798474 C4.19078257,0.0177798474 4.12059754,0.124458932 4.15569006,0.213358169 L8.59489377,11.1124047 C8.6650788,11.2813132 8.83176827,11.3968822 9.016004,11.3968822 L10.9373194,11.3968822 C11.2619252,11.3968822 11.4812535,11.0590651 11.3584297,10.7568077 L7.94568216,2.52473834 C7.95445529,2.52473834 7.96322842,2.52473834 7.97200155,2.52473834 L13.270972,2.52473834 L16.4643913,2.52473834 L16.4643913,2.52473834 C16.4731644,2.52473834 16.4907106,2.52473834 16.4994838,2.52473834 C17.0170984,2.52473834 17.4382087,2.95145468 17.4382087,3.47596018 C17.4382087,4.00046568 17.0170984,4.42718201 16.4994838,4.42718201 C16.4907106,4.42718201 16.4731644,4.42718201 16.4643913,4.42718201 L16.4643913,4.42718201 L13.270972,4.42718201 L10.5249823,4.42718201 C10.0424602,4.42718201 9.76172004,4.98724721 10.0512333,5.37840385 L11.0250507,6.71189241 C11.1391014,6.86302112 11.314564,6.95192035 11.4987998,6.95192035 L16.5345763,6.95192035 L16.5345763,6.95192035 C16.5433494,6.95192035 16.5608957,6.95192035 16.5696688,6.95192035 C18.4646649,6.95192035 20,5.3961837 20,3.47596018 C20.0087357,1.55573665 18.473438,0 16.5784419,0 Z" id="路径" fill="#3E75FF"></path>
                    </g>
                </g>
            </g>
        </g>
    </g>
</svg>