<?xml version="1.0" encoding="UTF-8"?>
<svg width="1920px" height="188px" viewBox="0 0 1920 188" version="1.1" xmlns="http://www.w3.org/2000/svg" xmlns:xlink="http://www.w3.org/1999/xlink">
    <title>编组 2</title>
    <defs>
        <rect id="path-1" x="0" y="0" width="1920" height="188"></rect>
        <radialGradient cx="50.0000901%" cy="49.9999205%" fx="50.0000901%" fy="49.9999205%" r="52.9276677%" gradientTransform="translate(0.500001,0.499999),scale(1.000000,0.944684),rotate(90.000000),translate(-0.500001,-0.499999)" id="radialGradient-3">
            <stop stop-color="#C6C5FF" offset="3.57142873%"></stop>
            <stop stop-color="#9CF3F6" stop-opacity="0.340000004" offset="100%"></stop>
        </radialGradient>
        <filter x="-7.8%" y="-7.4%" width="115.6%" height="114.8%" filterUnits="objectBoundingBox" id="filter-4">
            <feGaussianBlur stdDeviation="50" in="SourceGraphic"></feGaussianBlur>
        </filter>
    </defs>
    <g id="主页" stroke="none" stroke-width="1" fill="none" fill-rule="evenodd">
        <g id="文件与版本_1" transform="translate(0.000000, -100.000000)">
            <g id="编组-2" transform="translate(0.000000, 100.000000)">
                <g id="路径" opacity="0.602883475">
                    <mask id="mask-2" fill="white">
                        <use xlink:href="#path-1"></use>
                    </mask>
                    <use id="蒙版" fill="#EFF4FF" opacity="0.85" xlink:href="#path-1"></use>
                    <path d="M1360.13439,-74.8014176 C1359.86538,-109.704662 1368.10173,-144.688536 1383.61192,-176.278466 C1414.28118,-238.723284 1456.2752,-289.008032 1456.2752,-363.461036 C1456.2752,-442.538054 1403.97308,-474.156111 1276.95339,-478.112587 C1183.57609,-478.105087 1116.33325,-442.538054 1052.86533,-383.217165 C1034.67898,-366.365577 1013.1422,-354.702411 989.984348,-346.031915 C979.209842,-349.120217 968.089462,-351.878499 956.74374,-354.546777 C940.87545,-360.168348 917.116686,-374.141646 898.636872,-393.702764 C814.098575,-483.186627 859.009818,-581.02653 774.471522,-670.50908 C721.643602,-726.429838 663.538481,-709.631916 571.090495,-617.352043 C534.943146,-581.283982 507.774551,-533.735203 492.751732,-483.796037 C477.688735,-433.659422 489.205648,-359.253296 457.193067,-316.710865 C450.871255,-308.317885 442.509135,-301.985648 434.248331,-295.760293 C406.344317,-274.723466 378.221948,-253.549756 346.964003,-238.715783 C307.572773,-220.028466 267.498528,-215.185064 225.881825,-227.485767 C181.206405,-240.686521 138.347698,-262.599023 91.0293106,-262.599023 C27.5107336,-262.591523 -21.049133,-219.126539 -21.049133,-100.479135 C-21.049133,-55.5721938 -4.88615135,-13.8135578 18.1426082,23.2291837 C29.1108385,40.8945681 40.4548141,58.9649756 54.4103147,74.1045906 C69.1973108,90.142382 87.2613779,104.882599 93.2687588,127.410136 C96.7886404,140.590264 95.4959792,154.625441 93.7491397,168.191842 C86.160869,226.843318 67.7072568,289.786914 22.5060385,328.239736 C-22.3161156,366.37379 -82.2908794,379.060765 -123.523802,422.713259 C-168.436059,470.249101 -173.74701,537.346059 -94.4866139,621.247728 C-60.8040551,656.902891 -16.7300724,671.978752 28.9763319,681.04302 C64.1873752,688.025919 115.595114,678.901648 145.611057,701.341055 C152.848213,706.754489 158.625011,714.03553 164.031479,721.451579 C195.416944,764.340904 223.572503,818.52775 223.603946,874.16968 C223.603946,933.490569 182.537497,996.721057 182.537497,1067.902 C182.542737,1135.12647 223.603946,1186.54565 335.682913,1186.54565 C378.054252,1186.54565 417.86647,1169.71844 452.995412,1145.61769 C470.701377,1133.4745 487.254428,1119.52745 503.161148,1104.90349 C515.766342,1093.32845 534.95712,1065.52999 550.986119,1061.55476 C554.914761,1060.57971 559.021581,1061.09349 563.021843,1061.65039 C620.954028,1069.67585 686.490204,1081.69154 729.565519,1127.29039 C769.192573,1169.23654 782.393439,1244.69273 829.942409,1295.0206 C874.846665,1342.55457 938.232482,1348.17989 1017.48659,1264.2876 C1073.70512,1204.77169 1081.60783,1112.45642 1083.45598,1032.64623 C1083.64813,1024.36201 1083.81583,1015.63901 1087.80212,1008.50611 C1101.06587,984.806626 1147.81479,982.929644 1170.51147,982.929644 C1290.06342,982.929644 1323.66213,1085.72114 1443.2036,1085.72114 C1517.91942,1085.72864 1547.78862,1030.35673 1551.52511,895.898421 C1551.51987,797.063399 1517.91942,725.874956 1461.87382,658.697368 C1447.91308,641.960162 1425.24085,609.63144 1426.3169,585.93196 C1426.69422,577.362721 1429.49091,569.12725 1432.55486,561.188047 C1458.82908,493.087906 1510.95127,453.87754 1576.66039,436.105275 C1634.24844,420.53251 1689.36123,410.487561 1733.27677,364.00178 C1786.1012,308.074834 1770.2399,246.565695 1683.05514,148.705728 C1648.27556,109.643496 1602.28128,80.5587094 1553.97069,64.8246854 C1508.74501,50.099469 1460.40822,50.6076231 1414.60783,37.2906122 C1406.14789,34.837972 1397.52899,32.0140607 1390.76522,26.1280993 C1384.11675,20.3433938 1379.84922,12.0947975 1376.29266,3.79744842 C1365.54785,-21.3121113 1360.34052,-48.032388 1360.13439,-74.8014176 Z" fill="url(#radialGradient-3)" opacity="0.6" filter="url(#filter-4)" mask="url(#mask-2)"></path>
                </g>
                <rect id="矩形" fill-opacity="0.1" fill="#000000" x="0" y="187" width="1920" height="1"></rect>
            </g>
        </g>
    </g>
</svg>