<?xml version="1.0" encoding="UTF-8"?>
<svg width="110px" height="20px" viewBox="0 0 110 20" version="1.1" xmlns="http://www.w3.org/2000/svg" xmlns:xlink="http://www.w3.org/1999/xlink">
    <title>深色横版AD</title>
    <defs>
        <linearGradient x1="40.8905361%" y1="93.4068786%" x2="58.3767003%" y2="31.3679816%" id="linearGradient-1">
            <stop stop-color="#FFAA00" offset="0%"></stop>
            <stop stop-color="#FFA700" offset="41%"></stop>
            <stop stop-color="#FF9C00" offset="75%"></stop>
            <stop stop-color="#FF9500" offset="90%"></stop>
        </linearGradient>
    </defs>
    <g id="二期" stroke="none" stroke-width="1" fill="none" fill-rule="evenodd">
        <g id="发布应用-认知搜索" transform="translate(-24.000000, -16.000000)" fill-rule="nonzero">
            <g id="领域认知服务导航" transform="translate(0.000000, -106.000000)">
                <g id="深色横版AD" transform="translate(24.000000, 122.000000)">
                    <g id="编组-12" transform="translate(35.223950, 2.354197)" fill="#1B1364">
                        <path d="M5.41525054,0 C5.3826846,0.0789356377 0.883932648,11.2970827 0,13.5119239 L2.70762527,13.5119239 L6.76906317,3.37565933 L9.00215618,8.94758669 C8.29558392,8.72887601 7.56001141,8.61773621 6.82023822,8.61791432 C6.05913536,8.61637986 5.30249214,8.73388693 4.57784066,8.96615978 C5.57434576,9.16052138 6.52280838,9.54863839 7.36920692,10.1084049 C8.71123734,10.8905177 9.86185218,11.9611832 10.7374555,13.242614 L10.8491102,13.5119239 L13.5567355,13.5119239 C12.62628,11.1624278 8.26244412,0.306456005 8.14148492,0 L5.41525054,0 Z" id="路径"></path>
                        <path d="M19.9675733,4.40182262 C18.7690354,4.35892346 17.6489658,4.99515696 17.0738569,6.04554119 L17.0459433,6.04554119 L17.0459433,4.61541317 L14.6825865,4.61541317 L14.6825865,13.5119239 L17.0459433,13.5119239 L17.0459433,8.44146996 C17.0236861,7.86903415 17.2105043,7.30801433 17.5716506,6.8627572 C17.8981193,6.45489741 18.3980167,6.22435739 18.9208109,6.24055865 C20.0280529,6.24055865 20.5770216,7.00205539 20.5770216,8.52504887 L20.5770216,13.5119239 L22.9357261,13.5119239 L22.9357261,8.07000813 C22.9357261,5.62455111 21.9463418,4.40182262 19.9675733,4.40182262 Z" id="路径"></path>
                        <path d="M29.0441659,10.4148609 C28.9331705,10.7484358 28.8476344,11.0899181 28.7882907,11.4363809 L28.7557247,11.4363809 C28.6580269,10.9302642 28.5835905,10.5820187 28.5277631,10.3962878 L26.6668523,4.56433717 L24.042968,4.56433717 L27.6252214,13.4422748 L27.080905,14.7145315 C26.8709951,15.370438 26.2540051,15.810562 25.5642626,15.7964141 C25.1799063,15.8004677 24.8007164,15.7078498 24.461673,15.5271043 L24.461673,17.4494192 C24.9257837,17.5904882 25.4095646,17.6563306 25.8945743,17.6444367 C27.5290743,17.6444367 28.7696816,16.5610063 29.616396,14.3941457 L33.3754359,4.57362371 L31.0167314,4.57362371 L29.0441659,10.4148609 Z" id="路径"></path>
                        <path d="M38.3440678,0.905438197 L34.8874259,0.905438197 L34.8874259,13.4887075 L38.4789838,13.4887075 C42.2008055,13.4887075 44.5827714,11.3806616 44.5827714,7.14599684 C44.5827714,2.91133205 42.1961532,0.905438197 38.3440678,0.905438197 Z M38.1905427,11.4642406 L37.4089601,11.4642406 L37.4089601,2.91133205 L38.1905427,2.91133205 C40.5445949,2.91133205 42.0100622,4.06750698 42.0100622,7.14599684 C42.0100622,10.2244867 40.5492472,11.4642406 38.1905427,11.4642406 Z" id="形状"></path>
                        <polygon id="路径" points="64.5736061 1.03080656 55.152745 1.03080656 55.152745 3.07848987 58.6140391 3.07848987 58.6140391 13.3261929 61.079746 13.3261929 61.079746 3.07848987 64.5736061 3.07848987"></polygon>
                        <path d="M51.3657914,1.03544984 L48.9233459,1.03544984 L44.945649,13.3261929 L47.397399,13.3261929 L48.4255523,10.1501943 L52.2683332,10.1501943 L53.2964864,13.3261929 L55.7482364,13.3261929 L51.7705395,1.03544984 L51.3657914,1.03544984 Z M49.0396529,8.26038232 L50.351595,4.21144843 L51.6635371,8.26038232 L49.0396529,8.26038232 Z" id="形状"></path>
                        <path d="M72.3242997,13.3261929 L74.7760497,13.3261929 L70.7983528,1.03544984 L67.9511592,1.03544984 L63.9734623,13.3261929 L66.4252124,13.3261929 L67.4533656,10.1501943 L71.2961465,10.1501943 L72.3242997,13.3261929 Z M68.0628139,8.26038232 L69.374756,4.21144843 L70.6820459,8.26038232 L68.0628139,8.26038232 Z" id="形状"></path>
                    </g>
                    <g id="编组-11">
                        <path d="M7.00323731,0.715121867 L6.61709831,0.715121867 L0.0155171212,16.4140272 C-0.0109295363,16.4787144 -0.00323316758,16.5523136 0.0360266052,16.6101563 C0.075286378,16.6679991 0.140913983,16.7024305 0.210912759,16.7019216 L3.88155939,16.7019216 C3.96682637,16.7012949 4.04359104,16.6502175 4.07695502,16.5718985 L8.79901627,5.2330263 C8.81770102,5.18525348 8.81770102,5.1322144 8.79901627,5.08444158 L8.74318894,4.93121357 L7.00323731,0.715121867 Z" id="路径" fill="url(#linearGradient-1)"></path>
                        <path d="M30.1808818,2.65136663 L27.2034245,0.422595679 L27.2034245,0.422595679 C27.1685944,0.388868463 27.1216785,0.370472901 27.0731607,0.371438255 C26.9982341,0.373560252 26.9304165,0.416309501 26.8963742,0.482958227 C26.8888892,0.511891184 26.8888892,0.542247448 26.8963742,0.57118041 L25.4216023,11.575737 C25.4216023,11.7911473 25.5965655,11.9657719 25.8123936,11.9657719 L30.0459658,12.3604501 C30.2643632,12.3604501 30.4414104,12.1837466 30.4414104,11.9657719 L30.4414104,3.14355354 C30.4416713,2.94653424 30.344093,2.76218991 30.1808818,2.65136663 Z" id="路径" fill="#3E75FF"></path>
                        <path d="M14.4050102,3.542875 L25.1052475,4.7130339 C25.2096955,4.71422085 25.3102941,4.67367658 25.384591,4.60039588 C25.4588879,4.5271152 25.5006984,4.42719807 25.500691,4.32294484 L25.9938324,0.390092769 C25.9912843,0.173933495 25.8149823,5.78537929e-05 25.5983889,5.78537929e-05 L14.1956577,5.78537929e-05 C14.0818563,0.0025824979 13.9909575,0.0953959925 13.9909575,0.20900513 L14.0281757,3.13891027 C14.0299152,3.3506858 14.1934887,3.52603577 14.4050102,3.542875 L14.4050102,3.542875 Z" id="路径" fill="#3E75FF"></path>
                        <path d="M18.1268318,4.81513175 L14.4050102,4.42045356 C14.1866127,4.42045356 14.0095666,4.59715701 14.0095666,4.81513175 L14.0095666,8.28365654 L10.5808384,0.12542622 C10.5470383,0.0480980844 10.4699608,-0.00135586581 10.3854428,0 L6.62175059,0 C6.55175182,-0.000462527347 6.48612419,0.0339689082 6.44686442,0.0918116418 C6.40760469,0.149654375 6.39990829,0.223253597 6.42635495,0.287940768 L13.1581999,16.5718985 C13.1915639,16.6502175 13.2683286,16.7012949 13.3535955,16.7019101 L17.2335946,16.7019101 C17.5499495,16.7019101 17.5127313,16.3443781 17.5313404,16.2979454 C17.5499495,16.2515127 18.5362322,5.20516667 18.5362322,5.20516667 C18.5350454,5.0988406 18.4909229,4.99749063 18.4138574,4.9240705 C18.3367919,4.85065042 18.2333041,4.81137223 18.1268318,4.81513175 L18.1268318,4.81513175 Z" id="路径" fill="#3E75FF"></path>
                        <path d="M30.3204501,13.1869526 C30.2932973,13.1777536 30.2638619,13.1777536 30.2367091,13.1869526 L19.1084623,12.3047308 C18.8918839,12.307274 18.7176561,12.4832347 18.717671,12.699409 L18.4199253,16.3350916 C18.4224734,16.5512508 18.5987754,16.7251265 18.8153689,16.7251265 L27.6546953,16.7251265 C27.83803,16.7218884 28.0096472,16.634533 28.119923,16.4883196 L30.353016,13.516625 L30.353016,13.516625 C30.3852024,13.4808512 30.4033736,13.4346867 30.4041911,13.3866133 C30.4192403,13.309288 30.3862034,13.2305191 30.3204501,13.1869526 L30.3204501,13.1869526 Z" id="路径" fill="#3E75FF"></path>
                    </g>
                </g>
            </g>
        </g>
    </g>
</svg>