<?xml version="1.0" encoding="UTF-8"?>
<svg width="14px" height="14px" viewBox="0 0 14 14" version="1.1" xmlns="http://www.w3.org/2000/svg" xmlns:xlink="http://www.w3.org/1999/xlink">
    <title>编组 6</title>
    <g id="页面-1" stroke="none" stroke-width="1" fill="none" fill-rule="evenodd">
        <g id="1+2" transform="translate(-743.000000, -118.000000)" fill="#D81E06" fill-rule="nonzero">
            <g id="编组" transform="translate(660.000000, 105.000000)">
                <g id="36-数据源" transform="translate(83.000000, 13.000000)">
                    <g id="ORACLE-(3)" transform="translate(0.000000, 3.000000)">
                        <path d="M10.3244286,3.62082031 L10.0277634,3.62082031 L10.0277634,5.46274344 L11.4405546,5.46274344 L11.627745,5.16605086 L10.3244286,5.16605086 L10.3244286,3.62082031 Z M6.39165164,3.71441552 L5.29083079,5.46274344 L5.65819507,5.46274344 L5.99373179,4.93175509 L6.703622,4.93175509 L6.8908261,4.63503514 L6.18092221,4.63503514 L6.57119634,4.02638588 L7.47592269,5.46274344 L7.84265781,5.46274344 L6.72718835,3.70676979 C6.65715949,3.59726763 6.46932622,3.59726763 6.39165164,3.71441552 L6.39165164,3.71441552 Z M8.37364617,3.92451577 L9.63809109,3.92451577 L9.82528151,3.62846603 L8.36600044,3.62846603 C7.85856476,3.62846603 7.52304172,4.0423065 7.52304172,4.54909934 C7.52304172,5.05653502 7.85856476,5.47037549 8.36600044,5.47037549 L9.59861779,5.47037549 L9.79408311,5.17368291 L8.37364617,5.17368291 C8.02983456,5.17368291 7.82736636,4.89291095 7.82736635,4.55737423 C7.82736635,4.2218512 8.0304774,3.92515861 8.37364617,3.92515861 L8.37364617,3.92451577 L8.37364617,3.92451577 Z M2.14623409,5.16605086 L0.842958716,5.16605086 C0.499160785,5.16605086 0.304338308,4.88463606 0.304338308,4.54909934 C0.304338308,4.2135763 0.508064847,3.93279067 0.842958716,3.93279067 L2.14624777,3.93279067 C2.49005938,3.93279067 2.69252758,4.2135763 2.69252758,4.54909934 C2.69252758,4.88463606 2.48941653,5.16605086 2.14624777,5.16605086 L2.14623409,5.16605086 Z M2.14623409,3.62082031 L0.842958716,3.62082031 C0.335523037,3.62082031 0,4.03466077 0,4.54145361 C0,5.04888929 0.335523037,5.46274344 0.842958716,5.46274344 L2.14624777,5.46274344 C2.65368345,5.46274344 2.98922017,5.04890297 2.98922017,4.54146729 C2.98922017,4.03466077 2.65368345,3.62082031 2.14624777,3.62082031 L2.14623409,3.62082031 Z M12.5483647,3.92514493 L13.8128096,3.92514493 L14,3.62846603 L12.5407326,3.62846603 C12.0332969,3.62846603 11.6977602,4.0423065 11.6977602,4.54909934 C11.6977602,5.05653502 12.0332969,5.47037549 12.5407326,5.47037549 L13.7739928,5.47037549 L13.9688153,5.17368291 L12.5490075,5.17368291 C12.2599606,5.17368291 12.0727702,4.97058554 12.0180191,4.69744563 L13.6097259,4.69744563 L13.8051775,4.40139589 L12.0256512,4.40139589 C12.0727702,4.11998109 12.259947,3.92514493 12.5483783,3.92514493 L12.5483647,3.92514493 Z M4.59619101,4.71336625 C4.90115848,4.71336625 5.14309999,4.47142475 5.14309999,4.16708644 C5.14395421,4.02194384 5.08667425,3.88249856 4.98404115,3.77986546 C4.88140806,3.67723237 4.74196278,3.6199524 4.59682018,3.62079721 L3.06690843,3.62079721 L3.06690843,5.46274344 L3.40244515,5.46274344 L3.40244515,3.92515861 L4.59686121,3.92515861 C4.72928687,3.92515861 4.84643476,4.03466077 4.84643476,4.17473217 C4.84539527,4.31213645 4.73426549,4.42326623 4.59686121,4.4243194 L3.63674092,4.4243194 L4.72164114,5.47101833 L5.1584188,5.47101833 L4.3861181,4.72864403 L4.59621836,4.71336625 L4.59619101,4.71336625 Z M1.75660282,2.98095895 C2.13032714,2.04439134 2.92680968,1.40452999 4.05055403,1.40453 L10.1448839,1.40453 C11.2686283,1.40453 12.0644816,2.04439134 12.4394917,2.98095895 L13.9140368,2.98095895 C13.4460881,1.2561837 12.0644953,0 10.1455268,0 L4.05056771,0 C2.13861572,0 0.749363505,1.24790881 0.281414801,2.98095895 L1.75660282,2.98095895 Z M12.4471237,5.85238839 C12.0727565,6.788956 11.2762603,7.42881735 10.152516,7.42881735 L4.05056771,7.42881735 C2.92682336,7.42881735 2.13032714,6.78895601 1.75595998,5.85238839 L0.281401121,5.85238839 C0.749377185,7.57780649 2.13032714,8.83333366 4.05056771,8.83333366 L10.1448976,8.83333366 C12.0568496,8.83333366 13.4461018,7.58543853 13.9140505,5.85238839 L12.4471374,5.85238839 L12.4471237,5.85238839 Z" id="形状"></path>
                    </g>
                </g>
            </g>
        </g>
    </g>
</svg>