<?xml version="1.0" encoding="UTF-8"?>
<svg width="144px" height="144px" viewBox="0 0 144 144" version="1.1" xmlns="http://www.w3.org/2000/svg" xmlns:xlink="http://www.w3.org/1999/xlink">
    <title>编组</title>
    <defs>
        <linearGradient x1="50%" y1="3.85205925%" x2="50%" y2="121.56033%" id="linearGradient-1">
            <stop stop-color="#779EEA" stop-opacity="0.4" offset="0%"></stop>
            <stop stop-color="#FFFFFF" stop-opacity="0" offset="100%"></stop>
        </linearGradient>
    </defs>
    <g id="页面-1" stroke="none" stroke-width="1" fill="none" fill-rule="evenodd">
        <g id="大语言模型备份-3" transform="translate(-998.000000, -351.000000)">
            <g id="编组" transform="translate(998.000000, 351.000000)">
                <rect id="Rectangle-25" x="0" y="0" width="144" height="144"></rect>
                <path d="M72,100 C106.372614,100 135.319819,115.997855 143.9999,135.999771 L9.95177594e-05,135.999771 C8.68018075,115.997855 37.6273857,100 72,100 Z" id="Combined-Shape" fill="url(#linearGradient-1)"></path>
                <g id="Group-5" transform="translate(31.000000, 30.000000)">
                    <g id="Group-2" fill="#FFFFFF">
                        <path d="M5.17241379,1.27586207 L47.2931817,1.27586207 L47.2931817,1.27586207 L61.9137931,12.7578139 L61.9137931,68.4482759 C61.9137931,70.1051301 60.5706474,71.4482759 58.9137931,71.4482759 L5.17241379,71.4482759 C3.51555954,71.4482759 2.17241379,70.1051301 2.17241379,68.4482759 L2.17241379,4.27586207 C2.17241379,2.61900782 3.51555954,1.27586207 5.17241379,1.27586207 Z" id="Rectangle"></path>
                        <path d="M57,1 C58.3807119,1 59.6307119,1.55964406 60.5355339,2.46446609 C61.4403559,3.36928813 62,4.61928813 62,6 L62,68 C62,69.3807119 61.4403559,70.6307119 60.5355339,71.5355339 C59.6307119,72.4403559 58.3807119,73 57,73 L6,73 C4.61928813,73 3.36928813,72.4403559 2.46446609,71.5355339 C1.55964406,70.6307119 1,69.3807119 1,68 L1,6 C1,4.61928813 1.55964406,3.36928813 2.46446609,2.46446609 C3.36928813,1.55964406 4.61928813,1 6,1 Z" id="Rectangle-4" stroke="#779EEA" stroke-width="2"></path>
                    </g>
                    <g id="Group-2" transform="translate(12.000000, 11.000000)">
                        <path d="M5.17241379,1.27586207 L47.2931817,1.27586207 L47.2931817,1.27586207 L61.9137931,12.7578139 L61.9137931,68.4482759 C61.9137931,70.1051301 60.5706474,71.4482759 58.9137931,71.4482759 L5.17241379,71.4482759 C3.51555954,71.4482759 2.17241379,70.1051301 2.17241379,68.4482759 L2.17241379,4.27586207 C2.17241379,2.61900782 3.51555954,1.27586207 5.17241379,1.27586207 Z" id="Rectangle" fill="#FFFFFF"></path>
                        <path d="M57,1 C58.3807119,1 59.6307119,1.55964406 60.5355339,2.46446609 C61.4403559,3.36928813 62,4.61928813 62,6 L62,68 C62,69.3807119 61.4403559,70.6307119 60.5355339,71.5355339 C59.6307119,72.4403559 58.3807119,73 57,73 L6,73 C4.61928813,73 3.36928813,72.4403559 2.46446609,71.5355339 C1.55964406,70.6307119 1,69.3807119 1,68 L1,6 C1,4.61928813 1.55964406,3.36928813 2.46446609,2.46446609 C3.36928813,1.55964406 4.61928813,1 6,1 L57,1 Z" id="Rectangle-4" stroke="#779EEA" stroke-width="2" fill="#FFFFFF"></path>
                        <rect id="Rectangle-23" fill="#779EEA" x="11" y="41" width="20" height="2"></rect>
                        <rect id="Rectangle-23" fill="#779EEA" x="37" y="11" width="11" height="2"></rect>
                        <rect id="Rectangle-23" fill="#779EEA" transform="translate(42.500000, 12.000000) rotate(-270.000000) translate(-42.500000, -12.000000) " x="37" y="11" width="11" height="2"></rect>
                        <rect id="Rectangle-23-Copy" fill="#779EEA" x="11" y="49.5" width="32" height="2"></rect>
                        <rect id="Rectangle-23-Copy-2" fill="#779EEA" x="11" y="58" width="32" height="2"></rect>
                    </g>
                </g>
                <g id="-_模型预测" transform="translate(54.000000, 50.000000)" fill-rule="nonzero">
                    <path d="M15.8233016,4.24401344 C15.2644312,3.91866219 14.5758541,3.91866219 14.0169836,4.24401344 L4.90301698,9.54954787 C4.34421694,9.87492633 4,10.4761314 4,11.1267451 L4,21.5785763 L11.1766984,25.7559866 C11.7355688,26.0813378 12.4241459,26.0813378 12.9830164,25.7559866 L22.096983,20.4504521 C22.6557831,20.1250737 23,19.5238686 23,18.8732549 L23,8.42171011 L15.8233016,4.24401344 Z" id="路径" fill="#E9F1FF"></path>
                    <path d="M6.03181177,23 C5.90428305,23 5.77616118,22.9683717 5.66108875,22.9045451 L1.09645039,20.3725683 C0.420251612,19.9975873 0,19.2983446 0,18.5480976 C0,18.1545954 0.331871244,17.8357476 0.741446033,17.8357476 C1.15102082,17.8357476 1.48289207,18.1545954 1.48289207,18.5480976 C1.48289207,18.7908664 1.61902156,19.0173937 1.83789643,19.1387782 L5.08661637,20.9407387 C5.02814833,20.3662068 4.9988512,19.7892792 4.99882916,19.2120077 C4.99882916,15.5388463 6.16616179,12.0201223 8.37478123,9.03680062 C9.43710353,7.60134378 10.717081,6.32674296 12.1721712,5.25536198 C13.2357014,4.47206194 14.3796044,3.80615718 15.5869751,3.26705072 L12.428415,1.51523964 C12.2095401,1.39385521 11.9375777,1.39385521 11.7184063,1.51523964 L7.21071096,4.01558808 C6.85600318,4.21219667 6.40253479,4.09565621 6.19789568,3.75486798 C5.99325658,3.41407975 6.11455715,2.9784065 6.46926493,2.78179791 L10.9769602,0.281449477 C11.653159,-0.0938164925 12.4933657,-0.0938164925 13.169861,0.281449477 L17.629214,2.75501355 C17.8786365,2.89320945 18.0218839,3.1579187 17.9972679,3.43345567 C17.9723553,3.70899264 17.7837314,3.94577778 17.5135485,4.04094774 C15.9203292,4.6014247 14.4267603,5.39042354 13.0743628,6.38657375 C11.736506,7.37151173 10.5596863,8.54335345 9.58304169,9.8631266 C7.55414876,12.6039644 6.48172122,15.8371785 6.48172122,19.2128626 C6.48172122,20.2018893 6.57573658,21.1931955 6.76109809,22.159427 C6.81359247,22.4326845 6.69585084,22.710216 6.45947784,22.8703523 C6.33410169,22.9546186 6.18482122,23 6.03181177,23 Z M0.741446033,11.5314503 C0.331871244,11.5314503 0,11.2126024 0,10.8191003 L0,7.58645606 C0,6.83620906 0.420251612,6.13696632 1.09645039,5.76198529 L4.11413575,4.08796283 C4.46884353,3.89135424 4.92231193,4.0078947 5.12695103,4.34868293 C5.33159014,4.68947116 5.21028956,5.12514441 4.85558178,5.321753 L1.83789643,6.99577545 C1.61902156,7.11715989 1.48289207,7.34340225 1.48289207,7.58645606 L1.48289207,10.8191003 C1.48289207,11.2126024 1.15102082,11.5314503 0.741446033,11.5314503 Z" id="形状" fill="#779EEA"></path>
                    <path d="M18.1363687,23 C17.8922979,23 17.6550068,22.8767366 17.5242142,22.6560731 C17.3292966,22.3270038 17.4448347,21.9063124 17.782692,21.7164647 L22.249696,19.2044224 C22.4581731,19.0872121 22.5878358,18.8687497 22.5878358,18.634054 L22.5878358,15.08858 C22.1424125,15.3959659 21.6825908,15.6830636 21.2098527,15.9489476 C18.539481,17.4506702 15.5671281,18.2260191 12.5255653,18.2260191 C11.9597391,18.2260191 11.3919355,18.1993303 10.8227195,18.1451274 C9.07757911,17.9798519 7.36786701,17.5599708 5.75090581,16.8995617 C4.56925288,16.4172385 3.45116005,15.8127526 2.41244673,15.0960089 L2.41244673,18.634054 C2.41244673,18.8684746 2.54210934,19.0872121 2.75058647,19.2044224 L7.09837998,21.6493302 C7.43623724,21.8391778 7.55177538,22.2598692 7.35685773,22.5889385 C7.16194009,22.9180078 6.73001388,23.0305407 6.39215662,22.840693 L2.04436311,20.3957853 C1.4002874,20.033699 1,19.3585017 1,18.634054 L1,13.6941627 C1,13.42645 1.15960648,13.1829497 1.40876208,13.0704168 C1.65820017,12.9576088 1.95198909,12.9961286 2.16187868,13.1689175 C3.4020069,14.1891423 4.79326693,15.0175935 6.29667522,15.6311592 C7.78511158,16.2386717 9.35377491,16.624145 10.9594444,16.7762983 C14.2928186,17.0924359 17.5928592,16.3944018 20.5033469,14.7578599 C21.3296282,14.2931458 22.1152311,13.7563447 22.8384038,13.1620389 C23.0485162,12.9895004 23.3422887,12.9512924 23.5915204,13.0640885 C23.8406846,13.1768842 24,13.420219 24,13.6878344 L24,18.634054 C24,19.3585017 23.5997126,20.033699 22.9556369,20.3957853 L18.4886329,22.9078276 C18.3815893,22.9682189 18.2600733,23 18.1363687,23 L18.1363687,23 Z" id="路径" fill="#779EEA"></path>
                    <path d="M11.9575588,25.9999998 C11.5795131,25.9999998 11.2011716,25.9067403 10.8639478,25.7202217 L7.9046606,24.0829398 C7.55087137,23.8873504 7.42988492,23.4539356 7.63399409,23.1149139 C7.83810326,22.7758923 8.29039736,22.6599559 8.64418659,22.8555453 L11.6034738,24.4928272 C11.8217819,24.6135824 12.09304,24.6135824 12.3116439,24.4928272 L15.1395912,22.9281119 C15.4933805,22.7325224 15.9456746,22.8484588 16.1497837,23.1874804 C16.3538929,23.5265021 16.2329065,23.9599169 15.8791172,24.1555063 L13.0511699,25.7202217 C12.7185026,25.9036713 12.3413777,26.000151 11.9575588,25.9999998 L11.9575588,25.9999998 Z M17.8589762,22.950222 C17.7084087,22.950222 17.5584328,22.9062852 17.4309386,22.8192621 C17.1951633,22.6588208 17.0785679,22.3814372 17.1324659,22.1091874 C17.4522369,20.4951495 17.5102157,18.8462456 17.3046275,17.2081133 C17.1019562,15.5893321 16.6444689,14.0093266 15.9477452,12.5219042 C14.500345,9.43045742 12.1110844,6.89799958 9.03850185,5.19807238 C8.22117772,4.745949 7.3609611,4.35760479 6.4818126,4.04437825 C6.21329691,3.94869722 6.02659617,3.71302506 6.00259976,3.43946835 C5.97863912,3.16592662 6.12181135,2.90372341 6.36970046,2.76652735 L10.8639478,0.279990511 C11.5383955,-0.0933301704 12.3764263,-0.0933301704 13.0511699,0.279990511 L17.498975,2.74073222 C17.8527642,2.93632165 17.9737506,3.36973647 17.7696415,3.70875814 C17.5655323,4.0477798 17.1132382,4.16371614 16.759449,3.96812672 L12.3116439,1.50738501 C12.0933358,1.3866298 11.8220777,1.3866298 11.6034738,1.50738501 L8.39895977,3.28072911 C8.8685243,3.49221613 9.32861858,3.72249621 9.77802783,3.97096135 C13.1215727,5.82084044 15.7217461,8.57723399 17.2972323,11.9422225 C18.0549419,13.5601605 18.5526146,15.2787182 18.7733261,17.0394529 C18.9345428,18.3252408 18.946671,19.6175483 18.8103024,20.8973834 L22.166863,19.0404177 C22.3851711,18.9196625 22.520948,18.694593 22.520948,18.4527991 C22.520948,18.0613368 22.8519599,17.7441418 23.260474,17.7441418 C23.6689882,17.7441418 24,18.0613368 24,18.4527991 C24,19.199157 23.5808367,19.894775 22.906389,20.2678122 L18.2287392,22.8552619 C18.1163388,22.9175119 17.9887986,22.950222 17.8589762,22.950222 Z M23.260474,11.4682724 C22.8519599,11.4682724 22.520948,11.1510774 22.520948,10.7596151 L22.520948,7.54769662 C22.520948,7.30618621 22.3851711,7.08083318 22.166863,6.96007797 L19.1173536,5.2729066 C18.7635644,5.07731717 18.6425779,4.64390235 18.8466871,4.30488068 C19.0507963,3.96585902 19.5030904,3.84992268 19.8568796,4.0455121 L22.906389,5.73268347 C23.5808367,6.10572069 24,6.80133872 24,7.54769662 L24,10.7598986 C24,11.1510774 23.6686924,11.4682724 23.260474,11.4682724 Z" id="形状" fill="#779EEA"></path>
                </g>
                <g id="Group-4" transform="translate(93.000000, 76.000000)" fill="#F8FAFE" stroke="#779EEA" stroke-width="2">
                    <path d="M13.5,30.9972781 C20.9558441,30.9972781 27,31.3473306 27,24.1079885 C27,16.8686463 20.9558441,11 13.5,11 C6.04415588,11 0,16.8686463 0,24.1079885 C0,31.3473306 6.04415588,30.9972781 13.5,30.9972781 Z" id="Oval-20-Copy"></path>
                    <circle id="Oval-20" cx="13.5" cy="7.5" r="7.5"></circle>
                </g>
            </g>
        </g>
    </g>
</svg>