<?xml version="1.0" encoding="UTF-8"?>
<svg width="144px" height="144px" viewBox="0 0 144 144" version="1.1" xmlns="http://www.w3.org/2000/svg" xmlns:xlink="http://www.w3.org/1999/xlink">
    <title>编组</title>
    <defs>
        <linearGradient x1="50%" y1="3.85205925%" x2="50%" y2="121.56033%" id="linearGradient-1">
            <stop stop-color="#779EEA" stop-opacity="0.4" offset="0%"></stop>
            <stop stop-color="#FFFFFF" stop-opacity="0" offset="100%"></stop>
        </linearGradient>
    </defs>
    <g id="保留线条" stroke="none" stroke-width="1" fill="none" fill-rule="evenodd">
        <g id="编组">
            <g id="Group-4">
                <rect id="Rectangle-25" x="0" y="0" width="144" height="144"></rect>
                <path d="M72,100 C106.372614,100 135.319819,115.997855 143.9999,135.999771 L9.95177594e-05,135.999771 C8.68018075,115.997855 37.6273857,100 72,100 Z" id="Combined-Shape" fill="url(#linearGradient-1)"></path>
                <g id="Group-14-Copy" transform="translate(36.000000, 50.000000)">
                    <polygon id="Clip-2" points="1.63636364 4.86237374 35.9673154 4.86237374 35.9673154 18.565875 1.63636364 18.565875"></polygon>
                    <path d="M39.3425662,1 C40.1001876,1 40.8252897,1.21404557 41.445673,1.5975095 C42.0660564,1.98097343 42.5817208,2.53385573 42.9204667,3.2115292 L59.2216522,35.8226403 C59.7155248,36.8106503 59.7621723,37.9053068 59.4383492,38.876429 C59.1145261,39.8475512 58.4202324,40.6951391 57.4322225,41.1890116 C56.8769005,41.4665982 56.2645872,41.6111111 55.6437517,41.6111111 L5,41.6111111 C3.8954305,41.6111111 2.8954305,41.1633959 2.17157288,40.4395382 C1.44771525,39.7156806 1,38.7156806 1,37.6111111 L1,5 C1,3.8954305 1.44771525,2.8954305 2.17157288,2.17157288 C2.8954305,1.44771525 3.8954305,1 5,1 Z" id="Rectangle-3-Copy-7" stroke="#779EEA" stroke-width="2" fill="#FFFFFF"></path>
                    <polygon id="Clip-5" points="22.4056237 10.6243295 56.958202 10.6243295 56.958202 50.2601124 22.4056237 50.2601124"></polygon>
                    <path d="M59,8 C59.8284271,8 60.5784271,8.33578644 61.1213203,8.87867966 C61.6642136,9.42157288 62,10.1715729 62,11 L62,30.8611111 C62,31.6895382 61.6642136,32.4395382 61.1213203,32.9824315 C60.5784271,33.5253247 59.8284271,33.8611111 59,33.8611111 L15,33.8611111 C14.1715729,33.8611111 13.4215729,33.5253247 12.8786797,32.9824315 C12.3357864,32.4395382 12,31.6895382 12,30.8611111 L12,11 C12,10.1715729 12.3357864,9.42157288 12.8786797,8.87867966 C13.4215729,8.33578644 14.1715729,8 15,8 Z" id="Rectangle-3-Copy-8" stroke="#779EEA" stroke-width="2" fill="#F8FAFE"></path>
                    <polygon id="Clip-8" points="1.63641057 15.0353649 56.9205357 15.0353649 56.9205357 52.6165265 1.63641057 52.6165265"></polygon>
                    <path d="M68,16 C69.3807119,16 70.6307119,16.5596441 71.5355339,17.4644661 C72.4403559,18.3692881 73,19.6192881 73,21 L73,53.25 C73,54.6307119 72.4403559,55.8807119 71.5355339,56.7855339 C70.6307119,57.6903559 69.3807119,58.25 68,58.25 L6,58.25 C4.61928813,58.25 3.36928813,57.6903559 2.46446609,56.7855339 C1.55964406,55.8807119 1,54.6307119 1,53.25 L1,16 Z" id="Rectangle-3" stroke="#779EEA" stroke-width="2" fill="#FFFFFF"></path>
                </g>
            </g>
            <path d="M99,87 C99,82.581722 95.6421356,79 91.5,79 C87.3578644,79 84,82.581722 84,87" id="Oval-15" stroke="#779EEA" stroke-width="2"></path>
            <g id="Group" transform="translate(79.000000, 84.000000)" fill="#F8FAFE" stroke="#779EEA">
                <path d="M12.7044024,1 C13.5918094,1 14.3952056,1.35969274 14.9767501,1.94123722 C15.5582945,2.52278169 15.9179873,3.32617791 15.9179873,4.21354795 L15.9177119,11.672037 C16.2892257,11.5871041 16.6606484,11.5240238 17.0306366,11.4819905 C17.4055725,11.4393951 17.7867923,11.4175322 18.1731218,11.4175322 L22.9490814,11.4175322 C25.4483333,11.4175322 27.7109813,12.4305542 29.3488163,14.0683891 C30.9866513,15.7062241 31.9996733,17.9688721 31.9996733,20.468124 C31.9996733,20.8415962 31.9765563,21.2147104 31.930455,21.5853264 L31.7253254,23.234397 C31.4139168,25.737862 30.194416,27.9292627 28.4220777,29.4947972 C26.6497393,31.0603317 24.3245634,32 21.8018047,32 L18.1731218,32 C16.065224,32 14.1095274,31.3480514 12.4971146,30.2342659 C10.7685699,29.0402616 9.43396003,27.3163117 8.72902791,25.2968272 L3.10940369,20.5812975 C2.42961052,20.0108833 2.04537935,19.2189295 1.97370002,18.399631 C1.90202069,17.5803325 2.1428932,16.7336893 2.7133074,16.0538961 C3.2837216,15.3741029 4.07567535,14.9898718 4.89497385,14.9181924 C5.71427235,14.8465131 6.5609156,15.0873856 7.24143965,15.6584125 L9.49028819,17.5417685 L9.49081755,4.21358487 C9.49081755,3.32617791 9.85051029,2.52278169 10.4320548,1.94123722 C11.0135992,1.35969274 11.8169955,1 12.7044024,1 Z" id="Combined-Shape" stroke-width="2"></path>
                <path d="M11,30 L30,30 C31.6568542,30 33,31.3431458 33,33 C33,34.6568542 31.6568542,36 30,36 L11,36 C9.34314575,36 8,34.6568542 8,33 C8,31.3431458 9.34314575,30 11,30 Z" id="Rectangle-19" stroke-width="2.21"></path>
            </g>
        </g>
    </g>
</svg>