<?xml version="1.0" encoding="UTF-8"?>
<svg width="218px" height="58px" viewBox="0 0 218 58" version="1.1" xmlns="http://www.w3.org/2000/svg" xmlns:xlink="http://www.w3.org/1999/xlink">
    <title>编组 21</title>
    <defs>
        <filter x="-3.3%" y="-2.4%" width="106.6%" height="104.7%" filterUnits="objectBoundingBox" id="filter-1">
            <feOffset dx="0" dy="2" in="SourceAlpha" result="shadowOffsetOuter1"></feOffset>
            <feGaussianBlur stdDeviation="2" in="shadowOffsetOuter1" result="shadowBlurOuter1"></feGaussianBlur>
            <feColorMatrix values="0 0 0 0 0   0 0 0 0 0   0 0 0 0 0  0 0 0 0.5 0" type="matrix" in="shadowBlurOuter1" result="shadowMatrixOuter1"></feColorMatrix>
            <feMerge>
                <feMergeNode in="shadowMatrixOuter1"></feMergeNode>
                <feMergeNode in="SourceGraphic"></feMergeNode>
            </feMerge>
        </filter>
        <linearGradient x1="54.2852897%" y1="51.9061584%" x2="185.430902%" y2="219.69321%" id="linearGradient-2">
            <stop stop-color="#FFAA00" offset="0%"></stop>
            <stop stop-color="#FFA700" offset="41%"></stop>
            <stop stop-color="#FF9C00" offset="75%"></stop>
            <stop stop-color="#FF9500" offset="90%"></stop>
        </linearGradient>
        <linearGradient x1="6.3260368%" y1="-9.47439657%" x2="137.471649%" y2="158.312655%" id="linearGradient-3">
            <stop stop-color="#FFAA00" offset="0%"></stop>
            <stop stop-color="#FFA700" offset="41%"></stop>
            <stop stop-color="#FF9C00" offset="75%"></stop>
            <stop stop-color="#FF9500" offset="90%"></stop>
        </linearGradient>
        <linearGradient x1="73.0460857%" y1="75.9305211%" x2="204.191698%" y2="243.717573%" id="linearGradient-4">
            <stop stop-color="#FFAA00" offset="0%"></stop>
            <stop stop-color="#FFA700" offset="41%"></stop>
            <stop stop-color="#FF9C00" offset="75%"></stop>
            <stop stop-color="#FF9500" offset="90%"></stop>
        </linearGradient>
        <linearGradient x1="-38.603669%" y1="105.745375%" x2="38.0156832%" y2="28.8900979%" id="linearGradient-5">
            <stop stop-color="#0000FF" offset="0%"></stop>
            <stop stop-color="#3FA9F5" offset="84%"></stop>
        </linearGradient>
    </defs>
    <g id="版本3" stroke="none" stroke-width="1" fill="none" fill-rule="evenodd">
        <g id="画板" transform="translate(-851.000000, -317.000000)" fill-rule="nonzero">
            <g id="编组-5" filter="url(#filter-1)" transform="translate(770.000000, 260.000000)">
                <g id="编组-21" transform="translate(90.000000, 66.000000)">
                    <path d="M95.5551455,11.7391304 C94.1046198,10.9989777 92.5587625,10.4634606 90.9615865,10.1478261 C88.54758,9.6173913 87.3991903,8.79202899 87.5164172,7.67173913 C87.6336441,6.49202899 88.5468564,5.87246377 90.256054,5.81304348 C92.1939165,5.81304348 93.3690803,6.62681159 93.7815454,8.25434783 C93.8528893,8.52082656 94.1197746,8.68500025 94.3893888,8.62826087 L97.6674011,7.95869565 C97.8095613,7.93018941 97.9334311,7.84365382 98.0092319,7.7198922 C98.0850327,7.59613059 98.1059087,7.44633686 98.0668411,7.30652174 C97.1044224,3.95724638 94.4414897,2.31014493 90.0780427,2.36521739 C85.6885454,2.5942029 83.3063784,4.34202899 82.9315416,7.60869565 L82.9206873,7.73043478 C82.8295108,10.6449275 84.5662061,12.4818841 88.1307732,13.2413043 C89.3088315,13.5311594 90.6048403,13.9144928 92.0187997,14.3913043 C93.3386881,14.9086957 94.0152757,15.7057971 94.0485623,16.7826087 L94.0485623,16.9478261 C93.9038377,18.3681159 92.8755694,19.1065217 90.9637573,19.1630435 C88.5454092,19.1630435 87.0981631,18.007971 86.6220191,15.6978261 C86.5682585,15.415138 86.2968752,15.2287857 86.0141758,15.2804348 L82.7448469,15.8804348 C82.6029741,15.9068122 82.4781814,15.9904653 82.3997576,16.1117608 C82.3213339,16.2330563 82.2961841,16.3813145 82.3302109,16.5217391 C83.3432832,20.5797101 86.2471824,22.5811594 91.0419086,22.526087 C95.9625453,22.4072464 98.5234472,20.4826087 98.7246144,16.7521739 L98.7246144,16.6217391 C98.6522521,14.415942 97.5957625,12.7884058 95.5551455,11.7391304 Z M118.258095,2.66738679 L114.886735,2.66738679 C114.597791,2.66738679 114.363555,2.90195516 114.363555,3.19130435 L114.363555,10.0152174 C114.363555,10.3045666 114.12932,10.5391304 113.840376,10.5391304 L106.40732,10.5391304 C106.118376,10.5391304 105.884141,10.3045666 105.884141,10.0152174 L105.884141,3.19130435 C105.884141,2.90195516 105.649905,2.66738679 105.360961,2.66738679 L101.991772,2.66738679 C101.852641,2.66681318 101.71901,2.72175568 101.620425,2.82007116 C101.521839,2.91838665 101.466422,3.05197649 101.466422,3.19130435 L101.466422,21.6913043 C101.466422,21.8306322 101.521839,21.964222 101.620425,22.0625375 C101.71901,22.160853 101.852641,22.2157955 101.991772,22.2152219 L105.360961,22.2152219 C105.649905,22.2152219 105.884141,21.9806535 105.884141,21.6913043 L105.884141,14.8673913 C105.884141,14.5780421 106.118376,14.3434783 106.40732,14.3434783 L113.842547,14.3434783 C114.131491,14.3434783 114.365726,14.5780421 114.365726,14.8673913 L114.365726,21.6913043 C114.365726,21.9806535 114.599962,22.2152219 114.888906,22.2152219 L118.260265,22.2152219 C118.54921,22.2152219 118.783445,21.9806535 118.783445,21.6913043 L118.783445,3.19130435 C118.783445,3.05197649 118.728028,2.91838665 118.629443,2.82007116 C118.530857,2.72175568 118.397226,2.66681318 118.258095,2.66738679 Z M138.399418,2.7086911 L134.941224,2.7086911 C134.65228,2.7086911 134.418044,2.94325951 134.418044,3.2326087 L134.418044,13.8543478 C134.418044,17.2152174 133.034477,18.8956522 130.267343,18.8956522 C127.380087,18.8391304 125.907514,17.1884058 125.849624,13.9434783 L125.849624,3.2326087 C125.849624,2.94325951 125.615388,2.7086911 125.326444,2.7086911 L121.957256,2.7086911 C121.818323,2.70811474 121.684913,2.76312599 121.586671,2.86150496 C121.48843,2.95988392 121.433496,3.09348104 121.434072,3.2326087 L121.434072,13.9434783 C121.490519,19.6637681 124.346659,22.523913 130.002496,22.523913 C135.949231,22.523913 138.922598,19.6043478 138.922598,13.7652174 L138.922598,3.2326087 C138.922598,3.09365832 138.867477,2.96039898 138.769362,2.86214623 C138.671247,2.76389348 138.538174,2.7086911 138.399418,2.7086911 L138.399418,2.7086911 Z M77.6563297,2.41086957 C78.9415911,2.41086957 79.9835014,3.45277982 79.9835014,4.73804125 L79.9835014,20.2293501 C79.9835014,21.5146115 78.9415911,22.5565217 77.6563297,22.5565217 C76.3710683,22.5565217 75.329158,21.5146115 75.329158,20.2293501 L75.329158,4.73804125 C75.329158,3.45277982 76.3710683,2.41086957 77.6563297,2.41086957 Z M72.4180226,21.7826087 L64.8199807,2.76304348 C64.7349611,2.55066143 64.5296338,2.41129047 64.301143,2.41086898 L60.1439286,2.41086898 C59.9123589,2.4105377 59.7040808,2.55188271 59.6185783,2.7673913 C59.4014914,3.29565217 58.9673176,4.37608696 58.4159168,5.77826087 L57.8970791,7.0826087 L57.0287315,9.25652174 L51.8403543,22.2456522 C51.8259046,22.2822223 51.8206851,22.3217967 51.8251582,22.3608696 C51.8349128,22.4351697 51.8791904,22.5004699 51.944556,22.5369565 C51.9785355,22.5554607 52.0165915,22.5651748 52.0552703,22.5652174 L56.0301317,22.5652174 C56.126263,22.5709019 56.2146444,22.5124884 56.2472186,22.4217391 L56.787765,21.0717391 L56.9397258,20.6913043 L57.1720088,20.1108696 L57.2914066,19.8086957 L57.7841939,18.5782609 L57.7841939,18.5673913 L57.7841939,18.5673913 L61.9718004,8.08478261 C62.0121411,7.98137056 62.1116688,7.9133028 62.2225358,7.9133028 C62.3334028,7.9133028 62.4329305,7.98137056 62.4732712,8.08478261 C63.0594058,9.55 63.9472913,11.9065217 65.0783141,14.7195652 C65.1163496,14.8142226 65.0982285,14.9222394 65.0313928,14.999254 C64.9645572,15.0762686 64.8602724,15.1093001 64.7613672,15.0847826 C63.289518,14.7 61.9674587,14.9652174 61.4377666,15.2304348 C60.6888168,15.6043478 60.6453994,16.2891304 61.1729206,16.5543478 C63.0246719,17.3478261 66.7933007,20.0608696 68.0914804,22.1413043 L68.1131891,22.1847826 C68.2060003,22.4154962 68.4292336,22.5668198 68.6776151,22.5673913 L71.9035266,22.5673913 C72.0916669,22.5655249 72.2665084,22.4699014 72.3697664,22.3123976 C72.4730244,22.1548937 72.4911207,21.9562211 72.4180226,21.7826087 Z M148.682825,21.1108696 L148.682825,3.26086957 C148.682825,2.76141205 149.087149,2.35652174 149.585907,2.35652174 L157.513921,2.35652174 C160.778908,2.35652174 163.400594,3.30434783 165.378979,5.2 C167.357365,7.09565217 168.345834,9.43623188 168.344387,12.2217391 C168.39783,14.8853265 167.282174,17.4384065 165.292145,19.2065217 C163.255869,21.0789855 160.34184,22.0152174 156.550055,22.0152174 L149.585907,22.0152174 C149.087149,22.0152174 148.682825,21.6103271 148.682825,21.1108696 L148.682825,21.1108696 Z M153.135278,18.2152174 C153.135278,18.7146749 153.539601,19.1195652 154.038359,19.1195652 L156.734579,19.1195652 C158.665205,19.1195652 160.303488,18.5246377 161.649426,17.3347826 C162.995365,16.1449275 163.668335,14.3731884 163.668335,12.0195652 C163.668335,10.0992754 163.080029,8.47463768 161.903418,7.14565217 C160.726807,5.81666667 159.173188,5.15144928 157.242562,5.15 L154.027505,5.15 C153.528747,5.15 153.124423,5.55489031 153.124423,6.05434783 L153.135278,18.2152174 Z M176.003213,22.0152174 L173.011755,22.0152174 C172.64488,22.0152174 172.347469,21.7173894 172.347469,21.35 L172.347469,3.01956522 C172.347469,2.84333785 172.417525,2.67435986 172.542165,2.54995241 C172.666806,2.42554495 172.835776,2.35594394 173.011755,2.35651817 L176.003213,2.35651817 C176.179193,2.35594394 176.348162,2.42554495 176.472803,2.54995241 C176.597444,2.67435986 176.667499,2.84333785 176.667499,3.01956522 L176.667499,21.35 C176.667499,21.7173894 176.370088,22.0152174 176.003213,22.0152174 Z M185.528987,22.0152208 L182.659098,22.0152208 C182.259851,22.0152208 181.936198,21.6911105 181.936198,21.2913043 L181.936198,3.08043478 C181.936198,2.68062865 182.259851,2.35652174 182.659098,2.35652174 L191.748527,2.35652174 C194.5475,2.35652174 196.622128,2.93623188 197.972408,4.09565217 C199.322689,5.25507246 199.998553,6.62101449 200,8.19347826 C200,9.98913043 199.268417,11.4434783 197.805251,12.5565217 C196.342086,13.6695652 194.48744,14.2268116 192.241314,14.2282609 L186.976956,14.2282609 C186.578556,14.2282591 186.255253,14.5510431 186.254057,14.95 L186.254057,21.2956522 C186.251666,21.6946088 185.92739,22.0164227 185.528987,22.0152208 Z M186.251886,10.4608696 C186.251886,10.8606757 186.575539,11.1847826 186.974785,11.1847826 L191.359941,11.1847826 C192.695749,11.1847826 193.713887,10.915942 194.414354,10.3782609 C195.097243,9.88051812 195.491791,9.07812082 195.469396,8.2326087 C195.470924,7.43003668 195.113248,6.66900855 194.494676,6.15869565 C193.844862,5.57898551 192.671146,5.28913043 190.973526,5.28913043 L186.974785,5.28913043 C186.575539,5.28913043 186.251886,5.61323734 186.251886,6.01304348 L186.251886,10.4608696 Z M54.5365737,37.826087 L54.5365737,30.7391304 L56.0040812,30.7391304 C57.0634654,30.7391304 57.8297822,30.826087 58.3095442,30.9956522 C58.9718921,31.2185553 59.5390475,31.6600393 59.9181582,32.2478261 C60.316015,32.8839918 60.517636,33.6235493 60.4977803,34.373913 C60.5119227,35.0279767 60.3539492,35.6742521 60.0397269,36.2478261 C59.765849,36.753823 59.3510373,37.1692163 58.8457489,37.4434783 C58.3551325,37.7 57.6713087,37.8282609 56.787765,37.8282609 L54.5365737,37.826087 Z M55.2138849,37.1565217 L56.0323025,37.1565217 C57.0113645,37.1565217 57.6886757,37.0956522 58.0685778,36.973913 C58.5817432,36.8149106 59.0247433,36.4841135 59.3233401,36.0369565 C59.6409041,35.545179 59.8007322,34.9679291 59.7813935,34.3826087 C59.7988403,33.7616541 59.6261217,33.1502225 59.2864353,32.6304348 C58.9562845,32.1464877 58.4668354,31.7940827 57.9035917,31.6347826 C57.4694179,31.5 56.7313224,31.4326087 55.7153556,31.4326087 L55.2138849,31.4326087 L55.2138849,37.1565217 Z M66.1659195,36.0869565 L66.7346872,36.3847826 C66.5722238,36.717002 66.3516545,37.0173969 66.0834265,37.2717391 C65.8437607,37.4940314 65.5637188,37.668196 65.2584962,37.7847826 C64.9271357,37.9069622 64.5760532,37.9666635 64.2229917,37.9608696 C63.4620264,38.0004771 62.724485,37.6908035 62.2192795,37.1195652 C61.7520591,36.5976499 61.4951904,35.9204874 61.4985509,35.2195652 C61.4909457,34.5740901 61.706461,33.9458384 62.1085652,33.4413043 C62.5991089,32.7922349 63.3736384,32.4218521 64.1860869,32.4478261 C65.0212162,32.4207018 65.8178738,32.7997459 66.324393,33.4652174 C66.7146907,33.980021 66.9183465,34.6125459 66.9018442,35.2586957 L62.1975708,35.2586957 C62.1897186,35.8147187 62.398393,36.351951 62.7793637,36.7565217 C63.1407818,37.1393091 63.6471348,37.3509803 64.1730617,37.3391304 C64.4383334,37.3395609 64.7015406,37.2924411 64.9502328,37.2 C65.1886604,37.1190641 65.4096363,36.9936689 65.6014936,36.8304348 C65.8264799,36.6129573 66.016834,36.3622173 66.1659195,36.0869565 Z M66.1659195,34.673913 C66.0998517,34.3592179 65.9665477,34.0625713 65.7751631,33.8043478 C65.5909231,33.5803717 65.357688,33.4018529 65.0935102,33.2826087 C64.813989,33.1525266 64.5095135,33.0850178 64.201283,33.0847826 C63.7126768,33.0758268 63.2390645,33.2538748 62.8770528,33.5826087 C62.5735801,33.8789935 62.3611542,34.2561635 62.2648677,34.6695652 L66.1659195,34.673913 Z M73.2472946,33.673913 L72.7132608,34.0065217 C72.275299,33.4049005 71.5675977,33.0603288 70.8246046,33.0869565 C70.2335836,33.0681382 69.660204,33.2901245 69.2355284,33.7021739 C68.824014,34.0902926 68.5947062,34.6339855 68.6038055,35.2 C68.6017354,35.5818788 68.702206,35.9572946 68.894702,36.2869565 C69.0826704,36.6180607 69.3593928,36.8899 69.6935818,37.0717391 C70.0422335,37.2597091 70.4330147,37.3554838 70.8289464,37.35 C71.5681717,37.3647471 72.2693653,37.0225572 72.7132608,36.4304348 L73.2472946,36.7826087 C72.9947738,37.1570481 72.6470518,37.4572287 72.2400113,37.6521739 C71.7895826,37.8648053 71.2964558,37.9711547 70.7985542,37.9630435 C70.0339099,37.9875196 69.2915375,37.7031582 68.7383994,37.173913 C68.2062396,36.6773214 67.9088953,35.9783329 67.9199818,35.25 C67.9174,34.7527635 68.0502449,34.2642312 68.3042256,33.8369565 C68.5525609,33.4055538 68.9165255,33.0523746 69.3549262,32.8173913 C69.8142601,32.5697256 70.3290141,32.4432881 70.8506551,32.45 C71.1912299,32.4496581 71.5297189,32.5032173 71.8535966,32.6086957 C72.1481311,32.7008113 72.4254082,32.8411134 72.6741851,33.023913 C72.9060376,33.2007412 73.1007898,33.4216221 73.2472946,33.673913 Z M74.7669029,30.4347826 C74.9152529,30.432068 75.0578856,30.4920419 75.1598302,30.6 C75.3171936,30.7593602 75.363745,30.9976965 75.2779362,31.2046858 C75.1921275,31.4116752 74.9907042,31.5469236 74.7669029,31.5478261 C74.4625162,31.5454469 74.216682,31.2982988 74.2155022,30.9934783 C74.2135445,30.8455003 74.2724168,30.7032227 74.3783174,30.6 C74.4790798,30.4929415 74.6200035,30.433024 74.7669029,30.4347826 Z M74.4325891,32.5934783 L75.1055585,32.5934783 L75.1055585,37.826087 L74.4325891,37.826087 L74.4325891,32.5934783 Z M79.1455459,33.1586957 L78.7113721,33.6065217 C78.4419252,33.3000686 78.0630189,33.1119113 77.6563297,33.0826087 C77.4477972,33.0790117 77.2460859,33.1570017 77.0940746,33.3 C76.9464759,33.4269602 76.8609749,33.6116793 76.8596207,33.8065217 C76.8634647,33.986823 76.9320563,34.1597001 77.0528281,34.2934783 C77.286401,34.5265531 77.5609055,34.7144802 77.8625623,34.8478261 C78.2524345,35.0237269 78.6008515,35.2800354 78.8850416,35.6 C79.0595223,35.8389616 79.1524005,36.1278974 79.1498877,36.423913 C79.1555839,36.8335356 78.9912802,37.2271579 78.696176,37.5108696 C78.3965487,37.8093035 77.9875668,37.971239 77.5651532,37.9586957 C77.2644156,37.9600274 76.9673696,37.8923547 76.6968056,37.7608696 C76.4302652,37.6355966 76.1967919,37.4494496 76.0151527,37.2173913 L76.4493265,36.7347826 C76.7089099,37.0782891 77.1053885,37.2910996 77.534761,37.3173913 C77.789701,37.3242747 78.037301,37.2314894 78.2250974,37.0586957 C78.4054391,36.9062723 78.5094892,36.6819724 78.5094813,36.4456522 C78.5105266,36.2571253 78.4443209,36.0744189 78.3227865,35.9304348 C78.0731503,35.6978393 77.7862071,35.5089702 77.4739767,35.3717391 C77.1005815,35.2080381 76.768885,34.9620751 76.5035982,34.6521739 C76.3343635,34.4152951 76.2453506,34.1303591 76.2496065,33.8391304 C76.2390488,33.4654763 76.3864625,33.1047141 76.6555591,32.8456522 C76.9313498,32.5803775 77.3023415,32.4377295 77.684551,32.45 C78.1693784,32.45 78.6563767,32.6862319 79.1455459,33.1586957 Z M80.5718069,30.4347826 C80.7201569,30.432068 80.8627895,30.4920419 80.9647342,30.6 C81.1220976,30.7593602 81.1686489,30.9976965 81.0828402,31.2046858 C80.9970315,31.4116752 80.7956082,31.5469236 80.5718069,31.5478261 C80.2674201,31.5454469 80.0215859,31.2982988 80.0204062,30.9934783 C80.0184485,30.8455003 80.0773207,30.7032227 80.1832214,30.6 C80.2839838,30.4929415 80.4249075,30.433024 80.5718069,30.4347826 Z M80.2374931,32.5934783 L80.9104625,32.5934783 L80.9104625,37.826087 L80.2374931,37.826087 L80.2374931,32.5934783 Z M84.7898056,32.45 C85.553403,32.4313532 86.2866994,32.7492426 86.7956887,33.3195652 C87.7755489,34.4074244 87.7576049,36.0662605 86.7544421,37.1326087 C86.2346047,37.6583393 85.5264515,37.9541297 84.7876347,37.9541297 C84.048818,37.9541297 83.3406648,37.6583393 82.8208273,37.1326087 C81.8182503,36.0677087 81.8003017,34.4103359 82.7795808,33.323913 C83.2887556,32.7508053 84.0240129,32.431164 84.7898056,32.45 Z M84.7898056,33.1021739 C84.2425281,33.0960563 83.7181683,33.3218867 83.3461776,33.723913 C82.949516,34.1225924 82.7316835,34.6655833 82.742676,35.2282609 C82.7365296,35.6049491 82.83096,35.9764459 83.0162055,36.3043478 C83.1881529,36.6216577 83.4453256,36.8844621 83.7586428,37.0630435 C84.3984644,37.4194887 85.176805,37.4194887 85.8166267,37.0630435 C86.1299438,36.8844621 86.3871165,36.6216577 86.5590639,36.3043478 C86.742092,35.9817695 86.837173,35.6166566 86.8347643,35.2456522 C86.8449321,34.6827039 86.6263359,34.1397623 86.2290918,33.7413043 C85.8580308,33.3382021 85.3351026,33.1094945 84.7876347,33.1108696 L84.7898056,33.1021739 Z M88.7646669,32.5847826 L89.4376364,32.5847826 L89.4376364,33.526087 C89.6743634,33.1945758 89.9802986,32.9186254 90.3342053,32.7173913 C90.661689,32.5386561 91.0293238,32.4466185 91.4022729,32.45 C91.7717045,32.443784 92.1345643,32.5482525 92.4442901,32.75 C92.7430476,32.9450595 92.976671,33.225195 93.1150886,33.5543478 C93.2852221,34.0614964 93.3588575,34.5961012 93.3321755,35.1304348 L93.3321755,37.826087 L92.6570352,37.826087 L92.6570352,35.326087 C92.6719624,34.9210187 92.6472413,34.5154601 92.5832257,34.1152174 C92.5287499,33.8100008 92.3698673,33.5332959 92.1338558,33.3326087 C91.8828811,33.1482291 91.5764568,33.0554057 91.2655081,33.0695652 C90.8670719,33.0701365 90.4820135,33.2135791 90.1800736,33.473913 C89.8663039,33.7320101 89.6433826,34.0840034 89.5440089,34.4782609 C89.4618861,34.9489126 89.4291449,35.426875 89.4463198,35.9043478 L89.4463198,37.826087 L88.7733504,37.826087 L88.7646669,32.5847826 Z M97.5132694,30.7391304 L98.2122893,30.7391304 L98.2122893,37.826087 L97.504586,37.826087 L97.5132694,30.7391304 Z M99.7318977,32.5847826 L100.404867,32.5847826 L100.404867,33.526087 C100.641382,33.1951825 100.946468,32.9193296 101.299265,32.7173913 C101.626958,32.5391943 101.994452,32.4471922 102.367333,32.45 C102.736835,32.4432501 103.099848,32.5477627 103.40935,32.75 C103.709361,32.944224 103.943898,33.2245476 104.082319,33.5543478 C104.252252,34.0615435 104.325882,34.5961102 104.299406,35.1304348 L104.299406,37.826087 L103.626437,37.826087 L103.626437,35.326087 C103.641012,34.9209427 103.615562,34.5153478 103.550456,34.1152174 C103.497602,33.8099208 103.339319,33.5329229 103.103257,33.3326087 C102.852283,33.1482291 102.545858,33.0554057 102.23491,33.0695652 C101.836473,33.0701365 101.451415,33.2135791 101.149475,33.473913 C100.83582,33.7325049 100.612323,34.0842065 100.51124,34.4782609 C100.431299,34.9491624 100.399295,35.4269736 100.415721,35.9043478 L100.415721,37.826087 L99.7318977,37.826087 L99.7318977,32.5847826 Z M106.329169,30.6391304 L107.002138,30.6391304 L107.002138,32.5847826 L108.070206,32.5847826 L108.070206,33.1695652 L107.002138,33.1695652 L107.002138,37.826087 L106.329169,37.826087 L106.329169,33.1695652 L105.40872,33.1695652 L105.40872,32.5847826 L106.329169,32.5847826 L106.329169,30.6391304 Z M113.488695,36.0869565 L114.057463,36.3847826 C113.895692,36.7174213 113.675036,37.0179333 113.406202,37.2717391 C113.167678,37.4944474 112.888259,37.668683 112.583443,37.7847826 C112.251979,37.9065757 111.900969,37.9662647 111.547938,37.9608696 C110.786973,38.0004771 110.049432,37.6908035 109.544226,37.1195652 C109.076218,36.5979739 108.818562,35.9207757 108.821327,35.2195652 C108.814516,34.5738543 109.030787,33.9456328 109.433512,33.4413043 C109.92337,32.7925823 110.697093,32.4221981 111.508863,32.4478261 C112.344068,32.4203362 113.140884,32.799456 113.647169,33.4652174 C114.039652,33.9789963 114.244248,34.612059 114.226791,35.2586957 L109.518176,35.2586957 C109.511138,35.8149797 109.720574,36.352169 110.102139,36.7565217 C110.462888,37.1389704 110.968438,37.3506355 111.493666,37.3391304 C111.759659,37.3397268 112.023608,37.2926059 112.273008,37.2 C112.511436,37.1190641 112.732412,36.9936689 112.924269,36.8304348 C113.147992,36.6118357 113.338192,36.3612979 113.488695,36.0869565 Z M113.488695,34.673913 C113.421975,34.3590403 113.287925,34.0623807 113.095768,33.8043478 C112.911967,33.5799166 112.678616,33.4013095 112.414115,33.2826087 C112.135439,33.1523016 111.831618,33.0847737 111.524059,33.0847826 C111.03482,33.0759301 110.560567,33.2539274 110.197658,33.5826087 C109.895712,33.8801675 109.683552,34.2568651 109.585473,34.6695652 L113.488695,34.673913 Z M115.386035,30.5608696 L116.059004,30.5608696 L116.059004,37.826087 L115.386035,37.826087 L115.386035,30.5608696 Z M117.357184,30.5608696 L118.032324,30.5608696 L118.032324,37.826087 L117.357184,37.826087 L117.357184,30.5608696 Z M119.664818,30.4347826 C119.813168,30.432068 119.9558,30.4920419 120.057745,30.6 C120.216463,30.7583911 120.264175,30.9969762 120.178605,31.2043573 C120.093035,31.4117384 119.891062,31.5470085 119.666989,31.5470085 C119.442916,31.5470085 119.240942,31.4117384 119.155372,31.2043573 C119.069802,30.9969762 119.117515,30.7583911 119.276232,30.6 C119.377302,30.4933848 119.518023,30.4335536 119.664818,30.4347826 Z M119.330504,32.5934783 L120.005644,32.5934783 L120.005644,37.826087 L119.330504,37.826087 L119.330504,32.5934783 Z M125.919092,32.5847826 L126.592061,32.5847826 L126.592061,36.7630435 C126.618349,37.3084819 126.55304,37.8544708 126.398854,38.3782609 C126.234243,38.846578 125.908783,39.2410678 125.480576,39.4913043 C125.001341,39.7626642 124.456982,39.8972529 123.906696,39.8804348 C123.495847,39.886466 123.086965,39.8225115 122.697522,39.6913043 C122.375509,39.5828081 122.079724,39.4080503 121.829174,39.1782609 C121.567158,38.9058752 121.357433,38.5875305 121.210477,38.2391304 L121.939889,38.2391304 C122.119389,38.5638679 122.387429,38.8307756 122.712718,39.0086957 C123.076095,39.1878677 123.478007,39.2744856 123.882816,39.2608696 C124.286148,39.2731105 124.686137,39.1841826 125.046402,39.0021739 C125.333139,38.8588021 125.569412,38.6312975 125.723713,38.35 C125.883583,37.9514332 125.952558,37.5221469 125.925604,37.0934783 L125.925604,36.823913 C125.67818,37.1405102 125.359912,37.3944395 124.996472,37.5652174 C124.187568,37.9402646 123.247797,37.9022326 122.471752,37.4630435 C122.062055,37.2373062 121.721944,36.903485 121.488348,36.4978261 C121.019441,35.6562866 121.029059,34.629361 121.513644,33.7967764 C121.99823,32.9641919 122.885772,32.4496747 123.848083,32.4434326 C124.227131,32.4411962 124.601827,32.5244138 124.944371,32.6869565 C125.32408,32.882367 125.658418,33.1556939 125.925604,33.4891304 L125.919092,32.5847826 Z M123.930576,33.1021739 C123.557987,33.0994332 123.191201,33.1946314 122.86685,33.3782609 C122.545139,33.5584854 122.279244,33.8240014 122.098362,34.1456522 C121.913033,34.4666956 121.816376,34.8313525 121.81832,35.2021739 C121.802437,35.7376203 122.011978,36.2551056 122.395771,36.6282609 C122.798312,37.0115802 123.338622,37.2154607 123.893671,37.1934783 C124.447055,37.2182055 124.986532,37.0156179 125.387229,36.6326087 C125.772584,36.243525 125.97733,35.7104376 125.951655,35.1630435 C125.957693,34.7944842 125.868717,34.4305937 125.693321,34.1065217 C125.520865,33.7972043 125.265122,33.5426092 124.955226,33.3717391 C124.643409,33.1929252 124.289894,33.0999224 123.930576,33.1021739 Z M132.444724,36.0869565 L133.011321,36.3847826 C132.848858,36.717002 132.628288,37.0173969 132.36006,37.2717391 C132.120843,37.4935406 131.84161,37.6676607 131.537301,37.7847826 C131.205142,37.9067908 130.853381,37.9664825 130.499626,37.9608696 C129.647198,37.9608696 128.980017,37.6804348 128.498084,37.1195652 C127.57872,36.0815194 127.531224,34.5339263 128.385199,33.4413043 C128.875979,32.7925257 129.650349,32.4222193 130.462721,32.4478261 C131.29785,32.4207018 132.094508,32.7997459 132.601027,33.4652174 C132.991325,33.980021 133.19498,34.6125459 133.178478,35.2586957 L128.474205,35.2586957 C128.466352,35.8147187 128.675027,36.351951 129.055998,36.7565217 C129.417574,37.1390798 129.92382,37.3507064 130.449696,37.3391304 C130.714984,37.339749 130.978224,37.2926232 131.226867,37.2 C131.464956,37.1183095 131.685798,36.9929904 131.878127,36.8304348 C132.102619,36.6119866 132.293557,36.3614411 132.444724,36.0869565 L132.444724,36.0869565 Z M132.444724,34.673913 C132.377034,34.35936 132.243073,34.0628998 132.051797,33.8043478 C131.867996,33.5799166 131.634645,33.4013095 131.370144,33.2826087 C131.09069,33.1523268 130.78617,33.0848081 130.477917,33.0847826 C129.989311,33.0758268 129.515698,33.2538748 129.153687,33.5826087 C128.850984,33.8795858 128.638692,34.2565167 128.541502,34.6695652 L132.444724,34.673913 Z M134.441924,32.5847826 L135.117064,32.5847826 L135.117064,33.526087 C135.35301,33.1946742 135.658218,32.9187109 136.011462,32.7173913 C136.339155,32.5391943 136.706649,32.4471922 137.07953,32.45 C137.449032,32.4432501 137.812045,32.5477627 138.121547,32.75 C138.421482,32.9437292 138.655445,33.224272 138.792346,33.5543478 C138.963546,34.0612451 139.037209,34.596054 139.009432,35.1304348 L139.009432,37.826087 L138.336463,37.826087 L138.336463,35.326087 C138.351038,34.9209427 138.325588,34.5153478 138.260483,34.1152174 C138.206007,33.8100008 138.047124,33.5332959 137.811113,33.3326087 C137.560138,33.1482291 137.253714,33.0554057 136.942765,33.0695652 C136.544224,33.0695569 136.158971,33.213072 135.85733,33.473913 C135.542988,33.731895 135.319336,34.0838411 135.219095,34.4782609 C135.139154,34.9491624 135.10715,35.4269736 135.123577,35.9043478 L135.123577,37.826087 L134.450607,37.826087 L134.441924,32.5847826 Z M145.537236,33.673913 L145.003202,34.0065217 C144.564987,33.4052034 143.857457,33.0607151 143.114546,33.0869565 C142.522977,33.0652104 141.947935,33.2848801 141.521128,33.6956522 C141.109614,34.0837709 140.880306,34.6274637 140.889405,35.1934783 C140.887335,35.575357 140.987805,35.9507729 141.180302,36.2804348 C141.368048,36.6109609 141.643897,36.8826809 141.97701,37.0652174 C142.326514,37.2530065 142.717946,37.3487577 143.114546,37.3434783 C143.853771,37.3582253 144.554965,37.0160354 144.99886,36.423913 L145.532894,36.776087 C145.280373,37.1505263 144.932651,37.450707 144.525611,37.6456522 C144.075182,37.8582836 143.582055,37.964633 143.084154,37.9565217 C142.319468,37.9812444 141.577004,37.6968477 141.023999,37.1673913 C140.491839,36.6707997 140.194495,35.9718112 140.205581,35.2434783 C140.203215,34.7465599 140.335243,34.2582705 140.587654,33.8304348 C140.837403,33.3993799 141.201942,33.0463726 141.640526,32.8108696 C142.09986,32.5632039 142.614614,32.4367664 143.136255,32.4434783 C143.476829,32.4431364 143.815318,32.4966956 144.139196,32.6021739 C144.433731,32.6942896 144.711008,32.8345916 144.959785,33.0173913 C145.193858,33.1957 145.390154,33.4188752 145.537236,33.673913 L145.537236,33.673913 Z M151.235767,36.0869565 L151.802364,36.3847826 C151.640675,36.7174713 151.42001,37.0179974 151.151103,37.2717391 C150.912246,37.4940116 150.632916,37.6681914 150.328344,37.7847826 C149.996881,37.9065757 149.64587,37.9662647 149.292839,37.9608696 C148.437517,37.9608696 147.769613,37.6804348 147.289127,37.1195652 C146.821119,36.5979739 146.563463,35.9207757 146.566228,35.2195652 C146.559417,34.5738543 146.775689,33.9456328 147.178413,33.4413043 C147.668034,32.7922911 148.441917,32.4218302 149.253764,32.4478261 C150.093491,32.4216192 150.893497,32.8059659 151.398582,33.4782609 C151.78888,33.9930645 151.992536,34.6255894 151.976034,35.2717391 L147.273931,35.2717391 C147.265973,35.8281903 147.47554,36.3657141 147.857895,36.7695652 C148.218485,37.1522436 148.724141,37.3639534 149.249422,37.3521739 C149.51471,37.3527924 149.777951,37.3056667 150.026593,37.2130435 C150.264682,37.131353 150.485524,37.0060339 150.677854,36.8434783 C150.900309,36.6204478 151.088343,36.3654755 151.235767,36.0869565 L151.235767,36.0869565 Z M151.235767,34.673913 C151.168077,34.35936 151.034116,34.0628998 150.84284,33.8043478 C150.659039,33.5799166 150.425688,33.4013095 150.161187,33.2826087 C149.881824,33.1520583 149.577244,33.0845263 149.26896,33.0847826 C148.780354,33.0758268 148.306741,33.2538748 147.94473,33.5826087 C147.642784,33.8801675 147.430624,34.2568651 147.332545,34.6695652 L151.235767,34.673913 Z M156.065951,30.7391304 L157.477016,30.7391304 C158.024091,30.7197735 158.571724,30.7554596 159.11168,30.8456522 C159.501179,30.9353071 159.850046,31.1516483 160.103768,31.4608696 C160.610267,32.1572921 160.610267,33.1014036 160.103768,33.7978261 C159.837997,34.1140126 159.474259,34.3321023 159.070434,34.4173913 C158.475737,34.5144706 157.872983,34.5530602 157.270783,34.5326087 L156.764971,34.5326087 L156.764971,37.826087 L156.065951,37.826087 L156.065951,30.7391304 Z M156.773654,31.4347826 L156.773654,33.8391304 L157.971974,33.8521739 C158.331363,33.8692215 158.691037,33.825118 159.0357,33.7217391 C159.253639,33.6363878 159.439043,33.4842046 159.565392,33.2869565 C159.691074,33.0928064 159.757465,32.8661559 159.756428,32.6347826 C159.759148,32.4031743 159.692617,32.1760467 159.565392,31.9826087 C159.445449,31.7912552 159.26741,31.6434435 159.057409,31.5608696 C158.722466,31.4612181 158.373043,31.4193168 158.024075,31.4369565 L156.773654,31.4347826 Z M161.692844,30.5608696 L162.365813,30.5608696 L162.365813,37.826087 L161.692844,37.826087 L161.692844,30.5608696 Z M168.982622,32.5847826 L168.982622,37.826087 L168.318336,37.826087 L168.318336,36.926087 C168.060414,37.2498543 167.736184,37.514495 167.367496,37.7021739 C167.008104,37.875664 166.613721,37.9641713 166.214764,37.9608696 C165.497338,37.9704718 164.808884,37.6778233 164.317424,37.1543478 C163.801293,36.6357586 163.516992,35.9298917 163.529399,35.1978261 C163.517475,34.4703231 163.804783,33.7699132 164.323937,33.2608696 C164.820806,32.7373874 165.51315,32.4450924 166.234302,32.4543478 C166.640403,32.4484022 167.041654,32.5432542 167.402229,32.7304348 C167.768186,32.9289153 168.082094,33.2112327 168.318336,33.5543478 L168.318336,32.5891304 L168.982622,32.5847826 Z M166.290744,33.1021739 C165.543838,33.094819 164.853644,33.5001561 164.495436,34.1565217 C164.307103,34.4783118 164.207466,34.8444072 164.20671,35.2173913 C164.207956,35.5890502 164.305977,35.9539577 164.491094,36.276087 C164.67001,36.6020915 164.933195,36.8739048 165.253069,37.0630435 C165.562907,37.2478353 165.917095,37.3447723 166.277719,37.343491 C166.645433,37.343491 167.00681,37.2476038 167.326249,37.0652174 C167.645767,36.8891968 167.909714,36.6271393 168.088224,36.3086957 C168.269284,35.9801903 168.361339,35.6099534 168.355241,35.2347826 C168.371131,34.6669346 168.154693,34.1172301 167.756081,33.7130435 C167.37424,33.3134582 166.84294,33.0919697 166.290744,33.1021739 Z M171.084023,30.6391304 L171.759164,30.6391304 L171.759164,32.5847826 L172.827231,32.5847826 L172.827231,33.1695652 L171.759164,33.1695652 L171.759164,37.826087 L171.084023,37.826087 L171.084023,33.1695652 L170.165746,33.1695652 L170.165746,32.5847826 L171.084023,32.5847826 L171.084023,30.6391304 Z M175.992359,30.5608696 L175.992359,31.2130435 C175.793778,31.1182445 175.578232,31.0642823 175.358465,31.0543478 C175.243794,31.049516 175.130113,31.0774107 175.030664,31.1347826 C174.95571,31.1733966 174.897704,31.2384546 174.867848,31.3173913 C174.835168,31.4995069 174.823513,31.6847824 174.833114,31.8695652 L174.833114,32.576087 L175.918549,32.576087 L175.918549,33.1608696 L174.833114,33.1608696 L174.833114,37.8195652 L174.160145,37.8195652 L174.160145,33.1695652 L173.47198,33.1695652 L173.47198,32.5847826 L174.160145,32.5847826 L174.160145,31.7673913 C174.145641,31.494601 174.180201,31.2214203 174.262176,30.9608696 C174.335095,30.7975622 174.458346,30.6619475 174.613857,30.573913 C174.796531,30.4712321 175.003616,30.4201397 175.213017,30.426087 C175.477775,30.4346706 175.740061,30.4800314 175.992359,30.5608696 Z M179.402794,32.45 C180.166737,32.4295659 180.900752,32.7477668 181.408677,33.3195652 C182.388537,34.4074244 182.370593,36.0662605 181.36743,37.1326087 C180.847593,37.6583393 180.13944,37.9541297 179.400623,37.9541297 C178.661806,37.9541297 177.953653,37.6583393 177.433816,37.1326087 C176.431239,36.0677087 176.41329,34.4103359 177.392569,33.323913 C177.901744,32.7508053 178.637001,32.431164 179.402794,32.45 Z M179.402794,33.1021739 C178.855516,33.0960563 178.331157,33.3218867 177.959166,33.723913 C177.563353,34.1231521 177.345671,34.6657672 177.355664,35.2282609 C177.353256,35.5992653 177.448337,35.9643782 177.631365,36.2869565 C177.80424,36.6035791 178.06119,36.8661561 178.373802,37.0456522 C179.013624,37.4020974 179.791964,37.4020974 180.431786,37.0456522 C180.745198,36.8664734 181.002928,36.6038676 181.176394,36.2869565 C181.357816,35.9638259 181.452085,35.598956 181.449923,35.2282609 C181.460091,34.6653126 181.241495,34.122371 180.844251,33.723913 C180.471081,33.3258861 179.947938,33.1033963 179.402794,33.1108696 L179.402794,33.1021739 Z M183.130176,32.5847826 L183.818342,32.5847826 L183.818342,33.3521739 C183.988836,33.0854467 184.210137,32.8549709 184.469602,32.673913 C184.680779,32.5336276 184.928235,32.458078 185.181647,32.4565217 C185.392506,32.4643674 185.597921,32.5257045 185.778636,32.6347826 L185.426956,33.2043478 C185.315417,33.150805 185.194442,33.1197801 185.070933,33.1130435 C184.82694,33.1199703 184.59447,33.2185209 184.419672,33.3891304 C184.18081,33.6273601 184.015079,33.9291126 183.942081,34.2586957 C183.835041,34.8559974 183.793548,35.4632298 183.818342,36.0695652 L183.818342,37.826087 L183.130176,37.826087 L183.130176,32.5847826 Z M186.618763,32.5847826 L187.291732,32.5847826 L187.291732,33.4913043 C187.481687,33.2014202 187.727442,32.9523642 188.014632,32.7586957 C188.337612,32.5586866 188.709469,32.4518631 189.089212,32.45 C189.337992,32.4489279 189.58424,32.5000239 189.812111,32.6 C190.025415,32.689225 190.216052,32.8251612 190.370025,32.9978261 C190.540191,33.2080662 190.667761,33.4495335 190.745585,33.7086957 C190.941763,33.3300939 191.230865,33.0076707 191.585711,32.7717391 C191.909018,32.5620231 192.285938,32.4502982 192.671146,32.45 C193.010797,32.4429955 193.344591,32.5392568 193.628499,32.726087 C193.908647,32.9111107 194.124763,33.1784069 194.247197,33.4913043 C194.402007,33.9665227 194.46967,34.4658712 194.446917,34.9652174 L194.446917,37.826087 L193.758751,37.826087 L193.758751,34.9652174 C193.779642,34.575111 193.739354,34.1841359 193.639354,33.8065217 C193.559229,33.598074 193.415699,33.4201217 193.229059,33.2978261 C193.022572,33.1660294 192.781313,33.0993818 192.536552,33.1065217 C192.215188,33.1044696 191.901662,33.2058228 191.642154,33.3956522 C191.373046,33.5879346 191.166827,33.8557146 191.049507,34.1652174 C190.898836,34.6881586 190.83575,35.2324894 190.862812,35.776087 L190.862812,37.826087 L190.189843,37.826087 L190.189843,35.1434783 C190.211848,34.7102606 190.171638,34.2761229 190.070445,33.8543478 C189.995375,33.6338381 189.851542,33.4433161 189.66015,33.3108696 C189.454328,33.1709902 189.209777,33.0994994 188.961131,33.1065217 C188.64983,33.1087232 188.346714,33.2066149 188.092783,33.3869565 C187.821629,33.5754674 187.612369,33.8402463 187.491452,34.1478261 C187.338433,34.6181477 187.272227,35.1124441 187.296074,35.6065217 L187.296074,37.826087 L186.623105,37.826087 L186.618763,32.5847826 Z" id="形状结合" fill="#FFFFFF"></path>
                    <rect id="矩形" fill="url(#linearGradient-2)" x="18.1180736" y="30.3630435" width="9.62346275" height="9.63695652" rx="1"></rect>
                    <rect id="矩形" fill="url(#linearGradient-3)" x="30.283624" y="30.3630435" width="9.62346275" height="9.63695652" rx="1"></rect>
                    <rect id="矩形" fill="url(#linearGradient-4)" x="30.3118453" y="17.0565217" width="9.62346275" height="9.63695652" rx="1"></rect>
                    <path d="M38.8129688,0 L27.8761302,0 C27.2795985,0.00704239874 26.7977282,0.489588384 26.7906957,1.08695652 L26.7906957,11.3043478 L24.8651348,13.273913 L15.0397812,13.273913 L13.1142203,11.3521739 L13.1142203,1.08695652 C13.1071877,0.489588384 12.6253174,0.00704239874 12.0287857,0 L1.08543455,0 C0.488419128,0.00589060031 0.00588235223,0.489103977 0,1.08695652 L0,12.0369565 C0.00588235223,12.6348091 0.488419128,13.1180224 1.08543455,13.123913 L11.6532254,13.123913 L13.250985,14.723913 L13.250985,25.1521739 L11.609808,26.8304348 L1.40672318,26.8304348 C0.810191485,26.8374772 0.328321166,27.3200232 0.321288628,27.9173913 L0.321288628,38.8695652 C0.321288628,39.4698747 0.807254231,39.9565217 1.40672318,39.9565217 L12.3413909,39.9565217 C12.9408598,39.9565217 13.4268254,39.4698747 13.4268254,38.8695652 L13.4268254,28.2434783 L14.9464338,26.6934783 L25.5533003,26.6934783 C26.1503157,26.6875877 26.6328525,26.2043743 26.6387348,25.6065217 L26.6387348,14.7369565 L28.1974188,13.1413043 L38.8042853,13.1413043 C39.400817,13.1342619 39.8826873,12.651716 39.8897198,12.0543478 L39.8897198,1.08695652 C39.8828003,0.492911948 39.4061068,0.0117003981 38.8129688,0 L38.8129688,0 Z" id="路径" fill="url(#linearGradient-5)"></path>
                </g>
            </g>
        </g>
    </g>
</svg>