<?xml version="1.0" encoding="UTF-8"?>
<svg width="134px" height="74px" viewBox="0 0 134 74" version="1.1" xmlns="http://www.w3.org/2000/svg" xmlns:xlink="http://www.w3.org/1999/xlink">
    <title>undraw_mind_map_re_nlb6</title>
    <g id="页面-1" stroke="none" stroke-width="1" fill="none" fill-rule="evenodd">
        <g id="undraw_mind_map_re_nlb6">
            <g id="编组-27" transform="translate(19.000000, 1.000000)" fill="#3F3D56" fill-rule="nonzero">
                <path d="M94.6586826,0 L1.34131737,0 C0.600868819,0.00082543105 0,0.603680371 0,1.34759358 L0,70.6524064 C0,71.3963196 0.600868819,71.9991746 1.34131737,72 L94.6586826,72 C95.3991312,71.9991746 96,71.3963196 96,70.6524064 L96,1.34759358 C96,0.603680371 95.3991312,0.00082543105 94.6586826,0 Z M95.6167665,70.6524064 C95.6167665,71.1839294 95.1877301,71.6149733 94.6586826,71.6149733 L1.34131737,71.6149733 C0.812269903,71.6149733 0.383233533,71.1839294 0.383233533,70.6524064 L0.383233533,1.34759358 C0.383233533,0.816070631 0.812269903,0.385026738 1.34131737,0.385026738 L94.6586826,0.385026738 C95.1877301,0.385026738 95.6167665,0.816070631 95.6167665,1.34759358 L95.6167665,70.6524064 Z" id="形状"></path>
                <rect id="矩形" x="0.191616766" y="5.39806332" width="95.6167665" height="1"></rect>
                <ellipse id="椭圆形" cx="3.4491018" cy="2.88769283" rx="1.1497006" ry="1.15508021"></ellipse>
                <ellipse id="椭圆形" cx="6.75449102" cy="2.88769283" rx="1.1497006" ry="1.15508021"></ellipse>
                <ellipse id="椭圆形" cx="10.0598802" cy="2.88769283" rx="1.1497006" ry="1.15508021"></ellipse>
            </g>
            <g id="编组-29" transform="translate(28.723785, 18.057950)" fill-rule="nonzero">
                <path d="M75.654311,38 L0.236025023,38 C0.105674949,38 0,37.8943264 0,37.7639763 L0,1.61598991 C0,1.48563689 0.105672002,1.37996489 0.236025023,1.37996489 C0.366378044,1.37996489 0.472050046,1.48563689 0.472050046,1.61598991 L0.472050046,37.5279513 L75.654311,37.5279513 C75.7388256,37.5276636 75.8170437,37.5725864 75.8593842,37.6457305 C75.9017248,37.7188747 75.9017248,37.8090752 75.8593842,37.8822194 C75.8170437,37.9553636 75.7388256,38 75.654311,38 L75.654311,38 Z" id="路径" fill="#3F3D56"></path>
                <path d="M16.3496281,35.4037261 L9.49004146,35.4037261 C9.10328855,35.4032964 8.78986122,35.089896 8.78939827,34.7031431 L8.78939827,25.2471608 C8.78986122,24.8604079 9.10328855,24.5470075 9.49004146,24.5465778 L16.3496281,24.5465778 C16.73638,24.547009 17.0498057,24.860409 17.0502686,25.2471608 L17.0502686,34.7031349 C17.0498102,35.0898899 16.7363832,35.4032949 16.3496281,35.4037261 Z" id="路径" fill="#126EE3"></path>
                <path d="M28.8589434,35.4037261 L21.9993567,35.4037261 C21.6126043,35.4032964 21.2991777,35.0898955 21.2987163,34.7031431 L21.2987163,16.2782236 C21.2991792,15.8914718 21.6126049,15.5780718 21.9993567,15.5776406 L28.8589434,15.5776406 C29.2456953,15.5780718 29.5591209,15.8914718 29.5595839,16.2782236 L29.5595839,34.7031431 C29.5591224,35.0898955 29.2456959,35.4032964 28.8589434,35.4037261 Z" id="路径" fill="#126EE3"></path>
                <path d="M41.3682587,35.4037261 L34.5086748,35.4037261 C34.1219229,35.4032949 33.8084973,35.0898949 33.8080343,34.7031431 L33.8080343,25.2471608 C33.8084973,24.860409 34.1219229,24.547009 34.5086748,24.5465778 L41.3682614,24.5465778 C41.7550144,24.5470075 42.0684417,24.8604079 42.0689046,25.2471608 L42.0689046,34.7031349 C42.0684462,35.0898921 41.7550159,35.4032979 41.3682587,35.4037261 Z" id="路径" fill="#126EE3"></path>
                <path d="M53.8775767,35.4038881 L47.0179873,35.4038881 C46.6400654,35.4118593 46.3267618,35.1127739 46.3173468,34.7348818 L46.3173468,12.706115 C46.3267603,12.3282218 46.6400644,12.0291348 47.0179873,12.037106 L53.8775767,12.037106 C54.2554996,12.0291348 54.5688037,12.3282218 54.5782172,12.706115 L54.5782172,34.7348818 C54.5688022,35.1127739 54.2554986,35.4118593 53.8775767,35.4038881 L53.8775767,35.4038881 Z" id="路径" fill="#126EE3"></path>
                <path d="M66.386892,35.4037261 L59.5273053,35.4037261 C59.1405529,35.4032964 58.8271263,35.0898955 58.8266649,34.7031431 L58.8266649,6.36518081 C58.8271278,5.978429 59.1405535,5.66502905 59.5273053,5.66459782 L66.386892,5.66459782 C66.7736439,5.66502905 67.0870695,5.978429 67.0875325,6.36518081 L67.0875325,34.7031431 C67.0870695,35.0898949 66.7736439,35.4032949 66.386892,35.4037261 L66.386892,35.4037261 Z" id="路径" fill="#126EE3"></path>
                <circle id="椭圆形" fill="#3F3D56" cx="12.9198334" cy="20.2981383" r="1.41615014"></circle>
                <circle id="椭圆形" fill="#3F3D56" cx="25.4291487" cy="11.0931706" r="1.41615014"></circle>
                <circle id="椭圆形" fill="#3F3D56" cx="37.9384667" cy="20.2981383" r="1.41615014"></circle>
                <circle id="椭圆形" fill="#3F3D56" cx="50.447782" cy="6.60869791" r="1.41615014"></circle>
                <circle id="椭圆形" fill="#3F3D56" cx="62.9570973" cy="1.41615014" r="1.41615014"></circle>
                <polygon id="路径" fill="#3F3D56" points="37.968186 20.6153722 25.4292199 11.223461 13.0612744 20.4870382 12.7783377 20.1091508 25.4292199 10.6335079 37.908534 19.9808169 50.3098627 6.40998003 50.3596639 6.38973118 62.8688041 1.34940827 63.0452975 1.78749497 50.5856849 6.80756902"></polygon>
            </g>
            <rect id="矩形" x="0" y="0" width="134" height="74"></rect>
        </g>
    </g>
</svg>