<?xml version="1.0" encoding="UTF-8"?>
<svg width="134px" height="74px" viewBox="0 0 134 74" version="1.1" xmlns="http://www.w3.org/2000/svg" xmlns:xlink="http://www.w3.org/1999/xlink">
    <title>undraw_mind_map_re_nlb6</title>
    <g id="页面-1" stroke="none" stroke-width="1" fill="none" fill-rule="evenodd">
        <g id="undraw_mind_map_re_nlb6">
            <g id="编组-27" transform="translate(19.000000, 1.000000)" fill="#3F3D56" fill-rule="nonzero">
                <path d="M95.1016043,7.10542736e-15 L1.34759358,7.10542736e-15 C0.603680371,0.00082543105 0,0.603680371 0,1.34759358 L0,70.6524064 C0,71.3963196 0.603680371,71.9991746 1.34759358,72 L95.1016043,72 C95.8455175,71.9991746 96.4491979,71.3963196 96.4491979,70.6524064 L96.4491979,1.34759358 C96.4491979,0.603680371 95.8455175,0.00082543105 95.1016043,7.10542736e-15 Z M96.0641711,70.6524064 C96.0641711,71.1839294 95.6331272,71.6149733 95.1016043,71.6149733 L1.34759358,71.6149733 C0.816070631,71.6149733 0.385026738,71.1839294 0.385026738,70.6524064 L0.385026738,1.34759358 C0.385026738,0.816070631 0.816070631,0.385026738 1.34759358,0.385026738 L95.1016043,0.385026738 C95.6331272,0.385026738 96.0641711,0.816070631 96.0641711,1.34759358 L96.0641711,70.6524064 Z" id="形状"></path>
                <rect id="矩形" x="0.192513369" y="5.39806332" width="96.0641711" height="1"></rect>
                <circle id="椭圆形" cx="3.46524064" cy="2.88769283" r="1.15508021"></circle>
                <circle id="椭圆形" cx="6.78609626" cy="2.88769283" r="1.15508021"></circle>
                <circle id="椭圆形" cx="10.1069519" cy="2.88769283" r="1.15508021"></circle>
            </g>
            <path d="M77.1049318,60.9303224 C76.9986096,60.9303224 76.9124184,60.8441312 76.9124184,60.737809 L76.9124184,52.8447609 C76.9124184,52.7384387 76.9986096,52.6522475 77.1049318,52.6522475 C77.211254,52.6522475 77.2974451,52.7384387 77.2974451,52.8447609 L77.2974451,60.737809 C77.2974398,60.844129 77.2112518,60.9303224 77.1049318,60.9303224 L77.1049318,60.9303224 Z" id="路径" fill="#3F3D56" fill-rule="nonzero"></path>
            <path d="M76.8410248,49.764547 C76.807035,49.764547 76.7736502,49.7555552 76.7442984,49.7384152 L65.8066148,43.3654526 C65.7149295,43.3118346 65.6839764,43.1941012 65.7374357,43.1023234 C65.7908951,43.0105456 65.9085748,42.9793889 66.0004449,43.0326894 L76.9381266,49.405652 C77.0133247,49.449468 77.0497791,49.5382816 77.027049,49.6222932 C77.0043189,49.7063047 76.9280569,49.7646219 76.8410248,49.764547 L76.8410248,49.764547 Z" id="路径" fill="#3F3D56" fill-rule="nonzero"></path>
            <path d="M54.9660811,49.764547 C54.8790489,49.7646238 54.8027869,49.7063067 54.7800568,49.6222951 C54.7573267,49.5382835 54.7937811,49.4494699 54.8689793,49.4056539 L65.8066148,43.0326913 C65.8984555,42.9797187 66.0158397,43.0109574 66.0692024,43.102572 C66.1225652,43.1941867 66.091826,43.3117027 66.0004391,43.3654545 L55.0627921,49.7384171 C55.033428,49.7555142 55.0000599,49.764547 54.9660811,49.764547 L54.9660811,49.764547 Z" id="路径" fill="#3F3D56" fill-rule="nonzero"></path>
            <path d="M88.1993136,59.3902155 C88.1653238,59.3902155 88.131939,59.3812236 88.1025872,59.3640836 L77.1649035,52.9911211 C77.0732183,52.9375031 77.0422651,52.8197697 77.0957245,52.7279918 C77.1491839,52.636214 77.2668636,52.6050573 77.3587337,52.6583579 L88.2964154,59.0313204 C88.3716135,59.0751364 88.4080679,59.1639501 88.3853378,59.2479616 C88.3626077,59.3319732 88.2863457,59.3902904 88.1993136,59.3902155 L88.1993136,59.3902155 Z" id="路径" fill="#3F3D56" fill-rule="nonzero"></path>
            <path d="M66.3243698,59.3902155 C66.2373377,59.3902923 66.1610757,59.3319751 66.1383456,59.2479636 C66.1156155,59.163952 66.1520699,59.0751383 66.227268,59.0313224 L77.1649035,52.6583598 C77.2567443,52.6053872 77.3741285,52.6366259 77.4274912,52.7282405 C77.4808539,52.8198551 77.4501148,52.9373711 77.3587279,52.991123 L66.4210809,59.3640856 C66.3917179,59.3811853 66.358349,59.3902155 66.3243698,59.3902155 L66.3243698,59.3902155 Z" id="路径" fill="#3F3D56" fill-rule="nonzero"></path>
            <path d="M65.9391564,39.9463709 C65.8330111,39.9463709 65.7468861,39.8604684 65.746643,39.7543234 L65.7288291,32.7493048 C65.7286994,32.6982453 65.7488606,32.649226 65.7848771,32.6130334 C65.8208935,32.5768408 65.8698139,32.5564405 65.9208734,32.5563217 L65.9213431,32.5563217 C66.0274887,32.5563217 66.1136134,32.64222 66.1138565,32.7483653 L66.1316704,39.7533878 C66.1318001,39.8044473 66.1116388,39.8534666 66.0756224,39.8896593 C66.039606,39.9258519 65.9906856,39.9462521 65.9396261,39.9463709 L65.9391564,39.9463709 Z" id="路径" fill="#3F3D56" fill-rule="nonzero"></path>
            <path d="M68.4290453,43.5879519 L63.4136871,43.5879519 C62.9354606,43.5874129 62.5479159,43.1998682 62.5473769,42.7216417 L62.5473769,40.1455529 C62.5479159,39.6673265 62.9354606,39.2797817 63.4136871,39.2792428 L68.4290453,39.2792428 C68.9072718,39.2797817 69.2948166,39.6673265 69.2953555,40.1455529 L69.2953555,42.7216417 C69.2948166,43.1998682 68.9072718,43.5874129 68.4290453,43.5879519 Z" id="路径" fill="#CCCCCC" fill-rule="nonzero"></path>
            <path d="M60.1281288,30.4931887 L49.4564447,30.4931887 C49.3501225,30.4931887 49.2639313,30.4069975 49.2639313,30.3006753 C49.2639313,30.1943531 49.3501225,30.1081619 49.4564447,30.1081619 L60.1281288,30.1081619 C60.234451,30.1081619 60.3206421,30.1943531 60.3206421,30.3006753 C60.3206421,30.4069975 60.234451,30.4931887 60.1281288,30.4931887 Z" id="路径" fill="#3F3D56" fill-rule="nonzero"></path>
            <path d="M65.9213431,27.7434817 C65.8150231,27.7434817 65.7288297,27.6572883 65.7288297,27.5509683 L65.7288297,20.8875416 C65.7288297,20.7812194 65.8150209,20.6950282 65.9213431,20.6950282 C66.0276653,20.6950282 66.1138565,20.7812194 66.1138565,20.8875416 L66.1138565,27.5509683 C66.1138501,27.6572879 66.0276627,27.7434817 65.9213431,27.7434817 L65.9213431,27.7434817 Z" id="路径" fill="#3F3D56" fill-rule="nonzero"></path>
            <path d="M45.3044338,30.4931887 C45.2699528,30.4931887 45.2361065,30.4839148 45.2064618,30.4663042 L34.8463433,24.3258978 C34.7551729,24.2715499 34.7251831,24.1536689 34.7792971,24.0623595 C34.8334112,23.9710501 34.9512149,23.9407582 35.0426627,23.9946381 L45.4027831,30.1350445 C45.4774097,30.1792891 45.5132266,30.2679799 45.4902529,30.3516395 C45.4672791,30.4352991 45.3911904,30.4932595 45.3044338,30.4931887 L45.3044338,30.4931887 Z" id="路径" fill="#3F3D56" fill-rule="nonzero"></path>
            <path d="M34.9446907,36.6335951 C34.8579331,36.6336684 34.7818434,36.5757073 34.75887,36.4920466 C34.7358965,36.408386 34.771715,36.3196946 34.8463433,36.2754509 L45.2064618,30.1350445 C45.2979361,30.0808319 45.4160387,30.1110384 45.4702513,30.2025127 C45.524464,30.293987 45.4942574,30.4120896 45.4027831,30.4663022 L35.0426627,36.6067087 C35.0130179,36.6243192 34.9791718,36.6335951 34.9446907,36.6335951 L34.9446907,36.6335951 Z" id="路径" fill="#3F3D56" fill-rule="nonzero"></path>
            <path d="M48.6863912,33.5984062 L46.1102794,33.5984062 C45.6320494,33.5978757 45.2444997,33.210326 45.2439692,32.732096 L45.2439692,27.7167859 C45.2444997,27.2385559 45.6320494,26.8510062 46.1102794,26.8504757 L48.6863912,26.8504757 C49.1646212,26.8510062 49.5521709,27.2385559 49.5527014,27.7167859 L49.5527014,32.732096 C49.5521709,33.210326 49.1646212,33.5978757 48.6863912,33.5984062 Z" id="路径" fill="#CCCCCC" fill-rule="nonzero"></path>
            <path d="M68.4290453,21.4055797 L63.4136871,21.4055797 C62.9354606,21.4050407 62.5479159,21.017496 62.5473769,20.5392695 L62.5473769,17.9630883 C62.5479159,17.4848619 62.9354606,17.0973171 63.4136871,17.0967782 L68.4290453,17.0967782 C68.9072718,17.0973171 69.2948166,17.4848619 69.2953555,17.9630883 L69.2953555,20.5392695 C69.2948166,21.017496 68.9072718,21.4050407 68.4290453,21.4055797 Z" id="路径" fill="#CCCCCC" fill-rule="nonzero"></path>
            <path d="M34.2478886,27.6304918 L31.6717767,27.6304918 C31.1935467,27.6299613 30.805997,27.2424116 30.8054665,26.7641816 L30.8054665,21.7488714 C30.805997,21.2706415 31.1935467,20.8830918 31.6717767,20.8825613 L34.2478886,20.8825613 C34.7261185,20.8830918 35.1136682,21.2706415 35.1141987,21.7488714 L35.1141987,26.7641816 C35.1136682,27.2424116 34.7261185,27.6299613 34.2478886,27.6304918 Z" id="路径" fill="#CCCCCC" fill-rule="nonzero"></path>
            <path d="M34.2478886,39.758834 L31.6717767,39.758834 C31.1935467,39.7583035 30.805997,39.3707538 30.8054665,38.8925239 L30.8054665,33.8772137 C30.805997,33.3989837 31.1935467,33.011434 31.6717767,33.0109035 L34.2478886,33.0109035 C34.7261185,33.011434 35.1136682,33.3989837 35.1141987,33.8772137 L35.1141987,38.8925239 C35.1136682,39.3707538 34.7261185,39.7583035 34.2478886,39.758834 Z" id="路径" fill="#CCCCCC" fill-rule="nonzero"></path>
            <path d="M82.3862646,30.4931887 L71.7145574,30.4931887 C71.6082352,30.4931887 71.5220441,30.4069975 71.5220441,30.3006753 C71.5220441,30.1943531 71.6082352,30.1081619 71.7145574,30.1081619 L82.3862646,30.1081619 C82.4925868,30.1081619 82.578778,30.1943531 82.578778,30.3006753 C82.578778,30.4069975 82.4925868,30.4931887 82.3862646,30.4931887 Z" id="路径" fill="#3F3D56" fill-rule="nonzero"></path>
            <path d="M86.5382736,30.4931888 C86.4515059,30.4932787 86.3754009,30.4353138 86.3524297,30.3516421 C86.3294584,30.2679704 86.3652987,30.1792722 86.4399493,30.1350464 L96.8000447,23.99464 C96.8592185,23.9595792 96.9326022,23.9587505 96.9925527,23.9924661 C97.0525032,24.0261818 97.0899126,24.0893195 97.0907016,24.158096 C97.0914659,24.2268725 97.0554917,24.2908389 96.9963179,24.3258997 L86.6362225,30.4663061 C86.6065859,30.4839158 86.5727471,30.4931888 86.5382736,30.4931888 Z" id="路径" fill="#3F3D56" fill-rule="nonzero"></path>
            <path d="M96.8979936,36.6335971 C96.86352,36.6335971 96.8296814,36.6243202 96.8000447,36.6067106 L86.4399493,30.4663042 C86.348475,30.4121048 86.3182577,30.294013 86.372457,30.2025387 C86.4266563,30.1110644 86.5447482,30.0808471 86.6362225,30.1350464 L96.9963179,36.2754528 C97.0709705,36.3196778 97.1068123,36.4083772 97.0838408,36.4920502 C97.0608694,36.5757232 96.9847625,36.6336885 96.8979936,36.6335971 L96.8979936,36.6335971 Z" id="路径" fill="#3F3D56" fill-rule="nonzero"></path>
            <path d="M85.7324068,33.5984062 L83.1563181,33.5984062 C82.6780916,33.5978673 82.2905469,33.2103225 82.2900079,32.732096 L82.2900079,27.7167859 C82.2905469,27.2385594 82.6780916,26.8510147 83.1563181,26.8504757 L85.7324068,26.8504757 C86.2106333,26.8510147 86.5981781,27.2385594 86.598717,27.7167859 L86.598717,32.732096 C86.5981781,33.2103225 86.2106333,33.5978673 85.7324068,33.5984062 Z" id="路径" fill="#CCCCCC" fill-rule="nonzero"></path>
            <path d="M100.17091,27.6304918 L97.5948207,27.6304918 C97.1165943,27.6299528 96.7290495,27.2424081 96.7285106,26.7641816 L96.7285106,21.7488714 C96.7290495,21.270645 97.1165943,20.8831002 97.5948207,20.8825613 L100.17091,20.8825613 C100.649136,20.8831002 101.036681,21.270645 101.03722,21.7488714 L101.03722,26.7641816 C101.036681,27.2424081 100.649136,27.6299528 100.17091,27.6304918 L100.17091,27.6304918 Z" id="路径" fill="#CCCCCC" fill-rule="nonzero"></path>
            <path d="M100.17091,39.758834 L97.5948207,39.758834 C97.1165943,39.7582951 96.7290495,39.3707503 96.7285106,38.8925239 L96.7285106,33.8772137 C96.7290495,33.3989872 97.1165943,33.0114425 97.5948207,33.0109035 L100.17091,33.0109035 C100.649136,33.0114425 101.036681,33.3989872 101.03722,33.8772137 L101.03722,38.8925239 C101.036681,39.3707503 100.649136,39.7582951 100.17091,39.758834 L100.17091,39.758834 Z" id="路径" fill="#CCCCCC" fill-rule="nonzero"></path>
            <path d="M57.2632468,53.4061337 L52.2478886,53.4061337 C51.7696586,53.4056032 51.3821089,53.0180535 51.3815784,52.5398235 L51.3815784,49.9637348 C51.3821089,49.4855048 51.7696586,49.0979551 52.2478886,49.0974246 L57.2632468,49.0974246 C57.7414768,49.0979551 58.1290265,49.4855048 58.129557,49.9637348 L58.129557,52.5398235 C58.1290265,53.0180535 57.7414768,53.4056032 57.2632468,53.4061337 Z" id="路径" fill="#CCCCCC" fill-rule="nonzero"></path>
            <path d="M79.5591942,53.4061337 L74.5438359,53.4061337 C74.0656095,53.4055947 73.6780647,53.01805 73.6775258,52.5398235 L73.6775258,49.9637348 C73.6780647,49.4855083 74.0656095,49.0979636 74.5438359,49.0974246 L79.5591942,49.0974246 C80.0374207,49.0979636 80.4249654,49.4855083 80.4255044,49.9637348 L80.4255044,52.5398235 C80.4249654,53.01805 80.0374207,53.4055947 79.5591942,53.4061337 Z" id="路径" fill="#CCCCCC" fill-rule="nonzero"></path>
            <path d="M69.3559857,62.8392888 L64.3406274,62.8392888 C63.8624009,62.8387498 63.4748562,62.4512051 63.4743172,61.9729786 L63.4743172,59.3968898 C63.4748562,58.9186634 63.8624009,58.5311186 64.3406274,58.5305797 L69.3559857,58.5305797 C69.8342121,58.5311186 70.2217569,58.9186634 70.2222958,59.3968898 L70.2222958,61.9729786 C70.2217569,62.4512051 69.8342121,62.8387498 69.3559857,62.8392888 Z" id="路径" fill="#CCCCCC" fill-rule="nonzero"></path>
            <path d="M90.7249696,62.8392888 L85.7096113,62.8392888 C85.2313849,62.8387498 84.8438401,62.4512051 84.8433012,61.9729786 L84.8433012,59.3968898 C84.8438401,58.9186634 85.2313849,58.5311186 85.7096113,58.5305797 L90.7249696,58.5305797 C91.2031961,58.5311186 91.5907408,58.9186634 91.5912798,59.3968898 L91.5912798,61.9729786 C91.5907408,62.4512051 91.2031961,62.8387498 90.7249696,62.8392888 L90.7249696,62.8392888 Z" id="路径" fill="#CCCCCC" fill-rule="nonzero"></path>
            <path d="M79.5591942,62.8392888 L74.5438359,62.8392888 C74.0656095,62.8387498 73.6780647,62.4512051 73.6775258,61.9729786 L73.6775258,59.3968898 C73.6780647,58.9186634 74.0656095,58.5311186 74.5438359,58.5305797 L79.5591942,58.5305797 C80.0374207,58.5311186 80.4249654,58.9186634 80.4255044,59.3968898 L80.4255044,61.9729786 C80.4249654,62.4512051 80.0374207,62.8387498 79.5591942,62.8392888 Z" id="路径" fill="#CCCCCC" fill-rule="nonzero"></path>
            <path d="M72.0180856,33.6496379 L59.8246103,33.6496379 C59.3463838,33.6490989 58.9588391,33.2615542 58.9583001,32.7833277 L58.9583001,27.8180229 C58.9588391,27.3397964 59.3463838,26.9522517 59.8246103,26.9517127 L72.0180952,26.9517127 C72.4963217,26.9522517 72.8838664,27.3397964 72.8844053,27.8180229 L72.8844053,32.7833277 C72.8838664,33.2615579 72.4963158,33.6491042 72.0180856,33.6496379 Z" id="路径" fill="#126EE3" fill-rule="nonzero"></path>
            <rect id="矩形" x="0" y="0" width="134" height="74"></rect>
        </g>
    </g>
</svg>