<?xml version="1.0" encoding="UTF-8"?>
<svg width="134px" height="74px" viewBox="0 0 134 74" version="1.1" xmlns="http://www.w3.org/2000/svg" xmlns:xlink="http://www.w3.org/1999/xlink">
    <title>undraw_stock_prices_re_js33</title>
    <g id="页面-1" stroke="none" stroke-width="1" fill="none" fill-rule="evenodd">
        <g id="undraw_stock_prices_re_js33">
            <g id="编组-25">
                <path d="M78.3594972,22.12776 C77.64048,22.12776 77.0576015,22.7106386 77.0576015,23.4296557 C77.0576015,24.1486729 77.64048,24.7315514 78.3594972,24.7315514 L83.5662356,24.7315514 C84.2852528,24.7315514 84.8681313,24.1486729 84.8681313,23.4296557 C84.8681313,22.7106386 84.2852528,22.12776 83.5662356,22.12776 L78.3594972,22.12776 Z" id="a87d1795-16f3-4774-9768-c375c1bdbb9e-2402" fill="#126EE3" fill-rule="nonzero"></path>
                <rect id="矩形" stroke="#3F3D56" stroke-width="0.45" fill="#FFFFFF" x="0.225" y="0.225" width="89.55" height="31.55" rx="5"></rect>
                <rect id="b60d1a48-178f-4eb5-a9a3-9e4316169c72" fill="#E6E6E6" fill-rule="nonzero" x="24.7559797" y="19.6023676" width="60.1128577" height="1"></rect>
                <circle id="f066d7d6-19fd-468d-830f-1318b53822b2" fill="#126EE3" fill-rule="nonzero" cx="12.1903417" cy="14.9783655" r="7.58255184"></circle>
                <polygon id="fcead4ff-5625-4c61-90c0-6a9c2def1900-2403" fill="#3F3D56" fill-rule="nonzero" points="24.8510822 17.6896429 24.6608772 17.4046236 30.9073828 13.2402865 35.1910304 15.296518 41.352232 11.3601387 41.4355188 11.395586 53.6083517 16.5884712 63.368751 11.7938638 72.8464364 15.6360051 84.7552879 5.08827233 84.9823811 5.34476091 72.9144146 16.0325538 63.3819731 12.1679336 53.6184037 16.963982 41.3841865 11.7451598 35.2146562 15.6867265 30.936196 13.6333768"></polygon>
                <path d="M25.8692525,22.3067256 C25.2544869,22.2967143 24.7480051,22.7869645 24.7379938,23.4017302 C24.7279824,24.0164958 25.2182327,24.5229776 25.8329983,24.5329889 L25.8329983,24.5329889 C25.8450907,24.533181 25.8571755,24.533181 25.8692525,24.5329889 L37.514987,24.5329889 C38.12277,24.5232091 38.6103515,24.027719 38.6103515,23.4198573 C38.6103515,22.8119956 38.12277,22.3165054 37.514987,22.3067256 L25.8692525,22.3067256 Z" id="b25442e4-8332-4a87-9c30-01930e0b437c-2404" fill="#E6E6E6" fill-rule="nonzero"></path>
            </g>
            <g id="编组-26" transform="translate(21.000000, 20.000000)">
                <rect id="矩形" stroke="#3F3D56" stroke-width="0.45" fill="#FFFFFF" x="0.225" y="0.225" width="89.55" height="31.55" rx="5"></rect>
                <path d="M78.1876254,22.1763464 C77.7225028,22.1763464 77.2927118,22.4244863 77.0601505,22.8272942 C76.8275892,23.2301022 76.8275892,23.726382 77.0601505,24.12919 C77.2927118,24.5319979 77.7225028,24.7801378 78.1876254,24.7801378 L83.39492,24.7801378 C84.1139372,24.7801378 84.6968157,24.1972592 84.6968157,23.4782421 C84.6968157,22.7592249 84.1139372,22.1763464 83.39492,22.1763464 L78.1876254,22.1763464 Z" id="f7452840-914d-46a1-ae61-ea1c2fc2d2a5-2397" fill="#126EE3" fill-rule="nonzero"></path>
                <rect id="b2c9f911-15af-4e19-9f72-89a224d6cf2b" fill="#E6E6E6" fill-rule="nonzero" x="24.5840992" y="19.6512422" width="60.1128491" height="1"></rect>
                <circle id="a570d7cb-c53f-47e1-9372-81d6b1f4b9cc" fill="#E6E6E6" fill-rule="nonzero" cx="12.0187436" cy="15.0272401" r="7.58255184"></circle>
                <polygon id="a3321d5c-167e-43b0-8c0e-18df1c8c5ae5-2398" fill="#3F3D56" fill-rule="nonzero" points="24.6797723 17.7385175 24.4898555 17.4534982 30.7363612 13.289161 35.0197206 15.3453925 41.1809222 11.4090133 41.2642089 11.4444606 53.43733 16.6373457 63.1974411 11.8427383 72.6751266 15.6851679 84.583978 18.105959 84.8110713 18.3624476 72.7431393 16.0825811 63.2106979 12.2176728 53.4468403 17.0137211 41.212623 11.7948989 35.0430639 15.7364656 30.763451 13.6822514"></polygon>
                <path d="M25.6973605,22.3558884 C25.0895775,22.3656682 24.6019961,22.8611583 24.6019961,23.46902 C24.6019961,24.0768817 25.0895775,24.5723719 25.6973605,24.5821517 L37.343095,24.5821517 C37.9573114,24.5912086 38.4627906,24.1010545 38.4726417,23.4868503 C38.4824928,22.8726461 37.9929926,22.3665337 37.3788017,22.3558884 C37.366911,22.3556963 37.3550088,22.3556963 37.343095,22.3558884 L25.6973605,22.3558884 Z" id="f7b9bcea-10c4-4c80-b4a6-3d8e323f573e-2399" fill="#E6E6E6" fill-rule="nonzero"></path>
            </g>
            <g id="编组-24" transform="translate(44.000000, 42.000000)">
                <rect id="矩形" stroke="#3F3D56" stroke-width="0.45" fill="#FFFFFF" x="0.225" y="0.225" width="89.55" height="31.55" rx="5"></rect>
                <path d="M78.1154633,21.6105121 C77.3964462,21.6105121 76.8135678,22.1933908 76.8135678,22.9124078 C76.8135678,23.6314249 77.3964462,24.2143036 78.1154633,24.2143036 L83.322758,24.2143036 C84.0417751,24.2143036 84.6246537,23.631425 84.6246537,22.9124078 C84.6246537,22.1933907 84.0417751,21.6105121 83.322758,21.6105121 L78.1154633,21.6105121 Z" id="a2204f79-048d-45a5-9dbf-3ca685e385ac-2407" fill="#126EE3" fill-rule="nonzero"></path>
                <rect id="ece8f467-8c57-41a5-b787-946f11f73852" fill="#E6E6E6" fill-rule="nonzero" x="24.5119458" y="19.085408" width="60.112852" height="1"></rect>
                <circle id="acd23665-8915-4d62-9edc-4433a6bf124b" fill="#126EE3" fill-rule="nonzero" cx="11.9466018" cy="14.4611234" r="7.58255184"></circle>
                <polygon id="b2ebcab4-d8cf-428d-87b9-c73daac40ac9-2408" fill="#3F3D56" fill-rule="nonzero" points="24.6070483 17.1726833 24.4171315 16.8876639 30.6636372 12.7230386 34.9469965 14.7792701 41.1084863 10.8417381 53.364606 16.0697823 63.1247171 11.275175 72.6012498 15.1187573 84.5101013 10.3348129 84.7371945 10.5913015 72.6707035 15.5161474 63.138262 11.6515273 53.3746927 16.4475756 41.1404754 11.2287534 34.9712044 15.1706083 30.6915916 13.1163941"></polygon>
                <path d="M25.6252187,21.7894778 C25.0174356,21.7992575 24.5298542,22.2947477 24.5298542,22.9026094 C24.5298542,23.5104711 25.0174356,24.0059613 25.6252187,24.015741 L37.2709531,24.015741 C37.6686368,24.0222168 38.0395664,23.8160389 38.2440164,23.4748726 C38.4484663,23.1337063 38.4553758,22.7093828 38.262142,22.3617408 C38.0689083,22.0140989 37.7048881,21.7959534 37.3072045,21.7894778 C37.2951217,21.7892856 37.2830379,21.7892856 37.2709531,21.7894778 L25.6252187,21.7894778 Z" id="aca123b7-0fc2-4f3d-89c1-779a89955e8d-2409" fill="#E6E6E6" fill-rule="nonzero"></path>
            </g>
            <rect id="矩形" x="0" y="0" width="134" height="74"></rect>
        </g>
    </g>
</svg>