<?xml version="1.0" encoding="UTF-8"?>
<svg width="134px" height="74px" viewBox="0 0 134 74" version="1.1" xmlns="http://www.w3.org/2000/svg" xmlns:xlink="http://www.w3.org/1999/xlink">
    <title>undraw_to_do_list_re_9nt7</title>
    <g id="页面-1" stroke="none" stroke-width="1" fill="none" fill-rule="evenodd">
        <g id="undraw_to_do_list_re_9nt7">
            <circle id="椭圆形" fill="#126EE3" fill-rule="nonzero" cx="70.8622556" cy="30.4503617" r="1.99403453"></circle>
            <path d="M70.6646008,31.2110407 C70.6197375,31.2111239 70.5760635,31.1966167 70.5401669,31.1697066 L70.5379412,31.1680362 L70.0693293,30.8092496 C70.0100759,30.7640846 69.9794739,30.6906993 69.9890843,30.6168177 C69.9986947,30.5429362 70.0470524,30.4798219 70.1158885,30.4513186 C70.1847246,30.4228154 70.2635448,30.4332686 70.3225717,30.4787292 L70.6261021,30.7114729 L71.3433947,29.7760191 C71.3769916,29.7321999 71.4266202,29.7035226 71.4813619,29.6962962 C71.5361036,29.6890699 71.5914738,29.7038867 71.6352906,29.7374867 L71.6308301,29.7435424 L71.6354057,29.7375757 C71.7265296,29.8076102 71.7437671,29.9381902 71.6739381,30.0294716 L70.8302299,31.1297891 C70.7906799,31.1811808 70.7294489,31.2112182 70.6646008,31.2110407 L70.6646008,31.2110407 Z" id="路径" fill="#FFFFFF" fill-rule="nonzero"></path>
            <circle id="椭圆形" fill="#126EE3" fill-rule="nonzero" cx="70.8622556" cy="36.279078" r="1.99403453"></circle>
            <path d="M70.6646008,37.039757 C70.6197375,37.0398403 70.5760635,37.0253331 70.5401669,36.9984229 L70.5379412,36.9967525 L70.0693293,36.6379659 C70.0100759,36.5928009 69.9794739,36.5194156 69.9890843,36.4455341 C69.9986947,36.3716525 70.0470524,36.3085382 70.1158885,36.2800349 C70.1847246,36.2515317 70.2635448,36.2619849 70.3225717,36.3074455 L70.6261021,36.5401892 L71.3433947,35.6047354 C71.3769916,35.5609162 71.4266202,35.5322389 71.4813619,35.5250126 C71.5361036,35.5177863 71.5914738,35.532603 71.6352906,35.566203 L71.6308301,35.5722587 L71.6354057,35.566292 C71.7265296,35.6363265 71.7437671,35.7669065 71.6739381,35.858188 L70.8302299,36.9585054 C70.7906799,37.0098971 70.7294489,37.0399345 70.6646008,37.039757 Z" id="路径" fill="#FFFFFF" fill-rule="nonzero"></path>
            <circle id="椭圆形" fill="#126EE3" fill-rule="nonzero" cx="71.9359665" cy="43.028118" r="1.99403453"></circle>
            <path d="M71.7383117,43.7887969 C71.6934484,43.7888802 71.6497744,43.774373 71.6138778,43.7474629 L71.6116521,43.7457925 L71.1430402,43.3870058 C71.0837868,43.3418409 71.0531848,43.2684555 71.0627952,43.194574 C71.0724056,43.1206925 71.1207633,43.0575781 71.1895994,43.0290749 C71.2584355,43.0005716 71.3372557,43.0110248 71.3962826,43.0564854 L71.699813,43.2892291 L72.4171056,42.3537754 C72.4507025,42.3099562 72.5003311,42.2812788 72.5550728,42.2740525 C72.6098145,42.2668262 72.6651847,42.2816429 72.7090015,42.315243 L72.704541,42.3212987 L72.7091166,42.3153319 C72.8002405,42.3853664 72.817478,42.5159464 72.747649,42.6072279 L71.9039408,43.7075453 C71.8643908,43.7589371 71.8031598,43.7889745 71.7383117,43.7887969 Z" id="路径" fill="#FFFFFF" fill-rule="nonzero"></path>
            <path d="M91.1639874,59.6766896 C91.1433124,59.6766896 91.1303021,59.6766896 91.1257572,59.6758874 L88.6501388,59.6766896 L88.6501388,59.3111386 L91.1347058,59.3111386 C91.192226,59.3131878 92.3658749,59.3463394 93.4472429,58.0342079 C95.0587111,56.0786659 96.3820706,51.237667 93.5351108,39.2804666 C89.7069924,23.2023192 92.8998083,8.99817319 94.4501885,3.63754268 C94.6050583,3.09984603 94.4980585,2.52062168 94.1613083,2.07374175 C93.8245582,1.62686181 93.2972637,1.36435402 92.7377086,1.36501822 L55.7661319,1.36501822 C55.1960319,1.36578258 54.6604761,1.63838539 54.3243836,2.09888121 C53.6676054,3.00233224 52.7662956,4.73793683 52.202286,7.87621279 L51.8430622,7.8116935 C52.4192815,4.60524303 53.3499097,2.81857429 54.0291453,1.88429089 C54.4340067,1.32941182 55.079253,1.00092065 55.7661319,1 L92.7377163,1 C93.4120136,0.999352083 94.047367,1.31582 94.4530689,1.85441383 C94.8587707,2.39300765 94.9875914,3.09102703 94.8008641,3.73895467 C93.2584599,9.07178067 90.0821746,23.2022287 93.8902406,39.1959839 C96.7772146,51.3213413 95.3893359,56.2672295 93.7167336,58.2811415 C92.6134895,59.6094078 91.3979153,59.6766896 91.1639874,59.6766896 Z" id="路径" fill="#3F3D56" fill-rule="nonzero"></path>
            <path d="M84.5024549,66.3382221 C84.4817799,66.3382221 84.4687696,66.3382221 84.4642247,66.3374199 L81.9886078,66.3382221 L81.9886078,65.9726711 L84.4731748,65.9726711 C84.531011,65.9744534 85.7043439,66.0078719 86.7857119,64.6957404 C88.3971802,62.7401984 89.7205396,57.8991995 86.8735798,45.9419991 C83.0454615,29.8638517 86.2382773,15.6597057 87.7886576,10.2990752 C87.9435273,9.76137853 87.8365275,9.18215418 87.4997774,8.73527425 C87.1630272,8.28839432 86.6357327,8.02588653 86.0761777,8.02655072 L49.1045979,8.02655072 C48.5344979,8.02731508 47.998942,8.29991789 47.6628496,8.76041372 C47.0060713,9.66386475 46.1047616,11.3994693 45.5407735,14.5377453 L45.1815067,14.473226 C45.7577474,11.266774 46.6883756,9.48010526 47.3676113,8.54582339 C47.7724727,7.99094432 48.4177189,7.66245316 49.1045979,7.6615325 L86.0761838,7.6615325 C86.7504811,7.66088459 87.3858345,7.9773525 87.7915364,8.51594633 C88.1972382,9.05454015 88.3260589,9.75255954 88.1393316,10.4004872 C86.5969274,15.7333132 83.4206421,29.8637612 87.2287097,45.8575164 C90.1156821,57.9828738 88.7278034,62.928762 87.0552026,64.942674 C85.951957,66.2709418 84.7363859,66.3382221 84.5024549,66.3382221 Z" id="路径" fill="#3F3D56" fill-rule="nonzero"></path>
            <path d="M80.5670698,52.5197239 C76.7584531,36.5260331 79.9350974,22.3944637 81.4781825,17.0627222 C81.6644409,16.4147799 81.5354557,15.7169746 81.129882,15.178429 C80.7243083,14.6398834 80.0892751,14.3232255 79.415093,14.3232255 L42.4426942,14.3232255 C41.7561031,14.3238978 41.1110364,14.6521207 40.7063027,15.2067362 C39.2138446,17.2590579 36.1169663,24.0648511 39.5758953,42.8962064 C41.4256798,52.9706824 41.3981176,59.8393644 40.793781,64.364289 C40.4547261,66.9120592 39.9317261,68.7158858 39.4577088,69.9322546 L39.4071539,70.0610999 C39.3073188,70.3072244 39.2552626,70.570108 39.2537667,70.8357056 C39.246694,71.4423211 39.4995938,72.0229568 39.9485788,72.4309332 C40.0933095,72.5665526 40.2571231,72.6802432 40.4348042,72.7683852 C40.5823216,72.8436395 40.738386,72.9008065 40.899609,72.9386451 C41.0637812,72.9787163 41.232194,72.9988023 41.4011854,72.9984661 L77.8030281,72.9984661 C77.8076727,72.9984661 77.8198808,73 77.8413749,73 C78.0745236,73 79.2909153,72.9325096 80.3937606,71.6041758 C82.0656665,69.5901902 83.4537922,64.6449861 80.5670698,52.5197239 Z M80.1237606,71.3572147 C79.0424095,72.6702097 77.8690122,72.6364645 77.8122405,72.6352595 L41.4011885,72.6352595 C40.8092907,72.6352595 40.2559785,72.341164 39.9240123,71.8511217 C39.6329437,71.4287695 39.5426186,70.899677 39.6770803,70.4046797 C39.6944721,70.3335959 39.7170256,70.2638754 39.7445614,70.196073 C40.2859812,68.8047859 40.6872886,67.3629678 40.9425252,65.8920262 C41.8076494,61.1753676 41.9686769,53.8971415 39.9347969,42.8302499 C36.5020082,24.138477 39.5375485,17.4354533 41.000794,15.4214784 C41.3374808,14.9616861 41.8728122,14.6894757 42.4426942,14.6882868 L79.415093,14.6882868 C79.9743367,14.6882868 80.5012466,14.9503714 80.8378084,15.397003 C81.1743702,15.8436347 81.281444,16.422481 81.1269195,16.9599527 C79.5761942,22.3208379 76.3841958,36.5260331 80.2127314,52.6040869 C83.059613,64.5606247 81.7358992,69.4015269 80.1237606,71.3572147 Z" id="形状" fill="#3F3D56" fill-rule="nonzero"></path>
            <path d="M63.0026059,31.7388654 L43.9540542,31.7388654 C43.1476847,31.7388654 42.493993,31.0851737 42.493993,30.2788042 C42.493993,29.4724346 43.1476847,28.818743 43.9540542,28.818743 L63.0026059,28.818743 C63.8089755,28.818743 64.4626671,29.4724346 64.4626671,30.2788042 C64.4626671,31.0851737 63.8089755,31.7388654 63.0026059,31.7388654 Z" id="路径" fill="#CCCCCC" fill-rule="nonzero"></path>
            <path d="M63.0026059,38.0277435 L43.9540542,38.0277435 C43.1476847,38.0277435 42.493993,37.3740519 42.493993,36.5676823 C42.493993,35.7613128 43.1476847,35.1076211 43.9540542,35.1076211 L63.0026059,35.1076211 C63.8089755,35.1076211 64.4626671,35.7613128 64.4626671,36.5676823 C64.4626671,37.3740519 63.8089755,38.0277435 63.0026059,38.0277435 Z" id="路径" fill="#CCCCCC" fill-rule="nonzero"></path>
            <path d="M64.5364786,44.4700089 L45.4879269,44.4700089 C44.6815574,44.4700089 44.0278657,43.8163173 44.0278657,43.0099477 C44.0278657,42.2035782 44.6815574,41.5498865 45.4879269,41.5498865 L64.5364786,41.5498865 C65.3428482,41.5498865 65.9965399,42.2035782 65.9965399,43.0099477 C65.9965399,43.8163173 65.3428482,44.4700089 64.5364786,44.4700089 Z" id="路径" fill="#CCCCCC" fill-rule="nonzero"></path>
            <path d="M65.6101895,51.2190489 L46.5616378,51.2190489 C45.7552683,51.2190489 45.1015766,50.5653572 45.1015766,49.7589876 C45.1015766,48.9526181 45.7552683,48.2989264 46.5616378,48.2989264 L65.6101895,48.2989264 C66.4165591,48.2989264 67.0702508,48.9526181 67.0702508,49.7589876 C67.0702508,50.5653572 66.4165591,51.2190489 65.6101895,51.2190489 Z" id="路径" fill="#CCCCCC" fill-rule="nonzero"></path>
            <path d="M65.6182669,20.4020482 L51.9301862,20.4020482 C51.4081999,20.4025825 50.9256355,20.1244133 50.6644878,19.6724488 C50.40334,19.2204843 50.40334,18.6634866 50.6644878,18.2115221 C50.9256355,17.7595576 51.4081999,17.4813885 51.9301862,17.4819227 L65.6182669,17.4819227 C66.4246369,17.4819227 67.0783289,18.1356155 67.0783289,18.9419855 C67.0783289,19.7483554 66.4246369,20.4020482 65.6182669,20.4020482 L65.6182669,20.4020482 Z" id="路径" fill="#126EE3" fill-rule="nonzero"></path>
            <circle id="椭圆形" fill="#CCCCCC" fill-rule="nonzero" cx="73.1630647" cy="49.7589846" r="1.99403453"></circle>
            <path d="M66.5305132,57.8147015 L47.4819615,57.8147015 C46.6755919,57.8147015 46.0219003,57.1610099 46.0219003,56.3546403 C46.0219003,55.5482708 46.6755919,54.8945791 47.4819615,54.8945791 L66.5305132,54.8945791 C67.3368827,54.8945791 67.9905744,55.5482708 67.9905744,56.3546403 C67.9905744,57.1610099 67.3368827,57.8147015 66.5305132,57.8147015 Z" id="路径" fill="#CCCCCC" fill-rule="nonzero"></path>
            <circle id="椭圆形" fill="#CCCCCC" fill-rule="nonzero" cx="74.0833883" cy="56.3546373" r="1.99403453"></circle>
            <rect id="矩形" x="0" y="0" width="134" height="74"></rect>
        </g>
    </g>
</svg>