<?xml version="1.0" encoding="UTF-8"?>
<svg width="134px" height="74px" viewBox="0 0 134 74" version="1.1" xmlns="http://www.w3.org/2000/svg" xmlns:xlink="http://www.w3.org/1999/xlink">
    <title>undraw_my_personal_files_re_3q0p</title>
    <g id="页面-1" stroke="none" stroke-width="1" fill="none" fill-rule="evenodd">
        <g id="undraw_my_personal_files_re_3q0p">
            <path d="M98.3186643,33.1543213 L40.2112121,33.1543213 C37.2951288,33.1510444 34.9319935,30.787909 34.9287165,27.8718257 L34.9287165,6.28249565 C34.9320326,3.36642855 37.295145,1.00331612 40.2112121,1 L98.3186643,1 C101.234732,1.00331485 103.597845,3.36642802 103.60116,6.28249565 L103.60116,27.8718257 C103.597884,30.7879096 101.234748,33.1510456 98.3186643,33.1543213 L98.3186643,33.1543213 Z" id="路径" fill="#FFFFFF" fill-rule="nonzero"></path>
            <path d="M98.3186643,33.1543213 L40.2112121,33.1543213 C37.2951288,33.1510444 34.9319935,30.787909 34.9287165,27.8718257 L34.9287165,6.28249565 C34.9320326,3.36642855 37.295145,1.00331612 40.2112121,1 L98.3186643,1 C101.234732,1.00331485 103.597845,3.36642802 103.60116,6.28249565 L103.60116,27.8718257 C103.597884,30.7879096 101.234748,33.1510456 98.3186643,33.1543213 L98.3186643,33.1543213 Z M40.2112121,1.45934745 C37.5486987,1.46233331 35.3910498,3.61998222 35.3880639,6.28249565 L35.3880639,27.8718257 C35.3910889,30.5343229 37.5487149,32.6919489 40.2112121,32.6949739 L98.3186643,32.6949739 C100.981161,32.6919489 103.138787,30.5343229 103.141812,27.8718257 L103.141812,6.28249565 C103.138827,3.61998222 100.981178,1.46233331 98.3186643,1.45934745 L40.2112121,1.45934745 Z" id="形状" fill="#3F3D56" fill-rule="nonzero"></path>
            <path d="M120.306154,36.0924983 L89.3990004,36.0924983 C89.2039417,36.0902402 89.0097847,36.0656316 88.8203306,36.0191542 C87.6562568,35.7394725 86.8368379,34.6966682 86.8403937,33.4994727 L86.8403937,22.9941415 C86.8426516,21.5633696 88.0026483,20.404423 89.4334216,20.4034634 L120.306154,20.4034634 C120.722311,20.4023705 121.13246,20.502762 121.501062,20.6959481 C121.647844,20.7720558 121.786659,20.8626323 121.915439,20.9663292 C122.538737,21.4542186 122.901798,22.2026054 122.899194,22.9941415 L122.899194,33.4994727 C122.897599,34.9309058 121.737587,36.0909173 120.306154,36.0924983 L120.306154,36.0924983 Z" id="路径" fill="#FFFFFF" fill-rule="nonzero"></path>
            <path d="M118.234507,35.8628245 C119.637813,32.4521697 121.116146,29.0752004 122.669506,25.7319166 L122.669506,31.4002641 C121.610316,33.0117047 120.38479,34.5074311 119.013101,35.8628245 L118.234507,35.8628245 Z" id="路径" fill="#E6E6E6" fill-rule="nonzero"></path>
            <path d="M121.771487,21.1453277 C118.994731,26.1269508 116.089359,31.0327815 113.055369,35.8628199 L112.527119,35.8628199 C115.611637,30.9569892 118.567538,25.9692415 121.394822,20.8995768 C121.528244,20.9687517 121.654425,21.0510771 121.771487,21.1453277 Z" id="路径" fill="#E6E6E6" fill-rule="nonzero"></path>
            <path d="M101.394827,26.5839992 C99.5802566,29.7922646 97.5778455,32.8905951 95.3980459,35.8628176 L92.2492192,35.8628176 C94.3116999,33.3501871 96.3757011,30.8375566 98.4412228,28.324926 C99.033781,27.6014538 99.6768674,26.8435305 100.565705,26.5495481 L101.394827,26.5839992 Z" id="路径" fill="#E6E6E6" fill-rule="nonzero"></path>
            <path d="M97.2101785,26.0695323 C96.8817336,26.4117462 96.5670806,26.7677405 96.270813,27.1375152 C95.6185396,27.9229993 94.9754532,28.7153736 94.33007,29.5054513 C93.928141,29.996953 93.526212,30.4884548 93.1288764,30.9799566 C93.002693,30.8989112 92.8829113,30.8083071 92.7705854,30.7089416 C91.4505962,29.563205 91.2883244,27.5725866 92.4053222,26.228191 C93.52232,24.8837954 95.5089752,24.6786237 96.8771516,25.766363 C96.9956926,25.8588226 97.1070232,25.9601718 97.2101785,26.0695323 L97.2101785,26.0695323 Z" id="路径" fill="#126EE3" fill-rule="nonzero"></path>
            <path d="M114.970838,28.3019541 L108.935013,26.0947896 L105.937771,24.9992459 C104.961658,24.6432516 103.987841,24.2367291 102.979573,23.9794946 C102.102739,23.7289007 101.171675,23.7408783 100.301578,24.0139456 C99.5257071,24.3010862 98.8156609,24.7416429 98.2138435,25.3093054 C97.9474128,25.5550563 97.6894126,25.808463 97.439843,26.0695255 C97.1113981,26.4117393 96.7967451,26.7677336 96.5004775,27.1375083 C95.8482041,27.9229924 95.2051177,28.7153668 94.5597345,29.5054444 C94.1578055,29.9969461 93.7558765,30.4884479 93.358541,30.9799497 C92.0310268,32.6037429 90.7111685,34.231364 89.398966,35.862813 C89.2224373,35.8607657 89.0467302,35.838417 88.8753099,35.7962077 C90.2441653,34.0966221 91.6191453,32.4008644 93.00025,30.7089347 C93.1587248,30.5114153 93.3217932,30.3115991 93.4825648,30.1140797 C94.1555088,29.2895511 94.8292184,28.465788 95.5036936,27.6427905 C96.0250529,27.0065943 96.5418188,26.3658046 97.1068161,25.7663561 C97.1573444,25.7112344 97.2078726,25.6584095 97.2606975,25.6032878 C98.4067694,24.4181714 99.8376367,23.3708592 101.551003,23.3432984 C102.55927,23.3272212 103.533087,23.6464677 104.470156,23.984088 C105.478423,24.3492693 106.484394,24.7213407 107.492662,25.0911154 L113.569829,27.314357 L115.090269,27.8701789 C115.358987,27.9666396 115.24415,28.4030105 114.970838,28.3019541 Z" id="路径" fill="#E6E6E6" fill-rule="nonzero"></path>
            <path d="M120.306154,36.0924983 L89.3990004,36.0924983 C89.2039417,36.0902402 89.0097847,36.0656316 88.8203306,36.0191542 C87.6562568,35.7394725 86.8368379,34.6966682 86.8403937,33.4994727 L86.8403937,22.9941415 C86.8426516,21.5633696 88.0026483,20.404423 89.4334216,20.4034634 L120.306154,20.4034634 C120.722311,20.4023705 121.13246,20.502762 121.501062,20.6959481 C121.647844,20.7720558 121.786659,20.8626323 121.915439,20.9663292 C122.538737,21.4542186 122.901798,22.2026054 122.899194,22.9941415 L122.899194,33.4994727 C122.897599,34.9309058 121.737587,36.0909173 120.306154,36.0924983 L120.306154,36.0924983 Z M89.4334308,20.8628127 C88.2562442,20.8635197 87.3017576,21.8169563 87.2997526,22.9941415 L87.2997526,33.4994727 C87.2968679,34.4847198 87.9712404,35.3428863 88.9292327,35.5730406 C89.0839661,35.6109577 89.2425154,35.6311244 89.4018139,35.6331508 L120.306154,35.6331508 C121.483977,35.6317763 122.438449,34.6773049 122.439833,33.4994819 L122.439833,22.9941415 C122.441791,22.3427789 122.142737,21.7270385 121.629571,21.3258673 C121.523889,21.2406138 121.409939,21.1661522 121.289424,21.103596 C120.986116,20.944574 120.6486,20.8619271 120.306134,20.8628127 L89.4334308,20.8628127 Z" id="形状" fill="#3F3D56" fill-rule="nonzero"></path>
            <path d="M58.8391981,46.1281743 L14.2824956,46.1281743 C11.3664118,46.1248986 9.0032757,43.7617625 9,40.8456787 L9,33.036772 C9.00331485,30.1207044 11.366428,27.7575912 14.2824956,27.7542764 L58.8391981,27.7542764 C61.7552657,27.7575912 64.1183789,30.1207044 64.1216937,33.036772 L64.1216937,40.8456787 C64.118418,43.7617625 61.755282,46.1248986 58.8391981,46.1281743 L58.8391981,46.1281743 Z" id="路径" fill="#FFFFFF" fill-rule="nonzero"></path>
            <path d="M58.8391981,46.1281743 L14.2824956,46.1281743 C11.3664118,46.1248986 9.0032757,43.7617625 9,40.8456787 L9,33.036772 C9.00331485,30.1207044 11.366428,27.7575912 14.2824956,27.7542764 L58.8391981,27.7542764 C61.7552657,27.7575912 64.1183789,30.1207044 64.1216937,33.036772 L64.1216937,40.8456787 C64.118418,43.7617625 61.755282,46.1248986 58.8391981,46.1281743 L58.8391981,46.1281743 Z M14.2824956,28.2136238 C11.6199822,28.2166097 9.46233331,30.3742586 9.45934745,33.036772 L9.45934745,40.8456787 C9.46237246,43.5081758 11.6199985,45.6658018 14.2824956,45.6688269 L58.8391981,45.6688269 C61.5016953,45.6658018 63.6593213,43.5081758 63.6623463,40.8456787 L63.6623463,33.036772 C63.6593604,30.3742586 61.5017115,28.2166097 58.8391981,28.2136238 L14.2824956,28.2136238 Z" id="形状" fill="#3F3D56" fill-rule="nonzero"></path>
            <path d="M27.3654,41.7359032 L20.202267,41.7359032 C19.4050311,41.7350172 18.7589646,41.0889507 18.7580786,40.2917148 L18.7580786,33.5907267 C18.7589646,32.7934908 19.4050311,32.1474243 20.202267,32.1465383 L27.3654,32.1465383 C28.1626359,32.1474243 28.8087023,32.7934908 28.8095884,33.5907267 L28.8095884,40.291724 C28.8086973,41.0889563 28.1626323,41.7350172 27.3654,41.7359032 Z" id="路径" fill="#126EE3" fill-rule="nonzero"></path>
            <path d="M40.1424226,41.7359032 L32.9792804,41.7359032 C32.1820444,41.7350172 31.535978,41.0889507 31.535092,40.2917148 L31.535092,33.5907267 C31.535978,32.7934908 32.1820444,32.1474243 32.9792804,32.1465383 L40.1424226,32.1465383 C40.9396585,32.1474243 41.5857249,32.7934908 41.5866109,33.5907267 L41.5866109,40.291724 C41.5857198,41.0889563 40.9396549,41.7350172 40.1424226,41.7359032 Z" id="路径" fill="#E6E6E6" fill-rule="nonzero"></path>
            <path d="M52.9194291,41.7359032 L45.7562938,41.7359032 C44.9590578,41.7350172 44.3129914,41.0889507 44.3121054,40.2917148 L44.3121054,33.5907267 C44.3129914,32.7934908 44.9590578,32.1474243 45.7562938,32.1465383 L52.9194291,32.1465383 C53.716665,32.1474243 54.3627314,32.7934908 54.3636174,33.5907267 L54.3636174,40.291724 C54.3627263,41.0889563 53.7166614,41.7350172 52.9194291,41.7359032 Z" id="路径" fill="#E6E6E6" fill-rule="nonzero"></path>
            <path d="M72.0978832,13.7441792 L62.9109343,13.7441792 C62.4035531,13.7441792 61.9922394,13.3328655 61.9922394,12.8254843 C61.9922394,12.3181032 62.4035531,11.9067894 62.9109343,11.9067894 L72.0978832,11.9067894 C72.6052644,11.9067894 73.0165781,12.3181032 73.0165781,12.8254843 C73.0165781,13.3328655 72.6052644,13.7441792 72.0978832,13.7441792 Z" id="路径" fill="#CCCCCC" fill-rule="nonzero"></path>
            <path d="M91.8498235,18.7970012 L62.6812605,18.7970012 C62.1738793,18.7970012 61.7625656,18.3856874 61.7625656,17.8783063 C61.7625656,17.3709251 62.1738793,16.9596114 62.6812605,16.9596114 L91.8498235,16.9596114 C92.3572046,16.9596114 92.7685184,17.3709251 92.7685184,17.8783063 C92.7685184,18.3856874 92.3572046,18.7970012 91.8498235,18.7970012 Z" id="路径" fill="#CCCCCC" fill-rule="nonzero"></path>
            <circle id="椭圆形" fill="#126EE3" fill-rule="nonzero" cx="52.0005275" cy="15.3518953" r="6.15959663"></circle>
            <g id="编组-23" transform="translate(55.623766, 40.845679)" fill-rule="nonzero">
                <path d="M63.3899478,32.1543213 L5.28249565,32.1543213 C2.36641178,32.1510456 0.00327570257,29.7879096 0,26.8718257 L0,5.28249565 C0.00331485483,2.36642802 2.36642802,0.00331485483 5.28249565,0 L63.3899478,0 C66.3060154,0.00331485483 68.6691286,2.36642802 68.6724434,5.28249565 L68.6724434,26.8718257 C68.6691677,29.7879096 66.3060317,32.1510456 63.3899478,32.1543213 Z" id="路径" fill="#FFFFFF"></path>
                <path d="M63.3899478,32.1543213 L5.28249565,32.1543213 C2.36641178,32.1510456 0.00327570257,29.7879096 0,26.8718257 L0,5.28249565 C0.00331485483,2.36642802 2.36642802,0.00331485483 5.28249565,0 L63.3899478,0 C66.3060154,0.00331485483 68.6691286,2.36642802 68.6724434,5.28249565 L68.6724434,26.8718257 C68.6691677,29.7879096 66.3060317,32.1510456 63.3899478,32.1543213 Z M5.28249565,0.459347448 C2.61998222,0.46233331 0.46233331,2.61998222 0.459347448,5.28249565 L0.459347448,26.8718257 C0.462372462,29.5343229 2.61999846,31.6919489 5.28249565,31.6949739 L63.3899478,31.6949739 C66.052445,31.6919489 68.210071,29.5343229 68.213096,26.8718257 L68.213096,5.28249565 C68.2101101,2.61998222 66.0524612,0.46233331 63.3899478,0.459347448 L5.28249565,0.459347448 Z" id="形状" fill="#3F3D56"></path>
            </g>
            <path d="M83.5380026,49.3995538 L73.7776387,49.3995538 C73.4442921,49.4000759 73.1360429,49.2225381 72.9692184,48.9339383 C72.8023938,48.6453385 72.8023938,48.2896178 72.9692184,48.001018 C73.1360429,47.7124182 73.4442921,47.5348803 73.7776387,47.5354024 L83.5380026,47.5354024 C84.0522019,47.5362107 84.4686152,47.9532782 84.4686152,48.4674781 C84.4686152,48.981678 84.0522019,49.3987455 83.5380026,49.3995538 L83.5380026,49.3995538 Z" id="路径" fill="#126EE3" fill-rule="nonzero"></path>
            <path d="M105.417505,53.2117598 L73.7776387,53.2117598 C73.2628688,53.2117598 72.8455653,52.7944563 72.8455653,52.2796864 C72.8455653,51.7649165 73.2628688,51.347613 73.7776387,51.347613 L105.417505,51.347613 C105.932275,51.347613 106.349578,51.7649165 106.349578,52.2796864 C106.349578,52.7944563 105.932275,53.2117598 105.417505,53.2117598 L105.417505,53.2117598 Z" id="路径" fill="#E6E6E6" fill-rule="nonzero"></path>
            <path d="M105.417505,57.5876598 L73.7776387,57.5876598 C73.444641,57.5876598 73.1369383,57.4100076 72.9704394,57.1216231 C72.8039405,56.8332386 72.8039405,56.4779342 72.9704394,56.1895497 C73.1369383,55.9011651 73.444641,55.723513 73.7776387,55.723513 L105.417505,55.723513 C105.932275,55.723513 106.349578,56.1408165 106.349578,56.6555864 C106.349578,57.1703563 105.932275,57.5876598 105.417505,57.5876598 L105.417505,57.5876598 Z" id="路径" fill="#E6E6E6" fill-rule="nonzero"></path>
            <path d="M105.417505,61.9635632 L73.7776387,61.9635632 C73.4442921,61.9640853 73.1360429,61.7865474 72.9692184,61.4979476 C72.8023938,61.2093479 72.8023938,60.8536271 72.9692184,60.5650274 C73.1360429,60.2764276 73.4442921,60.0988897 73.7776387,60.0994118 L105.417505,60.0994118 C105.931704,60.1002201 106.348117,60.5172876 106.348117,61.0314875 C106.348117,61.5456874 105.931704,61.9627549 105.417505,61.9635632 L105.417505,61.9635632 Z" id="路径" fill="#E6E6E6" fill-rule="nonzero"></path>
            <path d="M105.417505,66.339462 L73.7776387,66.339462 C73.2628688,66.339462 72.8455653,65.9221585 72.8455653,65.4073886 C72.8455653,64.8926187 73.2628688,64.4753152 73.7776387,64.4753152 L105.417505,64.4753152 C105.932275,64.4753152 106.349578,64.8926187 106.349578,65.4073886 C106.349578,65.9221585 105.932275,66.339462 105.417505,66.339462 L105.417505,66.339462 Z" id="路径" fill="#E6E6E6" fill-rule="nonzero"></path>
            <rect id="矩形" x="0" y="0" width="134" height="74"></rect>
        </g>
    </g>
</svg>