<?xml version="1.0" encoding="UTF-8"?>
<svg id="图层_1" data-name="图层 1"  fill="currentColor" xmlns="http://www.w3.org/2000/svg" viewBox="0 0 200 200"><path d="M198.27,97,151.73,16.4a6,6,0,0,0-5.19-3H53.46a6,6,0,0,0-5.19,3L1.73,97a6,6,0,0,0,0,6l46.54,80.6a6,6,0,0,0,5.19,3h93.08a6,6,0,0,0,5.19-3L198.27,103A6,6,0,0,0,198.27,97Zm-47.74,13.31a5,5,0,0,1-6.84-1.78l-23-39.1L79.89,140a5,5,0,0,1-2.21,3.19l-.2.11a5,5,0,0,1-7.9-3.53L42.78,97.68a5,5,0,0,1,8.44-5.36l23.42,36.81,41-70.88A5,5,0,0,1,118,54.9c.2-.11.4-.19.61-.28a5,5,0,0,1,7.36,4l26.33,44.87A5,5,0,0,1,150.53,110.31Z"/></svg>