<?xml version="1.0" standalone="no"?><!DOCTYPE svg PUBLIC "-//W3C//DTD SVG 1.1//EN" "http://www.w3.org/Graphics/SVG/1.1/DTD/svg11.dtd"><svg t="1740634147532" class="icon" viewBox="0 0 1024 1024" version="1.1" fill="currentColor" xmlns="http://www.w3.org/2000/svg" p-id="36519" xmlns:xlink="http://www.w3.org/1999/xlink" width="200" height="200"><path d="M542.9248 572.16a61.44 61.44 0 0 0-59.5456 0.512l-128.2048 72.6016 122.5728 76.1344c9.728 6.0416 20.992 9.2672 32.4608 9.2672h3.584a61.44 61.44 0 0 0 32.3584-9.216l127.0784-78.6432-130.304-70.656zM261.9904 337.408a61.44 61.44 0 0 0 61.696 0L512 228.352l188.4672 109.1584a61.44 61.44 0 0 0 61.44 0.1024l130.4576-75.0592-350.208-202.5472a60.7744 60.7744 0 0 0-60.3648 0L132.608 262.0928l129.3824 75.264z" p-id="36520"></path><path d="M352.768 388.352a61.44 61.44 0 0 0-30.6688 53.1968v154.88l129.9456-73.1648a61.44 61.44 0 0 0 31.232-53.504V312.832L352.768 388.352z" p-id="36521"></path><path d="M482.6112 822.4768a61.44 61.44 0 0 0-30.6688-53.504l-188.3136-109.056v-218.112a61.44 61.44 0 0 0-31.0784-53.4016L102.4 314.3168v403.6608a60.16 60.16 0 0 0 30.208 52.736L481.792 972.8l0.8192-150.3232zM792.1664 388.352a61.44 61.44 0 0 0-30.7712 53.248v218.3168l-188.5696 109.1584a61.44 61.44 0 0 0-30.6176 53.1456v151.04l349.184-202.0352a60.9792 60.9792 0 0 0 30.208-52.736V313.8048l-129.4336 74.5472z" p-id="36522"></path><path d="M702.464 441.4976a61.44 61.44 0 0 0-30.6688-53.1456l-130.048-75.52v155.648c0 22.5792 12.3904 43.3664 32.256 54.0672l128.4096 69.0176V441.4976z" p-id="36523"></path></svg>