<?xml version="1.0" encoding="UTF-8"?>
<svg width="20px" height="20px" viewBox="0 0 20 20" version="1.1" xmlns="http://www.w3.org/2000/svg" xmlns:xlink="http://www.w3.org/1999/xlink">
    <!-- Generator: Sketch 63 (92445) - https://sketch.com -->
    <desc>Created with Sketch.</desc>
    <g id="画板" stroke="none" stroke-width="1" fill="none" fill-rule="evenodd">
            <rect id="矩形" x="0" y="0" width="20" height="20"></rect>
            <path d="M17,1 C18.1045695,1 19,1.8954305 19,3 L19,8 L15,8 C12.790861,8 11,9.790861 11,12 L11,12 L11,19 L3,19 C1.8954305,19 1,18.1045695 1,17 L1,3 C1,1.8954305 1.8954305,1 3,1 L17,1 Z M8,8 L4,8 C3.44771525,8 3,8.44771525 3,9 C3,9.51283584 3.38604019,9.93550716 3.88337887,9.99327227 L4,10 L8,10 C8.55228475,10 9,9.55228475 9,9 C9,8.44771525 8.55228475,8 8,8 Z M11,4 L4,4 C3.44771525,4 3,4.44771525 3,5 C3,5.51283584 3.38604019,5.93550716 3.88337887,5.99327227 L4,6 L11,6 C11.5522847,6 12,5.55228475 12,5 C12,4.44771525 11.5522847,4 11,4 Z" id="形状结合" fill="currentColor"></path>
            <path d="M16,9 C17.6568542,9 19,10.3431458 19,12 C19,13.6568542 17.6568542,15 16,15 C14.3431458,15 13,13.6568542 13,12 C13,10.3431458 14.3431458,9 16,9 Z M16,10 L15.3075538,11.0469295 L14.097887,11.381966 L14.8795985,12.3640405 L14.8244295,13.618034 L16,13.1780599 L17.1755705,13.618034 L17.1204015,12.3640405 L17.902113,11.381966 L16.6924462,11.0469295 L16,10 Z" id="形状结合" fill="currentColor"></path>
            <path d="M16.0008746,15.7646837 C16.7691816,15.7646837 17.4700315,15.4758658 18.0007763,15.0008782 L18.0008746,18 L16.4088545,17.2885886 C16.1492387,17.1725765 15.8525105,17.1725765 15.5928947,17.2885886 L14.0008746,18 L13.9990116,14.9991214 C14.5299905,15.4751535 15.2316208,15.7646837 16.0008746,15.7646837 Z" id="形状结合" fill="currentColor"></path>
    </g>
</svg>