<?xml version="1.0" encoding="UTF-8"?>
<svg width="22px" height="12px" viewBox="0 0 22 12" version="1.1" xmlns="http://www.w3.org/2000/svg" xmlns:xlink="http://www.w3.org/1999/xlink">
    <title>形状结合</title>
    <g id="AnyRobot" stroke="none" stroke-width="1" fill="none" fill-rule="evenodd">
        <g id="AR备份" transform="translate(-16.000000, -310.000000)" fill="#000000" fill-rule="nonzero">
            <g id="编组" transform="translate(0.000000, 53.000000)">
                <g id="编组-2" transform="translate(16.000000, 110.000000)">
                    <path d="M19.1806857,147 C20.3144323,147.281357 21.0565362,147.87455 21.4931618,148.600095 C21.933158,149.331243 22.068943,150.207013 21.9686882,151.054034 C21.8683573,151.901464 21.5326201,152.711566 21.0407985,153.307328 C20.5492304,153.902783 19.9090793,154.276596 19.1959672,154.276596 L12.4257991,154.276596 L10.9282865,151.723404 L18.6035867,151.723404 L18.636912,151.698996 C18.9289335,151.485013 19.1144151,151.259949 19.2141631,151.031106 C19.314494,150.800962 19.3244789,150.575106 19.2784316,150.367864 C19.1878323,149.96017 18.8827848,149.630094 18.636912,149.44994 L18.6035867,149.425532 L8.61370693,149.425532 L12.6685041,159 L9.64935281,159 L6.1445889,150.76103 L2.63979965,159 L0,159 L4.75075238,147.664144 L4.75075238,147 L19.1806857,147 Z M18.0818566,157 L20,159 L15.7050164,159 L14,157 L18.0818566,157 Z" id="形状结合"></path>
                </g>
            </g>
        </g>
    </g>
</svg>