<svg id="图层_1"  fill="currentColor" data-name="图层 1" xmlns="http://www.w3.org/2000/svg" viewBox="0 0 200 200"><path  d="M45.89,50.31H43.35L.11,153.37a1.37,1.37,0,0,0,1.26,1.9H25.43a1.37,1.37,0,0,0,1.27-.84L57.65,80a1.35,1.35,0,0,0,0-1l-.37-1Z"/><path  d="M118.68,56.33l32.86,19.53a2.5,2.5,0,0,0,1.32.38h20.36c5.35,0,10.39-2.53,14.31-10.23L200,45.21H122.51C112.41,45.46,111.09,51,118.68,56.33Z"/><path  d="M140,129.52a1.22,1.22,0,0,0-.65-.18h-28.6a14,14,0,0,0-6.19,1.37l-35-83.42A2.74,2.74,0,0,0,67,45.61H45.31a2.74,2.74,0,0,0-2.54,3.79l43,104.17a2.72,2.72,0,0,0,1.71,1.57l-.09.16,5.56,0h67.2c7.54.43,8.86-6.83,3.82-11.52Z"/><path  d="M187.32,110.09,111.44,62.84c-3.52-2.33-7.45-5.63-7.79-9.06L91.89,74.27C89.15,79.89,90,86.68,98,91.36l75.88,47.26c3.51,2.33,7.45,5.62,7.79,9l11.75-20.48C196.12,121.56,195.31,114.78,187.32,110.09Z"/></svg>