<svg id="图层_1" data-name="图层 1"  fill="currentColor" xmlns="http://www.w3.org/2000/svg" viewBox="0 0 200 200"><path d="M185.51,16.25h-171a10,10,0,0,0-10,10v110a10,10,0,0,0,10,10h171a10,10,0,0,0,10-10v-110A10,10,0,0,0,185.51,16.25ZM71.73,111.72a5,5,0,0,1-7.08,0l-27-27a5,5,0,0,1-1.46-8.32l0,0,.05-.07c.06-.06.13-.1.19-.15L64.55,50.61A5,5,0,1,1,71.27,58L47.07,80l24.66,24.66A5,5,0,0,1,71.73,111.72ZM118.27,41.8,90,124a5,5,0,0,1-4.73,3.38,5.16,5.16,0,0,1-1.63-.27,5,5,0,0,1-3.1-6.36l28.24-82.15a5,5,0,1,1,9.46,3.25Zm45.92,41.64a5.12,5.12,0,0,1-1.8,1.26l-27,27a5,5,0,1,1-7.07-7.07L153,80,128.74,58a5,5,0,1,1,6.72-7.4l28.09,25.51c.06,0,.13.09.19.15l.06.07,0,0A5,5,0,0,1,164.19,83.44Z"/><path d="M180,163H20a8,8,0,1,0,0,16H180a8,8,0,0,0,0-16Z"/></svg>