<svg width="18" height="18" viewBox="0 0 18 18" fill="currentColor" xmlns="http://www.w3.org/2000/svg">
<g clip-path="url(#clip0_91_330)">
<path d="M16.2872 18H1.62441C1.2518 18 0.89445 17.8645 0.630975 17.6234C0.367501 17.3823 0.219482 17.0552 0.219482 16.7142V1.28577C0.219482 0.944764 0.367501 0.617723 0.630975 0.376594C0.89445 0.135465 1.2518 0 1.62441 0H16.3755C16.7481 0 17.1055 0.135465 17.369 0.376594C17.6324 0.617723 17.7805 0.944764 17.7805 1.28577V16.6337C17.7805 16.8131 17.7418 16.9908 17.6668 17.1566C17.5917 17.3224 17.4817 17.473 17.3431 17.5999C17.2044 17.7268 17.0398 17.8274 16.8586 17.8961C16.6775 17.9647 16.4833 18 16.2872 18ZM2.6784 9.00014H6.87836C7.26071 9.00014 7.58437 8.72535 7.59475 8.37542C7.5974 8.28951 7.58121 8.20397 7.54711 8.12388C7.51302 8.04379 7.46173 7.97077 7.39626 7.90914C7.3308 7.8475 7.25249 7.79851 7.16598 7.76506C7.07947 7.7316 6.9865 7.71437 6.89258 7.71436H2.69263C2.31027 7.71436 1.98661 7.98888 1.97623 8.33908C1.97358 8.42499 1.98977 8.51053 2.02387 8.59062C2.05796 8.67071 2.10926 8.74373 2.17472 8.80536C2.24018 8.86699 2.31849 8.91599 2.405 8.94944C2.49151 8.9829 2.58448 9.00013 2.6784 9.00014ZM2.6784 6.42859H8.28298C8.66563 6.42859 8.989 6.15408 8.99967 5.80388C9.00229 5.71798 8.98606 5.63248 8.95195 5.55242C8.91784 5.47236 8.86654 5.39937 8.80108 5.33777C8.73562 5.27617 8.65733 5.2272 8.57083 5.19376C8.48434 5.16032 8.3914 5.14309 8.29751 5.14309H2.69263C2.31027 5.14309 1.98661 5.41761 1.97623 5.7678C1.97362 5.8537 1.98985 5.9392 2.02396 6.01926C2.05807 6.09932 2.10937 6.17231 2.17483 6.23391C2.24029 6.29552 2.31858 6.34448 2.40507 6.37792C2.49157 6.41136 2.58451 6.42859 2.6784 6.42859ZM15.3218 2.57127H2.69292C2.30998 2.57127 1.98661 2.84606 1.97623 3.19626C1.97358 3.28218 1.98977 3.36771 2.02387 3.4478C2.05796 3.52789 2.10926 3.60091 2.17472 3.66254C2.24018 3.72418 2.31849 3.77317 2.405 3.80662C2.49151 3.84008 2.58448 3.85732 2.6784 3.85732H15.3067C15.6897 3.85732 16.013 3.58253 16.0237 3.23261C16.0264 3.14666 16.0102 3.06111 15.976 2.981C15.9419 2.90089 15.8906 2.82786 15.8251 2.76622C15.7596 2.70459 15.6813 2.6556 15.5947 2.62216C15.5082 2.58872 15.4152 2.57151 15.3212 2.57155L15.3218 2.57127ZM13.5432 6.42859C11.8086 6.43971 10.3984 7.74556 10.4049 9.33297C10.4062 9.7381 10.5007 10.1384 10.6822 10.5079C10.8638 10.8774 11.1283 11.2078 11.4586 11.4776V16.3667C11.4586 16.5222 11.6415 16.6201 11.7894 16.5433C12.3069 16.2748 13.2743 15.7681 13.5165 15.6075C13.5313 15.5976 13.5492 15.5922 13.5675 15.5921C13.5859 15.592 13.6038 15.5972 13.6187 15.6069C13.8647 15.767 14.826 16.2729 15.3417 16.542C15.3754 16.5595 15.4136 16.5687 15.4524 16.5685C15.4912 16.5684 15.5293 16.5589 15.5628 16.541C15.5963 16.5232 15.6242 16.4976 15.6435 16.4668C15.6629 16.4361 15.6731 16.4012 15.6731 16.3657V11.4776C16.0049 11.2065 16.2703 10.8743 16.4519 10.5027C16.6334 10.1311 16.727 9.72862 16.7265 9.32158C16.7265 7.7168 15.2987 6.41747 13.5429 6.42886L13.5432 6.42859ZM13.5989 10.9283C13.3627 10.9323 13.1281 10.8928 12.909 10.8119C12.6899 10.7311 12.4909 10.6107 12.3239 10.4578C12.1568 10.3049 12.0252 10.1228 11.9369 9.92231C11.8486 9.72181 11.8054 9.50707 11.8098 9.29093C11.8276 8.43157 12.5935 7.73064 13.5325 7.71463C13.7687 7.71055 14.0033 7.7501 14.2224 7.83094C14.4415 7.91178 14.6405 8.03223 14.8075 8.18509C14.9745 8.33795 15.1061 8.52008 15.1945 8.72058C15.2828 8.92107 15.326 9.13582 15.3215 9.35196C15.3041 10.2113 14.5379 10.9125 13.5989 10.9283ZM14.2681 14.4302C14.2681 14.4858 14.2077 14.5252 14.1505 14.5062C13.9584 14.443 13.566 14.3044 13.566 14.3044C13.5636 14.3027 13.566 14.3044 13.566 14.3044C13.5381 14.3233 13.1738 14.4435 12.9809 14.5064C12.9676 14.5108 12.9534 14.5122 12.9394 14.5104C12.9254 14.5087 12.912 14.5039 12.9005 14.4964C12.889 14.489 12.8796 14.4791 12.8731 14.4676C12.8666 14.4561 12.8632 14.4434 12.8632 14.4305V12.2143H14.2681V14.4299V14.4302ZM13.5657 15.557C13.5746 15.557 13.5746 15.5614 13.5669 15.5692C13.5586 15.5614 13.558 15.557 13.5657 15.557Z"/>
</g>
<defs>
<clipPath id="clip0_91_330">
<rect width="18" height="18" fill="white"/>
</clipPath>
</defs>
</svg>
