<?xml version="1.0" standalone="no"?><!DOCTYPE svg PUBLIC "-//W3C//DTD SVG 1.1//EN" "http://www.w3.org/Graphics/SVG/1.1/DTD/svg11.dtd"><svg t="1729735444302" class="icon" viewBox="0 0 1024 1024" version="1.1" fill="currentColor" xmlns="http://www.w3.org/2000/svg" p-id="11929" xmlns:xlink="http://www.w3.org/1999/xlink" width="200" height="200"><path d="M964.164776 710.686567l-49.74806-39.049552a158.185075 158.185075 0 0 0 0-45.850746l49.900896-39.049553a11.615522 11.615522 0 0 0 2.827463-15.283582l-47.149851-81.767164a11.768358 11.768358 0 0 0-14.442985-5.043582l-58.688955 23.689552a180.346269 180.346269 0 0 0-39.89015-22.925373l-8.864477-62.509851A12.07403 12.07403 0 0 0 786.340299 412.656716H691.964179A11.997612 11.997612 0 0 0 680.119403 422.514627l-8.78806 62.509851a172.933731 172.933731 0 0 0-39.890149 22.925373L573.134328 484.56597a11.768358 11.768358 0 0 0-14.366567 5.043582l-47.149851 81.767164a11.69194 11.69194 0 0 0 2.827463 15.283583l49.74806 39.049552a158.185075 158.185075 0 0 0 0 45.850746L514.139701 710.686567a11.615522 11.615522 0 0 0-2.827462 15.283582l47.149851 81.767164a11.69194 11.69194 0 0 0 14.366567 5.043583l58.765373-23.689553a178.588657 178.588657 0 0 0 39.890149 22.925373l8.635224 62.433433a11.997612 11.997612 0 0 0 11.69194 9.934329h94.528956a11.997612 11.997612 0 0 0 11.69194-9.934329l8.78806-62.50985a172.933731 172.933731 0 0 0 39.890149-22.925374l58.765373 23.689553a11.768358 11.768358 0 0 0 14.366567-5.043582L966.992239 725.970149a11.69194 11.69194 0 0 0-2.827463-15.283582z m-224.974328 36.374926a98.579104 98.579104 0 1 1 98.655522-98.579105 98.655522 98.655522 0 0 1-98.655522 98.579105z" p-id="11930"></path><path d="M739.190448 581.998806a66.483582 66.483582 0 1 0 66.56 66.483582 66.56 66.56 0 0 0-66.56-66.483582zM82.378507 357.100896h723.601194a27.128358 27.128358 0 0 0 26.975523-27.128359V166.743881a27.128358 27.128358 0 0 0-27.128358-27.128359H82.378507a27.128358 27.128358 0 0 0-27.128358 27.128359v163.228656a27.128358 27.128358 0 0 0 27.128358 27.128359z m53.492538-140.685374a9.170149 9.170149 0 0 1 9.170149-9.170149h63.961791a9.170149 9.170149 0 0 1 9.170149 9.170149v63.961791a9.170149 9.170149 0 0 1-9.170149 9.17015H145.19403a9.170149 9.170149 0 0 1-9.170149-9.17015zM82.378507 620.589851h413.726568a57.389851 57.389851 0 0 1-11.921194-72.291344l47.073432-81.614328a57.695522 57.695522 0 0 1 70.304478-25.065075l0.993433 0.38209 36.069254 14.595821 3.28597-1.910448 5.654925-39.890149a52.957612 52.957612 0 0 1 3.362388-11.69194h-568.549254a27.128358 27.128358 0 0 0-27.128358 27.128358v163.228657a27.128358 27.128358 0 0 0 27.128358 27.128358z m53.492538-140.761791a9.170149 9.170149 0 0 1 9.170149-9.17015h63.961791a9.170149 9.170149 0 0 1 9.170149 9.17015v63.961791a9.170149 9.170149 0 0 1-9.170149 9.170149H145.19403a9.170149 9.170149 0 0 1-9.170149-9.170149zM647.412537 880.869254l-5.425671-38.208955-3.28597-1.910448-36.145672 14.595821a58.001194 58.001194 0 0 1-71.221493-24.606568l-47.379104-82.072835a57.313433 57.313433 0 0 1 14.290149-73.743284l9.781493-7.641791h-425.647762a27.128358 27.128358 0 0 0-27.128358 27.128358v163.228657a27.128358 27.128358 0 0 0 27.128358 27.128358h565.492538l-0.458508-2.216119z m-429.239403-73.284776a9.170149 9.170149 0 0 1-9.170149 9.170149H145.19403a9.170149 9.170149 0 0 1-9.170149-9.170149v-63.961791a9.170149 9.170149 0 0 1 9.170149-9.17015h63.961791a9.170149 9.170149 0 0 1 9.170149 9.17015z" p-id="11931"></path></svg>